<svg xmlns="http://www.w3.org/2000/svg" xmlns:xlink="http://www.w3.org/1999/xlink" viewBox="0 0 2308.62 781.89"><defs><style>.cls-1,.cls-42,.cls-43,.cls-44{fill:none;}.cls-2{opacity:0.9;}.cls-3{fill:#c135dc;}.cls-4{fill:url(#Безымянный_градиент);}.cls-5{fill:#5d209e;}.cls-6{fill:url(#Безымянный_градиент_2);}.cls-7{fill:#fff;}.cls-8{fill:#3b167d;}.cls-9{fill:url(#Безымянный_градиент_3);}.cls-10{fill:url(#Безымянный_градиент_4);}.cls-11{fill:#ffa860;}.cls-12{fill:url(#Безымянный_градиент_16);}.cls-13{fill:#2f3f68;}.cls-14{clip-path:url(#clip-path);}.cls-15{fill:#281757;}.cls-16{fill:url(#Безымянный_градиент_18);}.cls-17{clip-path:url(#clip-path-2);}.cls-18{fill:url(#Безымянный_градиент_18-2);}.cls-19{clip-path:url(#clip-path-3);}.cls-20{fill:url(#Безымянный_градиент_22);}.cls-21{fill:url(#Безымянный_градиент_22-2);}.cls-22{fill:url(#Безымянный_градиент_22-3);}.cls-23{fill:#00afe4;}.cls-24{fill:url(#Безымянный_градиент_20);}.cls-25{fill:url(#Безымянный_градиент_21);}.cls-26{fill:url(#Безымянный_градиент_22-4);}.cls-27{fill:url(#Безымянный_градиент_23);}.cls-28{fill:url(#Безымянный_градиент_22-5);}.cls-29{fill:#ffcd98;}.cls-30{fill:url(#Безымянный_градиент_16-2);}.cls-31{clip-path:url(#clip-path-5);}.cls-32{fill:url(#Безымянный_градиент_18-3);}.cls-33{clip-path:url(#clip-path-6);}.cls-34{fill:url(#Безымянный_градиент_18-4);}.cls-35{fill:url(#Безымянный_градиент_22-6);}.cls-36{clip-path:url(#clip-path-7);}.cls-37{fill:url(#Безымянный_градиент_20-2);}.cls-38{fill:url(#Безымянный_градиент_21-2);}.cls-39{fill:url(#Безымянный_градиент_22-7);}.cls-40{fill:url(#Безымянный_градиент_23-2);}.cls-41{fill:#fefefe;}.cls-42,.cls-43,.cls-44{stroke:#fff;stroke-miterlimit:10;}.cls-42{stroke-linecap:round;stroke-width:3px;}.cls-43{stroke-width:2px;}</style><linearGradient id="Безымянный_градиент" x1="406.65" y1="802.93" x2="1972.65" y2="1162.93" gradientTransform="matrix(1, 0, 0, -1, 0, 1314)" gradientUnits="userSpaceOnUse"><stop offset="0" stop-color="#ab3ae0"/><stop offset="1" stop-color="#d535e5" stop-opacity="0"/></linearGradient><linearGradient id="Безымянный_градиент_2" x1="38.7" y1="1904.98" x2="1968.2" y2="337.48" gradientTransform="matrix(1, 0, 0, -1, 0, 1314)" gradientUnits="userSpaceOnUse"><stop offset="0" stop-color="#6240d5"/><stop offset="1" stop-color="#480c7d" stop-opacity="0.35"/></linearGradient><radialGradient id="Безымянный_градиент_3" cx="3137.47" cy="507.48" r="1" gradientTransform="matrix(1, 32.5, 368.52, -11.34, -188689.06, -95609.74)" gradientUnits="userSpaceOnUse"><stop offset="0" stop-color="#4c2aa5"/><stop offset="1" stop-color="#431f83"/></radialGradient><radialGradient id="Безымянный_градиент_4" cx="3155.81" cy="507.94" r="1" gradientTransform="matrix(115.56, 211.91, 261.19, -142.43, -495868.83, -596007.76)" gradientUnits="userSpaceOnUse"><stop offset="0" stop-color="#fcd3df" stop-opacity="0.12"/><stop offset="1" stop-color="#e0a0c6"/></radialGradient><linearGradient id="Безымянный_градиент_16" x1="-73.42" y1="-813.57" x2="-79.13" y2="-713.36" gradientTransform="translate(1748.57 1190)" gradientUnits="userSpaceOnUse"><stop offset="0" stop-color="#ffb770"/><stop offset="0.37" stop-color="#ffae7a"/><stop offset="1" stop-color="#ff9594"/></linearGradient><clipPath id="clip-path"><path class="cls-1" d="M1676.89,464.5s-10.8,19.5-40.1,22.4-26.7,1.6-26.7,1.6-3.3,35-5.6,52.5-10.8,44.5-10.8,44.5h-20.5s-3.4-75.9-4.2-84.3-3-25.1,1.2-33.4,4-3.2,4-3.2Z"/></clipPath><linearGradient id="Безымянный_градиент_18" x1="1490.28" y1="-603.78" x2="1615.42" y2="-684.46" gradientTransform="translate(0 1190)" gradientUnits="userSpaceOnUse"><stop offset="0" stop-color="#ff4bc4"/><stop offset="1" stop-color="#604fc4" stop-opacity="0"/></linearGradient><clipPath id="clip-path-2"><path class="cls-1" d="M1711.19,464.5s-10.8,19.5-40.1,22.4-26.7,1.6-26.7,1.6.7,35-1.6,52.5-5.8,42.5-5.8,42.5h-19.7s-13.2-74-14-82.3-4.2-21.2,0-29.5,5.2-7.2,5.2-7.2Z"/></clipPath><linearGradient id="Безымянный_градиент_18-2" x1="1543.83" y1="-615.26" x2="1656.38" y2="-687.82" xlink:href="#Безымянный_градиент_18"/><clipPath id="clip-path-3"><path class="cls-1" d="M1623.29,376.9c5.6-23.4,12.7-37.3,34.2-38.1,14.8-.6,25.6-1.2,36.5,2.3s21.5,14.2,27.1,31.5c10.8,33.6,3.6,39.4-.3,45.9s-13.7,6.5-37.3,5.6-45.8,0-45.8,0Z"/></clipPath><linearGradient id="Безымянный_градиент_22" x1="1628.84" y1="922" x2="1730.09" y2="952.25" gradientTransform="matrix(1, 0, 0, -1, 0, 1318)" gradientUnits="userSpaceOnUse"><stop offset="0" stop-color="#281757"/><stop offset="0.16" stop-color="#301961"/><stop offset="0.43" stop-color="#441d7b"/><stop offset="0.78" stop-color="#6525a6"/><stop offset="1" stop-color="#7c2ac4"/></linearGradient><linearGradient id="Безымянный_градиент_22-2" x1="1631.02" y1="914.71" x2="1732.27" y2="944.96" xlink:href="#Безымянный_градиент_22"/><linearGradient id="Безымянный_градиент_22-3" x1="1634.89" y1="901.76" x2="1736.14" y2="932.01" xlink:href="#Безымянный_градиент_22"/><linearGradient id="Безымянный_градиент_20" x1="1698.11" y1="-758.01" x2="1670.7" y2="-806.47" gradientTransform="translate(0 1190)" gradientUnits="userSpaceOnUse"><stop offset="0" stop-color="#6086c4"/><stop offset="1" stop-color="#00afe4" stop-opacity="0"/></linearGradient><linearGradient id="Безымянный_градиент_21" x1="1687.24" y1="-774.11" x2="1722.98" y2="-844.11" gradientTransform="translate(0 1190)" gradientUnits="userSpaceOnUse"><stop offset="0" stop-color="#60e5c4"/><stop offset="0.57" stop-color="#608ac4" stop-opacity="0.03"/><stop offset="1" stop-color="#6086c4" stop-opacity="0"/></linearGradient><linearGradient id="Безымянный_градиент_22-4" x1="1554.81" y1="-810.56" x2="1691.27" y2="-769.79" gradientTransform="translate(0 1190)" xlink:href="#Безымянный_градиент_22"/><linearGradient id="Безымянный_градиент_23" x1="1670.52" y1="-843.37" x2="1671.11" y2="-870.55" gradientTransform="translate(0 1190)" gradientUnits="userSpaceOnUse"><stop offset="0" stop-color="#ffcd98"/><stop offset="0.35" stop-color="#ffc397"/><stop offset="0.94" stop-color="#ffa994"/><stop offset="1" stop-color="#ffa694"/></linearGradient><linearGradient id="Безымянный_градиент_22-5" x1="1649.01" y1="-897.11" x2="1705.95" y2="-875.45" gradientTransform="translate(0 1190)" xlink:href="#Безымянный_градиент_22"/><linearGradient id="Безымянный_градиент_16-2" x1="10915.61" y1="-906.9" x2="10908.52" y2="-782.41" gradientTransform="matrix(-1, 0, 0, 1, 12145.31, 1190)" xlink:href="#Безымянный_градиент_16"/><clipPath id="clip-path-5"><path class="cls-1" d="M1247.69,423.4s14.1,23.8,48.5,31.6c29.9,6.9,36.8,5,36.8,5s-.5,41.9,2.2,65.3,7.9,61.3,7.9,61.3h22.7s9.6-92.4,10.6-103.5,3.6-30.6-1.5-41.6a71.43,71.43,0,0,0-11.7-18Z"/></clipPath><linearGradient id="Безымянный_градиент_18-3" x1="10675.27" y1="-612.04" x2="10825.04" y2="-708.6" gradientTransform="matrix(-1, 0, 0, 1, 12145.31, 1190)" xlink:href="#Безымянный_градиент_18"/><clipPath id="clip-path-6"><path class="cls-1" d="M1213.59,423.4s14.1,23.8,48.5,31.6c29.9,6.9,36.8,5,36.8,5s-.5,41.9,2.2,65.3,7.9,61.3,7.9,61.3h22.7s11.3-92.4,12.3-103.5,4-36.5-1-47.6-9.4-12-9.4-12Z"/></clipPath><linearGradient id="Безымянный_градиент_18-4" x1="10713.57" y1="-612.9" x2="10863.34" y2="-709.47" gradientTransform="matrix(-1, 0, 0, 1, 12145.31, 1190)" xlink:href="#Безымянный_градиент_18"/><linearGradient id="Безымянный_градиент_22-6" x1="10870.59" y1="-942.83" x2="10964.57" y2="-867.18" gradientTransform="matrix(-1, 0, 0, 1, 12145.31, 1190)" xlink:href="#Безымянный_градиент_22"/><clipPath id="clip-path-7"><path class="cls-1" d="M1320.79,308.6c-3.4-13.9-22.6-27.2-43-30s-42.3-.7-51.7,1.4-24,13.5-25,33.4-1.9,43.7,3.6,50.7,3.8,7.9,36.8,7,63.9,0,63.9,0Z"/></clipPath><linearGradient id="Безымянный_градиент_20-2" x1="10914.12" y1="-813" x2="10882.39" y2="-869.1" gradientTransform="matrix(-1, 0, 0, 1, 12145.31, 1190)" xlink:href="#Безымянный_градиент_20"/><linearGradient id="Безымянный_градиент_21-2" x1="10897.56" y1="-824.41" x2="10944.78" y2="-916.86" gradientTransform="matrix(-1, 0, 0, 1, 12145.31, 1190)" xlink:href="#Безымянный_градиент_21"/><linearGradient id="Безымянный_градиент_22-7" x1="10758.54" y1="-863.78" x2="10895.54" y2="-822.86" gradientTransform="matrix(-1, 0, 0, 1, 12145.31, 1190)" xlink:href="#Безымянный_градиент_22"/><linearGradient id="Безымянный_градиент_23-2" x1="10886.77" y1="-902.36" x2="10886.77" y2="-939.64" gradientTransform="matrix(-1, 0, 0, 1, 12145.31, 1190)" xlink:href="#Безымянный_градиент_23"/></defs><title>Ресурс 2</title><g id="Слой_2" data-name="Слой 2"><g id="Слой_1-2" data-name="Слой 1"><g class="cls-2"><path class="cls-3" d="M362.69,689C-77.81,513.5-14.11,205.5,75.89,0h2181c15,25.5,69.3,136,46,325-19.7,159.5-86.5,339.5-324,410.5s-397.5-41-768.5-46.5S803.19,864.5,362.69,689Z"/><path class="cls-4" d="M362.69,689C-77.81,513.5-14.11,205.5,75.89,0h2181c15,25.5,69.3,136,46,325-19.7,159.5-86.5,339.5-324,410.5s-397.5-41-768.5-46.5S803.19,864.5,362.69,689Z"/></g><g class="cls-2"><path class="cls-5" d="M1450.29,780c-453.9,20-644.5-124.5-842.5-146.5-271-40.5-293.9,116.5-472,51.5C-39.81,620.9-28.61,223.5,75.89,0h2176c42,84.5,62.9,201,40,333C2226.89,708,1915.89,759.5,1450.29,780Z"/><path class="cls-6" d="M1450.29,780c-453.9,20-644.5-124.5-842.5-146.5-271-40.5-293.9,116.5-472,51.5C-39.81,620.9-28.61,223.5,75.89,0h2176c42,84.5,62.9,201,40,333C2226.89,708,1915.89,759.5,1450.29,780Z"/></g><path class="cls-7" d="M534.89,347.5h-7.7V336h-30.9v11.5h-7.9l-.3-18h3.8a19.42,19.42,0,0,0,4.5-7.9,51.44,51.44,0,0,0,2.2-11.7l1.2-20.8h29.6v40.4h6Zm-33.8-18h20.1V295.7h-13.7l-.8,13.2c-.5,8.8-2.4,15.7-5.6,20.6Zm69.1-40.4h8.2V336h-8.2V302.6L549.59,336h-8.2V289.1h8.2v33.5Zm53.7,31.6c-.5,5-2.3,8.9-5.5,11.7s-7.5,4.2-12.9,4.2a18.14,18.14,0,0,1-9.9-2.6,17.39,17.39,0,0,1-6.6-7.6,28.1,28.1,0,0,1-2.4-11.4v-4.4a26.42,26.42,0,0,1,2.4-11.7,18.13,18.13,0,0,1,6.7-7.8,18.39,18.39,0,0,1,10.2-2.7c5.2,0,9.3,1.4,12.5,4.2s5,6.8,5.5,11.9h-8.1c-.4-3.4-1.4-5.8-3-7.3a9.73,9.73,0,0,0-6.9-2.3,9.48,9.48,0,0,0-8.2,3.9c-1.9,2.6-2.9,6.4-2.9,11.4v4.1c0,5.1.9,8.9,2.7,11.6a9.11,9.11,0,0,0,8,4c3.2,0,5.6-.7,7.2-2.2s2.6-3.8,3.1-7.2Zm40.3-25h-14.6V336h-8.1V295.6H627V289h37.2Zm28.6,29.4h-18.2l-3.8,10.9h-8.5L680,289.1h7.3l17.8,46.9h-8.5Zm-15.9-6.6h13.6l-6.8-19.5Zm70.8,17.5h-8.1V315.1h-21V336h-8.2V289.1h8.2v19.5h21V289.1h8.1Zm9.6-46.9h8.2v40.4h20.7V289.1h8.2v40.4h5.7l-.6,17.9H792V336h-34.6V289.1Zm78.1,0h8.2V336h-8.2V302.6L814.79,336h-8.2V289.1h8.2v33.5Zm55.4,24.7a27.86,27.86,0,0,1-2.4,12.1,17.68,17.68,0,0,1-6.8,8,19.35,19.35,0,0,1-10.2,2.8,18.14,18.14,0,0,1-17.1-10.8,27,27,0,0,1-2.4-11.9v-2.6a27.86,27.86,0,0,1,2.4-12.1,17.9,17.9,0,0,1,6.9-8,20,20,0,0,1,20.3,0,18.85,18.85,0,0,1,6.9,7.9,29.35,29.35,0,0,1,2.5,12v2.6Zm-8.2-2.5q0-7.8-3-12a10.36,10.36,0,0,0-16.6,0q-3,4.2-3,11.7v2.7q0,7.8,3,12a9.85,9.85,0,0,0,8.4,4.2,9.48,9.48,0,0,0,8.3-4.1c2-2.7,2.9-6.8,2.9-12.1v-2.4Zm53.6,24.7H928V315.1H907V336h-8.2V289.1H907v19.5h21V289.1h8.1V336Zm46.9,0H975V315.1H954V336h-8.2V289.1H954v19.5h21V289.1h8.1Zm47.1-22.2a27.86,27.86,0,0,1-2.4,12.1,17.68,17.68,0,0,1-6.8,8,19.35,19.35,0,0,1-10.2,2.8,18.14,18.14,0,0,1-17.1-10.8,27,27,0,0,1-2.4-11.9v-2.6a27.86,27.86,0,0,1,2.4-12.1,17.9,17.9,0,0,1,6.9-8,20,20,0,0,1,20.3,0,18.85,18.85,0,0,1,6.9,7.9,27.71,27.71,0,0,1,2.4,12Zm-8.1-2.5q0-7.8-3-12a10.36,10.36,0,0,0-16.6,0q-3,4.2-3,11.7v2.7q0,7.8,3,12a9.85,9.85,0,0,0,8.4,4.2,9.48,9.48,0,0,0,8.3-4.1c2-2.7,2.9-6.8,2.9-12.1v-2.4Zm43.7,3.7h-19.3v14.4H1069v6.5h-30.7V289h30.5v6.6h-22.3v13h19.3Zm-545.3,52h8.2v47h-8.2V380.6L499.89,414h-8.1V367.1h8.1v33.5Zm41.2,31.7c.4,3.4,1.4,5.8,3.1,7.3s4,2.2,7.2,2.2a9.21,9.21,0,0,0,7.8-3.7c1.8-2.4,2.8-6,3-10.6h-16.6v-6.6h16.6c-.2-4.7-1.2-8.2-3.1-10.6a9.58,9.58,0,0,0-8-3.7,9.73,9.73,0,0,0-6.9,2.3c-1.6,1.5-2.6,4-3,7.4h-8.1c.5-5.1,2.3-9.1,5.5-11.9s7.3-4.3,12.5-4.3a19.26,19.26,0,0,1,10.2,2.7,17.24,17.24,0,0,1,6.7,7.7,26,26,0,0,1,2.4,11.6v4a27.78,27.78,0,0,1-2.3,11.7,17.11,17.11,0,0,1-6.6,7.7,18.57,18.57,0,0,1-10,2.7c-5.3,0-9.6-1.4-12.8-4.2a16.67,16.67,0,0,1-5.5-11.7Zm73-31.7v47h-8.1V373.6h-14.4l-.8,18.1a49.18,49.18,0,0,1-2.1,13.2,13.39,13.39,0,0,1-4.6,6.8,13.78,13.78,0,0,1-8.1,2.2h-2.1v-6.5l1.3-.1a6.43,6.43,0,0,0,4.3-2,11.13,11.13,0,0,0,2.3-5.2,58.92,58.92,0,0,0,1.1-10.2l.9-23ZM672,393h-19.3v14.4h22.5v6.5h-30.7V367H675v6.6h-22.3v13H672Zm23.7.9h-5.5V414h-8.1V367.1h8.1v19.7h4.5l13.8-19.7h10l-16.1,22.5,17.5,24.5h-9.8Zm62.6-20.3h-14.6V414h-8.1V373.6h-14.5V367h37.2Zm14.3,23V414h-8.2V367.1h18c5.2,0,9.4,1.4,12.5,4.1a13.49,13.49,0,0,1,4.6,10.8c0,4.6-1.5,8.2-4.5,10.7s-7.3,3.8-12.7,3.8h-9.7Zm0-6.6h9.8c2.9,0,5.1-.7,6.6-2a7.62,7.62,0,0,0,2.3-5.9,8.14,8.14,0,0,0-2.4-6.1,9.26,9.26,0,0,0-6.4-2.4h-10Zm71.5,1.8a27.86,27.86,0,0,1-2.4,12.1,17.68,17.68,0,0,1-6.8,8,18.86,18.86,0,0,1-26-5.6,18.34,18.34,0,0,1-1.3-2.4,27,27,0,0,1-2.4-11.9v-2.6a27.86,27.86,0,0,1,2.4-12.1,17.9,17.9,0,0,1,6.9-8,20,20,0,0,1,20.3,0,18.85,18.85,0,0,1,6.9,7.9,29.35,29.35,0,0,1,2.5,12Zm-8.1-2.5q0-7.8-3-12a10.36,10.36,0,0,0-16.6,0q-3,4.2-3,11.7v2.7q0,7.8,3,12a10,10,0,0,0,8.4,4.2,9.48,9.48,0,0,0,8.3-4.1c2-2.8,2.9-6.8,2.9-12.1v-2.4Zm53.5,24.7h-8.1V393.1h-21V414h-8.2V367.1h8.2v19.5h21V367.1h8.1Zm46.9,0h-8.1V393.1h-21V414h-8.2V367.1h8.2v19.5h21V367.1h8.1Zm47.1-22.2a27.86,27.86,0,0,1-2.4,12.1,17.68,17.68,0,0,1-6.8,8,19.35,19.35,0,0,1-10.2,2.8,18.76,18.76,0,0,1-10.1-2.8,18.53,18.53,0,0,1-6.9-8,28.56,28.56,0,0,1-2.5-11.9v-2.6a27.86,27.86,0,0,1,2.4-12.1,17.9,17.9,0,0,1,6.9-8,20,20,0,0,1,20.3,0,18.85,18.85,0,0,1,6.9,7.9,29.35,29.35,0,0,1,2.5,12Zm-8.1-2.5q0-7.8-3-12a10.36,10.36,0,0,0-16.6,0q-3,4.2-3,11.7v2.7q0,7.8,3,12a9.85,9.85,0,0,0,8.4,4.2,9.48,9.48,0,0,0,8.3-4.1c2-2.7,2.9-6.8,2.9-12.1Zm43.7,3.7h-19.3v14.4h22.5v6.5h-30.7V367h30.5v6.6h-22.3v13h19.3Zm-489.9,76.8a27.86,27.86,0,0,1-2.4,12.1,17.68,17.68,0,0,1-6.8,8,19.35,19.35,0,0,1-10.2,2.8,18.14,18.14,0,0,1-17.1-10.8,27,27,0,0,1-2.4-11.9v-2.6a27.86,27.86,0,0,1,2.4-12.1,17.9,17.9,0,0,1,6.9-8,20,20,0,0,1,20.3,0,18.85,18.85,0,0,1,6.9,7.9,29.35,29.35,0,0,1,2.5,12Zm-8.1-2.5q0-7.8-3-12a10.36,10.36,0,0,0-16.6,0q-3,4.2-3,11.7v2.7q0,7.8,3,12a9.85,9.85,0,0,0,8.4,4.2,9.48,9.48,0,0,0,8.3-4.1c2-2.7,2.9-6.8,2.9-12.1ZM567,451.6h-21.6V463H555a19.88,19.88,0,0,1,9,1.8,12.81,12.81,0,0,1,5.8,5,14.86,14.86,0,0,1-2.5,18.1c-3,2.7-7,4-12.2,4.1h-18V445.1H567Zm-21.6,18v15.9H555a9.1,9.1,0,0,0,6.4-2.2,8,8,0,0,0,2.3-6,7,7,0,0,0-2.3-5.6,8.93,8.93,0,0,0-6.3-2.1Zm49.8,0,9.4-24.5h9.1L597.29,484l-1.5,2.9q-3.15,5.7-10.5,5.7l-3.3-.2.1-6.4a24.37,24.37,0,0,0,2.7.1,5.06,5.06,0,0,0,4.9-3l1.7-4-16-34.2h8.9Zm60.6-24.5V492h-8.1V473.5a44.53,44.53,0,0,1-10.9,1.3c-5.6,0-9.8-1.2-12.7-3.7s-4.3-6.2-4.3-11.1V445.1h8.1V460c0,3,.7,5.1,2.1,6.4s3.7,1.9,6.9,1.9a40.26,40.26,0,0,0,10.9-1.4V445Zm37.2,26h-19.3v14.4h22.5V492h-30.7V445.1H696v6.6h-22.3v13H693Zm47.1,20.9H732V471.1H711V492h-8.2V445.1H711v19.5h21V445.1h8.1Zm38.4-46.9h8.2V492h-8.2V458.6L757.89,492h-8.2V445.1h8.2v33.5Zm45.4,26h-19.3v14.4h22.5V492h-30.7V445.1h30.5v6.6h-22.3v13h19.3Z"/><ellipse class="cls-8" cx="1465.49" cy="603.5" rx="334.5" ry="29.5"/><ellipse class="cls-9" cx="1465.49" cy="603.5" rx="334.5" ry="29.5"/><path class="cls-10" d="M1489.79,215.8c-14.8-13.5-49.3-80.5-125.7-67-22.4,5.9-33.4,24.7-40,46.4s-15.8,38.2-27.6,52.8-57.6,74.1-77,122.8-13,109.3,81.1,138.1,237.9,52.3,299.6,50,79.5,1.1,120.5,22.2,28.3-60.4,24-132.8-43.9-146.4-129.8-164.5S1504.49,229.3,1489.79,215.8Z"/><rect class="cls-1" x="1153.99" y="239" width="655" height="368"/><g id="Мужик"><g id="стул"><path class="cls-11" d="M1712.09,462.1c13.6,5.1,16.3,7.2,18,10s4.3,7.5-.9,12.9-8,5.7-13.3,6.2-64.5,2.2-64.5,2.2V601.7l-11.3.1V489.2Z"/><rect class="cls-11" x="1640.19" y="493.4" width="11.3" height="109.9"/><rect class="cls-11" x="1721.09" y="478.4" width="11.3" height="124.9"/></g><path id="СТУЛ-2" class="cls-12" d="M1611.69,384.6s2-18.3,8.1-26.6,46.8-13.9,54.8-14.2,42.6-.6,50.3,4.9,15.4,11.6,13,29.5-13.3,76.2-13.3,76.2l-92.1,7.8Z"/><path class="cls-13" d="M1636.89,581.1v24.6s0,2.3-2,2.3h-36.2s-3.1-1,0-2.8,15.8-10.4,16.8-11.1,2-1.7,2.2-4.7,0-7,0-7Z"/><path class="cls-13" d="M1592.69,581.1v24.6s0,2.3-1.9,2.3h-35.5s-3-1,0-2.8,15.5-10.4,16.4-11.1,1.9-1.7,2.1-4.7,0-7,0-7Z"/><g class="cls-14"><path class="cls-15" d="M1676.89,464.5s-10.8,19.5-40.1,22.4-26.7,1.6-26.7,1.6.7,35-1.6,52.5-14.8,44.5-14.8,44.5h-20.5s-3.4-75.9-4.2-84.3-4.2-21.2,0-29.5,5.2-7.2,5.2-7.2Z"/><path class="cls-16" d="M1676.89,464.5s-10.8,19.5-40.1,22.4-26.7,1.6-26.7,1.6.7,35-1.6,52.5-11.8,44.5-11.8,44.5l-29,3.8s2.1-79.7,1.3-88.1-4.2-21.2,0-29.5,5.2-7.2,5.2-7.2Z"/></g><g class="cls-17"><path class="cls-15" d="M1711.19,464.5s-10.8,19.5-40.1,22.4-26.7,1.6-26.7,1.6.7,35-1.6,52.5-5.8,42.5-5.8,42.5h-19.7s-13.2-74-14-82.3-4.2-21.2,0-29.5,5.2-7.2,5.2-7.2Z"/><path class="cls-18" d="M1711.19,464.5s-10.8,19.5-40.1,22.4-26.7,1.6-26.7,1.6.7,35-1.6,52.5-5.8,42.5-5.8,42.5h-19.7s-13.2-74-14-82.3-4.2-21.2,0-29.5,5.2-7.2,5.2-7.2Z"/></g><g class="cls-19"><path class="cls-20" d="M1616.59,363.1c3.2-13.6,21.3-26.5,40.5-29.3s39.9-.7,48.8,1.4,22.7,13.1,23.6,32.6,1.8,42.7-3.4,49.5-3.6,7.7-34.7,6.8-60.3,0-60.3,0Z"/><path class="cls-21" d="M1614.19,374.3c3.2-11.1,21.8-21.7,41.4-24s40.7-.6,49.7,1.2,23.1,10.8,24.1,26.7,1.8,35-3.5,40.6-3.7,6.3-35.4,5.6-61.5,0-61.5,0Z"/><path class="cls-22" d="M1648.09,411.5c5.2-4.3,13.2-.7,13.7-1.6s36.6-9.3,36.9-11-4.1-31.8-4.1-31.8l21.3-4.2,6.6,3.3s7.6,29.3,7.6,31.2-3.2,21.9-3.2,21.9-18,7.5-26.3,7.1-46.1-.8-46.1-.8Z"/></g><g class="cls-19"><path class="cls-23" d="M1616.59,363.1c3.2-13.6,21.3-26.5,40.5-29.3s39.9-.7,48.8,1.4,22.7,13.1,23.6,32.6,1.8,42.7-3.4,49.5-3.6,7.7-34.7,6.8-60.3,0-60.3,0Z"/><path class="cls-24" d="M1614.19,374.3c3.2-11.1,21.8-21.7,41.4-24s40.7-.6,49.7,1.2,23.1,10.8,24.1,26.7,1.8,35-3.5,40.6-3.7,6.3-35.4,5.6-61.5,0-61.5,0Z"/><path class="cls-25" d="M1648.09,411.5c5.2-4.3,13.2-.7,13.7-1.6s36.6-9.3,36.9-11-4.1-31.8-4.1-31.8l21.3-4.2,6.6,3.3s7.6,29.3,7.6,31.2-3.2,21.9-3.2,21.9-18,7.5-26.3,7.1-46.1-.8-46.1-.8Z"/></g><path class="cls-26" d="M1689.89,424.9h-129.4a6.06,6.06,0,0,1-6.1-6.1l-7-51a6.06,6.06,0,0,1,6.1-6.1h88.4a6.06,6.06,0,0,1,6.1,6.1l6.5,52.2,31.6.1a3.8,3.8,0,0,1,3.8,3.8v1Z"/><path class="cls-27" d="M1657.09,338.8s.3,12.2,13,12.3,14.2-12.1,14.2-12.1l-6.2-1.6s0-10.9-.6-14.1-9.4,6.3-9.4,6.3l-4.7,2.1-.2,6.7Z"/><path class="cls-28" d="M1627.69,306.9c3-.1,7.9,1.7,15.1-11.9s26.3-14.6,31.4-14.5,12.1.3,14,7.4-3.6,11.8-3.6,12.3,2.9,9,1.8,11.3-9.3.8-9.3.8l-1.8,6.6a83,83,0,0,0-26.9-5.7c-14.3-.3-19.4-4.3-19.8-4.6A13.13,13.13,0,0,1,1627.69,306.9Z"/><path class="cls-29" d="M1645.19,312.8s3,17.3,11.7,22.3,16.7-2.3,17.6-3.3,4.3-4.7,4.4-7.2a21.64,21.64,0,0,0,0-3.6s7.9-.8,7.8-6.6a6.92,6.92,0,0,0-6.6-7.2,7.57,7.57,0,0,0-1.5.1c-2.7.7-6.3,6-5.4,8.1,1.3,2.9-3.4,1.1-5.7-2.2a10.68,10.68,0,0,1-1.9-6s-6.8,4-11.3,5A54.23,54.23,0,0,1,1645.19,312.8Z"/></g><g id="Девушка"><path class="cls-30" d="M1303.89,293.2s-2.4-22.7-9.5-33.2-54.7-17.3-64.1-17.7-49.7-.7-58.8,6.1-18,14.4-15.1,36.8,15.5,94.8,15.5,94.8l107.7,9.7Z"/><g id="стул-3"><path class="cls-11" d="M1219.69,420.4c-15.9,6.3-19.1,8.8-21.1,12.3s-5,9.2,1.1,15.9,9.4,7,15.5,7.6,54.8,2.7,54.8,2.7V591.7h-40.9l1.1,8.1H1325v-8.2l-41.8.2V453.6Z"/><circle class="cls-11" cx="1276.89" cy="597.1" r="11.4"/><circle class="cls-11" cx="1225.06" cy="597.05" r="11.4"/><circle class="cls-11" cx="1328.79" cy="597.1" r="11.4"/></g><path class="cls-13" d="M1345.79,583.6v26.1s-.8,2.3,3.3,2.6,38.6,0,38.6,0,5.3-.4.6-3.1-21.7-12.9-21.7-12.9-2.2-1.1-2.2-4.6v-6Z"/><path class="cls-13" d="M1310.49,583.6v26.1s-.8,2.3,3.2,2.6,38.6,0,38.6,0,5.3-.4.6-3.1-21.7-12.9-21.7-12.9-2.2-1.1-2.2-4.6v-6Z"/><g class="cls-31"><path class="cls-15" d="M1250.59,423.4s13,25.9,48.1,29.7,32,2.1,32,2.1-.8,46.4,1.9,69.8,7.6,63.9,7.6,63.9l31.5.7s13.7-105.3,14.7-116.3-1.3-29.3-6.4-40.4-6.3-9.5-6.3-9.5Z"/><path class="cls-32" d="M1252.69,422.9s8.5,33.1,43.6,36.9l35.1,3.8s.6,37.5,3.3,60.8,5.4,64.4,5.4,64.4l33.7-1.7s13.8-104.3,14.7-115.3-1.4-28.4-6.4-39.4-6.3-9.5-6.3-9.5Z"/></g><g class="cls-33"><path class="cls-15" d="M1213.59,423.4s5.4,34.8,40.4,38.6,34.4,5.8,34.4,5.8,4.4,33.9,7.1,57.2,13,62.4,13,62.4l23.2-.7s16.6-102.3,17.6-113.3-1.3-29.3-6.4-40.4-6.3-9.5-6.3-9.5Z"/><path class="cls-34" d="M1213.59,423.4s13,25.9,48.1,29.7,32,2.1,32,2.1-.8,46.4,1.9,69.8,7.3,61.6,7.3,61.6l31.7,1.1s13.8-104.3,14.7-115.3-1.4-28.4-6.4-39.4-6.3-9.5-6.3-9.5h-123Z"/></g><path class="cls-35" d="M1290.89,284.2c-3.4-5.4-6.8-10.9-5.6-15.2s11.7-22.5,8.5-38.5-20.7-24.5-30.6-26.1-25.6-2.7-35.3,9-13.2,29.2-12.8,38.6-5.4,21.8-19.3,31-24.6,23.5-21.5,51.8,48.5,26.3,48.5,26.3Z"/><g class="cls-36"><path class="cls-23" d="M1319.39,308.6c-3.4-13.9-22.6-27.2-43-30s-42.3-.7-51.7,1.4-24,13.5-25,33.4-1.9,43.7,3.6,50.7,3.8,7.9,36.8,7,63.9,0,63.9,0Z"/><path class="cls-37" d="M1320.79,308.6c-3.4-13.9-22.6-27.2-43-30s-42.3-.7-51.7,1.4-24,13.5-25,33.4-1.9,43.7,3.6,50.7,3.8,7.9,36.8,7,63.9,0,63.9,0Z"/><path class="cls-38" d="M1297.49,361.7c-7.2-5.5-20.2,1.2-20.9,0s-49.3-13.9-49.7-16.1,9.1-38,9.1-38l-33.1-8-9.2,4.2s2.4,38,2.4,40.4,2.9,27.2,2.9,27.2,13.7,9.8,25.3,9.3,64.4-1,64.4-1Z"/></g><path class="cls-39" d="M1251.19,371.9H1381a6.06,6.06,0,0,0,6.1-6.1l7-51.3a6.06,6.06,0,0,0-6.1-6.1h-88.7a6.06,6.06,0,0,0-6.1,6.1l-6.5,52.5-31.7.1a3.82,3.82,0,0,0-3.8,3.9v.9Z"/><path class="cls-40" d="M1267.09,262.4l3.4,17.3-4.4,7.9-19.5-9.9s3.1-24.5,4.6-27S1267.09,262.4,1267.09,262.4Z"/><path class="cls-29" d="M1278.59,248.5s-5.3,15-10.8,17.5-11.3-4.8-11.8-5.3-5.8-6.6-5.8-6.6l.2-2.5-1.8-.4a.57.57,0,0,1-.4-.7h0c0-.1,0-.2.1-.2l3.4-3.9a16.55,16.55,0,0,0,2.2-3l2.2-3.5a1.1,1.1,0,0,1,1.5-.3l8.3,4.6a17.51,17.51,0,0,0,4.4,2Z"/><polygon class="cls-41" points="1273.49 277.9 1274.89 295.7 1266.69 288.4 1260.59 298.1 1243.59 277.8 1246.09 277 1266.09 287.6 1270.49 277 1273.49 277.9"/></g><path id="Стол" class="cls-11" d="M1774.39,605.9h-2.6c-1.7,0-3.1-2-3.1-4.5l-.7-131.5c0-2.5-1.4-4.5-3.1-4.5l-251.6-.5c-1.7,0-3.1,2-3.1,4.5l-.7,132.3c0,2.5-1.4,4.6-3.2,4.5l-2.8-.1c-1.7,0-3-2.1-3-4.5V429c0-2.5,1.4-4.5,3.1-4.5h270.7c1.7,0,3.1,2,3.1,4.5V601.4C1777.49,603.9,1776.09,605.9,1774.39,605.9Z"/><path id="Стол-2" class="cls-11" d="M1458.69,608.4h-2.8c-1.9,0-3.4-2.6-3.4-5.7l-.8-173.1c0-3.2-1.5-5.7-3.4-5.7l-278.3-.7c-1.9,0-3.4,2.5-3.4,5.7l-.8,174.1c0,3.2-1.6,5.8-3.5,5.7l-3.1-.1c-1.9-.1-3.3-2.6-3.3-5.8v-225c0-3.2,1.5-5.8,3.4-5.8h299.4c1.9,0,3.4,2.6,3.4,5.8V602.7C1462.19,605.8,1460.59,608.4,1458.69,608.4Z"/><path class="cls-7" d="M550.22,77.88a6.93,6.93,0,0,0,1.93,4.32,6.38,6.38,0,0,0,4.2,1.23A5.49,5.49,0,0,0,561,81.12a10.6,10.6,0,0,0,1.76-6.4H553V72h9.79A10.38,10.38,0,0,0,561,65.61a5.79,5.79,0,0,0-4.94-2.36,5.65,5.65,0,0,0-4,1.33,7.17,7.17,0,0,0-1.84,4.31h-3.3a9.2,9.2,0,0,1,2.79-6.12,9,9,0,0,1,6.35-2.22A9.71,9.71,0,0,1,561.34,62a9.16,9.16,0,0,1,3.51,4.07,14.21,14.21,0,0,1,1.23,6.07V74.6a14.44,14.44,0,0,1-1.21,6.06,9,9,0,0,1-8.52,5.45A9.6,9.6,0,0,1,549.83,84a9.23,9.23,0,0,1-2.91-6.1Zm39.66,7.89h-3.29V63.59H574.32V85.77H571V60.89h18.85ZM615,74.13a15.52,15.52,0,0,1-1.23,6.4,9.37,9.37,0,0,1-3.49,4.15,10.32,10.32,0,0,1-10.48,0,9.66,9.66,0,0,1-3.53-4.12,14.91,14.91,0,0,1-1.29-6.2v-1.8a15.26,15.26,0,0,1,1.25-6.34,9.8,9.8,0,0,1,14-4.22,9.26,9.26,0,0,1,3.52,4.19A15.4,15.4,0,0,1,615,72.56Zm-3.27-1.6q0-4.43-1.77-6.79a5.88,5.88,0,0,0-5-2.37,5.81,5.81,0,0,0-4.9,2.37,10.89,10.89,0,0,0-1.83,6.57v1.82a11.35,11.35,0,0,0,1.79,6.76,5.89,5.89,0,0,0,5,2.44A5.8,5.8,0,0,0,610,81a11.13,11.13,0,0,0,1.79-6.65Zm26.49,5.35a9.19,9.19,0,0,1-2.92,6.1,9.56,9.56,0,0,1-6.51,2.13A8.8,8.8,0,0,1,621.72,83a12.75,12.75,0,0,1-2.65-8.46V72.1A14.26,14.26,0,0,1,620.3,66a9.29,9.29,0,0,1,3.53-4,9.66,9.66,0,0,1,5.26-1.42,9,9,0,0,1,6.36,2.22,9.24,9.24,0,0,1,2.78,6.12h-3.3a7.06,7.06,0,0,0-1.86-4.31,5.58,5.58,0,0,0-4-1.33,5.89,5.89,0,0,0-4.94,2.32,10.69,10.69,0,0,0-1.78,6.62V74.6A11,11,0,0,0,624.06,81a5.49,5.49,0,0,0,4.74,2.39A6.33,6.33,0,0,0,633,82.2a6.93,6.93,0,0,0,1.94-4.32Z"/><path class="cls-42" d="M523.42,90.46c-.66,4.08-1,5.18-3,6.87-2.47,2-31.94,7.14-32-15.78-.06-23.89,17.43-30.94,20-32.2s3.81-.4,3.61,2.72l5.33,3.63a5.24,5.24,0,0,0,0,1.92c.92,1.67,5.53,4.23,5.53,4.23,0,1.13-2.62,6.07-8.48,4.41-2.25-.63-8.58-.08-.89,7.89"/><path class="cls-43" d="M534.41,71.38l-6.63,12.75H514.43"/><path class="cls-44" d="M519.1,80.88c0-5.73,3.78-8.49,9.41-5.7"/><path class="cls-44" d="M515.66,80.74c-.31-8.18,7.09-12.87,14.57-8.89"/><path class="cls-44" d="M522.57,80.76c0-2.53,1.23-4.14,4.54-2.61"/><path class="cls-7" d="M1016.2,24.56h-5.49V39.77h-2.24V24.56H1003V22.71h13.2ZM1022.48,40a5.58,5.58,0,0,1-4.2-1.69,6.29,6.29,0,0,1-1.62-4.54v-.39a7.62,7.62,0,0,1,.72-3.37,5.63,5.63,0,0,1,2-2.32,5.11,5.11,0,0,1,2.82-.84,4.72,4.72,0,0,1,3.84,1.63,7.06,7.06,0,0,1,1.37,4.66v.9h-8.59a4.57,4.57,0,0,0,1.09,3,3.49,3.49,0,0,0,2.67,1.15,3.8,3.8,0,0,0,1.95-.47,5,5,0,0,0,1.39-1.24l1.33,1A5.33,5.33,0,0,1,1022.48,40Zm-.27-11.37a2.9,2.9,0,0,0-2.21,1,4.61,4.61,0,0,0-1.1,2.67h6.35v-.16a4.13,4.13,0,0,0-.89-2.56A2.7,2.7,0,0,0,1022.21,28.64Zm18.13-1.55V39.77h-2.18V28.89h-4.32l-.25,4.74a10.35,10.35,0,0,1-1.11,4.68,3.17,3.17,0,0,1-2.8,1.46h-.86V37.86l.62,0A1.81,1.81,0,0,0,1031,36.6a13.83,13.83,0,0,0,.58-4.08l.24-5.43ZM1049.08,40a5.58,5.58,0,0,1-4.2-1.69,6.29,6.29,0,0,1-1.61-4.54v-.39A7.61,7.61,0,0,1,1044,30a5.65,5.65,0,0,1,2-2.32,5.06,5.06,0,0,1,2.81-.84,4.72,4.72,0,0,1,3.84,1.63,7,7,0,0,1,1.37,4.66v.9h-8.59a4.57,4.57,0,0,0,1.09,3,3.52,3.52,0,0,0,2.68,1.15,3.79,3.79,0,0,0,1.94-.47,4.82,4.82,0,0,0,1.39-1.24l1.33,1A5.33,5.33,0,0,1,1049.08,40Zm-.27-11.37a2.87,2.87,0,0,0-2.2,1,4.55,4.55,0,0,0-1.11,2.67h6.36v-.16a4.14,4.14,0,0,0-.9-2.56A2.7,2.7,0,0,0,1048.81,28.64Zm7.26,5a8.79,8.79,0,0,1,1.23-5,3.86,3.86,0,0,1,3.38-1.82,4.17,4.17,0,0,1,1.75.34V21.77h2.16v5.5a4.32,4.32,0,0,1,1.93-.41,3.86,3.86,0,0,1,3.38,1.82,9.29,9.29,0,0,1,1.23,5.23,7.31,7.31,0,0,1-1.23,4.46,3.94,3.94,0,0,1-3.36,1.65,4.61,4.61,0,0,1-2-.38v5h-2.16v-5a4.33,4.33,0,0,1-1.77.34,4,4,0,0,1-3.37-1.65,7.5,7.5,0,0,1-1.22-4.53Zm12.89,0a7,7,0,0,0-.82-3.71,2.53,2.53,0,0,0-2.26-1.32,3.41,3.41,0,0,0-1.29.23v9.18a3.86,3.86,0,0,0,1.32.2,2.62,2.62,0,0,0,2.25-1.13A5.94,5.94,0,0,0,1069,33.67Zm-10.72.24a5.76,5.76,0,0,0,.76,3.24,2.52,2.52,0,0,0,2.2,1.1,3.45,3.45,0,0,0,1.23-.21v-9.2a3.29,3.29,0,0,0-1.21-.2,2.44,2.44,0,0,0-2.2,1.28A7.88,7.88,0,0,0,1058.24,33.91Zm15.14-.59a7.5,7.5,0,0,1,.73-3.36,5.48,5.48,0,0,1,2-2.29,5.56,5.56,0,0,1,3-.81,5.34,5.34,0,0,1,4.18,1.79,6.9,6.9,0,0,1,1.61,4.77v.15a7.47,7.47,0,0,1-.72,3.33,5.32,5.32,0,0,1-2,2.29,5.62,5.62,0,0,1-3,.82,5.33,5.33,0,0,1-4.18-1.8,6.82,6.82,0,0,1-1.6-4.74Zm2.18.25a5.5,5.5,0,0,0,1,3.39,3.17,3.17,0,0,0,2.63,1.28,3.13,3.13,0,0,0,2.63-1.29,6,6,0,0,0,1-3.63,5.35,5.35,0,0,0-1-3.38,3.28,3.28,0,0,0-5.21,0A5.85,5.85,0,0,0,1075.56,33.57Zm22.44,6.2h-2.16V34.36H1090v5.41h-2.18V27.09H1090v5.5h5.83v-5.5H1098Zm5.86-8.31h3.3a5.09,5.09,0,0,1,3.41,1.13,3.79,3.79,0,0,1,1.25,3,3.87,3.87,0,0,1-1.29,3,5,5,0,0,1-3.47,1.15h-5.36V27.09h2.16Zm12.48,8.31h-2.18V27.09h2.18Zm-12.48-6.54V38h3.23a2.62,2.62,0,0,0,1.88-.62,2.23,2.23,0,0,0,.67-1.72,2.34,2.34,0,0,0-.66-1.72,2.44,2.44,0,0,0-1.81-.71Zm32.93.34a7.63,7.63,0,0,1-1.32,4.67,4.24,4.24,0,0,1-3.59,1.77,4.63,4.63,0,0,1-3.63-1.47v6.11h-2.17V27.09h2l.11,1.41a4.47,4.47,0,0,1,3.68-1.64,4.32,4.32,0,0,1,3.61,1.72,7.66,7.66,0,0,1,1.33,4.79Zm-2.17-.24a5.61,5.61,0,0,0-.91-3.39,2.93,2.93,0,0,0-2.51-1.24,3.19,3.19,0,0,0-3,1.74V36.5a3.19,3.19,0,0,0,3,1.74A2.92,2.92,0,0,0,1133.7,37,6.11,6.11,0,0,0,1134.62,33.33Zm10.2,6.68a5.58,5.58,0,0,1-4.2-1.69,6.33,6.33,0,0,1-1.61-4.54v-.39a7.76,7.76,0,0,1,.71-3.37,5.72,5.72,0,0,1,2-2.32,5.08,5.08,0,0,1,2.81-.84,4.72,4.72,0,0,1,3.84,1.63,7,7,0,0,1,1.38,4.66v.9h-8.59a4.52,4.52,0,0,0,1.09,3,3.48,3.48,0,0,0,2.67,1.15,3.79,3.79,0,0,0,1.94-.47,5,5,0,0,0,1.4-1.24l1.32,1A5.32,5.32,0,0,1,1144.82,40Zm-.27-11.37a2.88,2.88,0,0,0-2.2,1,4.55,4.55,0,0,0-1.1,2.67h6.35v-.16a4.2,4.2,0,0,0-.89-2.56A2.71,2.71,0,0,0,1144.55,28.64Zm15.93.25h-5.85V39.77h-2.18V27.09h8Zm10.09-1.8h2.16V39.77h-2.16V30.53l-5.85,9.24h-2.17V27.09h2.17v9.26Zm5.07,6.23a7.5,7.5,0,0,1,.73-3.36,5.48,5.48,0,0,1,2-2.29,5.55,5.55,0,0,1,3-.81,5.35,5.35,0,0,1,4.19,1.79,6.9,6.9,0,0,1,1.6,4.77v.15a7.47,7.47,0,0,1-.71,3.33,5.38,5.38,0,0,1-2,2.29,5.62,5.62,0,0,1-3,.82,5.35,5.35,0,0,1-4.19-1.8,6.86,6.86,0,0,1-1.59-4.74Zm2.18.25a5.44,5.44,0,0,0,1,3.39,3.16,3.16,0,0,0,2.63,1.28A3.11,3.11,0,0,0,1184,37a6,6,0,0,0,1-3.63,5.41,5.41,0,0,0-1-3.38,3.29,3.29,0,0,0-5.22,0A5.92,5.92,0,0,0,1177.82,33.57Zm22.44,6.2h-2.17V34.36h-5.82v5.41h-2.18V27.09h2.18v5.5h5.82v-5.5h2.17Zm11.32,0a4.78,4.78,0,0,1-.3-1.33,4.86,4.86,0,0,1-3.61,1.57,4.47,4.47,0,0,1-3.08-1.06,3.45,3.45,0,0,1-1.2-2.69,3.57,3.57,0,0,1,1.5-3.07,7.06,7.06,0,0,1,4.24-1.1h2.11v-1a2.41,2.41,0,0,0-.68-1.81,2.72,2.72,0,0,0-2-.68,3.2,3.2,0,0,0-2,.59,1.73,1.73,0,0,0-.78,1.42h-2.18a3,3,0,0,1,.67-1.83,4.72,4.72,0,0,1,1.82-1.41,6.31,6.31,0,0,1,2.55-.51,5,5,0,0,1,3.43,1.1,3.93,3.93,0,0,1,1.29,3v5.84a7.1,7.1,0,0,0,.45,2.78v.18Zm-3.6-1.65a3.85,3.85,0,0,0,1.94-.53,3.16,3.16,0,0,0,1.32-1.37v-2.6h-1.7q-4,0-4,2.33a2,2,0,0,0,.68,1.6A2.6,2.6,0,0,0,1208,38.12Zm19.22-11V39.77H1225V28.89h-4.31l-.26,4.74a10.37,10.37,0,0,1-1.1,4.68,3.17,3.17,0,0,1-2.8,1.46h-.87V37.86l.62,0a1.81,1.81,0,0,0,1.52-1.22,13.83,13.83,0,0,0,.58-4.08l.24-5.43Zm5.85,4.37h3.29a5.05,5.05,0,0,1,3.41,1.13,3.76,3.76,0,0,1,1.26,3,3.87,3.87,0,0,1-1.29,3,5,5,0,0,1-3.47,1.15h-5.37V27.09h2.17Zm0,1.77V38h3.22a2.64,2.64,0,0,0,1.89-.62,2.23,2.23,0,0,0,.67-1.72,2.34,2.34,0,0,0-.66-1.72,2.44,2.44,0,0,0-1.81-.71Zm21,6.54h-2.16V34.36h-5.83v5.41h-2.18V27.09h2.18v5.5h5.83v-5.5h2.16Zm2.92-6.45a7.5,7.5,0,0,1,.73-3.36,5.48,5.48,0,0,1,2-2.29,5.56,5.56,0,0,1,3-.81,5.34,5.34,0,0,1,4.18,1.79,6.9,6.9,0,0,1,1.6,4.77v.15a7.47,7.47,0,0,1-.71,3.33,5.32,5.32,0,0,1-2,2.29,5.62,5.62,0,0,1-3,.82,5.33,5.33,0,0,1-4.18-1.8,6.82,6.82,0,0,1-1.6-4.74Zm2.18.25a5.5,5.5,0,0,0,1,3.39,3.17,3.17,0,0,0,2.63,1.28,3.1,3.1,0,0,0,2.62-1.29,6,6,0,0,0,1-3.63,5.41,5.41,0,0,0-1-3.38,3.28,3.28,0,0,0-5.21,0A5.85,5.85,0,0,0,1259.17,33.57Zm20.29-6.48h2.16V39.77h-2.16V30.53l-5.85,9.24h-2.17V27.09h2.17v9.26Zm.58-4.61a2.91,2.91,0,0,1-1,2.28,4.15,4.15,0,0,1-5.07,0,2.91,2.91,0,0,1-1-2.27h1.77a1.81,1.81,0,0,0,.45,1.29,1.76,1.76,0,0,0,3-1.29Zm19.21,6.41h-5.85V39.77h-2.18V27.09h8Zm1.08,4.43a7.63,7.63,0,0,1,.72-3.36,5.4,5.4,0,0,1,5-3.1,5.36,5.36,0,0,1,4.19,1.79,6.9,6.9,0,0,1,1.6,4.77v.15a7.61,7.61,0,0,1-.71,3.33,5.38,5.38,0,0,1-2,2.29,5.65,5.65,0,0,1-3,.82,5.35,5.35,0,0,1-4.19-1.8,6.86,6.86,0,0,1-1.59-4.74Zm2.18.25a5.44,5.44,0,0,0,1,3.39,3.16,3.16,0,0,0,2.63,1.28,3.11,3.11,0,0,0,2.62-1.29,6,6,0,0,0,1-3.63,5.41,5.41,0,0,0-1-3.38,3.29,3.29,0,0,0-5.22,0A5.92,5.92,0,0,0,1302.51,33.57Zm22.79,0a7.63,7.63,0,0,1-1.32,4.67,4.26,4.26,0,0,1-3.59,1.77,4.63,4.63,0,0,1-3.63-1.47v6.11h-2.17V27.09h2l.11,1.41a4.47,4.47,0,0,1,3.68-1.64,4.28,4.28,0,0,1,3.6,1.72,7.6,7.6,0,0,1,1.34,4.79Zm-2.17-.24a5.61,5.61,0,0,0-.91-3.39,3,3,0,0,0-2.51-1.24,3.18,3.18,0,0,0-3,1.74V36.5a3.19,3.19,0,0,0,3,1.74,2.93,2.93,0,0,0,2.48-1.23A6.18,6.18,0,0,0,1323.13,33.33Zm14.63-6.24V39.77h-2.18V34.84h-3.27l-3,4.93H1327l3.18-5.26a3.84,3.84,0,0,1-1.87-1.37,3.74,3.74,0,0,1-.65-2.18,3.41,3.41,0,0,1,1.31-2.79,5.36,5.36,0,0,1,3.48-1.08ZM1329.82,31a1.9,1.9,0,0,0,.64,1.5,2.45,2.45,0,0,0,1.67.58h3.45V28.85h-3.12a2.9,2.9,0,0,0-1.92.6A1.88,1.88,0,0,0,1329.82,31Zm21,8.79h-2.18V35.18a11.48,11.48,0,0,1-2.93.37,5,5,0,0,1-3.63-1.21,4.74,4.74,0,0,1-1.27-3.47V27.08H1343v3.86c0,1.89,1,2.83,2.73,2.83a11.48,11.48,0,0,0,2.93-.37V27.09h2.18Zm8.74.24a5.57,5.57,0,0,1-4.19-1.69,6.29,6.29,0,0,1-1.62-4.54v-.39a7.62,7.62,0,0,1,.72-3.37,5.63,5.63,0,0,1,2-2.32,5.11,5.11,0,0,1,2.82-.84,4.75,4.75,0,0,1,3.84,1.63,7.06,7.06,0,0,1,1.37,4.66v.9h-8.59a4.52,4.52,0,0,0,1.09,3,3.48,3.48,0,0,0,2.67,1.15,3.8,3.8,0,0,0,1.95-.47,5,5,0,0,0,1.39-1.24l1.33,1A5.35,5.35,0,0,1,1359.55,40Zm-.26-11.37a2.9,2.9,0,0,0-2.21,1,4.61,4.61,0,0,0-1.1,2.67h6.35v-.16a4.13,4.13,0,0,0-.89-2.56A2.7,2.7,0,0,0,1359.29,28.64Zm15.93-1.55h2.17V39.77h-2.17V30.53l-5.85,9.24h-2.16V27.09h2.16v9.26Zm.59-4.61a2.94,2.94,0,0,1-1,2.28,4.16,4.16,0,0,1-5.08,0,2.9,2.9,0,0,1-1-2.27h1.77a1.85,1.85,0,0,0,.44,1.29,1.75,1.75,0,0,0,1.3.45,1.6,1.6,0,0,0,1.75-1.74Zm21.41,4.61V39.77H1395V28.89h-4.31l-.26,4.74a10.5,10.5,0,0,1-1.1,4.68,3.18,3.18,0,0,1-2.8,1.46h-.87V37.86l.62,0a1.8,1.8,0,0,0,1.51-1.22,13.74,13.74,0,0,0,.59-4.08l.23-5.43Zm11.68,0h2.17V39.77h-2.17V30.53l-5.85,9.24h-2.16V27.09h2.16v9.26Zm16,12.68h-2.17V34.36h-5.82v5.41h-2.18V27.09h2.18v5.5h5.82v-5.5h2.17Zm11.7-12.68h2.16V39.77h-2.16V30.53l-5.85,9.24h-2.17V27.09h2.17v9.26Zm13.85,0h2.16V39.77h-2.16V30.53l-5.85,9.24h-2.17V27.09h2.17v9.26ZM1456,38.64a1.37,1.37,0,0,1,.33-.94,1.31,1.31,0,0,1,1-.38,1.3,1.3,0,0,1,1,.38,1.33,1.33,0,0,1,.35.94,1.25,1.25,0,0,1-.35.9,1.32,1.32,0,0,1-1,.36,1.34,1.34,0,0,1-1-.36A1.28,1.28,0,0,1,1456,38.64Zm0-10.35a1.41,1.41,0,0,1,.32-.94,1.31,1.31,0,0,1,1-.37,1.29,1.29,0,0,1,1,.37,1.33,1.33,0,0,1,.35.94,1.25,1.25,0,0,1-.35.9,1.32,1.32,0,0,1-1,.36,1.34,1.34,0,0,1-1-.36A1.32,1.32,0,0,1,1456.05,28.29Zm22.53,5.28a7.63,7.63,0,0,1-1.32,4.67,4.26,4.26,0,0,1-3.59,1.77,4.63,4.63,0,0,1-3.63-1.47v6.11h-2.17V27.09h2l.11,1.41a4.47,4.47,0,0,1,3.68-1.64,4.32,4.32,0,0,1,3.61,1.72,7.66,7.66,0,0,1,1.33,4.79Zm-2.17-.24a5.61,5.61,0,0,0-.91-3.39A3,3,0,0,0,1473,28.7a3.19,3.19,0,0,0-3,1.74V36.5a3.19,3.19,0,0,0,3,1.74,2.93,2.93,0,0,0,2.47-1.23A6.11,6.11,0,0,0,1476.41,33.33Zm4.36,0a7.64,7.64,0,0,1,.73-3.36,5.48,5.48,0,0,1,2-2.29,5.56,5.56,0,0,1,3-.81,5.34,5.34,0,0,1,4.18,1.79,6.9,6.9,0,0,1,1.61,4.77v.15a7.47,7.47,0,0,1-.72,3.33,5.32,5.32,0,0,1-2,2.29,5.62,5.62,0,0,1-3,.82,5.33,5.33,0,0,1-4.18-1.8,6.82,6.82,0,0,1-1.6-4.74Zm2.18.25a5.44,5.44,0,0,0,1,3.39,3.32,3.32,0,0,0,5.25,0,6,6,0,0,0,1-3.63,5.35,5.35,0,0,0-1-3.38,3.28,3.28,0,0,0-5.21,0A5.85,5.85,0,0,0,1483,33.57ZM1494.09,38l.75-.92a8.87,8.87,0,0,0,1.44-4.92l.2-5.07h8.16V38h1.63v5.5h-2.16V39.77h-8.85V43.5h-2.17V38Zm2.56,0h5.83V29.1h-3.91l-.12,3A10.57,10.57,0,0,1,1496.65,38Zm20.23-10.91h2.17V39.77h-2.17V30.53L1511,39.77h-2.17V27.09H1511v9.26ZM1532,28.85h-4.25V39.77h-2.17V28.85h-4.17V27.09H1532ZM1538.38,40a5.56,5.56,0,0,1-4.19-1.69,6.29,6.29,0,0,1-1.62-4.54v-.39a7.62,7.62,0,0,1,.72-3.37,5.63,5.63,0,0,1,2-2.32,5.1,5.1,0,0,1,2.81-.84,4.76,4.76,0,0,1,3.85,1.63,7.06,7.06,0,0,1,1.37,4.66v.9h-8.59a4.52,4.52,0,0,0,1.09,3,3.48,3.48,0,0,0,2.67,1.15,3.83,3.83,0,0,0,2-.47,5,5,0,0,0,1.39-1.24l1.32,1A5.32,5.32,0,0,1,1538.38,40Zm-.27-11.37a2.88,2.88,0,0,0-2.2,1,4.61,4.61,0,0,0-1.1,2.67h6.35v-.16a4.13,4.13,0,0,0-.89-2.56A2.71,2.71,0,0,0,1538.11,28.64Zm18.13-1.55V39.77h-2.18V28.89h-4.31l-.26,4.74a10.5,10.5,0,0,1-1.1,4.68,3.18,3.18,0,0,1-2.8,1.46h-.87V37.86l.62,0a1.81,1.81,0,0,0,1.52-1.22,13.83,13.83,0,0,0,.58-4.08l.24-5.43Zm13.17,0V39.77h-2.18V34.84H1564l-3,4.93h-2.35l3.19-5.26a3.8,3.8,0,0,1-1.87-1.37,3.74,3.74,0,0,1-.65-2.18,3.4,3.4,0,0,1,1.3-2.79,5.4,5.4,0,0,1,3.48-1.08ZM1561.48,31a1.93,1.93,0,0,0,.63,1.5,2.46,2.46,0,0,0,1.68.58h3.44V28.85h-3.11a2.87,2.87,0,0,0-1.92.6A1.88,1.88,0,0,0,1561.48,31Zm18.72,5.92,4.31-9.81h2.7V39.77h-2.16V30.55l-4.1,9.22h-1.5l-4.19-9.42v9.42h-2.17V27.09h2.82Zm10.44,1.74a1.41,1.41,0,0,1,.32-.94,1.31,1.31,0,0,1,1-.38,1.3,1.3,0,0,1,1,.38,1.33,1.33,0,0,1,.35.94,1.25,1.25,0,0,1-.35.9,1.32,1.32,0,0,1-1,.36,1.34,1.34,0,0,1-1-.36A1.32,1.32,0,0,1,1590.64,38.64Zm0-10.35a1.37,1.37,0,0,1,.33-.94,1.55,1.55,0,0,1,2,0,1.29,1.29,0,0,1,.35.94,1.21,1.21,0,0,1-.35.9,1.58,1.58,0,0,1-2,0A1.28,1.28,0,0,1,1590.65,28.29Zm18,2.33h4.76v2.05h-4.76v5.39h-2.18V32.67h-4.75V30.62h4.75v-5h2.18Zm18.2-6.69-7.06,15.84h-2.28l7-15.28h-9.24V22.71h11.53Zm8.56,8.92a18.24,18.24,0,0,1,.7-5.09,15,15,0,0,1,2.12-4.43,9,9,0,0,1,2.92-2.81l.44,1.43a9.38,9.38,0,0,0-2.81,4,17.58,17.58,0,0,0-1.19,6v1a17.5,17.5,0,0,0,1.65,7.85,9.36,9.36,0,0,0,2.36,3.12l-.44,1.32a9.36,9.36,0,0,1-3-2.91A16.29,16.29,0,0,1,1635.44,32.85Zm11.21-2.66h1.63a3.65,3.65,0,0,0,2.42-.81,2.72,2.72,0,0,0,.87-2.12c0-2-1-3-3-3a3.1,3.1,0,0,0-2.25.81,2.77,2.77,0,0,0-.84,2.12h-2.16a4.37,4.37,0,0,1,1.47-3.37,5.44,5.44,0,0,1,3.78-1.34,5.32,5.32,0,0,1,3.78,1.27,4.6,4.6,0,0,1,1.37,3.55,3.73,3.73,0,0,1-.72,2.16,4.28,4.28,0,0,1-2,1.56,4.17,4.17,0,0,1,2.17,1.48A4.08,4.08,0,0,1,1654,35a4.65,4.65,0,0,1-1.5,3.64,5.61,5.61,0,0,1-3.9,1.35,5.85,5.85,0,0,1-3.92-1.3,4.34,4.34,0,0,1-1.5-3.44h2.18a2.82,2.82,0,0,0,.88,2.16,3.35,3.35,0,0,0,2.36.81,3.31,3.31,0,0,0,2.4-.82,3.19,3.19,0,0,0,.83-2.36,2.85,2.85,0,0,0-.91-2.28,4,4,0,0,0-2.64-.82h-1.63ZM1666.13,34h2.37v1.77h-2.37v4H1664v-4h-7.77V34.53l7.64-11.82h2.31Zm-7.49,0H1664V25.68l-.26.46Zm23,5.73h-11.18V38.21l5.91-6.56a13.83,13.83,0,0,0,1.8-2.41,4,4,0,0,0,.51-1.94,3.06,3.06,0,0,0-.81-2.19,2.83,2.83,0,0,0-2.16-.85,3.39,3.39,0,0,0-2.52.92,3.53,3.53,0,0,0-.89,2.56h-2.17a5,5,0,0,1,1.52-3.81,5.62,5.62,0,0,1,4.06-1.45,5.35,5.35,0,0,1,3.76,1.25,4.22,4.22,0,0,1,1.39,3.32q0,2.52-3.21,6l-4.57,5h8.56Zm7.53-6.81a17.7,17.7,0,0,1-.7,5,14.71,14.71,0,0,1-2.09,4.42,9.09,9.09,0,0,1-3,2.88L1683,44a9.52,9.52,0,0,0,2.89-4.29A18.53,18.53,0,0,0,1687,33.2v-.38a19.43,19.43,0,0,0-.52-4.57,14.93,14.93,0,0,0-1.44-3.79,8.84,8.84,0,0,0-2.06-2.62l.45-1.32a9,9,0,0,1,2.95,2.86,14.73,14.73,0,0,1,2.09,4.42A18.33,18.33,0,0,1,1689.16,33Zm20.25,6.81h-11.18V38.21l5.9-6.56a14,14,0,0,0,1.81-2.41,4.12,4.12,0,0,0,.5-1.94,3.06,3.06,0,0,0-.81-2.19,2.82,2.82,0,0,0-2.15-.85,3.38,3.38,0,0,0-2.52.92,3.48,3.48,0,0,0-.89,2.56h-2.17a5,5,0,0,1,1.51-3.81,5.65,5.65,0,0,1,4.07-1.45,5.37,5.37,0,0,1,3.76,1.25,4.24,4.24,0,0,1,1.38,3.32q0,2.52-3.21,6l-4.57,5h8.57Zm9.42,0h-2.18V25.32l-4.37,1.61V25l6.21-2.33h.34Zm17.37-15.84-7.07,15.84h-2.27l7-15.28h-9.24V22.71h11.54Zm7.19,9.48h-5.72V31.64h5.72ZM1753.8,22.7v1.84h-.4a5.69,5.69,0,0,0-4,1.5,6.26,6.26,0,0,0-1.74,4.09,4.64,4.64,0,0,1,3.68-1.55,4.38,4.38,0,0,1,3.55,1.57,6.06,6.06,0,0,1,1.34,4.06,6.05,6.05,0,0,1-1.44,4.22,5,5,0,0,1-3.85,1.58,4.89,4.89,0,0,1-4-1.88,7.5,7.5,0,0,1-1.52-4.85v-.83q0-4.71,2-7.2a7.41,7.41,0,0,1,6-2.55ZM1751,30.39a3.61,3.61,0,0,0-3.35,2.34v.8a5.57,5.57,0,0,0,1,3.4,2.85,2.85,0,0,0,2.36,1.28,2.75,2.75,0,0,0,2.3-1.07,4.47,4.47,0,0,0,.84-2.83,4.4,4.4,0,0,0-.85-2.83A2.69,2.69,0,0,0,1751,30.39Zm18.83-6.46-7.07,15.84h-2.27l7-15.28h-9.23V22.71h11.53Zm7.2,9.48h-5.72V31.64H1777Zm13.07,6.36h-11.18V38.21l5.91-6.56a14,14,0,0,0,1.81-2.41,4.12,4.12,0,0,0,.5-1.94,3.06,3.06,0,0,0-.81-2.19,2.83,2.83,0,0,0-2.16-.85,3.37,3.37,0,0,0-2.51.92,3.49,3.49,0,0,0-.9,2.56h-2.16a5,5,0,0,1,1.51-3.81,5.62,5.62,0,0,1,4.06-1.45,5.4,5.4,0,0,1,3.77,1.25,4.24,4.24,0,0,1,1.38,3.32q0,2.52-3.21,6l-4.57,5h8.56Zm9.43,0h-2.18V25.32l-4.37,1.61V25l6.21-2.33h.34ZM1325.25,64.6l3-9.51h2.32l-5.1,14.64q-1.18,3.17-3.76,3.16l-.41,0-.81-.15V71l.58,0a2.86,2.86,0,0,0,1.72-.45,3.27,3.27,0,0,0,1-1.63l.48-1.29-4.53-12.54h2.37Zm16.8,3.17h-2.18V63.18a11.54,11.54,0,0,1-2.93.37,5,5,0,0,1-3.64-1.21,4.74,4.74,0,0,1-1.26-3.47V55.08h2.17v3.86c0,1.89,1,2.83,2.73,2.83a11.54,11.54,0,0,0,2.93-.37V55.09h2.18Zm11.68-12.68h2.17V67.77h-2.17V58.53l-5.85,9.24h-2.17V55.09h2.17v9.26Zm15.07,1.76h-4.25V67.77h-2.17V56.85h-4.17V55.09h10.59ZM1375.23,68a5.57,5.57,0,0,1-4.19-1.69,6.29,6.29,0,0,1-1.62-4.54v-.39a7.62,7.62,0,0,1,.72-3.37,5.63,5.63,0,0,1,2-2.32,5.1,5.1,0,0,1,2.81-.84,4.76,4.76,0,0,1,3.85,1.63,7.06,7.06,0,0,1,1.37,4.66v.9h-8.59a4.52,4.52,0,0,0,1.09,3,3.48,3.48,0,0,0,2.67,1.15,3.8,3.8,0,0,0,2-.47,5,5,0,0,0,1.39-1.24l1.33,1A5.35,5.35,0,0,1,1375.23,68ZM1375,56.64a2.9,2.9,0,0,0-2.2,1,4.61,4.61,0,0,0-1.1,2.67H1378v-.16a4.13,4.13,0,0,0-.89-2.56A2.71,2.71,0,0,0,1375,56.64Zm18.13-1.55V67.77h-2.18V56.89h-4.31l-.26,4.74a10.37,10.37,0,0,1-1.1,4.68,3.17,3.17,0,0,1-2.8,1.46h-.87V65.86l.63,0a1.81,1.81,0,0,0,1.51-1.22,13.83,13.83,0,0,0,.58-4.08l.24-5.43Zm13.18,0V67.77h-2.18V62.84h-3.27l-3,4.93h-2.35l3.19-5.26a3.8,3.8,0,0,1-1.87-1.37,3.74,3.74,0,0,1-.65-2.18,3.43,3.43,0,0,1,1.3-2.79,5.4,5.4,0,0,1,3.48-1.08ZM1398.33,59a1.93,1.93,0,0,0,.63,1.5,2.5,2.5,0,0,0,1.68.58h3.45V56.85H1401a2.87,2.87,0,0,0-1.92.6A1.88,1.88,0,0,0,1398.33,59Zm18.72,5.92,4.31-9.81h2.71V67.77h-2.17V58.55l-4.1,9.22h-1.5l-4.19-9.42v9.42H1410V55.09h2.81Zm24.66-9.81h2.17V67.77h-2.17V58.53l-5.84,9.24h-2.17V55.09h2.17v9.26Zm18.91,9.81,4.31-9.81h2.71V67.77h-2.17V58.55l-4.1,9.22h-1.5l-4.19-9.42v9.42h-2.16V55.09h2.81ZM1476.39,68a5.54,5.54,0,0,1-4.19-1.69,6.29,6.29,0,0,1-1.62-4.54v-.39a7.76,7.76,0,0,1,.71-3.37,5.72,5.72,0,0,1,2-2.32,5.08,5.08,0,0,1,2.81-.84,4.72,4.72,0,0,1,3.84,1.63,7,7,0,0,1,1.38,4.66v.9h-8.59a4.52,4.52,0,0,0,1.09,3,3.48,3.48,0,0,0,2.67,1.15,3.79,3.79,0,0,0,1.94-.47,5,5,0,0,0,1.4-1.24l1.32,1A5.32,5.32,0,0,1,1476.39,68Zm-.27-11.37a2.88,2.88,0,0,0-2.2,1,4.55,4.55,0,0,0-1.1,2.67h6.35v-.16a4.13,4.13,0,0,0-.89-2.56A2.71,2.71,0,0,0,1476.12,56.64Zm17,.21h-4.26V67.77h-2.17V56.85h-4.17V55.09h10.6Zm1,4.47a7.5,7.5,0,0,1,.73-3.36,5.48,5.48,0,0,1,2-2.29,5.55,5.55,0,0,1,3-.81,5.36,5.36,0,0,1,4.19,1.79,6.9,6.9,0,0,1,1.6,4.77v.15a7.61,7.61,0,0,1-.71,3.33,5.38,5.38,0,0,1-2,2.29,5.62,5.62,0,0,1-3,.82,5.35,5.35,0,0,1-4.19-1.8,6.86,6.86,0,0,1-1.59-4.74Zm2.18.25a5.44,5.44,0,0,0,1,3.39,3.16,3.16,0,0,0,2.63,1.28,3.11,3.11,0,0,0,2.62-1.29,6,6,0,0,0,1-3.63,5.41,5.41,0,0,0-1-3.38,3.29,3.29,0,0,0-5.22,0A5.92,5.92,0,0,0,1496.36,61.57ZM1507.49,66l.75-.92a8.71,8.71,0,0,0,1.44-4.92l.2-5.07h8.17V66h1.63v5.5h-2.17V67.77h-8.85V71.5h-2.16V66Zm2.57,0h5.82V57.1H1512l-.13,3A10.49,10.49,0,0,1,1510.06,66Zm20.23-10.91h2.16V67.77h-2.16V58.53l-5.85,9.24h-2.17V55.09h2.17v9.26ZM1541,66.24a3.14,3.14,0,0,0,2-.71,2.47,2.47,0,0,0,1-1.75h2a4,4,0,0,1-.75,2.07,4.9,4.9,0,0,1-1.85,1.57A5.32,5.32,0,0,1,1541,68a5.27,5.27,0,0,1-4.13-1.73,6.93,6.93,0,0,1-1.52-4.73v-.36a7.69,7.69,0,0,1,.68-3.3,5.12,5.12,0,0,1,2-2.23,5.48,5.48,0,0,1,3-.8,5,5,0,0,1,3.54,1.28,4.55,4.55,0,0,1,1.51,3.31h-2a2.94,2.94,0,0,0-.94-2,2.86,2.86,0,0,0-2.06-.8,3,3,0,0,0-2.57,1.2,5.57,5.57,0,0,0-.9,3.43v.41a5.45,5.45,0,0,0,.9,3.37A3,3,0,0,0,1541,66.24Zm16.9-9.39h-4.26V67.77h-2.16V56.85h-4.18V55.09h10.6Zm9.75,10.92a4.37,4.37,0,0,1-.31-1.33,4.85,4.85,0,0,1-3.61,1.57,4.49,4.49,0,0,1-3.08-1.06,3.44,3.44,0,0,1-1.19-2.69,3.57,3.57,0,0,1,1.5-3.07,7,7,0,0,1,4.24-1.1h2.11v-1a2.44,2.44,0,0,0-.68-1.81,2.73,2.73,0,0,0-2-.68,3.15,3.15,0,0,0-1.94.59,1.74,1.74,0,0,0-.79,1.42h-2.18a3,3,0,0,1,.67-1.83,4.76,4.76,0,0,1,1.83-1.41,6.23,6.23,0,0,1,2.54-.51,5,5,0,0,1,3.44,1.1,4,4,0,0,1,1.29,3v5.84a7.12,7.12,0,0,0,.44,2.78v.18Zm-3.6-1.65a3.82,3.82,0,0,0,1.93-.53,3.24,3.24,0,0,0,1.33-1.37v-2.6h-1.7q-4,0-4,2.33a2,2,0,0,0,.68,1.6A2.65,2.65,0,0,0,1564.07,66.12Zm16.13-1.22,4.31-9.81h2.7V67.77h-2.16V58.55l-4.1,9.22h-1.5l-4.19-9.42v9.42h-2.17V55.09h2.82Zm10.44,1.74a1.41,1.41,0,0,1,.32-.94,1.31,1.31,0,0,1,1-.38,1.3,1.3,0,0,1,1,.38,1.33,1.33,0,0,1,.35.94,1.25,1.25,0,0,1-.35.9,1.32,1.32,0,0,1-1,.36,1.34,1.34,0,0,1-1-.36A1.32,1.32,0,0,1,1590.64,66.64Zm0-10.35a1.37,1.37,0,0,1,.33-.94,1.55,1.55,0,0,1,2,0,1.29,1.29,0,0,1,.35.94,1.21,1.21,0,0,1-.35.9,1.58,1.58,0,0,1-2,0A1.28,1.28,0,0,1,1590.65,56.29Zm18,2.33h4.76v2.05h-4.76v5.39h-2.18V60.67h-4.75V58.62h4.75v-5h2.18Zm18.2-6.69-7.06,15.84h-2.28l7-15.28h-9.24V50.71h11.53Zm8.56,8.92a18.24,18.24,0,0,1,.7-5.09,15,15,0,0,1,2.12-4.43,9,9,0,0,1,2.92-2.81l.44,1.43a9.38,9.38,0,0,0-2.81,4,17.58,17.58,0,0,0-1.19,6v1a17.5,17.5,0,0,0,1.65,7.85,9.36,9.36,0,0,0,2.36,3.12l-.44,1.32a9.36,9.36,0,0,1-3-2.91A16.29,16.29,0,0,1,1635.44,60.85Zm11.21-2.66h1.63a3.65,3.65,0,0,0,2.42-.81,2.72,2.72,0,0,0,.87-2.12c0-2-1-3-3-3a3.1,3.1,0,0,0-2.25.81,2.77,2.77,0,0,0-.84,2.12h-2.16a4.37,4.37,0,0,1,1.47-3.37,5.44,5.44,0,0,1,3.78-1.34,5.32,5.32,0,0,1,3.78,1.27,4.6,4.6,0,0,1,1.37,3.55,3.73,3.73,0,0,1-.72,2.16,4.28,4.28,0,0,1-2,1.56,4.17,4.17,0,0,1,2.17,1.48A4.08,4.08,0,0,1,1654,63a4.65,4.65,0,0,1-1.5,3.64,5.61,5.61,0,0,1-3.9,1.35,5.85,5.85,0,0,1-3.92-1.3,4.34,4.34,0,0,1-1.5-3.44h2.18a2.82,2.82,0,0,0,.88,2.16,3.35,3.35,0,0,0,2.36.81,3.31,3.31,0,0,0,2.4-.82,3.19,3.19,0,0,0,.83-2.36,2.85,2.85,0,0,0-.91-2.28,4,4,0,0,0-2.64-.82h-1.63ZM1666.13,62h2.37v1.77h-2.37v4H1664v-4h-7.77V62.53l7.64-11.82h2.31Zm-7.49,0H1664V53.68l-.26.46Zm23,5.73h-11.18V66.21l5.91-6.56a13.83,13.83,0,0,0,1.8-2.41,4,4,0,0,0,.51-1.94,3.06,3.06,0,0,0-.81-2.19,2.83,2.83,0,0,0-2.16-.85,3.39,3.39,0,0,0-2.52.92,3.53,3.53,0,0,0-.89,2.56h-2.17a5,5,0,0,1,1.52-3.81,5.62,5.62,0,0,1,4.06-1.45,5.35,5.35,0,0,1,3.76,1.25,4.22,4.22,0,0,1,1.39,3.32q0,2.52-3.21,6l-4.57,5h8.56Zm7.53-6.81a17.7,17.7,0,0,1-.7,5,14.71,14.71,0,0,1-2.09,4.42,9.09,9.09,0,0,1-3,2.88L1683,72a9.52,9.52,0,0,0,2.89-4.29A18.53,18.53,0,0,0,1687,61.2v-.38a19.43,19.43,0,0,0-.52-4.57,14.93,14.93,0,0,0-1.44-3.79,8.84,8.84,0,0,0-2.06-2.62l.45-1.32a9,9,0,0,1,2.95,2.86,14.73,14.73,0,0,1,2.09,4.42A18.33,18.33,0,0,1,1689.16,61Zm20.25,6.81h-11.18V66.21l5.9-6.56a14,14,0,0,0,1.81-2.41,4.12,4.12,0,0,0,.5-1.94,3.06,3.06,0,0,0-.81-2.19,2.82,2.82,0,0,0-2.15-.85,3.38,3.38,0,0,0-2.52.92,3.48,3.48,0,0,0-.89,2.56h-2.17a5,5,0,0,1,1.51-3.81,5.65,5.65,0,0,1,4.07-1.45,5.37,5.37,0,0,1,3.76,1.25,4.24,4.24,0,0,1,1.38,3.32q0,2.52-3.21,6l-4.57,5h8.57Zm5.45-9.58h1.62a3.63,3.63,0,0,0,2.42-.81,2.73,2.73,0,0,0,.88-2.12c0-2-1-3-3-3a3.1,3.1,0,0,0-2.25.81,2.76,2.76,0,0,0-.83,2.12h-2.17a4.34,4.34,0,0,1,1.48-3.37,5.44,5.44,0,0,1,3.77-1.34,5.32,5.32,0,0,1,3.78,1.27A4.6,4.6,0,0,1,1722,55.3a3.74,3.74,0,0,1-.73,2.16,4.28,4.28,0,0,1-2,1.56,4.17,4.17,0,0,1,2.17,1.48,4,4,0,0,1,.77,2.52,4.65,4.65,0,0,1-1.5,3.64,5.61,5.61,0,0,1-3.9,1.35,5.8,5.8,0,0,1-3.91-1.3,4.34,4.34,0,0,1-1.5-3.44h2.18a2.78,2.78,0,0,0,.88,2.16,3.87,3.87,0,0,0,4.75,0,3.15,3.15,0,0,0,.83-2.36,2.85,2.85,0,0,0-.91-2.28,4,4,0,0,0-2.64-.82h-1.62Zm18.83-7.49v1.84h-.4a5.69,5.69,0,0,0-4,1.5,6.26,6.26,0,0,0-1.74,4.09,4.64,4.64,0,0,1,3.68-1.55,4.38,4.38,0,0,1,3.55,1.57,6.86,6.86,0,0,1-.1,8.28A5,5,0,0,1,1730.8,68a4.89,4.89,0,0,1-4-1.88,7.5,7.5,0,0,1-1.52-4.85v-.83q0-4.71,2-7.2a7.41,7.41,0,0,1,6-2.55Zm-2.85,7.69a3.61,3.61,0,0,0-3.35,2.34v.8a5.57,5.57,0,0,0,1,3.4,2.85,2.85,0,0,0,2.36,1.28,2.75,2.75,0,0,0,2.3-1.07,4.48,4.48,0,0,0,.85-2.83,4.4,4.4,0,0,0-.86-2.83A2.69,2.69,0,0,0,1730.84,58.39Zm12.55,3h-5.72V59.64h5.72Zm12.25-6.25a4,4,0,0,1-.68,2.28,4.63,4.63,0,0,1-1.82,1.56,4.88,4.88,0,0,1,2.11,1.67,4.24,4.24,0,0,1,.78,2.5,4.44,4.44,0,0,1-1.5,3.52,6.53,6.53,0,0,1-7.87,0,4.5,4.5,0,0,1-1.48-3.52,4.38,4.38,0,0,1,.75-2.5A4.83,4.83,0,0,1,1748,59a4.44,4.44,0,0,1-1.79-1.55,4,4,0,0,1-.66-2.27,4.43,4.43,0,0,1,1.38-3.42,5.89,5.89,0,0,1,7.28,0A4.41,4.41,0,0,1,1755.64,55.16Zm-1.77,8a3.13,3.13,0,0,0-.92-2.33,3.2,3.2,0,0,0-2.36-.9,3,3,0,0,0-3.24,3.23,3.06,3.06,0,0,0,.86,2.29,3.87,3.87,0,0,0,4.79,0A3.06,3.06,0,0,0,1753.87,63.12Zm-3.26-10.86a2.84,2.84,0,0,0-2.08.79,3.31,3.31,0,0,0,0,4.26,2.81,2.81,0,0,0,2.09.79,2.74,2.74,0,0,0,2.07-.79,3.2,3.2,0,0,0,0-4.23A2.74,2.74,0,0,0,1750.61,52.26Zm9.15,7,.87-8.51h8.74v2h-6.9l-.52,4.66a5.46,5.46,0,0,1,2.85-.74,4.65,4.65,0,0,1,3.7,1.55,6,6,0,0,1,1.37,4.16,5.87,5.87,0,0,1-1.42,4.16,5.22,5.22,0,0,1-4,1.51,5.36,5.36,0,0,1-3.69-1.26,5,5,0,0,1-1.63-3.47h2a3.48,3.48,0,0,0,1,2.22,3.25,3.25,0,0,0,2.22.74,2.93,2.93,0,0,0,2.37-1,4.29,4.29,0,0,0,.87-2.85,3.93,3.93,0,0,0-.94-2.74,3.13,3.13,0,0,0-2.47-1,3.6,3.6,0,0,0-2.23.62l-.57.47ZM1777,61.41h-5.72V59.64H1777Zm10.4-10.71v1.84h-.4a5.71,5.71,0,0,0-4,1.5,6.21,6.21,0,0,0-1.73,4.09,4.63,4.63,0,0,1,3.68-1.55,4.4,4.4,0,0,1,3.55,1.57,6.84,6.84,0,0,1-.11,8.28A4.93,4.93,0,0,1,1784.5,68a4.87,4.87,0,0,1-4-1.88,7.45,7.45,0,0,1-1.53-4.85v-.83q0-4.71,2-7.2a7.4,7.4,0,0,1,6-2.55Zm-2.85,7.69a3.5,3.5,0,0,0-2,.66,3.6,3.6,0,0,0-1.3,1.68v.8a5.64,5.64,0,0,0,1,3.4,2.87,2.87,0,0,0,2.37,1.28,2.77,2.77,0,0,0,2.3-1.07,4.47,4.47,0,0,0,.84-2.83,4.4,4.4,0,0,0-.85-2.83A2.72,2.72,0,0,0,1784.53,58.39Zm15,9.38h-2.18V53.32l-4.37,1.61V53l6.21-2.33h.34ZM1454,94l.75-.92a8.79,8.79,0,0,0,1.44-4.92l.2-5.07h8.17V94h1.63v5.5h-2.17V95.77h-8.85V99.5H1453l0-5.5Zm2.57,0h5.82V85.1h-3.9l-.13,3A10.49,10.49,0,0,1,1456.6,94Zm20.22-10.91H1479V95.77h-2.17V86.53L1471,95.77h-2.17V83.09H1471v9.26Zm16.36,6.48a7.63,7.63,0,0,1-1.32,4.67,4.24,4.24,0,0,1-3.59,1.77,4.63,4.63,0,0,1-3.63-1.47v6.11h-2.17V83.09h2l.11,1.41a4.47,4.47,0,0,1,3.68-1.64,4.32,4.32,0,0,1,3.61,1.72,7.66,7.66,0,0,1,1.33,4.79Zm-2.16-.24a5.61,5.61,0,0,0-.92-3.39,2.93,2.93,0,0,0-2.51-1.24,3.19,3.19,0,0,0-2.95,1.74V92.5a3.19,3.19,0,0,0,3,1.74,2.92,2.92,0,0,0,2.47-1.23A6.11,6.11,0,0,0,1491,89.33ZM1501.21,96a5.54,5.54,0,0,1-4.19-1.69,6.29,6.29,0,0,1-1.62-4.54v-.39a7.76,7.76,0,0,1,.71-3.37,5.72,5.72,0,0,1,2-2.32,5.08,5.08,0,0,1,2.81-.84,4.76,4.76,0,0,1,3.85,1.63,7.06,7.06,0,0,1,1.37,4.66v.9h-8.59a4.52,4.52,0,0,0,1.09,3,3.48,3.48,0,0,0,2.67,1.15,3.79,3.79,0,0,0,1.94-.47,5,5,0,0,0,1.4-1.24l1.32,1A5.32,5.32,0,0,1,1501.21,96Zm-.27-11.37a2.88,2.88,0,0,0-2.2,1,4.55,4.55,0,0,0-1.1,2.67H1504v-.16a4.13,4.13,0,0,0-.89-2.56A2.71,2.71,0,0,0,1500.94,84.64Zm11.68,5.73H1511v5.4h-2.18V83.09H1511v5.37h1.42l4.27-5.37h2.62l-5,6.1,5.43,6.58H1517Zm18.44-5.52h-4.26V95.77h-2.16V84.85h-4.18V83.09h10.6Zm1,4.47a7.5,7.5,0,0,1,.73-3.36,5.48,5.48,0,0,1,2-2.29,5.56,5.56,0,0,1,3-.81,5.34,5.34,0,0,1,4.18,1.79,6.9,6.9,0,0,1,1.6,4.77v.15a7.47,7.47,0,0,1-.71,3.33,5.32,5.32,0,0,1-2,2.29,5.62,5.62,0,0,1-3,.82,5.33,5.33,0,0,1-4.18-1.8,6.82,6.82,0,0,1-1.6-4.74Zm2.18.25a5.5,5.5,0,0,0,1,3.39,3.17,3.17,0,0,0,2.63,1.28A3.1,3.1,0,0,0,1540.5,93a6,6,0,0,0,1-3.63,5.41,5.41,0,0,0-1-3.38,3.28,3.28,0,0,0-5.21,0A5.85,5.85,0,0,0,1534.28,89.57Zm22.79,0a7.63,7.63,0,0,1-1.32,4.67,4.24,4.24,0,0,1-3.59,1.77,4.63,4.63,0,0,1-3.63-1.47v6.11h-2.17V83.09h2l.11,1.41a4.47,4.47,0,0,1,3.68-1.64,4.3,4.3,0,0,1,3.61,1.72,7.66,7.66,0,0,1,1.33,4.79Zm-2.16-.24a5.61,5.61,0,0,0-.92-3.39,2.93,2.93,0,0,0-2.51-1.24,3.19,3.19,0,0,0-3,1.74V92.5a3.19,3.19,0,0,0,3,1.74A2.92,2.92,0,0,0,1554,93,6.11,6.11,0,0,0,1554.91,89.33Zm12.76,6.44a4.37,4.37,0,0,1-.31-1.33,4.85,4.85,0,0,1-3.61,1.57,4.49,4.49,0,0,1-3.08-1.06,3.44,3.44,0,0,1-1.19-2.69,3.57,3.57,0,0,1,1.5-3.07,7,7,0,0,1,4.24-1.1h2.11v-1a2.44,2.44,0,0,0-.68-1.81,2.73,2.73,0,0,0-2-.68,3.15,3.15,0,0,0-1.94.59,1.74,1.74,0,0,0-.79,1.42h-2.18a3,3,0,0,1,.67-1.83,4.76,4.76,0,0,1,1.83-1.41,6.23,6.23,0,0,1,2.54-.51,5,5,0,0,1,3.44,1.1,4,4,0,0,1,1.29,3v5.84a7.12,7.12,0,0,0,.44,2.78v.18Zm-3.6-1.65a3.82,3.82,0,0,0,1.93-.53,3.24,3.24,0,0,0,1.33-1.37v-2.6h-1.7q-4,0-4,2.33a2,2,0,0,0,.68,1.6A2.65,2.65,0,0,0,1564.07,94.12Zm16.13-1.22,4.31-9.81h2.7V95.77h-2.16V86.55l-4.1,9.22h-1.5l-4.19-9.42v9.42h-2.17V83.09h2.82Zm10.44,1.74a1.41,1.41,0,0,1,.32-.94,1.31,1.31,0,0,1,1-.38,1.3,1.3,0,0,1,1,.38,1.33,1.33,0,0,1,.35.94,1.25,1.25,0,0,1-.35.9,1.32,1.32,0,0,1-1,.36,1.34,1.34,0,0,1-1-.36A1.32,1.32,0,0,1,1590.64,94.64Zm0-10.35a1.37,1.37,0,0,1,.33-.94,1.55,1.55,0,0,1,2,0,1.29,1.29,0,0,1,.35.94,1.21,1.21,0,0,1-.35.9,1.58,1.58,0,0,1-2,0A1.28,1.28,0,0,1,1590.65,84.29Zm18,2.33h4.76v2h-4.76v5.39h-2.18V88.67h-4.75v-2h4.75v-5h2.18Zm18.2-6.69-7.06,15.84h-2.28l7-15.28h-9.24V78.71h11.53Zm8.56,8.92a18.24,18.24,0,0,1,.7-5.09,15,15,0,0,1,2.12-4.43,9,9,0,0,1,2.92-2.81l.44,1.43a9.38,9.38,0,0,0-2.81,4,17.58,17.58,0,0,0-1.19,6v1a17.5,17.5,0,0,0,1.65,7.85,9.36,9.36,0,0,0,2.36,3.12l-.44,1.32a9.36,9.36,0,0,1-3-2.91A16.29,16.29,0,0,1,1635.44,88.85Zm16.37-.58a5.15,5.15,0,0,1-1.63,1.3,4.36,4.36,0,0,1-2.06.5,4.59,4.59,0,0,1-2.58-.73,4.74,4.74,0,0,1-1.69-2,7,7,0,0,1-.6-2.92,7.13,7.13,0,0,1,.65-3.08,4.87,4.87,0,0,1,1.85-2.1,5.32,5.32,0,0,1,2.79-.72,4.74,4.74,0,0,1,4,1.89,8.2,8.2,0,0,1,1.47,5.16v.63q0,5-2,7.28c-1.31,1.52-3.29,2.31-5.94,2.34h-.42V94h.45a6,6,0,0,0,4.13-1.4A6,6,0,0,0,1651.81,88.27Zm-3.34,0a3.28,3.28,0,0,0,2-.67,3.84,3.84,0,0,0,1.35-1.65v-.86a5.93,5.93,0,0,0-.93-3.47,2.75,2.75,0,0,0-2.34-1.34,2.8,2.8,0,0,0-2.3,1.1,4.56,4.56,0,0,0-.86,2.89,4.72,4.72,0,0,0,.83,2.88A2.66,2.66,0,0,0,1648.47,88.27Zm19.21.23a9.92,9.92,0,0,1-1.31,5.66,5.4,5.4,0,0,1-8.1,0,9.37,9.37,0,0,1-1.36-5.41v-2.9a9.69,9.69,0,0,1,1.3-5.59,5.5,5.5,0,0,1,8.13,0c.87,1.17,1.31,3,1.34,5.43Zm-2.17-3a7.86,7.86,0,0,0-.78-4,3,3,0,0,0-4.87,0,7.79,7.79,0,0,0-.79,3.86v3.47a8.19,8.19,0,0,0,.8,4.09,2.68,2.68,0,0,0,2.44,1.31,2.63,2.63,0,0,0,2.38-1.24,7.87,7.87,0,0,0,.82-3.92Zm16.12,10.24h-11.18V94.21l5.91-6.56a13.83,13.83,0,0,0,1.8-2.41,4,4,0,0,0,.51-1.94,3.06,3.06,0,0,0-.81-2.19,2.83,2.83,0,0,0-2.16-.85,3.39,3.39,0,0,0-2.52.92,3.53,3.53,0,0,0-.89,2.56h-2.17a5,5,0,0,1,1.52-3.81,5.62,5.62,0,0,1,4.06-1.45,5.35,5.35,0,0,1,3.76,1.25,4.22,4.22,0,0,1,1.39,3.32q0,2.52-3.21,6l-4.57,5h8.56Zm7.53-6.81a17.7,17.7,0,0,1-.7,5,14.71,14.71,0,0,1-2.09,4.42,9.09,9.09,0,0,1-3,2.88L1683,100a9.52,9.52,0,0,0,2.89-4.29A18.53,18.53,0,0,0,1687,89.2v-.38a19.43,19.43,0,0,0-.52-4.57,14.93,14.93,0,0,0-1.44-3.79,8.84,8.84,0,0,0-2.06-2.62l.45-1.32a9,9,0,0,1,2.95,2.86,14.73,14.73,0,0,1,2.09,4.42A18.33,18.33,0,0,1,1689.16,89Zm20.08-9-7.06,15.84h-2.28l7-15.28h-9.24V78.71h11.53ZM1720,88.27a5,5,0,0,1-1.63,1.3,4.33,4.33,0,0,1-2.06.5,4.64,4.64,0,0,1-2.58-.73,4.81,4.81,0,0,1-1.69-2,7.63,7.63,0,0,1,0-6,4.93,4.93,0,0,1,1.85-2.1,5.32,5.32,0,0,1,2.79-.72,4.76,4.76,0,0,1,4,1.89,8.26,8.26,0,0,1,1.46,5.16v.63q0,5-2,7.28c-1.31,1.52-3.29,2.31-5.94,2.34h-.42V94h.46a5.17,5.17,0,0,0,5.69-5.69Zm-3.34,0a3.31,3.31,0,0,0,2-.67A3.89,3.89,0,0,0,1720,86v-.86a6,6,0,0,0-.92-3.47,2.82,2.82,0,0,0-4.64-.24,4.5,4.5,0,0,0-.87,2.89,4.79,4.79,0,0,0,.83,2.88A2.66,2.66,0,0,0,1716.67,88.27Zm9.51-1,.86-8.51h8.75v2h-6.91l-.51,4.66a5.4,5.4,0,0,1,2.84-.74,4.69,4.69,0,0,1,3.71,1.55,6,6,0,0,1,1.37,4.16,5.87,5.87,0,0,1-1.43,4.16,5.21,5.21,0,0,1-4,1.51,5.36,5.36,0,0,1-3.69-1.26,5,5,0,0,1-1.63-3.47h2a3.47,3.47,0,0,0,1,2.22,3.26,3.26,0,0,0,2.23.74,2.93,2.93,0,0,0,2.36-1,4.29,4.29,0,0,0,.87-2.85,3.88,3.88,0,0,0-.94-2.74,3.12,3.12,0,0,0-2.47-1.05,3.62,3.62,0,0,0-2.23.62l-.57.47Zm17.21,2.19h-5.72V87.64h5.72Zm2.9-2.19.86-8.51h8.74v2H1749l-.51,4.66a5.4,5.4,0,0,1,2.84-.74,4.69,4.69,0,0,1,3.71,1.55,6,6,0,0,1,1.37,4.16A5.87,5.87,0,0,1,1755,94.5a5.21,5.21,0,0,1-4,1.51,5.41,5.41,0,0,1-3.7-1.26,5,5,0,0,1-1.62-3.47h2a3.47,3.47,0,0,0,1,2.22,3.26,3.26,0,0,0,2.23.74,2.93,2.93,0,0,0,2.36-1,4.29,4.29,0,0,0,.87-2.85,3.88,3.88,0,0,0-.94-2.74,3.12,3.12,0,0,0-2.47-1.05,3.6,3.6,0,0,0-2.23.62l-.57.47Zm19.6,8.55h-2.18V81.32l-4.37,1.61V81l6.21-2.33h.34ZM1777,89.41h-5.72V87.64H1777Zm12.24-6.25a3.9,3.9,0,0,1-.68,2.28,4.6,4.6,0,0,1-1.81,1.56,4.88,4.88,0,0,1,2.11,1.67,4.24,4.24,0,0,1,.78,2.5,4.44,4.44,0,0,1-1.5,3.52,6.53,6.53,0,0,1-7.87,0,4.47,4.47,0,0,1-1.48-3.52,4.38,4.38,0,0,1,.75-2.5,4.83,4.83,0,0,1,2.1-1.69,4.47,4.47,0,0,1-1.8-1.55,4.1,4.1,0,0,1-.65-2.27,4.43,4.43,0,0,1,1.38-3.42,5.89,5.89,0,0,1,7.28,0A4.4,4.4,0,0,1,1789.22,83.16Zm-1.77,8a3.13,3.13,0,0,0-.91-2.33,3.2,3.2,0,0,0-2.37-.9,3,3,0,0,0-3.23,3.23,3.06,3.06,0,0,0,.85,2.29,3.88,3.88,0,0,0,4.8,0A3.09,3.09,0,0,0,1787.45,91.12Zm-3.25-10.86a2.8,2.8,0,0,0-2.08.79,3.31,3.31,0,0,0,0,4.26,2.8,2.8,0,0,0,2.09.79,2.77,2.77,0,0,0,2.07-.79,2.91,2.91,0,0,0,.78-2.11,2.87,2.87,0,0,0-.8-2.12A2.76,2.76,0,0,0,1784.2,80.26Zm18.85,8.24a9.92,9.92,0,0,1-1.3,5.66,5.41,5.41,0,0,1-8.11,0,9.45,9.45,0,0,1-1.36-5.41v-2.9a9.69,9.69,0,0,1,1.3-5.59,5.5,5.5,0,0,1,8.13,0,9.25,9.25,0,0,1,1.34,5.43Zm-2.17-3a8,8,0,0,0-.77-4,3,3,0,0,0-4.88,0,7.8,7.8,0,0,0-.78,3.86v3.47a8.09,8.09,0,0,0,.8,4.09,2.68,2.68,0,0,0,2.43,1.31,2.62,2.62,0,0,0,2.38-1.24,7.66,7.66,0,0,0,.82-3.92Zm-442.94,21.18,5.58,13.92,5.57-13.92H1372v17.06h-2.25v-6.64L1370,110l-5.6,13.81h-1.72L1357.06,110l.22,7.14v6.64H1355V106.71Zm25.91,4.38H1386v12.68h-2.17v-9.24l-5.85,9.24h-2.17V111.09H1378v9.26Zm16,12.68h-2.17v-5.41h-5.83v5.41h-2.18V111.09h2.18v5.5h5.83v-5.5h2.17Zm10.46-9.21a1.67,1.67,0,0,0-.68-1.4,2.9,2.9,0,0,0-1.86-.53,3,3,0,0,0-1.92.6,1.73,1.73,0,0,0-.77,1.4h-2.15a3.28,3.28,0,0,1,1.38-2.71,6.48,6.48,0,0,1,6.93-.09,3.24,3.24,0,0,1,1.24,2.72,2.6,2.6,0,0,1-.52,1.57,3.46,3.46,0,0,1-1.46,1.14,2.9,2.9,0,0,1,2.21,2.95,3.3,3.3,0,0,1-1.35,2.77,5.78,5.78,0,0,1-3.59,1,5.89,5.89,0,0,1-3.62-1.07,3.46,3.46,0,0,1-1.42-2.91h2.15a2,2,0,0,0,.82,1.6,3.3,3.3,0,0,0,2.07.65,3.25,3.25,0,0,0,2-.57,1.77,1.77,0,0,0,.76-1.49,1.72,1.72,0,0,0-.64-1.52,3.28,3.28,0,0,0-2-.47h-2.17v-1.83h2.36C1409.58,116.35,1410.32,115.74,1410.32,114.56Zm5.11,7.44.75-.92a8.87,8.87,0,0,0,1.44-4.92l.2-5.07H1426V122h1.63v5.5h-2.17v-3.73h-8.85v3.73h-2.17l0-5.5Zm2.57,0h5.82v-8.9h-3.9l-.13,3A10.49,10.49,0,0,1,1418,122Zm22.73-4.43a7.63,7.63,0,0,1-1.32,4.67,4.26,4.26,0,0,1-3.59,1.77,4.63,4.63,0,0,1-3.63-1.47v6.11H1430V111.09h2l.11,1.41a4.46,4.46,0,0,1,3.68-1.64,4.28,4.28,0,0,1,3.6,1.72,7.6,7.6,0,0,1,1.34,4.79Zm-2.17-.24a5.61,5.61,0,0,0-.91-3.39,3,3,0,0,0-2.51-1.24,3.18,3.18,0,0,0-3,1.74v6.06a3.19,3.19,0,0,0,3,1.74,2.93,2.93,0,0,0,2.48-1.23A6.18,6.18,0,0,0,1438.56,117.33Zm12.76,6.44a4.78,4.78,0,0,1-.3-1.33,4.86,4.86,0,0,1-3.61,1.57,4.47,4.47,0,0,1-3.08-1.06,3.45,3.45,0,0,1-1.2-2.69,3.57,3.57,0,0,1,1.5-3.07,7.06,7.06,0,0,1,4.24-1.11H1451v-1a2.41,2.41,0,0,0-.68-1.81,2.72,2.72,0,0,0-2-.68,3.15,3.15,0,0,0-1.94.59,1.71,1.71,0,0,0-.79,1.42h-2.18a3,3,0,0,1,.67-1.83,4.68,4.68,0,0,1,1.83-1.41,6.23,6.23,0,0,1,2.54-.51,5,5,0,0,1,3.43,1.1,3.93,3.93,0,0,1,1.29,3v5.84a7,7,0,0,0,.45,2.77v.19Zm-3.59-1.65a3.82,3.82,0,0,0,1.93-.53,3.16,3.16,0,0,0,1.32-1.37v-2.6h-1.69q-4,0-4,2.33a2,2,0,0,0,.68,1.6A2.63,2.63,0,0,0,1447.73,122.12Zm9,1.65V111.09h5a7,7,0,0,1,3.87.89,2.89,2.89,0,0,1,1.36,2.59,2.64,2.64,0,0,1-.52,1.6,3.36,3.36,0,0,1-1.56,1.08,3.39,3.39,0,0,1,1.84,1,2.7,2.7,0,0,1,.7,1.87,3.1,3.1,0,0,1-1.29,2.68,6.15,6.15,0,0,1-3.62.92Zm2.17-5.56V122h3.58a3.31,3.31,0,0,0,2-.51,1.67,1.67,0,0,0,.68-1.42q0-1.89-2.79-1.89Zm0-1.74h2.8c2,0,3-.59,3-1.78s-1-1.8-2.89-1.84h-3Zm30.67,7.3h-2.27V108.56h-8.41v15.21h-2.25V106.71h12.93Zm14.47-6.2a7.57,7.57,0,0,1-1.33,4.67,4.23,4.23,0,0,1-3.58,1.77,4.63,4.63,0,0,1-3.63-1.47v6.11h-2.17V111.09h2l.1,1.41a4.49,4.49,0,0,1,3.68-1.64,4.29,4.29,0,0,1,3.61,1.72,7.66,7.66,0,0,1,1.34,4.79Zm-2.17-.24a5.61,5.61,0,0,0-.91-3.39,3,3,0,0,0-2.51-1.24,3.18,3.18,0,0,0-3,1.74v6.06a3.18,3.18,0,0,0,3,1.74A2.9,2.9,0,0,0,1501,121,6.11,6.11,0,0,0,1501.89,117.33Zm13.14-6.24h2.17v12.68H1515v-9.24l-5.85,9.24H1507V111.09h2.17v9.26Zm9.59,7.28H1523v5.4h-2.18V111.09H1523v5.37h1.42l4.27-5.37h2.62l-5,6.1,5.43,6.58H1529Zm16.84,5.4a4.78,4.78,0,0,1-.3-1.33,4.86,4.86,0,0,1-3.61,1.57,4.47,4.47,0,0,1-3.08-1.06,3.45,3.45,0,0,1-1.2-2.69,3.57,3.57,0,0,1,1.5-3.07,7.09,7.09,0,0,1,4.25-1.11h2.1v-1a2.44,2.44,0,0,0-.67-1.81,2.76,2.76,0,0,0-2-.68,3.15,3.15,0,0,0-1.94.59,1.71,1.71,0,0,0-.79,1.42h-2.18a3,3,0,0,1,.67-1.83,4.68,4.68,0,0,1,1.83-1.41,6.23,6.23,0,0,1,2.54-.51A5,5,0,0,1,1542,112a3.93,3.93,0,0,1,1.29,3v5.84a7,7,0,0,0,.45,2.77v.19Zm-3.59-1.65a3.82,3.82,0,0,0,1.93-.53,3.16,3.16,0,0,0,1.32-1.37v-2.6h-1.69q-4,0-4,2.33a2,2,0,0,0,.68,1.6A2.63,2.63,0,0,0,1537.87,122.12ZM1554,120.9l4.31-9.81H1561v12.68h-2.17v-9.22l-4.1,9.22h-1.5l-4.18-9.42v9.42h-2.17V111.09h2.81Zm12.88-5.44h3.29a5.05,5.05,0,0,1,3.41,1.13,3.76,3.76,0,0,1,1.26,3,3.87,3.87,0,0,1-1.29,3,5,5,0,0,1-3.47,1.15h-5.37V111.09h2.17Zm0,1.77V122h3.22a2.64,2.64,0,0,0,1.89-.62,2.23,2.23,0,0,0,.67-1.72,2.34,2.34,0,0,0-.66-1.72,2.44,2.44,0,0,0-1.81-.71Zm20.36-6.14v12.68h-2.18v-4.93h-3.27l-3,4.93h-2.34l3.18-5.26a3.84,3.84,0,0,1-1.87-1.37,3.76,3.76,0,0,1-.65-2.18,3.43,3.43,0,0,1,1.3-2.79,5.4,5.4,0,0,1,3.48-1.08Zm-7.94,3.89a1.9,1.9,0,0,0,.64,1.5,2.45,2.45,0,0,0,1.67.58h3.45v-4.21h-3.12a2.87,2.87,0,0,0-1.92.6A1.88,1.88,0,0,0,1579.29,115Zm11.35,7.66a1.41,1.41,0,0,1,.32-.94,1.31,1.31,0,0,1,1-.38,1.3,1.3,0,0,1,1,.38,1.33,1.33,0,0,1,.35.94,1.25,1.25,0,0,1-.35.9,1.32,1.32,0,0,1-1,.36,1.34,1.34,0,0,1-1-.36A1.32,1.32,0,0,1,1590.64,122.64Zm0-10.35a1.37,1.37,0,0,1,.33-.94,1.55,1.55,0,0,1,2,0,1.29,1.29,0,0,1,.35.94,1.21,1.21,0,0,1-.35.9,1.58,1.58,0,0,1-2,0A1.28,1.28,0,0,1,1590.65,112.29Zm18,2.33h4.76v2h-4.76v5.39h-2.18v-5.39h-4.75v-2h4.75v-5h2.18Zm18.2-6.69-7.06,15.84h-2.28l7-15.28h-9.24v-1.78h11.53Zm8.56,8.92a18.24,18.24,0,0,1,.7-5.09,15,15,0,0,1,2.12-4.43,9,9,0,0,1,2.92-2.81l.44,1.43a9.38,9.38,0,0,0-2.81,4,17.53,17.53,0,0,0-1.19,6v1a17.5,17.5,0,0,0,1.65,7.85,9.36,9.36,0,0,0,2.36,3.12l-.44,1.32a9.36,9.36,0,0,1-3-2.91A16.29,16.29,0,0,1,1635.44,116.85Zm11.21-2.66h1.63a3.65,3.65,0,0,0,2.42-.81,2.72,2.72,0,0,0,.87-2.12c0-2-1-3-3-3a3.1,3.1,0,0,0-2.25.81,2.77,2.77,0,0,0-.84,2.12h-2.16a4.35,4.35,0,0,1,1.47-3.37,5.4,5.4,0,0,1,3.78-1.34,5.32,5.32,0,0,1,3.78,1.27,4.6,4.6,0,0,1,1.37,3.55,3.75,3.75,0,0,1-.72,2.16,4.34,4.34,0,0,1-2,1.56,4.17,4.17,0,0,1,2.17,1.48A4.07,4.07,0,0,1,1654,119a4.66,4.66,0,0,1-1.5,3.65,5.61,5.61,0,0,1-3.9,1.35,5.85,5.85,0,0,1-3.92-1.3,4.34,4.34,0,0,1-1.5-3.44h2.18a2.82,2.82,0,0,0,.88,2.16,3.35,3.35,0,0,0,2.36.81,3.31,3.31,0,0,0,2.4-.82,3.2,3.2,0,0,0,.83-2.36,2.85,2.85,0,0,0-.91-2.28,4,4,0,0,0-2.64-.82h-1.63Zm19.48,3.85h2.37v1.77h-2.37v4H1664v-4h-7.77v-1.28l7.64-11.82h2.31Zm-7.49,0H1664v-8.37l-.26.47Zm23,5.73h-11.18v-1.56l5.91-6.56a13.83,13.83,0,0,0,1.8-2.41,4,4,0,0,0,.51-1.94,3.06,3.06,0,0,0-.81-2.19,2.83,2.83,0,0,0-2.16-.85,3.39,3.39,0,0,0-2.52.92,3.53,3.53,0,0,0-.89,2.56h-2.17a5,5,0,0,1,1.52-3.81,5.62,5.62,0,0,1,4.06-1.45,5.35,5.35,0,0,1,3.76,1.25,4.22,4.22,0,0,1,1.39,3.32q0,2.52-3.21,6l-4.57,5h8.56Zm7.53-6.81a17.7,17.7,0,0,1-.7,5,14.71,14.71,0,0,1-2.09,4.42,9.09,9.09,0,0,1-3,2.88L1683,128a9.52,9.52,0,0,0,2.89-4.29,18.53,18.53,0,0,0,1.13-6.47v-.38a19.43,19.43,0,0,0-.52-4.57,14.93,14.93,0,0,0-1.44-3.79,8.84,8.84,0,0,0-2.06-2.62l.45-1.32a9,9,0,0,1,2.95,2.86,14.73,14.73,0,0,1,2.09,4.42A18.33,18.33,0,0,1,1689.16,117Zm20.25,6.81h-11.18v-1.56l5.9-6.56a14,14,0,0,0,1.81-2.41,4.12,4.12,0,0,0,.5-1.94,3.06,3.06,0,0,0-.81-2.19,2.82,2.82,0,0,0-2.15-.85,3.38,3.38,0,0,0-2.52.92,3.48,3.48,0,0,0-.89,2.56h-2.17a5,5,0,0,1,1.51-3.81,5.65,5.65,0,0,1,4.07-1.45,5.37,5.37,0,0,1,3.76,1.25,4.24,4.24,0,0,1,1.38,3.32q0,2.52-3.21,6l-4.57,5h8.57Zm3.29-8.55.87-8.51h8.74v2h-6.9l-.52,4.66a5.46,5.46,0,0,1,2.85-.74,4.69,4.69,0,0,1,3.7,1.54,6,6,0,0,1,1.37,4.16,5.83,5.83,0,0,1-1.43,4.17,5.2,5.2,0,0,1-4,1.51,5.36,5.36,0,0,1-3.69-1.26,5,5,0,0,1-1.63-3.47h2.05a3.47,3.47,0,0,0,1,2.22,3.3,3.3,0,0,0,2.23.74,2.93,2.93,0,0,0,2.37-1,4.29,4.29,0,0,0,.86-2.85,3.92,3.92,0,0,0-.93-2.74,3.14,3.14,0,0,0-2.48-1.05,3.59,3.59,0,0,0-2.22.62l-.58.47Zm22.83-4.06a4,4,0,0,1-.68,2.28A4.63,4.63,0,0,1,1733,115a4.88,4.88,0,0,1,2.11,1.67,4.25,4.25,0,0,1,.79,2.5,4.44,4.44,0,0,1-1.5,3.52,6.54,6.54,0,0,1-7.88,0,4.5,4.5,0,0,1-1.48-3.52,4.38,4.38,0,0,1,.75-2.5,4.83,4.83,0,0,1,2.1-1.69,4.39,4.39,0,0,1-1.79-1.56,4,4,0,0,1-.66-2.26,4.39,4.39,0,0,1,1.39-3.42,5.87,5.87,0,0,1,7.27,0A4.4,4.4,0,0,1,1735.53,111.16Zm-1.77,8a3.13,3.13,0,0,0-.92-2.33,3.2,3.2,0,0,0-2.36-.9,3,3,0,0,0-3.24,3.23,3.06,3.06,0,0,0,.86,2.29,3.87,3.87,0,0,0,4.79,0A3.06,3.06,0,0,0,1733.76,119.12Zm-3.26-10.86a2.8,2.8,0,0,0-2.07.79,2.89,2.89,0,0,0-.79,2.15,3,3,0,0,0,.77,2.11,2.81,2.81,0,0,0,2.09.79,2.74,2.74,0,0,0,2.07-.79,3.2,3.2,0,0,0,0-4.23A2.74,2.74,0,0,0,1730.5,108.26Zm12.89,9.15h-5.72v-1.77h5.72Zm12.6-.91a10,10,0,0,1-1.3,5.66,5.41,5.41,0,0,1-8.11,0,9.37,9.37,0,0,1-1.36-5.41v-2.9a9.69,9.69,0,0,1,1.3-5.59,5.5,5.5,0,0,1,8.13,0c.87,1.17,1.31,3,1.34,5.43Zm-2.17-3a8,8,0,0,0-.77-4,2.68,2.68,0,0,0-2.45-1.26,2.62,2.62,0,0,0-2.43,1.25,7.69,7.69,0,0,0-.78,3.86v3.46a8.16,8.16,0,0,0,.79,4.09,2.67,2.67,0,0,0,2.44,1.32A2.63,2.63,0,0,0,1753,121a7.76,7.76,0,0,0,.82-3.92Zm16-5.6-7.07,15.84h-2.27l7-15.28h-9.23v-1.78h11.53Zm7.2,9.48h-5.72v-1.77H1777Zm12.24-6.25a3.92,3.92,0,0,1-.68,2.28,4.6,4.6,0,0,1-1.81,1.56,4.88,4.88,0,0,1,2.11,1.67,4.24,4.24,0,0,1,.78,2.5,4.44,4.44,0,0,1-1.5,3.52,6.53,6.53,0,0,1-7.87,0,4.47,4.47,0,0,1-1.48-3.52,4.38,4.38,0,0,1,.75-2.5,4.83,4.83,0,0,1,2.1-1.69,4.42,4.42,0,0,1-1.8-1.56,4,4,0,0,1-.65-2.26,4.42,4.42,0,0,1,1.38-3.42,5.89,5.89,0,0,1,7.28,0A4.39,4.39,0,0,1,1789.22,111.16Zm-1.77,8a3.13,3.13,0,0,0-.91-2.33,3.2,3.2,0,0,0-2.37-.9,3,3,0,0,0-3.23,3.23,3.06,3.06,0,0,0,.85,2.29,3.88,3.88,0,0,0,4.8,0A3.09,3.09,0,0,0,1787.45,119.12Zm-3.25-10.86a2.8,2.8,0,0,0-2.08.79,3.31,3.31,0,0,0,0,4.26,2.8,2.8,0,0,0,2.09.79,2.77,2.77,0,0,0,2.07-.79,2.91,2.91,0,0,0,.78-2.11,2.87,2.87,0,0,0-.8-2.12A2.76,2.76,0,0,0,1784.2,108.26Zm19.17-.33-7.07,15.84H1794l7-15.28h-9.23v-1.78h11.53Z"/></g></g></svg>