<svg id="Слой_1" data-name="Слой 1" xmlns="http://www.w3.org/2000/svg" xmlns:xlink="http://www.w3.org/1999/xlink" viewBox="0 0 2309 782"><defs><style>.cls-1,.cls-11,.cls-12,.cls-13{fill:none;}.cls-2{opacity:0.9;}.cls-3{fill:#c135dc;}.cls-4{fill:url(#Безымянный_градиент);}.cls-5{fill:#5d209e;}.cls-6{fill:url(#Безымянный_градиент_2);}.cls-7{fill:#fff;}.cls-8{fill:#3b167d;}.cls-9{fill:url(#Безымянный_градиент_3);}.cls-10{fill:url(#Безымянный_градиент_4);}.cls-11,.cls-12,.cls-13{stroke:#fff;stroke-miterlimit:10;}.cls-11{stroke-linecap:round;stroke-width:3px;}.cls-12{stroke-width:2px;}.cls-14{fill:#ffa860;}.cls-15{fill:url(#Безымянный_градиент_16);}.cls-16{fill:#2f3f68;}.cls-17{clip-path:url(#clip-path);}.cls-18{fill:#281757;}.cls-19{fill:url(#Безымянный_градиент_18);}.cls-20{clip-path:url(#clip-path-2);}.cls-21{fill:url(#Безымянный_градиент_18-2);}.cls-22{clip-path:url(#clip-path-3);}.cls-23{fill:url(#Безымянный_градиент_22);}.cls-24{fill:url(#Безымянный_градиент_22-2);}.cls-25{fill:url(#Безымянный_градиент_22-3);}.cls-26{fill:#00afe4;}.cls-27{fill:url(#Безымянный_градиент_20);}.cls-28{fill:url(#Безымянный_градиент_21);}.cls-29{fill:url(#Безымянный_градиент_22-4);}.cls-30{fill:url(#Безымянный_градиент_23);}.cls-31{fill:url(#Безымянный_градиент_22-5);}.cls-32{fill:#ffcd98;}.cls-33{fill:url(#Безымянный_градиент_16-2);}.cls-34{clip-path:url(#clip-path-5);}.cls-35{fill:url(#Безымянный_градиент_18-3);}.cls-36{clip-path:url(#clip-path-6);}.cls-37{fill:url(#Безымянный_градиент_18-4);}.cls-38{fill:url(#Безымянный_градиент_22-6);}.cls-39{clip-path:url(#clip-path-7);}.cls-40{fill:url(#Безымянный_градиент_20-2);}.cls-41{fill:url(#Безымянный_градиент_21-2);}.cls-42{fill:url(#Безымянный_градиент_22-7);}.cls-43{fill:url(#Безымянный_градиент_23-2);}.cls-44{fill:#fefefe;}</style><linearGradient id="Безымянный_градиент" x1="406.66" y1="270.93" x2="1972.66" y2="630.93" gradientTransform="matrix(1, 0, 0, -1, 0, 782)" gradientUnits="userSpaceOnUse"><stop offset="0" stop-color="#ab3ae0"/><stop offset="1" stop-color="#d535e5" stop-opacity="0"/></linearGradient><linearGradient id="Безымянный_градиент_2" x1="38.71" y1="1372.98" x2="1968.21" y2="-194.52" gradientTransform="matrix(1, 0, 0, -1, 0, 782)" gradientUnits="userSpaceOnUse"><stop offset="0" stop-color="#6240d5"/><stop offset="1" stop-color="#480c7d" stop-opacity="0.35"/></linearGradient><radialGradient id="Безымянный_градиент_3" cx="1045.83" cy="513.16" r="1" gradientTransform="matrix(1, 32.5, 368.52, -11.34, -188689.07, -27567.09)" gradientUnits="userSpaceOnUse"><stop offset="0" stop-color="#4c2aa5"/><stop offset="1" stop-color="#431f83"/></radialGradient><radialGradient id="Безымянный_градиент_4" cx="1051.94" cy="513.31" r="1" gradientTransform="matrix(115.56, 211.91, 261.19, -142.43, -254148.49, -149411.93)" gradientUnits="userSpaceOnUse"><stop offset="0" stop-color="#fcd3df" stop-opacity="0.12"/><stop offset="1" stop-color="#e0a0c6"/></radialGradient><linearGradient id="Безымянный_градиент_16" x1="-73.4" y1="-281.57" x2="-79.11" y2="-181.36" gradientTransform="translate(1748.57 658)" gradientUnits="userSpaceOnUse"><stop offset="0" stop-color="#ffb770"/><stop offset="0.37" stop-color="#ffae7a"/><stop offset="1" stop-color="#ff9594"/></linearGradient><clipPath id="clip-path"><path class="cls-1" d="M1676.92,464.47s-10.83,19.47-40.12,22.36-26.73,1.58-26.73,1.58-3.35,35-5.56,52.49-10.82,44.48-10.82,44.48h-20.47s-3.4-75.94-4.21-84.26-3-25.13,1.21-33.42,4-3.2,4-3.2Z"/></clipPath><linearGradient id="Безымянный_градиент_18" x1="1490.25" y1="-71.84" x2="1615.39" y2="-152.52" gradientTransform="translate(0 658)" gradientUnits="userSpaceOnUse"><stop offset="0" stop-color="#ff4bc4"/><stop offset="1" stop-color="#604fc4" stop-opacity="0"/></linearGradient><clipPath id="clip-path-2"><path class="cls-1" d="M1711.22,464.47s-10.84,19.47-40.12,22.36-26.73,1.58-26.73,1.58.65,35-1.55,52.49-5.85,42.5-5.85,42.5h-19.66s-13.2-74-14-82.28-4.2-21.16,0-29.48,5.22-7.17,5.22-7.17Z"/></clipPath><linearGradient id="Безымянный_градиент_18-2" x1="1543.81" y1="-83.31" x2="1656.36" y2="-155.87" xlink:href="#Безымянный_градиент_18"/><clipPath id="clip-path-3"><path class="cls-1" d="M1623.3,376.91c5.56-23.42,12.65-37.25,34.24-38.09,14.82-.57,25.56-1.18,36.52,2.32s21.51,14.17,27.12,31.55c10.85,33.58,3.61,39.43-.35,45.87s-13.7,6.49-37.29,5.61-45.83,0-45.83,0Z"/></clipPath><linearGradient id="Безымянный_градиент_22" x1="1628.87" y1="389.94" x2="1730.12" y2="420.19" gradientTransform="matrix(1, 0, 0, -1, 0, 786)" gradientUnits="userSpaceOnUse"><stop offset="0" stop-color="#281757"/><stop offset="0.16" stop-color="#301961"/><stop offset="0.43" stop-color="#441d7b"/><stop offset="0.78" stop-color="#6525a6"/><stop offset="1" stop-color="#7c2ac4"/></linearGradient><linearGradient id="Безымянный_градиент_22-2" x1="1631.02" y1="382.75" x2="1732.27" y2="413" xlink:href="#Безымянный_градиент_22"/><linearGradient id="Безымянный_градиент_22-3" x1="1634.91" y1="369.73" x2="1736.16" y2="399.98" xlink:href="#Безымянный_градиент_22"/><linearGradient id="Безымянный_градиент_20" x1="1698.21" y1="-226.06" x2="1670.8" y2="-274.52" gradientTransform="translate(0 658)" gradientUnits="userSpaceOnUse"><stop offset="0" stop-color="#6086c4"/><stop offset="1" stop-color="#00afe4" stop-opacity="0"/></linearGradient><linearGradient id="Безымянный_градиент_21" x1="1687.25" y1="-242.11" x2="1722.99" y2="-312.11" gradientTransform="translate(0 658)" gradientUnits="userSpaceOnUse"><stop offset="0" stop-color="#60e5c4"/><stop offset="0.57" stop-color="#608ac4" stop-opacity="0.03"/><stop offset="1" stop-color="#6086c4" stop-opacity="0"/></linearGradient><linearGradient id="Безымянный_градиент_22-4" x1="1554.83" y1="-278.59" x2="1691.29" y2="-237.82" gradientTransform="translate(0 658)" xlink:href="#Безымянный_градиент_22"/><linearGradient id="Безымянный_градиент_23" x1="1670.53" y1="-311.37" x2="1671.12" y2="-338.55" gradientTransform="translate(0 658)" gradientUnits="userSpaceOnUse"><stop offset="0" stop-color="#ffcd98"/><stop offset="0.35" stop-color="#ffc397"/><stop offset="0.94" stop-color="#ffa994"/><stop offset="1" stop-color="#ffa694"/></linearGradient><linearGradient id="Безымянный_градиент_22-5" x1="1649.03" y1="-365.13" x2="1705.97" y2="-343.47" gradientTransform="translate(0 658)" xlink:href="#Безымянный_градиент_22"/><linearGradient id="Безымянный_градиент_16-2" x1="6695.57" y1="-374.9" x2="6688.48" y2="-250.41" gradientTransform="matrix(-1, 0, 0, 1, 7925.33, 658)" xlink:href="#Безымянный_градиент_16"/><clipPath id="clip-path-5"><path class="cls-1" d="M1247.68,423.4s14.14,23.77,48.54,31.61c29.92,6.85,36.77,5,36.77,5s-.48,41.94,2.16,65.25,7.93,61.28,7.93,61.28h22.71s9.61-92.4,10.57-103.46,3.55-30.56-1.49-41.62a70.9,70.9,0,0,0-11.73-18Z"/></clipPath><linearGradient id="Безымянный_градиент_18-3" x1="6455.32" y1="-79.99" x2="6605.09" y2="-176.55" gradientTransform="matrix(-1, 0, 0, 1, 7925.33, 658)" xlink:href="#Безымянный_градиент_18"/><clipPath id="clip-path-6"><path class="cls-1" d="M1213.55,423.4s14.14,23.77,48.54,31.65c29.92,6.85,36.77,5,36.77,5s-.48,41.94,2.16,65.25,7.93,61.28,7.93,61.28h22.71s11.3-92.4,12.26-103.46,4-36.52-1-47.58-9.45-12-9.45-12Z"/></clipPath><linearGradient id="Безымянный_градиент_18-4" x1="6493.58" y1="-80.89" x2="6643.35" y2="-177.46" gradientTransform="matrix(-1, 0, 0, 1, 7925.33, 658)" xlink:href="#Безымянный_градиент_18"/><linearGradient id="Безымянный_градиент_22-6" x1="6650.64" y1="-410.88" x2="6744.62" y2="-335.23" gradientTransform="matrix(-1, 0, 0, 1, 7925.33, 658)" xlink:href="#Безымянный_градиент_22"/><clipPath id="clip-path-7"><path class="cls-1" d="M1320.76,308.6c-3.37-13.94-22.59-27.16-43-30s-42.29-.72-51.66,1.44-24,13.46-25,33.4-1.92,43.74,3.61,50.71,3.84,7.93,36.77,7,63.92,0,63.92,0Z"/></clipPath><linearGradient id="Безымянный_градиент_20-2" x1="6694.11" y1="-280.99" x2="6662.38" y2="-337.09" gradientTransform="matrix(-1, 0, 0, 1, 7925.33, 658)" xlink:href="#Безымянный_градиент_20"/><linearGradient id="Безымянный_градиент_21-2" x1="6677.55" y1="-292.42" x2="6724.77" y2="-384.87" gradientTransform="matrix(-1, 0, 0, 1, 7925.33, 658)" xlink:href="#Безымянный_градиент_21"/><linearGradient id="Безымянный_градиент_22-7" x1="6538.54" y1="-331.75" x2="6675.54" y2="-290.83" gradientTransform="matrix(-1, 0, 0, 1, 7925.33, 658)" xlink:href="#Безымянный_градиент_22"/><linearGradient id="Безымянный_градиент_23-2" x1="6666.78" y1="-370.36" x2="6666.78" y2="-407.64" gradientTransform="matrix(-1, 0, 0, 1, 7925.33, 658)" xlink:href="#Безымянный_градиент_23"/></defs><title>Шапка v3</title><g class="cls-2"><path class="cls-3" d="M362.74,689C-77.76,513.5-14.11,205.5,75.89,0h2181c15,25.5,69.28,136,46,325-19.66,159.5-86.5,339.5-324,410.5s-397.5-41-768.5-46.5S803.24,864.5,362.74,689Z"/><path class="cls-4" d="M362.74,689C-77.76,513.5-14.11,205.5,75.89,0h2181c15,25.5,69.28,136,46,325-19.66,159.5-86.5,339.5-324,410.5s-397.5-41-768.5-46.5S803.24,864.5,362.74,689Z"/></g><g class="cls-2"><path class="cls-5" d="M1450.31,780c-453.88,20-644.5-124.5-842.5-146.5-271-40.5-293.92,116.5-472,51.5C-39.81,620.9-28.61,223.5,75.89,0h2176c42,84.5,62.88,201,40,333C2226.89,708,1915.89,759.5,1450.31,780Z"/><path class="cls-6" d="M1450.31,780c-453.88,20-644.5-124.5-842.5-146.5-271-40.5-293.92,116.5-472,51.5C-39.81,620.9-28.61,223.5,75.89,0h2176c42,84.5,62.88,201,40,333C2226.89,708,1915.89,759.5,1450.31,780Z"/></g><path class="cls-7" d="M534.92,347.54h-7.73V336H496.28v11.54h-7.86l-.26-18.05h3.77a18.84,18.84,0,0,0,4.48-7.86,50,50,0,0,0,2.16-11.73l1.22-20.82h29.59v40.41h6Zm-33.77-18.05h20.11V295.65h-13.7l-.77,13.21Q505.92,322.12,501.15,329.49Zm69.06-40.41h8.15V336h-8.15V302.58L549.62,336h-8.16V289.08h8.16v33.45Zm53.72,31.65q-.7,7.5-5.54,11.72t-12.86,4.19a18.44,18.44,0,0,1-9.89-2.64,17.6,17.6,0,0,1-6.58-7.57,27.34,27.34,0,0,1-2.41-11.38v-4.38A27.46,27.46,0,0,1,589,299a17.82,17.82,0,0,1,6.73-7.8,19,19,0,0,1,10.19-2.74q7.76,0,12.5,4.22t5.51,11.93h-8.12q-.59-5.06-3-7.28T605.92,295a9.55,9.55,0,0,0-8.19,3.9q-2.84,3.87-2.9,11.38v4.15q0,7.61,2.71,11.6a9.06,9.06,0,0,0,8,4q4.8,0,7.22-2.16t3.06-7.18Zm40.25-25.08H649.55V336h-8.09V295.65H627v-6.57h37.22Zm28.59,29.43H674.59L670.79,336h-8.48L680,289.08h7.31L705.11,336H696.6Zm-15.89-6.58h13.6L683.68,299ZM747.71,336h-8.12V315.15h-21V336h-8.15V289.08h8.15v19.53h21V289.08h8.12Zm9.61-46.92h8.15v40.41h20.66V289.08h8.15v40.35H800l-.64,17.88h-7.48V336H757.32Zm78.11,0h8.16V336h-8.16V302.58L814.84,336h-8.15V289.08h8.15v33.45Zm55.37,24.68a28.9,28.9,0,0,1-2.39,12.12,18.07,18.07,0,0,1-6.83,8,18.72,18.72,0,0,1-10.18,2.77,18.91,18.91,0,0,1-10.18-2.77,18.5,18.5,0,0,1-6.9-8A28,28,0,0,1,851.87,314v-2.64a28.57,28.57,0,0,1,2.42-12.12,18.27,18.27,0,0,1,6.86-8,19.91,19.91,0,0,1,20.33,0,17.9,17.9,0,0,1,6.87,7.93,28.39,28.39,0,0,1,2.45,12Zm-8.15-2.45q0-7.8-3-11.95a10.39,10.39,0,0,0-16.63,0q-3,4.13-3,11.7v2.7q0,7.74,3,12a9.75,9.75,0,0,0,8.38,4.22,9.53,9.53,0,0,0,8.31-4.12q2.94-4.12,2.94-12.06ZM936.17,336h-8.12V315.15h-21V336h-8.15V289.08h8.15v19.53h21V289.08h8.12Zm46.93,0H975V315.15H954V336h-8.15V289.08H954v19.53h21V289.08h8.13Zm47.11-22.24a28.9,28.9,0,0,1-2.38,12.12,18.09,18.09,0,0,1-6.84,8,18.7,18.7,0,0,1-10.18,2.77,18.91,18.91,0,0,1-10.18-2.77,18.5,18.5,0,0,1-6.9-8A28,28,0,0,1,991.28,314v-2.64a28.72,28.72,0,0,1,2.42-12.12,18.27,18.27,0,0,1,6.86-8,19.93,19.93,0,0,1,20.34,0,17.94,17.94,0,0,1,6.86,7.93,28.39,28.39,0,0,1,2.45,12Zm-8.15-2.45q0-7.8-3-11.95a10.39,10.39,0,0,0-16.63,0q-3,4.13-3,11.7v2.7q0,7.74,3,12a9.75,9.75,0,0,0,8.38,4.22,9.53,9.53,0,0,0,8.31-4.12q2.94-4.12,2.94-12.06Zm43.7,3.74h-19.27v14.44H1069V336h-30.68V289.08h30.46v6.57h-22.3v13h19.27Zm-545.24,52h8.15V414h-8.15V380.58L499.92,414h-8.15V367.08h8.15v33.45Zm41.18,31.68q.64,5.08,3.06,7.25c1.64,1.44,4,2.16,7.19,2.16a9.13,9.13,0,0,0,7.77-3.68q2.76-3.67,3-10.6H566.12v-6.57h16.56q-.25-7-3.13-10.64a9.5,9.5,0,0,0-8-3.67q-4.51,0-6.93,2.25c-1.59,1.51-2.57,4-3,7.35h-8.12q.76-7.67,5.48-11.92t12.53-4.26a18.94,18.94,0,0,1,10.15,2.71,17.56,17.56,0,0,1,6.74,7.74,27.26,27.26,0,0,1,2.42,11.63v4a28,28,0,0,1-2.32,11.73,17.41,17.41,0,0,1-6.61,7.74,18.45,18.45,0,0,1-10,2.7q-8,0-12.83-4.19t-5.54-11.69Zm73-31.68V414h-8.12V373.65H612.2l-.84,18.15A51.76,51.76,0,0,1,609.27,405a13.27,13.27,0,0,1-4.61,6.83,13.73,13.73,0,0,1-8.12,2.16h-2.06v-6.51l1.29-.1a6.26,6.26,0,0,0,4.31-2,11.27,11.27,0,0,0,2.32-5.16,60.69,60.69,0,0,0,1.13-10.21l.9-23Zm37.26,26H652.68v14.44H675.2V414H644.52V367.08H675v6.57h-22.3v13H672Zm23.78.84h-5.54V414h-8.12V367.08h8.12V386.8h4.48l13.79-19.72h10l-16.11,22.46L719.87,414h-9.8Zm62.55-20.24H743.65V414h-8.09V373.65h-14.5v-6.57h37.22Zm14.34,22.92V414h-8.15V367.08h17.95q7.86,0,12.47,4.09A13.72,13.72,0,0,1,799.53,382q0,6.9-4.54,10.73t-12.67,3.84Zm0-6.55h9.8c2.9,0,5.11-.67,6.64-2a7.55,7.55,0,0,0,2.29-5.93A8.07,8.07,0,0,0,789,376a8.94,8.94,0,0,0-6.38-2.36h-10Zm71.52,1.74a28.9,28.9,0,0,1-2.39,12.12,18.13,18.13,0,0,1-6.83,8,18.8,18.8,0,0,1-27.27-8A28,28,0,0,1,805.21,392v-2.64a28.72,28.72,0,0,1,2.41-12.12,18.29,18.29,0,0,1,6.87-8,19.91,19.91,0,0,1,20.33,0,18,18,0,0,1,6.87,7.93,28.55,28.55,0,0,1,2.45,12ZM836,389.31q0-7.8-3-11.95a10.39,10.39,0,0,0-16.63,0q-3,4.13-3,11.7v2.7q0,7.74,3,12a9.78,9.78,0,0,0,8.38,4.22,9.56,9.56,0,0,0,8.32-4.12Q836,399.7,836,391.76ZM889.51,414h-8.12V393.15h-21V414h-8.15V367.08h8.15v19.53h21V367.08h8.12Zm46.92,0h-8.12V393.15h-21V414h-8.15V367.08h8.15v19.53h21V367.08h8.12Zm47.12-22.24a28.9,28.9,0,0,1-2.39,12.12,18.13,18.13,0,0,1-6.83,8,18.72,18.72,0,0,1-10.18,2.77A19,19,0,0,1,954,411.87a18.54,18.54,0,0,1-6.89-8A28,28,0,0,1,944.62,392v-2.64A28.72,28.72,0,0,1,947,377.26a18.35,18.35,0,0,1,6.87-8,19.91,19.91,0,0,1,20.33,0,17.9,17.9,0,0,1,6.87,7.93,28.39,28.39,0,0,1,2.45,12Zm-8.16-2.45q0-7.8-3-11.95a10.39,10.39,0,0,0-16.63,0q-3,4.13-3,11.7v2.7q0,7.74,3,12a9.75,9.75,0,0,0,8.38,4.22,9.53,9.53,0,0,0,8.31-4.12q2.94-4.12,2.93-12.06Zm43.7,3.74H999.82v14.44h22.53V414H991.67V367.08h30.45v6.57h-22.3v13h19.27ZM529.22,469.76a28.9,28.9,0,0,1-2.39,12.12,18.07,18.07,0,0,1-6.83,8,18.72,18.72,0,0,1-10.18,2.77,19,19,0,0,1-10.19-2.77,18.54,18.54,0,0,1-6.89-8A28,28,0,0,1,490.29,470v-2.64a28.72,28.72,0,0,1,2.41-12.12,18.35,18.35,0,0,1,6.87-8,19.91,19.91,0,0,1,20.33,0,17.9,17.9,0,0,1,6.87,7.93,28.39,28.39,0,0,1,2.45,12Zm-8.16-2.45q0-7.8-3-11.95a10.39,10.39,0,0,0-16.63,0q-3,4.13-3,11.7v2.7q0,7.74,3,12a9.75,9.75,0,0,0,8.38,4.22,9.53,9.53,0,0,0,8.31-4.12q2.94-4.12,2.93-12.06ZM567,451.65H545.36V463H555a21.3,21.3,0,0,1,9,1.77,13.06,13.06,0,0,1,5.83,5,14.13,14.13,0,0,1,2,7.54,13.51,13.51,0,0,1-4.48,10.57q-4.45,4-12.15,4.06H537.21V445.08H567Zm-21.63,17.92v15.92h9.57a8.85,8.85,0,0,0,6.42-2.22,8,8,0,0,0,2.32-6,7.22,7.22,0,0,0-2.26-5.6,9.11,9.11,0,0,0-6.25-2.13Zm49.79,0,9.41-24.52h9.06L597.28,484l-1.48,2.93q-3.22,5.74-10.45,5.74l-3.35-.2.07-6.44a20.31,20.31,0,0,0,2.74.13,5,5,0,0,0,4.9-3l1.67-4-16-34.16h8.9Zm60.59-24.52V492h-8.12V473.53a43.81,43.81,0,0,1-10.9,1.33q-8.4,0-12.73-3.71T619.65,460V445.08h8.12V460c0,3,.7,5.11,2.06,6.38s3.65,1.9,6.89,1.9a43.93,43.93,0,0,0,10.9-1.35V445.08Zm37.22,26H673.69v14.44h22.53V492H665.53V445.08H696v6.57h-22.3v13H693ZM740.11,492H732V471.15H711V492h-8.16V445.08H711v19.53h21V445.08h8.12Zm38.41-46.92h8.15V492h-8.15V458.58L757.93,492h-8.15V445.08h8.15v33.45Zm45.34,26H804.59v14.44h22.53V492H796.44V445.08h30.45v6.57h-22.3v13h19.27Z"/><ellipse class="cls-8" cx="1465.5" cy="603.5" rx="334.5" ry="29.5"/><ellipse class="cls-9" cx="1465.5" cy="603.5" rx="334.5" ry="29.5"/><path class="cls-10" d="M1489.77,215.81c-14.76-13.51-49.25-80.53-125.69-67-22.4,5.87-33.42,24.71-40,46.4s-15.82,38.22-27.56,52.8-57.6,74.13-77,122.84-13,109.34,81.07,138.14,237.87,52.26,299.56,49.95,79.46,1.07,120.53,22.22,28.27-60.44,24-132.8S1700.79,302,1614.92,283.9,1504.52,229.32,1489.77,215.81Z"/><rect class="cls-1" x="1154" y="239" width="655" height="368"/><path class="cls-7" d="M548.81,76.1a6.93,6.93,0,0,0,1.93,4.33A6.39,6.39,0,0,0,555,81.66a5.48,5.48,0,0,0,4.66-2.31,10.64,10.64,0,0,0,1.76-6.41h-9.79v-2.7h9.79a10.4,10.4,0,0,0-1.78-6.41,5.8,5.8,0,0,0-4.93-2.35,5.63,5.63,0,0,0-4,1.33,7.09,7.09,0,0,0-1.85,4.31h-3.3A9.2,9.2,0,0,1,548.3,61a9,9,0,0,1,6.36-2.22,9.67,9.67,0,0,1,5.28,1.43,9.15,9.15,0,0,1,3.5,4.07,14.18,14.18,0,0,1,1.23,6.07v2.47a14.33,14.33,0,0,1-1.21,6.07A9,9,0,0,1,555,84.34a9.61,9.61,0,0,1-6.53-2.13,9.23,9.23,0,0,1-2.91-6.11ZM588.48,84h-3.3V61.82H572.91V84h-3.28V59.12h18.85ZM613.6,72.36a15.43,15.43,0,0,1-1.23,6.39,9.34,9.34,0,0,1-3.49,4.16,9.63,9.63,0,0,1-14-4.12,14.93,14.93,0,0,1-1.28-6.21V70.79a15.23,15.23,0,0,1,1.24-6.34,9.24,9.24,0,0,1,8.75-5.67,9.56,9.56,0,0,1,5.27,1.45,9.26,9.26,0,0,1,3.52,4.19,15.37,15.37,0,0,1,1.23,6.37Zm-3.27-1.6q0-4.44-1.77-6.79a5.88,5.88,0,0,0-5-2.37,5.82,5.82,0,0,0-4.9,2.37,10.86,10.86,0,0,0-1.83,6.56v1.83a11.22,11.22,0,0,0,1.8,6.75,6.33,6.33,0,0,0,9.89.14,11.15,11.15,0,0,0,1.79-6.65Zm26.49,5.34a9.15,9.15,0,0,1-2.92,6.11,9.56,9.56,0,0,1-6.51,2.13,8.8,8.8,0,0,1-7.08-3.16,12.79,12.79,0,0,1-2.64-8.46V70.33a14.26,14.26,0,0,1,1.23-6.1,9.23,9.23,0,0,1,3.52-4,9.76,9.76,0,0,1,5.26-1.41A9,9,0,0,1,634,61a9.24,9.24,0,0,1,2.78,6.12h-3.29a7.1,7.1,0,0,0-1.87-4.31,5.57,5.57,0,0,0-4-1.33,5.89,5.89,0,0,0-4.94,2.32A10.72,10.72,0,0,0,621,70.41v2.41a11,11,0,0,0,1.7,6.45,5.46,5.46,0,0,0,4.73,2.39,6.33,6.33,0,0,0,4.19-1.23,6.88,6.88,0,0,0,1.95-4.33Z"/><path class="cls-11" d="M522,88.68c-.66,4.08-1,5.19-3,6.88-2.46,2-31.94,7.13-32-15.78-.05-23.89,17.43-30.94,20-32.2s3.81-.4,3.61,2.72L516,53.93a5.19,5.19,0,0,0,0,1.91c.92,1.68,5.54,4.23,5.54,4.23,0,1.14-2.63,6.07-8.49,4.42-2.24-.64-8.58-.08-.89,7.89"/><path class="cls-12" d="M533,69.61l-6.63,12.74H513"/><path class="cls-13" d="M517.69,79.11c0-5.73,3.78-8.49,9.41-5.71"/><path class="cls-13" d="M514.25,79c-.3-8.17,7.09-12.86,14.57-8.88"/><path class="cls-13" d="M521.16,79c0-2.53,1.23-4.14,4.54-2.61"/><path class="cls-7" d="M1255.33,36.79h-5.48V52h-2.24V36.79h-5.47V34.94h13.19Zm6.28,15.44a5.55,5.55,0,0,1-4.19-1.68A6.32,6.32,0,0,1,1255.8,46v-.4a7.57,7.57,0,0,1,.72-3.36,5.56,5.56,0,0,1,2-2.32,5.1,5.1,0,0,1,2.81-.84,4.78,4.78,0,0,1,3.85,1.62,7.11,7.11,0,0,1,1.37,4.67v.9H1258a4.54,4.54,0,0,0,1.09,3,3.47,3.47,0,0,0,2.67,1.14,3.83,3.83,0,0,0,2-.46,5,5,0,0,0,1.39-1.25l1.32,1A5.31,5.31,0,0,1,1261.61,52.23Zm-.27-11.36a2.88,2.88,0,0,0-2.2,1,4.61,4.61,0,0,0-1.1,2.67h6.35v-.16a4.09,4.09,0,0,0-.89-2.56A2.71,2.71,0,0,0,1261.34,40.87Zm18.13-1.55V52h-2.18V41.11H1273l-.26,4.75a10.5,10.5,0,0,1-1.1,4.68,3.19,3.19,0,0,1-2.8,1.46H1268V50.09l.62-.05a1.8,1.8,0,0,0,1.52-1.22,13.68,13.68,0,0,0,.58-4.07l.24-5.43Zm8.74,12.91a5.57,5.57,0,0,1-4.19-1.68A6.32,6.32,0,0,1,1282.4,46v-.4a7.57,7.57,0,0,1,.72-3.36,5.56,5.56,0,0,1,2-2.32,5.11,5.11,0,0,1,2.82-.84,4.76,4.76,0,0,1,3.84,1.62,7.11,7.11,0,0,1,1.37,4.67v.9h-8.59a4.54,4.54,0,0,0,1.09,3,3.47,3.47,0,0,0,2.67,1.14,3.8,3.8,0,0,0,2-.46,5,5,0,0,0,1.39-1.25l1.33,1A5.34,5.34,0,0,1,1288.21,52.23ZM1288,40.87a2.9,2.9,0,0,0-2.21,1,4.61,4.61,0,0,0-1.1,2.67H1291v-.16a4.09,4.09,0,0,0-.89-2.56A2.7,2.7,0,0,0,1288,40.87Zm7.26,5a8.81,8.81,0,0,1,1.23-5,3.87,3.87,0,0,1,3.38-1.81,4.13,4.13,0,0,1,1.74.34V34h2.17v5.5a4.18,4.18,0,0,1,1.92-.41A3.88,3.88,0,0,1,1309,40.9a9.33,9.33,0,0,1,1.23,5.24,7.27,7.27,0,0,1-1.23,4.45,3.92,3.92,0,0,1-3.36,1.66,4.61,4.61,0,0,1-2-.38v5h-2.17v-5a4.43,4.43,0,0,1-1.77.34,4,4,0,0,1-3.36-1.66,7.48,7.48,0,0,1-1.22-4.52Zm12.89,0a7,7,0,0,0-.82-3.7,2.54,2.54,0,0,0-2.26-1.32,3.41,3.41,0,0,0-1.29.23v9.18a3.8,3.8,0,0,0,1.31.2,2.6,2.6,0,0,0,2.25-1.13A6,6,0,0,0,1308.1,45.89Zm-10.72.25a5.7,5.7,0,0,0,.76,3.24,2.51,2.51,0,0,0,2.19,1.1,3.37,3.37,0,0,0,1.23-.21v-9.2a3.08,3.08,0,0,0-1.2-.2,2.44,2.44,0,0,0-2.21,1.27A8.07,8.07,0,0,0,1297.38,46.14Zm15.14-.6a7.46,7.46,0,0,1,.73-3.35,5.51,5.51,0,0,1,2-2.3,5.63,5.63,0,0,1,3-.8,5.33,5.33,0,0,1,4.19,1.79,6.86,6.86,0,0,1,1.6,4.77v.15a7.64,7.64,0,0,1-.71,3.33,5.3,5.3,0,0,1-2,2.28,5.54,5.54,0,0,1-3,.82,5.35,5.35,0,0,1-4.19-1.79,6.88,6.88,0,0,1-1.59-4.74Zm2.18.26a5.44,5.44,0,0,0,1,3.39,3.15,3.15,0,0,0,2.63,1.27,3.1,3.1,0,0,0,2.62-1.28,6,6,0,0,0,1-3.64,5.38,5.38,0,0,0-1-3.37,3.29,3.29,0,0,0-5.22,0A6,6,0,0,0,1314.7,45.8Zm22.44,6.2H1335V46.59h-5.82V52H1327V39.32h2.18v5.5H1335v-5.5h2.17ZM1357,52h-2.17V41.11H1349V52h-2.18V39.32H1357Zm2.9-6.46a7.59,7.59,0,0,1,.73-3.35,5.51,5.51,0,0,1,2-2.3,5.64,5.64,0,0,1,3-.8,5.31,5.31,0,0,1,4.18,1.79,6.87,6.87,0,0,1,1.61,4.77v.15a7.5,7.5,0,0,1-.72,3.33,5.24,5.24,0,0,1-2,2.28,5.54,5.54,0,0,1-3,.82,5.32,5.32,0,0,1-4.18-1.79,6.84,6.84,0,0,1-1.6-4.74Zm2.18.26a5.44,5.44,0,0,0,1,3.39,3.34,3.34,0,0,0,5.25,0,6,6,0,0,0,1-3.64,5.32,5.32,0,0,0-1-3.37,3.28,3.28,0,0,0-5.21,0A5.88,5.88,0,0,0,1362,45.8Zm18.24,6.2V39.32h4.94a7.07,7.07,0,0,1,3.88.89,2.89,2.89,0,0,1,1.36,2.59,2.54,2.54,0,0,1-.53,1.59,3.28,3.28,0,0,1-1.55,1.08,3.37,3.37,0,0,1,1.83,1.06,2.71,2.71,0,0,1,.71,1.87,3.07,3.07,0,0,1-1.29,2.67A6.07,6.07,0,0,1,1386,52Zm2.17-5.57v3.82H1386a3.34,3.34,0,0,0,2-.5,1.68,1.68,0,0,0,.68-1.42c0-1.26-.93-1.9-2.79-1.9Zm0-1.73h2.8c2,0,3-.59,3-1.78s-1-1.8-2.88-1.84h-3Zm10.76.84a7.59,7.59,0,0,1,.73-3.35,5.51,5.51,0,0,1,2-2.3,5.67,5.67,0,0,1,3-.8,5.3,5.3,0,0,1,4.18,1.79,6.87,6.87,0,0,1,1.61,4.77v.15a7.5,7.5,0,0,1-.72,3.33,5.28,5.28,0,0,1-2,2.28,5.59,5.59,0,0,1-3,.82,5.32,5.32,0,0,1-4.18-1.79,6.88,6.88,0,0,1-1.6-4.74Zm2.18.26a5.44,5.44,0,0,0,1,3.39,3.34,3.34,0,0,0,5.25,0,6,6,0,0,0,1-3.64,5.32,5.32,0,0,0-1-3.37,3.28,3.28,0,0,0-5.21,0A5.88,5.88,0,0,0,1395.39,45.8Zm22.46,6.2h-2.17V41.11h-5.84V52h-2.18V39.32h10.19ZM1432,45.8a7.51,7.51,0,0,1-1.33,4.66,4.23,4.23,0,0,1-3.58,1.77,4.62,4.62,0,0,1-3.63-1.46v6.11h-2.17V39.32h2l.1,1.41a4.46,4.46,0,0,1,3.68-1.64,4.29,4.29,0,0,1,3.61,1.72A7.64,7.64,0,0,1,1432,45.6Zm-2.17-.25a5.6,5.6,0,0,0-.91-3.38,3,3,0,0,0-2.51-1.24,3.18,3.18,0,0,0-3,1.74v6.06a3.17,3.17,0,0,0,3,1.73,2.93,2.93,0,0,0,2.48-1.23A6.14,6.14,0,0,0,1429.87,45.55Zm4.36,0a7.46,7.46,0,0,1,.73-3.35,5.51,5.51,0,0,1,2-2.3,5.63,5.63,0,0,1,3-.8,5.32,5.32,0,0,1,4.19,1.79,6.86,6.86,0,0,1,1.6,4.77v.15a7.5,7.5,0,0,1-.71,3.33,5.3,5.3,0,0,1-2,2.28,5.54,5.54,0,0,1-3,.82,5.35,5.35,0,0,1-4.19-1.79,6.88,6.88,0,0,1-1.59-4.74Zm2.18.26a5.44,5.44,0,0,0,1,3.39,3.15,3.15,0,0,0,2.63,1.27,3.1,3.1,0,0,0,2.62-1.28,6,6,0,0,0,1-3.64,5.38,5.38,0,0,0-1-3.37,3.29,3.29,0,0,0-5.22,0A6,6,0,0,0,1436.41,45.8Zm17.17,4.66a3.13,3.13,0,0,0,2-.7,2.52,2.52,0,0,0,1-1.76h2a4,4,0,0,1-.75,2.08,5,5,0,0,1-1.85,1.57,5.31,5.31,0,0,1-2.44.58,5.26,5.26,0,0,1-4.13-1.72,6.93,6.93,0,0,1-1.52-4.73v-.37a7.68,7.68,0,0,1,.68-3.29,5.19,5.19,0,0,1,1.94-2.24,5.62,5.62,0,0,1,3-.79,5.08,5.08,0,0,1,3.54,1.27,4.61,4.61,0,0,1,1.51,3.32h-2a3,3,0,0,0-.94-2,2.87,2.87,0,0,0-2.06-.79,3.06,3.06,0,0,0-2.57,1.19,5.62,5.62,0,0,0-.9,3.44v.41a5.47,5.47,0,0,0,.9,3.37A3,3,0,0,0,1453.58,50.46Zm15.3,1.54a4.88,4.88,0,0,1-.3-1.34,4.83,4.83,0,0,1-3.61,1.57,4.51,4.51,0,0,1-3.08-1,3.45,3.45,0,0,1-1.2-2.7,3.58,3.58,0,0,1,1.5-3.07,7.13,7.13,0,0,1,4.24-1.1h2.11v-1a2.41,2.41,0,0,0-.68-1.81,2.72,2.72,0,0,0-2-.68,3.2,3.2,0,0,0-1.95.59,1.73,1.73,0,0,0-.78,1.42H1461a2.94,2.94,0,0,1,.67-1.83,4.59,4.59,0,0,1,1.83-1.41,6.23,6.23,0,0,1,2.54-.51,5,5,0,0,1,3.43,1.1,3.91,3.91,0,0,1,1.29,3V49a7,7,0,0,0,.45,2.77V52Zm-3.59-1.65a3.84,3.84,0,0,0,1.93-.53,3.16,3.16,0,0,0,1.32-1.37v-2.6h-1.7q-4,0-4,2.33a2,2,0,0,0,.68,1.59A2.57,2.57,0,0,0,1465.29,50.35Zm16.12-1.22,4.31-9.81h2.71V52h-2.17V42.78l-4.1,9.22h-1.5l-4.18-9.42V52h-2.17V39.32h2.81Zm16.36,1.1.75-.93a8.82,8.82,0,0,0,1.44-4.92l.2-5.06h8.17V50.23H1510v5.5h-2.17V52h-8.85v3.73h-2.17l0-5.5Zm2.57,0h5.82V41.32h-3.9l-.13,3A10.49,10.49,0,0,1,1500.34,50.23Zm20.22-10.91h2.17V52h-2.17V42.75L1514.71,52h-2.16V39.32h2.16v9.26Zm10.74,11.14a3.08,3.08,0,0,0,2-.7,2.5,2.5,0,0,0,1-1.76h2a4,4,0,0,1-.75,2.08,5,5,0,0,1-1.86,1.57,5.66,5.66,0,0,1-6.56-1.14,6.93,6.93,0,0,1-1.52-4.73v-.37a7.68,7.68,0,0,1,.68-3.29,5.19,5.19,0,0,1,1.94-2.24,5.6,5.6,0,0,1,3-.79,5,5,0,0,1,3.53,1.27,4.58,4.58,0,0,1,1.52,3.32h-2a3,3,0,0,0-.94-2,2.87,2.87,0,0,0-2.06-.79,3.06,3.06,0,0,0-2.57,1.19,5.62,5.62,0,0,0-.9,3.44v.41a5.47,5.47,0,0,0,.9,3.37A3,3,0,0,0,1531.3,50.46Zm16.9-9.38h-4.26V52h-2.17V41.08h-4.17V39.32h10.6ZM1558,52a4.46,4.46,0,0,1-.31-1.34,4.83,4.83,0,0,1-3.61,1.57,4.51,4.51,0,0,1-3.08-1,3.45,3.45,0,0,1-1.2-2.7,3.58,3.58,0,0,1,1.5-3.07,7.16,7.16,0,0,1,4.25-1.1h2.11v-1a2.44,2.44,0,0,0-.68-1.81,2.76,2.76,0,0,0-2-.68,3.15,3.15,0,0,0-1.94.59,1.71,1.71,0,0,0-.79,1.42H1550a2.94,2.94,0,0,1,.67-1.83,4.59,4.59,0,0,1,1.83-1.41,6.23,6.23,0,0,1,2.54-.51,5,5,0,0,1,3.43,1.1,3.91,3.91,0,0,1,1.29,3V49a7,7,0,0,0,.45,2.77V52Zm-3.6-1.65a3.82,3.82,0,0,0,1.93-.53,3.24,3.24,0,0,0,1.33-1.37v-2.6h-1.7q-4,0-4,2.33a2,2,0,0,0,.68,1.59A2.59,2.59,0,0,0,1554.35,50.35ZM1573.53,52h-2.17V46.59h-5.82V52h-2.18V39.32h2.18v5.5h5.82v-5.5h2.17Zm3.68-12.68h2.18V50.23h5.84V39.32h2.16V50.23h1.52l-.21,5.53h-2V52h-9.54Zm22.24,0h2.17V52h-2.17V42.75L1593.61,52h-2.17V39.32h2.17v9.26Zm5.08,6.22a7.59,7.59,0,0,1,.72-3.35,5.36,5.36,0,0,1,5-3.1,5.3,5.3,0,0,1,4.18,1.79,6.82,6.82,0,0,1,1.61,4.77v.15a7.64,7.64,0,0,1-.71,3.33,5.3,5.3,0,0,1-2,2.28,5.57,5.57,0,0,1-3,.82,5.34,5.34,0,0,1-4.18-1.79,6.88,6.88,0,0,1-1.59-4.74Zm2.18.26a5.44,5.44,0,0,0,1,3.39,3.15,3.15,0,0,0,2.62,1.27,3.11,3.11,0,0,0,2.63-1.28,6,6,0,0,0,1-3.64,5.38,5.38,0,0,0-1-3.37,3.29,3.29,0,0,0-5.22,0A6,6,0,0,0,1606.71,45.8Zm22.44,6.2H1627V46.59h-5.82V52H1619V39.32h2.18v5.5H1627v-5.5h2.17ZM1643,52h-2.17V46.59H1635V52h-2.18V39.32H1635v5.5h5.82v-5.5H1643Zm2.92-6.46a7.59,7.59,0,0,1,.72-3.35,5.36,5.36,0,0,1,5-3.1,5.33,5.33,0,0,1,4.19,1.79,6.86,6.86,0,0,1,1.6,4.77v.15a7.64,7.64,0,0,1-.71,3.33,5.3,5.3,0,0,1-2,2.28,5.56,5.56,0,0,1-3,.82,5.35,5.35,0,0,1-4.19-1.79,6.88,6.88,0,0,1-1.59-4.74Zm2.18.26a5.44,5.44,0,0,0,1,3.39,3.15,3.15,0,0,0,2.63,1.27,3.1,3.1,0,0,0,2.62-1.28,6,6,0,0,0,1-3.64,5.38,5.38,0,0,0-1-3.37,3.29,3.29,0,0,0-5.22,0A6,6,0,0,0,1648.1,45.8Zm20.27-4.69h-5.85V52h-2.18V39.32h8Zm1.08,4.43a7.46,7.46,0,0,1,.73-3.35,5.56,5.56,0,0,1,2-2.3,5.69,5.69,0,0,1,3-.8,5.33,5.33,0,0,1,4.19,1.79,6.86,6.86,0,0,1,1.6,4.77v.15a7.64,7.64,0,0,1-.71,3.33,5.3,5.3,0,0,1-2,2.28,5.54,5.54,0,0,1-3,.82,5.35,5.35,0,0,1-4.19-1.79,6.88,6.88,0,0,1-1.59-4.74Zm2.18.26a5.44,5.44,0,0,0,1,3.39,3.15,3.15,0,0,0,2.63,1.27,3.1,3.1,0,0,0,2.62-1.28,6,6,0,0,0,1-3.64,5.38,5.38,0,0,0-1-3.37,3.29,3.29,0,0,0-5.22,0A6,6,0,0,0,1671.63,45.8Zm17.46-.26a7.46,7.46,0,0,1,.73-3.35,5.51,5.51,0,0,1,2-2.3,5.63,5.63,0,0,1,3-.8,5.33,5.33,0,0,1,4.19,1.79,6.86,6.86,0,0,1,1.6,4.77v.15a7.64,7.64,0,0,1-.71,3.33,5.3,5.3,0,0,1-2,2.28,5.54,5.54,0,0,1-3,.82,5.35,5.35,0,0,1-4.19-1.79,6.88,6.88,0,0,1-1.59-4.74Zm2.18.26a5.44,5.44,0,0,0,1,3.39,3.15,3.15,0,0,0,2.63,1.27,3.1,3.1,0,0,0,2.62-1.28,6,6,0,0,0,1-3.64,5.38,5.38,0,0,0-1-3.37,3.29,3.29,0,0,0-5.22,0A6,6,0,0,0,1691.27,45.8Zm17.65-5.75a4.86,4.86,0,0,1,3.82,1.6,6,6,0,0,1,1.44,4.21v.2a7.27,7.27,0,0,1-.69,3.21,5.15,5.15,0,0,1-2,2.19,5.66,5.66,0,0,1-3,.77,5.32,5.32,0,0,1-4.11-1.69,6.57,6.57,0,0,1-1.56-4.59V44.9a11.89,11.89,0,0,1,1.47-6.35,6.25,6.25,0,0,1,4.39-2.87,5.88,5.88,0,0,0,2.21-.72,1.37,1.37,0,0,0,.58-1.16h1.78a3.57,3.57,0,0,1-.67,2.29,3.73,3.73,0,0,1-2.11,1.16l-1.62.36a5.35,5.35,0,0,0-2.9,1.55,5.62,5.62,0,0,0-1.26,2.88A5.35,5.35,0,0,1,1708.92,40.05Zm-.42,1.78a3.2,3.2,0,0,0-2.54,1.08,4.36,4.36,0,0,0-.93,3v.19a5.11,5.11,0,0,0,.93,3.23,3.13,3.13,0,0,0,2.56,1.19,3.05,3.05,0,0,0,2.55-1.2,5.54,5.54,0,0,0,.94-3.49,4.14,4.14,0,0,0-1-2.87A3.19,3.19,0,0,0,1708.5,41.83Zm12.27,7,3-9.5H1726L1720.94,54q-1.18,3.16-3.76,3.16l-.41,0-.81-.16V55.18l.59,0a2.92,2.92,0,0,0,1.71-.44,3.27,3.27,0,0,0,1-1.63l.48-1.29-4.53-12.54h2.37ZM1737.56,52h-2.18V47.41a11.48,11.48,0,0,1-2.93.37,5,5,0,0,1-3.63-1.22,4.72,4.72,0,0,1-1.27-3.47V39.31h2.17v3.85c0,1.89,1,2.84,2.73,2.84a11.48,11.48,0,0,0,2.93-.37V39.32h2.18Zm8.74.23a5.54,5.54,0,0,1-4.19-1.68,6.32,6.32,0,0,1-1.62-4.54v-.4a7.71,7.71,0,0,1,.71-3.36,5.66,5.66,0,0,1,2-2.32,5.08,5.08,0,0,1,2.81-.84,4.78,4.78,0,0,1,3.85,1.62,7.11,7.11,0,0,1,1.37,4.67v.9h-8.59a4.54,4.54,0,0,0,1.09,3,3.47,3.47,0,0,0,2.67,1.14,3.79,3.79,0,0,0,1.94-.46,5,5,0,0,0,1.4-1.25l1.32,1A5.31,5.31,0,0,1,1746.3,52.23ZM1746,40.87a2.88,2.88,0,0,0-2.2,1,4.55,4.55,0,0,0-1.1,2.67h6.35v-.16a4.09,4.09,0,0,0-.89-2.56A2.71,2.71,0,0,0,1746,40.87ZM1764.12,52H1762V46.59h-5.83V52H1754V39.32h2.18v5.5H1762v-5.5h2.16Zm11.7-12.68H1778V52h-2.17V42.75L1770,52h-2.17V39.32H1770v9.26Zm15.34,0V52H1789V47.07h-3.27l-3,4.93h-2.34l3.19-5.26a3.89,3.89,0,0,1-1.88-1.37,3.76,3.76,0,0,1-.64-2.18,3.4,3.4,0,0,1,1.3-2.79,5.38,5.38,0,0,1,3.48-1.08Zm-7.93,3.89a1.93,1.93,0,0,0,.63,1.5,2.46,2.46,0,0,0,1.68.58H1789V41.08h-3.12a2.9,2.9,0,0,0-1.92.6A1.87,1.87,0,0,0,1783.23,43.21ZM1203.56,62.94l5.58,13.92,5.57-13.92h2.92V80h-2.25V73.36l.21-7.18L1210,80h-1.72l-5.59-13.78.22,7.14V80h-2.25V62.94Zm25.91,4.38h2.17V80h-2.17V70.75L1223.62,80h-2.17V67.32h2.17v9.26Zm16,12.68h-2.17V74.59h-5.83V80h-2.18V67.32h2.18v5.5h5.83v-5.5h2.17Zm11.69-12.68h2.17V80h-2.17V70.75L1251.32,80h-2.16V67.32h2.16v9.26Zm10.74,11.14a3.08,3.08,0,0,0,2-.7,2.45,2.45,0,0,0,1-1.76H1273a4,4,0,0,1-.75,2.08,5,5,0,0,1-1.86,1.57,5.66,5.66,0,0,1-6.56-1.14,6.93,6.93,0,0,1-1.52-4.73v-.37a7.53,7.53,0,0,1,.68-3.29,5.19,5.19,0,0,1,1.94-2.24,5.59,5.59,0,0,1,3-.79,5,5,0,0,1,3.54,1.27,4.58,4.58,0,0,1,1.52,3.32h-2.06a3,3,0,0,0-.93-2,2.89,2.89,0,0,0-2.07-.79,3,3,0,0,0-2.56,1.19,5.62,5.62,0,0,0-.9,3.44v.41a5.47,5.47,0,0,0,.9,3.37A3,3,0,0,0,1267.91,78.46Zm16.89-9.38h-4.25V80h-2.17V69.08h-4.17V67.32h10.59Zm6.44,11.15a5.57,5.57,0,0,1-4.2-1.68,6.32,6.32,0,0,1-1.61-4.54v-.4a7.57,7.57,0,0,1,.71-3.36,5.59,5.59,0,0,1,2-2.32,5.06,5.06,0,0,1,2.81-.84,4.75,4.75,0,0,1,3.84,1.62,7.05,7.05,0,0,1,1.37,4.67v.9h-8.59a4.59,4.59,0,0,0,1.09,3,3.51,3.51,0,0,0,2.68,1.14,3.79,3.79,0,0,0,1.94-.46,5,5,0,0,0,1.4-1.25l1.32,1A5.32,5.32,0,0,1,1291.24,80.23ZM1291,68.87a2.87,2.87,0,0,0-2.2,1,4.55,4.55,0,0,0-1.11,2.67H1294v-.16a4.09,4.09,0,0,0-.9-2.56A2.69,2.69,0,0,0,1291,68.87Zm18.44,4.93a7.58,7.58,0,0,1-1.32,4.66,4.24,4.24,0,0,1-3.59,1.77,4.62,4.62,0,0,1-3.63-1.46v6.11h-2.17V67.32h2l.11,1.41a4.45,4.45,0,0,1,3.68-1.64,4.3,4.3,0,0,1,3.61,1.72,7.64,7.64,0,0,1,1.33,4.79Zm-2.16-.25a5.6,5.6,0,0,0-.92-3.38,2.93,2.93,0,0,0-2.51-1.24,3.19,3.19,0,0,0-3,1.74v6.06a3.19,3.19,0,0,0,3,1.73,2.92,2.92,0,0,0,2.47-1.23A6.07,6.07,0,0,0,1307.25,73.55Zm10,4.91a3.1,3.1,0,0,0,2-.7,2.45,2.45,0,0,0,1-1.76h2a3.8,3.8,0,0,1-.75,2.08,4.92,4.92,0,0,1-1.85,1.57,5.66,5.66,0,0,1-6.56-1.14,6.88,6.88,0,0,1-1.52-4.73v-.37a7.53,7.53,0,0,1,.68-3.29,5.19,5.19,0,0,1,1.94-2.24,5.59,5.59,0,0,1,3-.79,5,5,0,0,1,3.54,1.27,4.53,4.53,0,0,1,1.51,3.32h-2a3,3,0,0,0-.93-2,2.89,2.89,0,0,0-2.07-.79,3,3,0,0,0-2.56,1.19,5.62,5.62,0,0,0-.9,3.44v.41a5.47,5.47,0,0,0,.9,3.37A3,3,0,0,0,1317.27,78.46Zm16.89-9.38h-4.25V80h-2.17V69.08h-4.17V67.32h10.59ZM1336.47,80V67.32h5a7.07,7.07,0,0,1,3.88.89,2.91,2.91,0,0,1,1.36,2.59,2.6,2.6,0,0,1-.53,1.59,3.26,3.26,0,0,1-1.56,1.08,3.36,3.36,0,0,1,1.84,1.06,2.7,2.7,0,0,1,.7,1.87,3.07,3.07,0,0,1-1.29,2.67,6.05,6.05,0,0,1-3.62.93Zm2.17-5.57v3.82h3.59a3.31,3.31,0,0,0,2-.5,1.65,1.65,0,0,0,.68-1.42c0-1.26-.93-1.9-2.79-1.9Zm0-1.73h2.8c2,0,3-.59,3-1.78s-1-1.8-2.88-1.84h-3Zm19.17,7.3a4.88,4.88,0,0,1-.3-1.34,4.83,4.83,0,0,1-3.61,1.57,4.51,4.51,0,0,1-3.08-1,3.45,3.45,0,0,1-1.2-2.7,3.58,3.58,0,0,1,1.5-3.07,7.13,7.13,0,0,1,4.24-1.1h2.11v-1a2.41,2.41,0,0,0-.68-1.81,2.72,2.72,0,0,0-2-.68,3.2,3.2,0,0,0-2,.59,1.73,1.73,0,0,0-.78,1.42h-2.18a2.94,2.94,0,0,1,.67-1.83,4.59,4.59,0,0,1,1.83-1.41,6.23,6.23,0,0,1,2.54-.51,5,5,0,0,1,3.43,1.1,3.91,3.91,0,0,1,1.29,3V77a7,7,0,0,0,.45,2.77V80Zm-3.6-1.65a3.85,3.85,0,0,0,1.94-.53,3.16,3.16,0,0,0,1.32-1.37v-2.6h-1.7q-4,0-4,2.33a2,2,0,0,0,.68,1.59A2.56,2.56,0,0,0,1354.21,78.35Zm14.21-4.81a7.59,7.59,0,0,1,.72-3.35,5.36,5.36,0,0,1,5-3.1,5.33,5.33,0,0,1,4.19,1.79,6.86,6.86,0,0,1,1.6,4.77v.15a7.64,7.64,0,0,1-.71,3.33,5.3,5.3,0,0,1-2,2.28,5.56,5.56,0,0,1-3,.82,5.35,5.35,0,0,1-4.19-1.79,6.88,6.88,0,0,1-1.59-4.74Zm2.18.26a5.44,5.44,0,0,0,1,3.39,3.15,3.15,0,0,0,2.63,1.27,3.1,3.1,0,0,0,2.62-1.28,6,6,0,0,0,1-3.64,5.38,5.38,0,0,0-1-3.37,3.29,3.29,0,0,0-5.22,0A6,6,0,0,0,1370.6,73.8Zm17.65-5.75a4.87,4.87,0,0,1,3.82,1.6,6,6,0,0,1,1.44,4.21v.2a7.27,7.27,0,0,1-.69,3.21,5.11,5.11,0,0,1-2,2.19,5.62,5.62,0,0,1-3,.77,5.32,5.32,0,0,1-4.12-1.69,6.61,6.61,0,0,1-1.55-4.59v-1a11.89,11.89,0,0,1,1.47-6.35,6.23,6.23,0,0,1,4.39-2.87,5.88,5.88,0,0,0,2.21-.72,1.37,1.37,0,0,0,.57-1.16h1.79a3.57,3.57,0,0,1-.67,2.29,3.73,3.73,0,0,1-2.11,1.16l-1.62.36a5.42,5.42,0,0,0-2.91,1.55,5.61,5.61,0,0,0-1.25,2.88A5.35,5.35,0,0,1,1388.25,68.05Zm-.43,1.78a3.19,3.19,0,0,0-2.53,1.08,4.36,4.36,0,0,0-.93,3v.19a5.11,5.11,0,0,0,.93,3.23,3.13,3.13,0,0,0,2.56,1.19,3.05,3.05,0,0,0,2.55-1.2,5.54,5.54,0,0,0,.94-3.49,4.19,4.19,0,0,0-.95-2.87A3.19,3.19,0,0,0,1387.82,69.83Zm18.63,4a7.58,7.58,0,0,1-1.33,4.66,4.24,4.24,0,0,1-3.58,1.77,4.66,4.66,0,0,1-3.64-1.46v6.11h-2.17V67.32h2l.11,1.41a4.45,4.45,0,0,1,3.68-1.64,4.3,4.3,0,0,1,3.61,1.72,7.64,7.64,0,0,1,1.34,4.79Zm-2.17-.25a5.6,5.6,0,0,0-.92-3.38,2.93,2.93,0,0,0-2.5-1.24,3.19,3.19,0,0,0-3,1.74v6.06a3.19,3.19,0,0,0,3,1.73,2.92,2.92,0,0,0,2.47-1.23A6.07,6.07,0,0,0,1404.28,73.55ZM1417,80a4.46,4.46,0,0,1-.31-1.34,4.81,4.81,0,0,1-3.61,1.57,4.55,4.55,0,0,1-3.08-1,3.48,3.48,0,0,1-1.19-2.7,3.58,3.58,0,0,1,1.5-3.07,7.13,7.13,0,0,1,4.24-1.1h2.11v-1a2.44,2.44,0,0,0-.68-1.81,2.72,2.72,0,0,0-2-.68,3.16,3.16,0,0,0-2,.59,1.73,1.73,0,0,0-.78,1.42h-2.18a3,3,0,0,1,.66-1.83,4.74,4.74,0,0,1,1.83-1.41,6.26,6.26,0,0,1,2.54-.51,5,5,0,0,1,3.44,1.1,3.91,3.91,0,0,1,1.29,3V77a7.22,7.22,0,0,0,.44,2.77V80Zm-3.6-1.65a3.85,3.85,0,0,0,1.94-.53,3.22,3.22,0,0,0,1.32-1.37v-2.6H1415c-2.66,0-4,.78-4,2.33a1.94,1.94,0,0,0,.68,1.59A2.56,2.56,0,0,0,1413.44,78.35Zm15.8-7.56a1.7,1.7,0,0,0-.68-1.41,3,3,0,0,0-1.86-.52,3.06,3.06,0,0,0-1.93.59,1.78,1.78,0,0,0-.76,1.41h-2.15a3.28,3.28,0,0,1,1.38-2.71,6.46,6.46,0,0,1,6.92-.09,3.22,3.22,0,0,1,1.25,2.72,2.66,2.66,0,0,1-.52,1.57,3.52,3.52,0,0,1-1.46,1.13,2.92,2.92,0,0,1,2.21,3,3.28,3.28,0,0,1-1.35,2.76,5.8,5.8,0,0,1-3.59,1,5.92,5.92,0,0,1-3.63-1.06,3.48,3.48,0,0,1-1.41-2.91h2.15a2,2,0,0,0,.82,1.59,3.68,3.68,0,0,0,4.07.09,1.79,1.79,0,0,0,.76-1.49,1.75,1.75,0,0,0-.64-1.53,3.41,3.41,0,0,0-2-.46h-2.17V72.62H1427Q1429.24,72.56,1429.24,70.79Zm4.64,2.75a7.46,7.46,0,0,1,.73-3.35,5.56,5.56,0,0,1,2-2.3,5.69,5.69,0,0,1,3-.8,5.33,5.33,0,0,1,4.19,1.79,6.86,6.86,0,0,1,1.6,4.77v.15a7.64,7.64,0,0,1-.71,3.33,5.3,5.3,0,0,1-2,2.28,5.56,5.56,0,0,1-3,.82,5.35,5.35,0,0,1-4.19-1.79,6.88,6.88,0,0,1-1.59-4.74Zm2.18.26a5.44,5.44,0,0,0,1,3.39,3.15,3.15,0,0,0,2.63,1.27,3.1,3.1,0,0,0,2.62-1.28,6,6,0,0,0,1-3.64,5.38,5.38,0,0,0-1-3.37,3.29,3.29,0,0,0-5.22,0A6,6,0,0,0,1436.06,73.8Zm12.28,6.2V67.32h5a7,7,0,0,1,3.87.89,2.89,2.89,0,0,1,1.36,2.59,2.59,2.59,0,0,1-.52,1.59,3.36,3.36,0,0,1-1.56,1.08,3.4,3.4,0,0,1,1.84,1.06,2.7,2.7,0,0,1,.7,1.87,3.07,3.07,0,0,1-1.29,2.67,6.07,6.07,0,0,1-3.62.93Zm2.17-5.57v3.82h3.58a3.32,3.32,0,0,0,2-.5,1.68,1.68,0,0,0,.68-1.42c0-1.26-.93-1.9-2.79-1.9Zm0-1.73h2.8c2,0,3-.59,3-1.78s-1-1.8-2.89-1.84h-3Zm19.17,7.3a4.23,4.23,0,0,1-.3-1.34,4.84,4.84,0,0,1-3.61,1.57,4.56,4.56,0,0,1-3.09-1,3.48,3.48,0,0,1-1.19-2.7,3.58,3.58,0,0,1,1.5-3.07,7.13,7.13,0,0,1,4.24-1.1h2.11v-1a2.44,2.44,0,0,0-.68-1.81,2.72,2.72,0,0,0-2-.68,3.16,3.16,0,0,0-2,.59,1.73,1.73,0,0,0-.78,1.42h-2.18a3,3,0,0,1,.66-1.83,4.74,4.74,0,0,1,1.83-1.41,6.28,6.28,0,0,1,2.55-.51,5,5,0,0,1,3.43,1.1,3.91,3.91,0,0,1,1.29,3V77a7.22,7.22,0,0,0,.44,2.77V80Zm-3.6-1.65a3.85,3.85,0,0,0,1.94-.53,3.22,3.22,0,0,0,1.32-1.37v-2.6h-1.7c-2.66,0-4,.78-4,2.33a1.94,1.94,0,0,0,.68,1.59A2.56,2.56,0,0,0,1466.08,78.35ZM1485.27,80h-2.17V74.59h-5.83V80h-2.18V67.32h2.18v5.5h5.83v-5.5h2.17ZM1497,67.32h2.17V80H1497V70.75L1491.11,80H1489V67.32h2.16v9.26Zm15.34,0V80h-2.18V75.07h-3.27l-3,4.93h-2.34l3.19-5.26a3.89,3.89,0,0,1-1.88-1.37,3.76,3.76,0,0,1-.64-2.18,3.4,3.4,0,0,1,1.3-2.79,5.4,5.4,0,0,1,3.48-1.08Zm-7.93,3.89a1.93,1.93,0,0,0,.63,1.5,2.46,2.46,0,0,0,1.68.58h3.44V69.08H1507a2.9,2.9,0,0,0-1.92.6A1.9,1.9,0,0,0,1504.37,71.21Zm25.57-3.89h2.17V80h-2.17V70.75L1524.09,80h-2.17V67.32h2.17v9.26Zm22,12.68h-2.17V74.59h-5.82V80h-2.18V67.32h2.18v5.5h5.82v-5.5h2.17Zm11.32,0a4.46,4.46,0,0,1-.31-1.34,4.81,4.81,0,0,1-3.61,1.57,4.53,4.53,0,0,1-3.08-1,3.48,3.48,0,0,1-1.19-2.7,3.58,3.58,0,0,1,1.5-3.07,7.13,7.13,0,0,1,4.24-1.1h2.11v-1a2.44,2.44,0,0,0-.68-1.81,2.72,2.72,0,0,0-2-.68,3.16,3.16,0,0,0-2,.59,1.74,1.74,0,0,0-.79,1.42h-2.17A3,3,0,0,1,1556,69a4.74,4.74,0,0,1,1.83-1.41,6.23,6.23,0,0,1,2.54-.51,5,5,0,0,1,3.44,1.1,3.91,3.91,0,0,1,1.29,3V77a7.22,7.22,0,0,0,.44,2.77V80Zm-3.6-1.65a3.79,3.79,0,0,0,1.93-.53,3.18,3.18,0,0,0,1.33-1.37v-2.6h-1.7c-2.66,0-4,.78-4,2.33a1.94,1.94,0,0,0,.68,1.59A2.56,2.56,0,0,0,1559.62,78.35Zm12.79-1.53,2.95-9.5h2.32L1572.58,82q-1.18,3.17-3.76,3.16l-.41,0-.81-.16V83.18l.59,0a2.92,2.92,0,0,0,1.71-.44,3.27,3.27,0,0,0,1-1.63l.48-1.29-4.52-12.54h2.36Zm11.16-2.22H1582V80h-2.18V67.32H1582v5.37h1.42l4.27-5.37h2.62l-5,6.09,5.43,6.59H1588Zm17.22-7.28H1603V80h-2.17V70.75L1594.94,80h-2.17V67.32h2.17v9.26Zm25,12.68h-2.26V64.79h-8.41V80h-2.25V62.94h12.92Zm9,.23a5.57,5.57,0,0,1-4.2-1.68A6.32,6.32,0,0,1,1629,74v-.4a7.57,7.57,0,0,1,.72-3.36,5.56,5.56,0,0,1,2-2.32,5.11,5.11,0,0,1,2.82-.84,4.76,4.76,0,0,1,3.84,1.62,7.11,7.11,0,0,1,1.37,4.67v.9h-8.59a4.59,4.59,0,0,0,1.09,3,3.47,3.47,0,0,0,2.67,1.14,3.8,3.8,0,0,0,1.95-.46,5,5,0,0,0,1.39-1.25l1.33,1A5.34,5.34,0,0,1,1634.79,80.23Zm-.27-11.36a2.9,2.9,0,0,0-2.21,1,4.61,4.61,0,0,0-1.1,2.67h6.35v-.16a4.09,4.09,0,0,0-.89-2.56A2.7,2.7,0,0,0,1634.52,68.87ZM1653,73.8a7.58,7.58,0,0,1-1.32,4.66,4.26,4.26,0,0,1-3.59,1.77,4.62,4.62,0,0,1-3.63-1.46v6.11h-2.17V67.32h2l.11,1.41a4.45,4.45,0,0,1,3.68-1.64,4.28,4.28,0,0,1,3.6,1.72A7.58,7.58,0,0,1,1653,73.6Zm-2.17-.25a5.6,5.6,0,0,0-.91-3.38,3,3,0,0,0-2.51-1.24,3.18,3.18,0,0,0-2.95,1.74v6.06a3.18,3.18,0,0,0,3,1.73,2.93,2.93,0,0,0,2.48-1.23A6.14,6.14,0,0,0,1650.79,73.55ZM1663,77.13l4.31-9.81h2.71V80h-2.17V70.78l-4.1,9.22h-1.5l-4.19-9.42V80h-2.16V67.32h2.81Zm15.59,1.33a3.11,3.11,0,0,0,2-.7,2.45,2.45,0,0,0,1-1.76h2.05a3.88,3.88,0,0,1-.75,2.08,4.92,4.92,0,0,1-1.85,1.57,5.66,5.66,0,0,1-6.56-1.14,6.88,6.88,0,0,1-1.52-4.73v-.37a7.53,7.53,0,0,1,.68-3.29,5.19,5.19,0,0,1,1.94-2.24,5.59,5.59,0,0,1,3-.79,5.06,5.06,0,0,1,3.54,1.27,4.53,4.53,0,0,1,1.51,3.32h-2.05a3,3,0,0,0-.93-2,2.89,2.89,0,0,0-2.07-.79,3,3,0,0,0-2.56,1.19,5.62,5.62,0,0,0-.91,3.44v.41a5.47,5.47,0,0,0,.91,3.37A3,3,0,0,0,1678.62,78.46Zm11.43-3.86h-1.58V80h-2.18V67.32h2.18v5.37h1.42l4.26-5.37h2.63l-5,6.09L1697.2,80h-2.75Zm8.18-1.06a7.46,7.46,0,0,1,.73-3.35,5.51,5.51,0,0,1,2-2.3,5.63,5.63,0,0,1,3-.8,5.32,5.32,0,0,1,4.19,1.79,6.86,6.86,0,0,1,1.6,4.77v.15a7.5,7.5,0,0,1-.71,3.33,5.3,5.3,0,0,1-2,2.28,5.54,5.54,0,0,1-3,.82,5.35,5.35,0,0,1-4.19-1.79,6.88,6.88,0,0,1-1.59-4.74Zm2.18.26a5.44,5.44,0,0,0,1,3.39,3.15,3.15,0,0,0,2.63,1.27,3.1,3.1,0,0,0,2.62-1.28,6,6,0,0,0,1-3.64,5.38,5.38,0,0,0-1-3.37,3.29,3.29,0,0,0-5.22,0A6,6,0,0,0,1700.41,73.8Zm20.27-4.69h-5.84V80h-2.18V67.32h8Zm1.08,4.43a7.46,7.46,0,0,1,.73-3.35,5.51,5.51,0,0,1,2-2.3,5.64,5.64,0,0,1,3-.8,5.31,5.31,0,0,1,4.18,1.79,6.86,6.86,0,0,1,1.6,4.77v.15a7.5,7.5,0,0,1-.71,3.33,5.24,5.24,0,0,1-2,2.28,5.54,5.54,0,0,1-3,.82,5.32,5.32,0,0,1-4.18-1.79,6.84,6.84,0,0,1-1.6-4.74Zm2.18.26a5.5,5.5,0,0,0,1,3.39,3.16,3.16,0,0,0,2.63,1.27,3.09,3.09,0,0,0,2.62-1.28,6,6,0,0,0,1-3.64,5.38,5.38,0,0,0-1-3.37,3.28,3.28,0,0,0-5.21,0A5.88,5.88,0,0,0,1723.94,73.8Zm22,.8h-1.59V80h-2.18V67.32h2.18v5.37h1.42l4.27-5.37h2.62l-5,6.09,5.43,6.59h-2.75Zm19.72-.8a7.51,7.51,0,0,1-1.33,4.66,4.23,4.23,0,0,1-3.58,1.77,4.62,4.62,0,0,1-3.63-1.46v6.11h-2.17V67.32h2l.1,1.41a4.46,4.46,0,0,1,3.68-1.64,4.29,4.29,0,0,1,3.61,1.72,7.64,7.64,0,0,1,1.34,4.79Zm-2.17-.25a5.6,5.6,0,0,0-.91-3.38,3,3,0,0,0-2.51-1.24,3.18,3.18,0,0,0-3,1.74v6.06a3.17,3.17,0,0,0,3,1.73,2.9,2.9,0,0,0,2.47-1.23A6.07,6.07,0,0,0,1763.48,73.55ZM1776.24,80a4.88,4.88,0,0,1-.3-1.34,4.83,4.83,0,0,1-3.61,1.57,4.51,4.51,0,0,1-3.08-1,3.45,3.45,0,0,1-1.2-2.7,3.58,3.58,0,0,1,1.5-3.07,7.13,7.13,0,0,1,4.24-1.1h2.11v-1a2.41,2.41,0,0,0-.68-1.81,2.72,2.72,0,0,0-2-.68,3.2,3.2,0,0,0-2,.59,1.73,1.73,0,0,0-.78,1.42h-2.18A2.94,2.94,0,0,1,1769,69a4.63,4.63,0,0,1,1.82-1.41,6.31,6.31,0,0,1,2.55-.51,5,5,0,0,1,3.43,1.1,3.91,3.91,0,0,1,1.29,3V77a7,7,0,0,0,.45,2.77V80Zm-3.6-1.65a3.85,3.85,0,0,0,1.94-.53,3.16,3.16,0,0,0,1.32-1.37v-2.6h-1.7q-4,0-4,2.33a2,2,0,0,0,.68,1.59A2.56,2.56,0,0,0,1772.64,78.35Zm18.52-11V80H1789V75.07h-3.27l-3,4.93h-2.34l3.19-5.26a3.89,3.89,0,0,1-1.88-1.37,3.76,3.76,0,0,1-.64-2.18,3.4,3.4,0,0,1,1.3-2.79,5.38,5.38,0,0,1,3.48-1.08Zm-7.93,3.89a1.93,1.93,0,0,0,.63,1.5,2.46,2.46,0,0,0,1.68.58H1789V69.08h-3.12a2.9,2.9,0,0,0-1.92.6A1.87,1.87,0,0,0,1783.23,71.21Zm-184.6,27.64h4.76v2.05h-4.76v5.39h-2.18V100.9h-4.75V98.85h4.75v-5h2.18Zm18.2-6.69L1609.77,108h-2.28l7-15.28h-9.24V90.94h11.53Zm8.56,8.91a18.17,18.17,0,0,1,.7-5.08,14.87,14.87,0,0,1,2.12-4.43,8.9,8.9,0,0,1,2.92-2.81l.44,1.43a9.41,9.41,0,0,0-2.81,4,17.64,17.64,0,0,0-1.19,6l0,1a17.51,17.51,0,0,0,1.66,7.86,9.42,9.42,0,0,0,2.36,3.11l-.44,1.33a9.36,9.36,0,0,1-3-2.91A16.32,16.32,0,0,1,1625.39,101.07Zm11.21-2.66h1.63a3.55,3.55,0,0,0,2.41-.8,2.7,2.7,0,0,0,.88-2.13c0-2-1-3-3-3a3.1,3.1,0,0,0-2.25.81,2.79,2.79,0,0,0-.84,2.12h-2.16a4.35,4.35,0,0,1,1.47-3.36,5.4,5.4,0,0,1,3.78-1.35,5.34,5.34,0,0,1,3.78,1.28,4.63,4.63,0,0,1,1.37,3.55,3.72,3.72,0,0,1-.73,2.16,4.33,4.33,0,0,1-2,1.56,3.95,3.95,0,0,1,2.94,4,4.67,4.67,0,0,1-1.5,3.65,5.6,5.6,0,0,1-3.9,1.34,5.8,5.8,0,0,1-3.92-1.3,4.31,4.31,0,0,1-1.5-3.43h2.18a2.82,2.82,0,0,0,.88,2.16,3.39,3.39,0,0,0,2.36.8,3.28,3.28,0,0,0,2.4-.82,3.16,3.16,0,0,0,.83-2.35,2.89,2.89,0,0,0-.91-2.29,4,4,0,0,0-2.64-.82h-1.63Zm19.48,3.86h2.37V104h-2.37v4h-2.18v-4h-7.77v-1.28l7.64-11.82h2.31Zm-7.49,0h5.31V93.9l-.26.47Zm23,5.73H1660.4v-1.56l5.91-6.56a13.46,13.46,0,0,0,1.8-2.42,4,4,0,0,0,.51-1.93,3.06,3.06,0,0,0-.81-2.19,2.84,2.84,0,0,0-2.16-.86,3.34,3.34,0,0,0-2.52.93,3.52,3.52,0,0,0-.89,2.55h-2.17a5,5,0,0,1,1.52-3.8,5.63,5.63,0,0,1,4.06-1.46,5.36,5.36,0,0,1,3.76,1.26,4.21,4.21,0,0,1,1.39,3.31q0,2.52-3.21,6l-4.57,5h8.56Zm7.53-6.81a17.75,17.75,0,0,1-.7,5,14.82,14.82,0,0,1-2.09,4.42,9.19,9.19,0,0,1-3,2.88l-.45-1.33a9.41,9.41,0,0,0,2.89-4.29,18.47,18.47,0,0,0,1.13-6.46v-.38a19.43,19.43,0,0,0-.52-4.57,15.15,15.15,0,0,0-1.44-3.8,8.92,8.92,0,0,0-2.06-2.61l.45-1.32a9,9,0,0,1,2.94,2.86,14.46,14.46,0,0,1,2.1,4.41A18.4,18.4,0,0,1,1679.11,101.19Zm20.25,6.81h-11.18v-1.56l5.9-6.56a13.62,13.62,0,0,0,1.81-2.42,4.05,4.05,0,0,0,.5-1.93,3.06,3.06,0,0,0-.81-2.19,2.83,2.83,0,0,0-2.15-.86,3.34,3.34,0,0,0-2.52.93A3.48,3.48,0,0,0,1690,96h-2.17a5,5,0,0,1,1.51-3.8,5.65,5.65,0,0,1,4.07-1.46,5.38,5.38,0,0,1,3.76,1.26,4.24,4.24,0,0,1,1.38,3.31q0,2.52-3.21,6l-4.57,5h8.57Zm9.42,0h-2.18V93.55l-4.37,1.61v-2l6.21-2.33h.34Zm17.36-15.84L1719.08,108h-2.28l7-15.28h-9.24V90.94h11.53Zm19.43,0L1738.51,108h-2.28l7-15.28H1734V90.94h11.53Zm10.77,8.34a5.18,5.18,0,0,1-1.63,1.3,4.32,4.32,0,0,1-2.06.49,4.63,4.63,0,0,1-2.58-.72,4.85,4.85,0,0,1-1.68-2,7,7,0,0,1-.6-2.92,7.13,7.13,0,0,1,.64-3.08,4.78,4.78,0,0,1,1.86-2.1,5.26,5.26,0,0,1,2.78-.73,4.77,4.77,0,0,1,4,1.9,8.2,8.2,0,0,1,1.46,5.16v.63c0,3.32-.65,5.75-2,7.28s-3.29,2.3-5.94,2.34h-.42v-1.83h.46a6,6,0,0,0,4.12-1.39A6,6,0,0,0,1756.34,100.5Zm-3.34,0a3.31,3.31,0,0,0,2-.67,4,4,0,0,0,1.35-1.65v-.87a6,6,0,0,0-.93-3.47,2.83,2.83,0,0,0-4.64-.23,4.49,4.49,0,0,0-.87,2.88,4.8,4.8,0,0,0,.83,2.89A2.69,2.69,0,0,0,1753,100.5Zm17.62-2.09h1.63a3.57,3.57,0,0,0,2.41-.8,2.7,2.7,0,0,0,.88-2.13c0-2-1-3-3-3a3.1,3.1,0,0,0-2.25.81,2.82,2.82,0,0,0-.83,2.12h-2.17a4.32,4.32,0,0,1,1.48-3.36,6.09,6.09,0,0,1,7.56-.07,4.63,4.63,0,0,1,1.37,3.55,3.79,3.79,0,0,1-.73,2.16,4.41,4.41,0,0,1-2,1.56,4.16,4.16,0,0,1,2.17,1.47,4.06,4.06,0,0,1,.77,2.52,4.67,4.67,0,0,1-1.5,3.65,5.6,5.6,0,0,1-3.9,1.34,5.77,5.77,0,0,1-3.91-1.3,4.31,4.31,0,0,1-1.5-3.43h2.18a2.78,2.78,0,0,0,.88,2.16,3.36,3.36,0,0,0,2.35.8,3.25,3.25,0,0,0,2.4-.82,3.13,3.13,0,0,0,.84-2.35,2.9,2.9,0,0,0-.92-2.29,4,4,0,0,0-2.63-.82h-1.63Zm17.45,9.59h-2.18V93.55l-4.37,1.61v-2l6.21-2.33h.34Z"/><g id="Мужик"><g id="стул"><path class="cls-14" d="M1712.11,462.15c13.57,5.14,16.35,7.2,18,10s4.32,7.49-.92,12.93-8,5.71-13.27,6.16-64.52,2.21-64.52,2.21V601.7l-11.26.06V489.17Z"/><rect class="cls-14" x="1640.18" y="493.44" width="11.26" height="109.92"/><rect class="cls-14" x="1721.07" y="478.44" width="11.26" height="124.93"/></g><path id="СТУЛ-2" class="cls-15" d="M1611.72,384.56s2-18.25,8.1-26.65,46.79-13.9,54.81-14.19,42.56-.58,50.27,4.93,15.4,11.57,13,29.53-13.26,76.18-13.26,76.18l-92.11,7.79Z"/><path class="cls-16" d="M1636.88,581.08v24.63s0,2.3-2,2.3h-36.19s-3.08-1,0-2.79,15.83-10.38,16.76-11.07,2-1.7,2.16-4.7,0-7,0-7Z"/><path class="cls-16" d="M1592.72,581.08v24.63s0,2.3-1.92,2.3h-35.5s-3-1,0-2.79,15.53-10.38,16.44-11.07,1.92-1.7,2.12-4.7,0-7,0-7Z"/><g class="cls-17"><path class="cls-18" d="M1676.92,464.47s-10.83,19.47-40.12,22.36-26.73,1.58-26.73,1.58.66,35-1.55,52.49-14.83,44.48-14.83,44.48h-20.47s-3.4-75.94-4.21-84.26-4.21-21.16,0-29.48,5.22-7.17,5.22-7.17Z"/><path class="cls-19" d="M1676.92,464.47s-10.83,19.47-40.12,22.36-26.73,1.58-26.73,1.58.66,35-1.55,52.49-11.83,44.48-11.83,44.48l-29,3.8s2.1-79.74,1.29-88.06-4.21-21.16,0-29.48,5.22-7.17,5.22-7.17Z"/></g><g class="cls-20"><path class="cls-18" d="M1711.22,464.47s-10.84,19.47-40.12,22.36-26.73,1.58-26.73,1.58.65,35-1.55,52.49-5.85,42.5-5.85,42.5h-19.66s-13.2-74-14-82.28-4.2-21.16,0-29.48,5.22-7.17,5.22-7.17Z"/><path class="cls-21" d="M1711.22,464.47s-10.84,19.47-40.12,22.36-26.73,1.58-26.73,1.58.65,35-1.55,52.49-5.85,42.5-5.85,42.5h-19.66s-13.2-74-14-82.28-4.2-21.16,0-29.48,5.22-7.17,5.22-7.17Z"/></g><g class="cls-22"><path class="cls-23" d="M1616.59,363.15c3.17-13.61,21.31-26.54,40.54-29.33s39.91-.71,48.76,1.41,22.74,13.14,23.63,32.65,1.81,42.71-3.41,49.51-3.62,7.74-34.69,6.8-60.32,0-60.32,0Z"/><path class="cls-24" d="M1614.22,374.29c3.24-11.15,21.75-21.72,41.43-24s40.72-.57,49.74,1.16,23.13,10.76,24.06,26.7,1.85,35-3.47,40.56-3.71,6.34-35.4,5.57-61.54,0-61.54,0Z"/><path class="cls-25" d="M1648.09,411.55c5.16-4.33,13.22-.66,13.69-1.61s36.59-9.31,36.93-11-4.13-31.76-4.13-31.76l21.3-4.24,6.59,3.25s7.64,29.29,7.62,31.2-3.2,21.88-3.2,21.88-18,7.52-26.29,7.15-46.14-.75-46.14-.75Z"/></g><g class="cls-22"><path class="cls-26" d="M1616.59,363.15c3.17-13.61,21.31-26.54,40.54-29.33s39.91-.71,48.76,1.41,22.74,13.14,23.63,32.65,1.81,42.71-3.41,49.51-3.62,7.74-34.69,6.8-60.32,0-60.32,0Z"/><path class="cls-27" d="M1614.22,374.29c3.24-11.15,21.75-21.72,41.43-24s40.72-.57,49.74,1.16,23.13,10.76,24.06,26.7,1.85,35-3.47,40.56-3.71,6.34-35.4,5.57-61.54,0-61.54,0Z"/><path class="cls-28" d="M1648.09,411.55c5.16-4.33,13.22-.66,13.69-1.61s36.59-9.31,36.93-11-4.13-31.76-4.13-31.76l21.3-4.24,6.59,3.25s7.64,29.29,7.62,31.2-3.2,21.88-3.2,21.88-18,7.52-26.29,7.15-46.14-.75-46.14-.75Z"/></g><path class="cls-29" d="M1689.93,424.89H1560.58a6.08,6.08,0,0,1-6.08-6.08l-7-51.05a6.09,6.09,0,0,1,6.08-6.07H1642a6.07,6.07,0,0,1,6.07,6.07l6.5,52.23,31.56.1a3.83,3.83,0,0,1,3.83,3.81v1Z"/><path class="cls-30" d="M1657.1,338.75s.28,12.17,13,12.25,14.19-12.08,14.19-12.08l-6.23-1.57s0-10.9-.63-14.14-9.41,6.25-9.41,6.25l-4.71,2.08-.23,6.7Z"/><path class="cls-31" d="M1627.72,306.94c3-.1,7.91,1.66,15.14-11.91s26.26-14.65,31.44-14.55,12.11.29,14,7.42-3.61,11.82-3.61,12.3,2.93,9,1.85,11.28-9.31.83-9.31.83l-1.75,6.64a81.35,81.35,0,0,0-26.89-5.66c-14.25-.3-19.45-4.27-19.85-4.62A9.14,9.14,0,0,1,1627.72,306.94Z"/><path class="cls-32" d="M1645.22,312.8s3,17.28,11.71,22.25,16.69-2.31,17.55-3.34,4.3-4.72,4.45-7.24a31.23,31.23,0,0,0,0-3.62s7.87-.79,7.79-6.62a6.88,6.88,0,0,0-6.56-7.18,7.32,7.32,0,0,0-1.48.09c-2.73.73-6.3,6-5.36,8.09,1.31,2.93-3.41,1.11-5.67-2.23a10.56,10.56,0,0,1-1.94-6s-6.82,4-11.27,5A40.2,40.2,0,0,1,1645.22,312.8Z"/></g><g id="Девушка"><path class="cls-33" d="M1303.91,293.2s-2.36-22.71-9.47-33.17-54.7-17.3-64.07-17.66-49.74-.72-58.75,6.13-18,14.42-15.14,36.77,15.5,94.8,15.5,94.8l107.66,9.73Z"/><g id="стул-3"><path class="cls-14" d="M1219.74,420.44c-15.86,6.31-19.11,8.83-21.09,12.26s-5,9.19,1.08,15.86,9.37,7,15.5,7.57,54.79,2.7,54.79,2.7V591.66h-40.91l1.08,8.11H1325v-8.22l-41.82.18V453.6Z"/><circle class="cls-14" cx="1276.87" cy="597.07" r="11.44"/><circle class="cls-14" cx="1225.04" cy="597.1" r="11.44" transform="translate(271.15 1570.41) rotate(-71.56)"/><circle class="cls-14" cx="1328.81" cy="597.07" r="11.44"/></g><path class="cls-16" d="M1345.8,583.64v26.14s-.81,2.25,3.25,2.61,38.57,0,38.57,0,5.31-.36.63-3.06-21.72-12.89-21.72-12.89-2.16-1.08-2.16-4.6v-6Z"/><path class="cls-16" d="M1310.49,583.64v26.14s-.81,2.25,3.24,2.61,38.57,0,38.57,0,5.32-.36.63-3.06-21.71-12.89-21.71-12.89-2.16-1.08-2.16-4.6v-6Z"/><g class="cls-34"><path class="cls-18" d="M1250.56,423.4s13,25.88,48.06,29.72,32,2.11,32,2.11-.78,46.44,1.87,69.75,7.56,63.92,7.56,63.92l31.49.72s13.68-105.26,14.68-116.31-1.32-29.32-6.36-40.37-6.25-9.54-6.25-9.54Z"/><path class="cls-35" d="M1252.72,422.89s8.53,33.09,43.62,36.94l35.08,3.84s.6,37.49,3.25,60.8,5.4,64.43,5.4,64.43l33.65-1.71s13.77-104.27,14.73-115.32-1.39-28.38-6.44-39.44-6.25-9.54-6.25-9.54Z"/></g><g class="cls-36"><path class="cls-18" d="M1213.55,423.4S1219,458.17,1254,462s34.37,5.76,34.37,5.76,4.44,33.89,7.09,57.2,13,62.36,13,62.36l23.16-.72s16.56-102.26,17.56-113.31-1.33-29.32-6.37-40.37-6.25-9.54-6.25-9.54Z"/><path class="cls-37" d="M1213.55,423.4s13,25.88,48.06,29.72,32,2.11,32,2.11-.78,46.44,1.87,69.75,7.33,61.64,7.33,61.64l31.72,1.08s13.77-104.27,14.73-115.33-1.4-28.38-6.44-39.43-6.25-9.54-6.25-9.54Z"/></g><path class="cls-38" d="M1290.93,284.18c-3.42-5.4-6.85-10.89-5.59-15.18s11.72-22.48,8.47-38.53-20.72-24.46-30.59-26.13-25.6-2.7-35.33,9-13.16,29.16-12.8,38.55-5.4,21.83-19.28,31-24.59,23.46-21.49,51.76S1222.8,361,1222.8,361Z"/><g class="cls-39"><path class="cls-26" d="M1319.41,308.6c-3.37-13.94-22.59-27.16-43-30s-42.29-.72-51.66,1.44-24,13.46-25,33.4-1.92,43.74,3.61,50.71,3.84,7.93,36.77,7,63.92,0,63.92,0Z"/><path class="cls-40" d="M1320.76,308.6c-3.37-13.94-22.59-27.16-43-30s-42.29-.72-51.66,1.44-24,13.46-25,33.4-1.92,43.74,3.61,50.71,3.84,7.93,36.77,7,63.92,0,63.92,0Z"/><path class="cls-41" d="M1297.54,361.7c-7.21-5.52-20.19,1.21-20.91,0s-49.26-13.93-49.74-16.1,9.13-38,9.13-38l-33.09-8-9.2,4.16s2.36,38,2.38,40.37,2.88,27.23,2.88,27.23,13.72,9.78,25.25,9.3,64.41-1,64.41-1Z"/></g><path class="cls-42" d="M1251.16,371.9H1381a6.1,6.1,0,0,0,6.1-6.1l7-51.25a6.1,6.1,0,0,0-6.1-6.09h-88.74a6.11,6.11,0,0,0-6.1,6.09L1286.69,367l-31.69.09a3.86,3.86,0,0,0-3.84,3.85Z"/><path class="cls-43" d="M1267.14,262.44l3.37,17.29-4.45,7.91-19.48-9.93s3.14-24.53,4.58-27S1267.14,262.44,1267.14,262.44Z"/><path class="cls-32" d="M1278.59,248.5s-5.32,15.05-10.82,17.48-11.26-4.78-11.8-5.32-5.75-6.65-5.75-6.65l.21-2.52-1.81-.4a.58.58,0,0,1-.44-.69v0a.49.49,0,0,1,.1-.22l3.39-3.92a27.11,27.11,0,0,0,2.23-3l2.24-3.52a1.13,1.13,0,0,1,1.46-.31l8.32,4.6a17,17,0,0,0,4.4,2Z"/><polygon class="cls-44" points="1273.53 277.91 1274.95 295.72 1266.66 288.39 1260.55 298.12 1243.59 277.82 1246.08 276.97 1266.06 287.64 1270.51 276.97 1273.53 277.91"/></g><path id="Стол" class="cls-14" d="M1774.39,605.91h-2.57c-1.7,0-3.08-2-3.09-4.52L1768,469.88c0-2.5-1.39-4.52-3.09-4.52l-251.58-.55c-1.7,0-3.08,2-3.1,4.51l-.69,132.26c0,2.53-1.44,4.6-3.16,4.51l-2.79-.09c-1.68,0-3-2.07-3-4.54V429c0-2.51,1.39-4.54,3.09-4.54h270.73c1.71,0,3.09,2,3.09,4.54V601.36C1777.48,603.87,1776.1,605.91,1774.39,605.91Z"/><path id="Стол-2" class="cls-14" d="M1458.74,608.37h-2.85c-1.87,0-3.4-2.56-3.41-5.73l-.81-173.12c0-3.16-1.53-5.72-3.41-5.72L1170,423.09c-1.88,0-3.4,2.55-3.42,5.72l-.77,174.06c0,3.22-1.59,5.8-3.49,5.73l-3.09-.11c-1.86-.07-3.34-2.63-3.34-5.77v-225c0-3.19,1.53-5.77,3.42-5.77h299.39c1.88,0,3.41,2.58,3.41,5.77V602.6C1462.15,605.78,1460.62,608.37,1458.74,608.37Z"/></svg>