<svg width="387" height="80" viewBox="0 0 387 80" fill="none" xmlns="http://www.w3.org/2000/svg">
<path opacity="0.9" d="M244.494 77.8113C168.184 79.805 119.289 65.6947 86 63.5C40.4374 59.4598 53.4306 74.8186 23.4907 68.3343C-0.993917 63.0315 0.00541029 27.383 0.00576646 0H30.9856H386.92C386.92 10.7872 387.42 19.5 385.92 33.1915C381.721 71.5266 322.771 75.7663 244.494 77.8113Z" fill="#5D209E"/>
<path opacity="0.9" d="M59.2573 70.1783C-5 52.5 -0.000140764 26 -0.000157215 0H177.098H387C387 7.5 387.5 13.5 386.035 33.103C384.8 49.6366 371.466 67.6829 331.464 74.9146C291.462 82.1463 264.514 70.7385 202.026 70.1783C139.539 69.6181 132.84 90.4221 59.2573 70.1783Z" fill="white"/>
<g opacity="0.9">
<path d="M59.2573 70.1783C-5 52.5 -0.000140764 26 -0.000157215 0H177.098H387C387 7.5 387.5 13.5 386.035 33.103C384.8 49.6366 371.466 67.6829 331.464 74.9146C291.462 82.1463 264.514 70.7385 202.026 70.1783C139.539 69.6181 132.84 90.4221 59.2573 70.1783Z" fill="#C135DC"/>
<path d="M59.2573 70.1783C-5 52.5 -0.000140764 26 -0.000157215 0H177.098H387C387 7.5 387.5 13.5 386.035 33.103C384.8 49.6366 371.466 67.6829 331.464 74.9146C291.462 82.1463 264.514 70.7385 202.026 70.1783C139.539 69.6181 132.84 90.4221 59.2573 70.1783Z" fill="url(#paint0_linear)"/>
</g>
<g opacity="0.9">
<path d="M244.494 77.8113C168.184 79.805 119.289 65.6947 86 63.5C40.4374 59.4598 53.4306 74.8186 23.4907 68.3343C-0.993917 63.0315 0.00541029 27.383 0.00576646 0H30.9856H386.92C386.92 10.7872 387.42 19.5 385.92 33.1915C381.721 71.5266 322.771 75.7663 244.494 77.8113Z" fill="#5D209E"/>
<path d="M244.494 77.8113C168.184 79.805 119.289 65.6947 86 63.5C40.4374 59.4598 53.4306 74.8186 23.4907 68.3343C-0.993917 63.0315 0.00541029 27.383 0.00576646 0H30.9856H386.92C386.92 10.7872 387.42 19.5 385.92 33.1915C381.721 71.5266 322.771 75.7663 244.494 77.8113Z" fill="url(#paint1_linear)"/>
</g>
<path d="M138.269 43.2725H136.745V41H130.658V43.2725H129.109L129.058 39.7178H129.801C130.169 39.3623 130.463 38.846 130.683 38.1689C130.903 37.4876 131.045 36.7174 131.108 35.8584L131.35 31.7578H137.177V39.7178H138.351L138.269 43.2725ZM131.616 39.7178H135.577V33.0527H132.879L132.727 35.6553C132.613 37.3945 132.243 38.7487 131.616 39.7178ZM145.219 31.7578H146.825V41H145.219V34.4175L141.163 41H139.557V31.7578H141.163V38.3467L145.219 31.7578ZM155.801 37.9912C155.708 38.9772 155.344 39.7474 154.709 40.3018C154.074 40.8519 153.23 41.127 152.176 41.127C151.44 41.127 150.79 40.9535 150.228 40.6064C149.669 40.2552 149.237 39.758 148.933 39.1147C148.628 38.4715 148.469 37.7246 148.457 36.874V36.0107C148.457 35.139 148.611 34.3709 148.92 33.7065C149.229 33.0422 149.671 32.5301 150.247 32.1704C150.826 31.8107 151.495 31.6309 152.252 31.6309C153.272 31.6309 154.093 31.908 154.715 32.4624C155.337 33.0168 155.699 33.7996 155.801 34.811H154.201C154.125 34.1466 153.93 33.6685 153.617 33.3765C153.308 33.0802 152.853 32.9321 152.252 32.9321C151.554 32.9321 151.017 33.1882 150.64 33.7002C150.268 34.208 150.077 34.9549 150.069 35.9409V36.7598C150.069 37.7585 150.247 38.5202 150.602 39.0449C150.962 39.5697 151.486 39.832 152.176 39.832C152.807 39.832 153.281 39.6903 153.598 39.4067C153.916 39.1232 154.117 38.6514 154.201 37.9912H155.801ZM163.729 33.0527H160.847V41H159.254V33.0527H156.397V31.7578H163.729V33.0527ZM169.359 38.8481H165.779L165.03 41H163.361L166.852 31.7578H168.293L171.791 41H170.115L169.359 38.8481ZM166.23 37.5532H168.909L167.569 33.7192L166.23 37.5532ZM180.182 41H178.583V36.8931H174.45V41H172.844V31.7578H174.45V35.6045H178.583V31.7578H180.182V41ZM182.074 31.7578H183.68V39.7178H187.749V31.7578H189.354V39.7051H190.472L190.345 43.228H188.872V41H182.074V31.7578ZM197.46 31.7578H199.066V41H197.46V34.4175L193.404 41H191.798V31.7578H193.404V38.3467L197.46 31.7578ZM208.366 36.6201C208.366 37.5257 208.209 38.3213 207.896 39.0068C207.583 39.6882 207.134 40.2129 206.55 40.5811C205.971 40.945 205.302 41.127 204.544 41.127C203.795 41.127 203.127 40.945 202.539 40.5811C201.955 40.2129 201.502 39.6903 201.18 39.0132C200.863 38.3361 200.702 37.5553 200.698 36.6709V36.1504C200.698 35.249 200.856 34.4535 201.174 33.7637C201.495 33.0739 201.946 32.547 202.526 32.1831C203.11 31.8149 203.778 31.6309 204.532 31.6309C205.285 31.6309 205.951 31.8128 206.531 32.1768C207.115 32.5365 207.566 33.057 207.883 33.7383C208.201 34.4154 208.361 35.2046 208.366 36.106V36.6201ZM206.76 36.1377C206.76 35.1136 206.565 34.3286 206.176 33.7827C205.791 33.2368 205.243 32.9639 204.532 32.9639C203.838 32.9639 203.294 33.2368 202.9 33.7827C202.511 34.3244 202.312 35.0924 202.304 36.0869V36.6201C202.304 37.6357 202.5 38.4207 202.894 38.9751C203.292 39.5295 203.842 39.8066 204.544 39.8066C205.255 39.8066 205.801 39.5358 206.182 38.9941C206.567 38.4525 206.76 37.6611 206.76 36.6201V36.1377ZM217.303 41H215.704V36.8931H211.571V41H209.965V31.7578H211.571V35.6045H215.704V31.7578H217.303V41ZM226.545 41H224.946V36.8931H220.813V41H219.208V31.7578H220.813V35.6045H224.946V31.7578H226.545V41ZM235.826 36.6201C235.826 37.5257 235.669 38.3213 235.356 39.0068C235.043 39.6882 234.594 40.2129 234.01 40.5811C233.431 40.945 232.762 41.127 232.004 41.127C231.255 41.127 230.587 40.945 229.999 40.5811C229.415 40.2129 228.962 39.6903 228.64 39.0132C228.323 38.3361 228.162 37.5553 228.158 36.6709V36.1504C228.158 35.249 228.316 34.4535 228.634 33.7637C228.955 33.0739 229.406 32.547 229.986 32.1831C230.57 31.8149 231.238 31.6309 231.992 31.6309C232.745 31.6309 233.411 31.8128 233.991 32.1768C234.575 32.5365 235.026 33.057 235.343 33.7383C235.661 34.4154 235.821 35.2046 235.826 36.106V36.6201ZM234.22 36.1377C234.22 35.1136 234.025 34.3286 233.636 33.7827C233.251 33.2368 232.703 32.9639 231.992 32.9639C231.298 32.9639 230.754 33.2368 230.36 33.7827C229.971 34.3244 229.772 35.0924 229.764 36.0869V36.6201C229.764 37.6357 229.96 38.4207 230.354 38.9751C230.752 39.5295 231.302 39.8066 232.004 39.8066C232.715 39.8066 233.261 39.5358 233.642 38.9941C234.027 38.4525 234.22 37.6611 234.22 36.6201V36.1377ZM242.827 36.874H239.031V39.7178H243.468V41H237.425V31.7578H243.424V33.0527H239.031V35.6045H242.827V36.874ZM253.675 31.7578H255.281V41H253.675V34.4175L249.619 41H248.013V31.7578H249.619V38.3467L253.675 31.7578ZM131.115 52.9976C131.199 53.6662 131.4 54.1423 131.718 54.4258C132.039 54.7093 132.511 54.8511 133.133 54.8511C133.793 54.8511 134.303 54.6099 134.663 54.1274C135.027 53.645 135.222 52.9489 135.247 52.0391H131.984V50.7441H135.247C135.213 49.8301 135.008 49.1318 134.631 48.6494C134.259 48.167 133.734 47.9258 133.057 47.9258C132.465 47.9258 132.01 48.0739 131.692 48.3701C131.379 48.6663 131.185 49.1488 131.108 49.8174H129.509C129.61 48.8102 129.97 48.0273 130.588 47.4688C131.21 46.9102 132.033 46.6309 133.057 46.6309C133.815 46.6309 134.481 46.8086 135.057 47.1641C135.632 47.5195 136.074 48.0273 136.383 48.6875C136.696 49.3477 136.855 50.1115 136.859 50.979V51.7598C136.859 52.6357 136.707 53.4059 136.402 54.0703C136.102 54.7305 135.668 55.2383 135.101 55.5938C134.534 55.9492 133.878 56.127 133.133 56.127C132.084 56.127 131.242 55.8519 130.607 55.3018C129.972 54.7474 129.608 53.9793 129.515 52.9976H131.115ZM145.492 46.7578V56H143.893V48.0527H141.062L140.896 51.6265C140.833 52.7437 140.695 53.6112 140.484 54.229C140.277 54.8426 139.974 55.2912 139.576 55.5747C139.178 55.8582 138.645 56 137.977 56H137.57V54.7178L137.824 54.6987C138.192 54.6649 138.476 54.5358 138.675 54.3115C138.878 54.0872 139.03 53.7487 139.132 53.2959C139.238 52.8389 139.312 52.1681 139.354 51.2837L139.532 46.7578H145.492ZM152.83 51.874H149.034V54.7178H153.471V56H147.428V46.7578H153.427V48.0527H149.034V50.6045H152.83V51.874ZM157.515 52.0391H156.423V56H154.823V46.7578H156.423V50.6426H157.305L160.022 46.7578H161.99L158.816 51.1821L162.269 56H160.339L157.515 52.0391ZM169.835 48.0527H166.954V56H165.36V48.0527H162.504V46.7578H169.835V48.0527ZM172.66 52.5659V56H171.054V46.7578H174.59C175.622 46.7578 176.441 47.0265 177.046 47.564C177.656 48.1014 177.96 48.8123 177.96 49.6968C177.96 50.6024 177.662 51.307 177.065 51.8105C176.473 52.3141 175.641 52.5659 174.571 52.5659H172.66ZM172.66 51.2773H174.59C175.161 51.2773 175.597 51.144 175.897 50.8774C176.198 50.6066 176.348 50.2173 176.348 49.7095C176.348 49.2101 176.196 48.8123 175.891 48.5161C175.586 48.2157 175.167 48.0612 174.634 48.0527H172.66V51.2773ZM186.746 51.6201C186.746 52.5257 186.589 53.3213 186.276 54.0068C185.963 54.6882 185.514 55.2129 184.93 55.5811C184.35 55.945 183.682 56.127 182.924 56.127C182.175 56.127 181.507 55.945 180.918 55.5811C180.334 55.2129 179.882 54.6903 179.56 54.0132C179.243 53.3361 179.082 52.5553 179.078 51.6709V51.1504C179.078 50.249 179.236 49.4535 179.554 48.7637C179.875 48.0739 180.326 47.547 180.906 47.1831C181.49 46.8149 182.158 46.6309 182.912 46.6309C183.665 46.6309 184.331 46.8128 184.911 47.1768C185.495 47.5365 185.946 48.057 186.263 48.7383C186.581 49.4154 186.741 50.2046 186.746 51.106V51.6201ZM185.14 51.1377C185.14 50.1136 184.945 49.3286 184.556 48.7827C184.171 48.2368 183.623 47.9639 182.912 47.9639C182.218 47.9639 181.674 48.2368 181.28 48.7827C180.891 49.3244 180.692 50.0924 180.684 51.0869V51.6201C180.684 52.6357 180.88 53.4207 181.274 53.9751C181.672 54.5295 182.222 54.8066 182.924 54.8066C183.635 54.8066 184.181 54.5358 184.562 53.9941C184.947 53.4525 185.14 52.6611 185.14 51.6201V51.1377ZM195.683 56H194.083V51.8931H189.951V56H188.345V46.7578H189.951V50.6045H194.083V46.7578H195.683V56ZM204.925 56H203.326V51.8931H199.193V56H197.587V46.7578H199.193V50.6045H203.326V46.7578H204.925V56ZM214.206 51.6201C214.206 52.5257 214.049 53.3213 213.736 54.0068C213.423 54.6882 212.974 55.2129 212.39 55.5811C211.81 55.945 211.142 56.127 210.384 56.127C209.635 56.127 208.967 55.945 208.378 55.5811C207.794 55.2129 207.342 54.6903 207.02 54.0132C206.703 53.3361 206.542 52.5553 206.538 51.6709V51.1504C206.538 50.249 206.696 49.4535 207.014 48.7637C207.335 48.0739 207.786 47.547 208.366 47.1831C208.95 46.8149 209.618 46.6309 210.372 46.6309C211.125 46.6309 211.791 46.8128 212.371 47.1768C212.955 47.5365 213.406 48.057 213.723 48.7383C214.041 49.4154 214.201 50.2046 214.206 51.106V51.6201ZM212.6 51.1377C212.6 50.1136 212.405 49.3286 212.016 48.7827C211.631 48.2368 211.083 47.9639 210.372 47.9639C209.678 47.9639 209.134 48.2368 208.74 48.7827C208.351 49.3244 208.152 50.0924 208.144 51.0869V51.6201C208.144 52.6357 208.34 53.4207 208.734 53.9751C209.132 54.5295 209.682 54.8066 210.384 54.8066C211.095 54.8066 211.641 54.5358 212.022 53.9941C212.407 53.4525 212.6 52.6611 212.6 51.6201V51.1377ZM221.207 51.874H217.411V54.7178H221.848V56H215.805V46.7578H221.804V48.0527H217.411V50.6045H221.207V51.874ZM233.769 51.6201C233.769 52.5257 233.612 53.3213 233.299 54.0068C232.986 54.6882 232.538 55.2129 231.954 55.5811C231.374 55.945 230.705 56.127 229.948 56.127C229.199 56.127 228.53 55.945 227.942 55.5811C227.358 55.2129 226.905 54.6903 226.583 54.0132C226.266 53.3361 226.105 52.5553 226.101 51.6709V51.1504C226.101 50.249 226.26 49.4535 226.577 48.7637C226.899 48.0739 227.349 47.547 227.929 47.1831C228.513 46.8149 229.182 46.6309 229.935 46.6309C230.688 46.6309 231.355 46.8128 231.935 47.1768C232.519 47.5365 232.969 48.057 233.287 48.7383C233.604 49.4154 233.765 50.2046 233.769 51.106V51.6201ZM232.163 51.1377C232.163 50.1136 231.968 49.3286 231.579 48.7827C231.194 48.2368 230.646 47.9639 229.935 47.9639C229.241 47.9639 228.697 48.2368 228.304 48.7827C227.914 49.3244 227.715 50.0924 227.707 51.0869V51.6201C227.707 52.6357 227.904 53.4207 228.297 53.9751C228.695 54.5295 229.245 54.8066 229.948 54.8066C230.659 54.8066 231.205 54.5358 231.585 53.9941C231.971 53.4525 232.163 52.6611 232.163 51.6201V51.1377ZM241.208 48.0527H236.949V50.2935H238.841C239.518 50.2935 240.108 50.4098 240.612 50.6426C241.115 50.8753 241.498 51.2054 241.761 51.6328C242.023 52.0602 242.154 52.5553 242.154 53.1182C242.154 53.9814 241.86 54.6755 241.272 55.2002C240.688 55.7249 239.89 55.9915 238.879 56H235.343V46.7578H241.208V48.0527ZM236.949 51.582V54.7178H238.834C239.376 54.7178 239.797 54.5718 240.098 54.2798C240.402 53.9836 240.555 53.5921 240.555 53.1055C240.555 52.64 240.407 52.2718 240.11 52.001C239.814 51.7301 239.404 51.5905 238.879 51.582H236.949ZM246.756 51.5884L248.61 46.7578H250.394L247.175 54.4258L246.883 55.0034C246.46 55.7567 245.775 56.1333 244.827 56.1333L244.167 56.0952L244.179 54.8257C244.281 54.8426 244.461 54.8511 244.719 54.8511C245.176 54.8511 245.497 54.6564 245.684 54.2671L246.014 53.4863L242.853 46.7578H244.604L246.756 51.5884ZM258.69 46.7578V56H257.09V52.3628C256.405 52.5363 255.69 52.623 254.945 52.623C253.84 52.623 253.005 52.3797 252.438 51.8931C251.87 51.4064 251.585 50.6722 251.581 49.6904V46.7578H253.18V49.7031C253.184 50.2913 253.32 50.7103 253.586 50.96C253.853 51.2096 254.306 51.3345 254.945 51.3345C255.681 51.3345 256.396 51.2456 257.09 51.0679V46.7578H258.69ZM266.021 51.874H262.226V54.7178H266.663V56H260.62V46.7578H266.618V48.0527H262.226V50.6045H266.021V51.874ZM275.308 56H273.708V51.8931H269.576V56H267.97V46.7578H269.576V50.6045H273.708V46.7578H275.308V56ZM282.875 46.7578H284.48V56H282.875V49.4175L278.818 56H277.212V46.7578H278.818V53.3467L282.875 46.7578ZM291.806 51.874H288.01V54.7178H292.447V56H286.404V46.7578H292.402V48.0527H288.01V50.6045H291.806V51.874Z" fill="white"/>
<path d="M130.896 19.9152C130.987 20.5012 131.171 20.9129 131.447 21.1506C131.727 21.3849 132.128 21.5021 132.648 21.5021C133.212 21.5021 133.656 21.2824 133.981 20.843C134.31 20.4035 134.478 19.7932 134.484 19.0119H131.687V18.2404H134.484C134.484 17.4689 134.315 16.8586 133.977 16.4094C133.641 15.9601 133.171 15.7355 132.565 15.7355C132.077 15.7355 131.696 15.8625 131.423 16.1164C131.153 16.3703 130.977 16.7805 130.896 17.3469H129.953C130.028 16.6014 130.293 16.0187 130.749 15.5988C131.205 15.1756 131.81 14.9641 132.565 14.9641C133.138 14.9641 133.641 15.1008 134.074 15.3742C134.51 15.6444 134.844 16.0318 135.075 16.5363C135.31 17.0376 135.427 17.6154 135.427 18.2697V18.9777C135.427 19.632 135.311 20.2098 135.08 20.7111C134.849 21.2124 134.522 21.5982 134.099 21.8683C133.679 22.1353 133.195 22.2687 132.648 22.2687C131.874 22.2687 131.252 22.0653 130.783 21.6584C130.318 21.2482 130.041 20.6672 129.953 19.9152H130.896ZM142.229 22.1711H141.286V15.8332H137.78V22.1711H136.843V15.0617H142.229V22.1711ZM149.406 18.8459C149.406 19.5425 149.289 20.1512 149.055 20.6721C148.82 21.1896 148.488 21.5851 148.059 21.8586C147.629 22.132 147.128 22.2687 146.555 22.2687C145.995 22.2687 145.498 22.132 145.065 21.8586C144.632 21.5819 144.296 21.1896 144.055 20.6818C143.817 20.1708 143.695 19.5799 143.688 18.9094V18.3967C143.688 17.7131 143.807 17.1092 144.045 16.5851C144.283 16.0611 144.618 15.6607 145.051 15.384C145.487 15.104 145.985 14.9641 146.545 14.9641C147.115 14.9641 147.616 15.1024 148.049 15.3791C148.485 15.6525 148.82 16.0513 149.055 16.5754C149.289 17.0962 149.406 17.7033 149.406 18.3967V18.8459ZM148.474 18.3869C148.474 17.5438 148.304 16.8976 147.966 16.4484C147.627 15.996 147.154 15.7697 146.545 15.7697C145.952 15.7697 145.485 15.996 145.144 16.4484C144.805 16.8976 144.631 17.5226 144.621 18.3234V18.8459C144.621 19.6629 144.792 20.3058 145.134 20.7746C145.479 21.2401 145.952 21.4728 146.555 21.4728C147.16 21.4728 147.629 21.2531 147.961 20.8137C148.293 20.371 148.464 19.7378 148.474 18.9142V18.3869ZM156.042 19.9152C155.954 20.6672 155.676 21.2482 155.207 21.6584C154.742 22.0653 154.121 22.2687 153.347 22.2687C152.507 22.2687 151.833 21.9676 151.325 21.3654C150.821 20.7632 150.568 19.9575 150.568 18.9484V18.2648C150.568 17.604 150.686 17.023 150.92 16.5217C151.158 16.0204 151.493 15.6363 151.926 15.3693C152.359 15.0991 152.86 14.9641 153.43 14.9641C154.185 14.9641 154.79 15.1756 155.246 15.5988C155.702 16.0187 155.967 16.6014 156.042 17.3469H155.1C155.018 16.7805 154.841 16.3703 154.567 16.1164C154.297 15.8625 153.918 15.7355 153.43 15.7355C152.831 15.7355 152.36 15.9569 152.019 16.3996C151.68 16.8423 151.511 17.4722 151.511 18.2892V18.9777C151.511 19.7492 151.672 20.3628 151.994 20.8185C152.316 21.2743 152.767 21.5021 153.347 21.5021C153.868 21.5021 154.266 21.3849 154.543 21.1506C154.823 20.9129 155.008 20.5012 155.1 19.9152H156.042Z" fill="white"/>
<path d="M117.874 35.2361C117.447 37.9017 117.247 38.623 115.905 39.7297C114.291 41.0616 95.0344 44.3894 95.0001 29.4192C94.9648 13.8098 106.388 9.19976 108.085 8.37927C109.854 7.52348 110.578 8.11595 110.446 10.1567L113.93 12.5266C113.93 12.5266 113.781 13.5026 113.93 13.7774C114.53 14.8745 117.546 16.5422 117.546 16.5422C117.547 17.2826 115.832 20.5083 112.002 19.4263C110.535 19.0123 106.398 19.3767 111.419 24.584" stroke="white" stroke-width="1.5" stroke-miterlimit="10" stroke-linecap="round"/>
<path d="M125.056 22.7703L120.725 31.0992H112.001" stroke="white" stroke-miterlimit="10"/>
<path d="M115.053 28.9782C115.035 25.2335 117.522 23.4303 121.201 25.2507" stroke="white" stroke-width="0.8" stroke-miterlimit="10"/>
<path d="M112.808 28.8849C112.606 23.545 117.439 20.4796 122.325 23.0794" stroke="white" stroke-width="0.8" stroke-miterlimit="10"/>
<path d="M117.323 28.902C117.323 27.2486 118.124 26.1972 120.285 27.1942" stroke="white" stroke-width="0.8" stroke-miterlimit="10"/>
<defs>
<linearGradient id="paint0_linear" x1="62.6258" y1="41.455" x2="305.263" y2="-50.7814" gradientUnits="userSpaceOnUse">
<stop stop-color="#AB3AE0"/>
<stop offset="1" stop-color="#D535E5" stop-opacity="0"/>
</linearGradient>
<linearGradient id="paint1_linear" x1="23.4904" y1="-70.8782" x2="210.821" y2="185.607" gradientUnits="userSpaceOnUse">
<stop stop-color="#6240D5"/>
<stop offset="1" stop-color="#480C7D" stop-opacity="0.35"/>
</linearGradient>
</defs>
</svg>
