<svg xmlns="http://www.w3.org/2000/svg" xmlns:xlink="http://www.w3.org/1999/xlink" viewBox="0 0 2308.62 781.89"><defs><style>.cls-1,.cls-42,.cls-43,.cls-44{fill:none;}.cls-2{opacity:0.9;}.cls-3{fill:#c135dc;}.cls-4{fill:url(#Безымянный_градиент);}.cls-5{fill:#5d209e;}.cls-6{fill:url(#Безымянный_градиент_2);}.cls-7{fill:#fff;}.cls-8{fill:#3b167d;}.cls-9{fill:url(#Безымянный_градиент_3);}.cls-10{fill:url(#Безымянный_градиент_4);}.cls-11{fill:#ffa860;}.cls-12{fill:url(#Безымянный_градиент_16);}.cls-13{fill:#2f3f68;}.cls-14{clip-path:url(#clip-path);}.cls-15{fill:#281757;}.cls-16{fill:url(#Безымянный_градиент_18);}.cls-17{clip-path:url(#clip-path-2);}.cls-18{fill:url(#Безымянный_градиент_18-2);}.cls-19{clip-path:url(#clip-path-3);}.cls-20{fill:url(#Безымянный_градиент_22);}.cls-21{fill:url(#Безымянный_градиент_22-2);}.cls-22{fill:url(#Безымянный_градиент_22-3);}.cls-23{fill:#00afe4;}.cls-24{fill:url(#Безымянный_градиент_20);}.cls-25{fill:url(#Безымянный_градиент_21);}.cls-26{fill:url(#Безымянный_градиент_22-4);}.cls-27{fill:url(#Безымянный_градиент_23);}.cls-28{fill:url(#Безымянный_градиент_22-5);}.cls-29{fill:#ffcd98;}.cls-30{fill:url(#Безымянный_градиент_16-2);}.cls-31{clip-path:url(#clip-path-5);}.cls-32{fill:url(#Безымянный_градиент_18-3);}.cls-33{clip-path:url(#clip-path-6);}.cls-34{fill:url(#Безымянный_градиент_18-4);}.cls-35{fill:url(#Безымянный_градиент_22-6);}.cls-36{clip-path:url(#clip-path-7);}.cls-37{fill:url(#Безымянный_градиент_20-2);}.cls-38{fill:url(#Безымянный_градиент_21-2);}.cls-39{fill:url(#Безымянный_градиент_22-7);}.cls-40{fill:url(#Безымянный_градиент_23-2);}.cls-41{fill:#fefefe;}.cls-42,.cls-43,.cls-44{stroke:#fff;stroke-miterlimit:10;}.cls-42{stroke-linecap:round;stroke-width:6px;}.cls-43{stroke-width:5px;}.cls-44{stroke-width:3px;}</style><linearGradient id="Безымянный_градиент" x1="406.65" y1="-1204.93" x2="1972.65" y2="-1564.93" gradientTransform="translate(0 1716)" gradientUnits="userSpaceOnUse"><stop offset="0" stop-color="#ab3ae0"/><stop offset="1" stop-color="#d535e5" stop-opacity="0"/></linearGradient><linearGradient id="Безымянный_градиент_2" x1="38.7" y1="-2306.98" x2="1968.2" y2="-739.48" gradientTransform="translate(0 1716)" gradientUnits="userSpaceOnUse"><stop offset="0" stop-color="#6240d5"/><stop offset="1" stop-color="#480c7d" stop-opacity="0.35"/></linearGradient><radialGradient id="Безымянный_градиент_3" cx="6243.89" cy="-43.12" r="1.12" gradientTransform="matrix(1, 32.5, -368.52, 11.34, -20643.95, -201810.28)" gradientUnits="userSpaceOnUse"><stop offset="0" stop-color="#4c2aa5"/><stop offset="1" stop-color="#431f83"/></radialGradient><radialGradient id="Безымянный_градиент_4" cx="6281.52" cy="-44.15" r="1.12" gradientTransform="matrix(115.56, 211.91, -261.19, 142.43, -735911.74, -1324435.72)" gradientUnits="userSpaceOnUse"><stop offset="0" stop-color="#fcd3df" stop-opacity="0.12"/><stop offset="1" stop-color="#e0a0c6"/></radialGradient><linearGradient id="Безымянный_градиент_16" x1="-24.07" y1="2130.33" x2="-30.45" y2="2018.31" gradientTransform="matrix(1, 0, 0, -1, 1748.57, 2504)" gradientUnits="userSpaceOnUse"><stop offset="0" stop-color="#ffb770"/><stop offset="0.37" stop-color="#ffae7a"/><stop offset="1" stop-color="#ff9594"/></linearGradient><clipPath id="clip-path"><path class="cls-1" d="M1726.46,472.14s-12.08,21.84-44.83,25-29.82,1.78-29.82,1.78-3.68,39.17-6.3,58.7-12.08,49.77-12.08,49.77h-22.89s-3.78-84.84-4.72-94.29-3.36-28,1.36-37.38,4.52-3.57,4.52-3.57Z"/></clipPath><linearGradient id="Безымянный_градиент_18" x1="1517.83" y1="1895.85" x2="1657.72" y2="1986.04" gradientTransform="matrix(1, 0, 0, -1, 0, 2504)" gradientUnits="userSpaceOnUse"><stop offset="0" stop-color="#ff4bc4"/><stop offset="1" stop-color="#604fc4" stop-opacity="0"/></linearGradient><clipPath id="clip-path-2"><path class="cls-1" d="M1764.78,472.14s-12.07,21.84-44.83,25-29.82,1.78-29.82,1.78.73,39.17-1.78,58.7-6.51,47.46-6.51,47.46h-22s-14.81-82.74-15.65-92-4.72-23.73,0-33,5.78-8.09,5.78-8.09h114.86Z"/></clipPath><linearGradient id="Безымянный_градиент_18-2" x1="1577.68" y1="1908.72" x2="1703.5" y2="1989.83" xlink:href="#Безымянный_градиент_18"/><clipPath id="clip-path-3"><path class="cls-1" d="M1666.51,374.18c6.3-26.15,14.17-41.69,38.21-42.63,16.59-.63,28.67-1.37,40.85,2.52s24,15.85,30.34,35.17c12.08,37.59,4,44-.31,51.35s-15.33,7.24-41.69,6.3-51.23,0-51.23,0Z"/></clipPath><linearGradient id="Безымянный_градиент_22" x1="1672.75" y1="-1324.49" x2="1785.93" y2="-1358.31" gradientTransform="translate(0 1720)" gradientUnits="userSpaceOnUse"><stop offset="0" stop-color="#281757"/><stop offset="0.16" stop-color="#301961"/><stop offset="0.43" stop-color="#441d7b"/><stop offset="0.78" stop-color="#6525a6"/><stop offset="1" stop-color="#7c2ac4"/></linearGradient><linearGradient id="Безымянный_градиент_22-2" x1="1675.17" y1="-1316.38" x2="1788.36" y2="-1350.2" xlink:href="#Безымянный_градиент_22"/><linearGradient id="Безымянный_градиент_22-3" x1="1679.51" y1="-1301.86" x2="1792.7" y2="-1335.68" xlink:href="#Безымянный_градиент_22"/><linearGradient id="Безымянный_градиент_20" x1="1750.29" y1="2068.27" x2="1719.65" y2="2122.45" gradientTransform="matrix(1, 0, 0, -1, 0, 2504)" gradientUnits="userSpaceOnUse"><stop offset="0" stop-color="#6086c4"/><stop offset="1" stop-color="#00afe4" stop-opacity="0"/></linearGradient><linearGradient id="Безымянный_градиент_21" x1="1738" y1="2086.24" x2="1777.95" y2="2164.49" gradientTransform="matrix(1, 0, 0, -1, 0, 2504)" gradientUnits="userSpaceOnUse"><stop offset="0" stop-color="#60e5c4"/><stop offset="0.57" stop-color="#608ac4" stop-opacity="0.03"/><stop offset="1" stop-color="#6086c4" stop-opacity="0"/></linearGradient><linearGradient id="Безымянный_градиент_22-4" x1="1590" y1="2126.98" x2="1742.55" y2="2081.41" gradientTransform="matrix(1, 0, 0, -1, 0, 2504)" xlink:href="#Безымянный_градиент_22"/><linearGradient id="Безымянный_градиент_23" x1="1719.29" y1="2163.64" x2="1719.95" y2="2194.03" gradientTransform="matrix(1, 0, 0, -1, 0, 2504)" gradientUnits="userSpaceOnUse"><stop offset="0" stop-color="#ffcd98"/><stop offset="0.35" stop-color="#ffc397"/><stop offset="0.94" stop-color="#ffa994"/><stop offset="1" stop-color="#ffa694"/></linearGradient><linearGradient id="Безымянный_градиент_22-5" x1="1695.3" y1="2223.71" x2="1758.96" y2="2199.5" gradientTransform="matrix(1, 0, 0, -1, 0, 2504)" xlink:href="#Безымянный_градиент_22"/><linearGradient id="Безымянный_градиент_16-2" x1="17188.71" y1="2234.66" x2="17180.78" y2="2095.5" gradientTransform="translate(18415.31 2504) rotate(180)" xlink:href="#Безымянный_градиент_16"/><clipPath id="clip-path-5"><path class="cls-1" d="M1246.62,426.15s15.75,26.57,54.18,35.28C1334.19,469.09,1342,467,1342,467s-.52,46.83,2.42,73,8.82,68.56,8.82,68.56h25.4s10.71-103.32,11.87-115.71,4-34.23-1.68-46.51a79.3,79.3,0,0,0-13.13-20.16Z"/></clipPath><linearGradient id="Безымянный_градиент_18-3" x1="16920.07" y1="1905.07" x2="17087.49" y2="2013.01" gradientTransform="translate(18415.31 2504) rotate(180)" xlink:href="#Безымянный_градиент_18"/><clipPath id="clip-path-6"><path class="cls-1" d="M1208.51,426.15s15.75,26.57,54.18,35.28c33.39,7.66,41.16,5.56,41.16,5.56s-.53,46.83,2.41,73,8.82,68.56,8.82,68.56h25.41s12.6-103.32,13.76-115.71,4.51-40.84-1.16-53.23-10.5-13.44-10.5-13.44Z"/></clipPath><linearGradient id="Безымянный_градиент_18-4" x1="16962.84" y1="1906.06" x2="17130.27" y2="2014.02" gradientTransform="translate(18415.31 2504) rotate(180)" xlink:href="#Безымянный_градиент_18"/><linearGradient id="Безымянный_градиент_22-6" x1="17138.5" y1="2274.93" x2="17243.56" y2="2190.36" gradientTransform="translate(18415.31 2504) rotate(180)" xlink:href="#Безымянный_градиент_22"/><clipPath id="clip-path-7"><path class="cls-1" d="M1328.42,297.85c-3.78-15.54-25.31-30.45-48.09-33.5s-47.25-.73-57.75,1.58-26.88,15.12-27.93,37.37-2.1,48.83,4,56.7,4.2,8.82,41.16,7.88,71.4,0,71.4,0Z"/></clipPath><linearGradient id="Безымянный_градиент_20-2" x1="17187.01" y1="2129.65" x2="17151.54" y2="2192.37" gradientTransform="translate(18415.31 2504) rotate(180)" xlink:href="#Безымянный_градиент_20"/><linearGradient id="Безымянный_градиент_21-2" x1="17168.51" y1="2142.48" x2="17221.3" y2="2245.83" gradientTransform="translate(18415.31 2504) rotate(180)" xlink:href="#Безымянный_градиент_21"/><linearGradient id="Безымянный_градиент_22-7" x1="17013.15" y1="2186.43" x2="17166.3" y2="2140.68" gradientTransform="translate(18415.31 2504) rotate(180)" xlink:href="#Безымянный_градиент_22"/><linearGradient id="Безымянный_градиент_23-2" x1="17156.56" y1="2229.59" x2="17156.56" y2="2271.26" gradientTransform="translate(18415.31 2504) rotate(180)" xlink:href="#Безымянный_градиент_23"/></defs><title>Шапка v6.1</title><g id="Слой_2" data-name="Слой 2"><g id="Слой_1-2" data-name="Слой 1"><g class="cls-2"><path class="cls-3" d="M362.69,689C-77.81,513.5-14.11,205.5,75.89,0h2181c15,25.5,69.3,136,46,325-19.7,159.5-86.5,339.5-324,410.5s-397.5-41-768.5-46.5S803.19,864.5,362.69,689Z"/><path class="cls-4" d="M362.69,689C-77.81,513.5-14.11,205.5,75.89,0h2181c15,25.5,69.3,136,46,325-19.7,159.5-86.5,339.5-324,410.5s-397.5-41-768.5-46.5S803.19,864.5,362.69,689Z"/></g><g class="cls-2"><path class="cls-5" d="M1450.29,780c-453.9,20-644.5-124.5-842.5-146.5-271-40.5-293.9,116.5-472,51.5C-39.81,620.9-28.61,223.5,75.89,0h2176c42,84.5,62.9,201,40,333C2226.89,708,1915.89,759.5,1450.29,780Z"/><path class="cls-6" d="M1450.29,780c-453.9,20-644.5-124.5-842.5-146.5-271-40.5-293.9,116.5-472,51.5C-39.81,620.9-28.61,223.5,75.89,0h2176c42,84.5,62.9,201,40,333C2226.89,708,1915.89,759.5,1450.29,780Z"/></g><path class="cls-7" d="M534,241.42h-8.57V228.61H491.06v12.81h-8.8l-.33-20h4.23a21.56,21.56,0,0,0,5-8.79,56.9,56.9,0,0,0,2.45-13L495,176.39h33v45h6.68Zm-37.63-20h22.38V183.74H503.53l-.89,14.7c-.55,9.8-2.67,17.48-6.23,22.93Zm76.94-45h9.13v52.22h-9.13V191.42l-22.94,37.19h-9.13V176.39h9.13v37.3Zm59.8,35.19c-.56,5.56-2.57,9.91-6.13,13s-8.35,4.68-14.36,4.68a20.26,20.26,0,0,1-11-2.89,19.42,19.42,0,0,1-7.35-8.47,31.31,31.31,0,0,1-2.67-12.69v-4.9a29.49,29.49,0,0,1,2.67-13,20.22,20.22,0,0,1,7.46-8.68,20.48,20.48,0,0,1,11.36-3c5.79,0,10.36,1.56,13.92,4.68s5.57,7.57,6.13,13.25h-9c-.45-3.79-1.56-6.46-3.34-8.13s-4.35-2.56-7.69-2.56a10.53,10.53,0,0,0-9.13,4.34c-2.11,2.9-3.23,7.13-3.23,12.69v4.57c0,5.68,1,9.91,3,12.92a10.14,10.14,0,0,0,8.91,4.45c3.56,0,6.23-.78,8-2.45s2.9-4.23,3.46-8ZM678,183.74H661.76v44.87h-9v-45H636.6v-7.35H678Zm31.85,32.74H689.6l-4.23,12.13H675.9l19.71-52.22h8.13l19.82,52.22H714.1Zm-17.71-7.35H707.3l-7.57-21.72ZM771,228.61h-9V205.34H738.59v23.27h-9.13V176.39h9.13V198.1H762V176.39h9Zm10.69-52.22h9.13v45h23v-45H823v45h6.35l-.67,19.94h-8.35v-12.7H781.8V176.39Zm87,0h9.13v52.22h-9.13V191.42l-22.94,37.19h-9.13V176.39h9.13v37.3Zm61.69,27.5a31.13,31.13,0,0,1-2.67,13.48,19.67,19.67,0,0,1-7.57,8.9,21.53,21.53,0,0,1-11.36,3.12,20.21,20.21,0,0,1-19-12A30,30,0,0,1,887,204.12v-2.9a30.92,30.92,0,0,1,2.68-13.47,19.88,19.88,0,0,1,7.68-8.91,22.21,22.21,0,0,1,22.6,0,20.87,20.87,0,0,1,7.69,8.8A32.7,32.7,0,0,1,930.45,201l-.11,2.89Zm-9.13-2.78q0-8.69-3.34-13.36a11.51,11.51,0,0,0-18.48,0c-2.23,3.11-3.35,7.46-3.35,13v3q0,8.68,3.35,13.36a11,11,0,0,0,9.35,4.68,10.56,10.56,0,0,0,9.24-4.57c2.23-3,3.23-7.57,3.23-13.47v-2.67Zm59.68,27.5h-9.13V205.34H948.38v23.27h-9.13V176.39h9.13V198.1h23.38V176.39h9v52.22Zm52.23,0h-9V205.34h-23.39v23.27h-9.13V176.39h9.13V198.1h23.39V176.39h9Zm52.44-24.72a31.13,31.13,0,0,1-2.67,13.48,19.67,19.67,0,0,1-7.57,8.9,21.51,21.51,0,0,1-11.36,3.12,20.21,20.21,0,0,1-19-12,30.13,30.13,0,0,1-2.67-13.25v-2.9a31.06,31.06,0,0,1,2.67-13.47,19.88,19.88,0,0,1,7.68-8.91,22.22,22.22,0,0,1,22.61,0,20.92,20.92,0,0,1,7.68,8.8,30.89,30.89,0,0,1,2.67,13.36Zm-9-2.78q0-8.69-3.34-13.36a11.53,11.53,0,0,0-16.14-2.34,11.79,11.79,0,0,0-2.34,2.34c-2.23,3.11-3.34,7.46-3.34,13v3q0,8.68,3.34,13.36a11,11,0,0,0,9.35,4.68,10.56,10.56,0,0,0,9.25-4.57c2.22-3,3.22-7.57,3.22-13.47v-2.67Zm48.66,4.12h-21.49v16h25.06v7.24h-34.19V176.28h34v7.35h-24.83V198.1h21.49ZM518,263.13h9.13v52.34H518v-37.2l-22.94,37.2h-9V263.24h9v37.31Zm45.87,35.3c.45,3.79,1.56,6.46,3.46,8.13s4.45,2.45,8,2.45a10.28,10.28,0,0,0,8.69-4.12c2-2.67,3.12-6.68,3.34-11.81H568.9v-7.34h18.48c-.22-5.24-1.34-9.14-3.45-11.81a10.69,10.69,0,0,0-8.91-4.12c-3.34,0-5.9.89-7.68,2.56s-2.9,4.46-3.34,8.24h-9c.55-5.68,2.56-10.13,6.12-13.25s8.13-4.79,13.92-4.79a21.5,21.5,0,0,1,11.36,3,19.24,19.24,0,0,1,7.46,8.57,29,29,0,0,1,2.67,12.92v4.46a31,31,0,0,1-2.56,13,19.06,19.06,0,0,1-7.35,8.58,20.63,20.63,0,0,1-11.13,3c-5.91,0-10.69-1.55-14.26-4.67s-5.68-7.46-6.12-13Zm81.29-35.3v52.34h-9v-45h-16l-.89,20.15a54.91,54.91,0,0,1-2.34,14.7,14.93,14.93,0,0,1-5.12,7.58,15.32,15.32,0,0,1-9,2.44h-2.34v-7.23l1.45-.11a7.21,7.21,0,0,0,4.78-2.23A12.33,12.33,0,0,0,609.2,300a65.46,65.46,0,0,0,1.23-11.36l1-25.61Zm41.53,28.95H665.21v16h25.06v7.23H656.08V263.13h34v7.35H665.21V285H686.7Zm26.4,1H707v22.39h-9V263.24h9v21.94h5l15.37-21.94h11.13L720.56,288.3,740,315.58H729.13Zm69.7-22.6H766.54v45h-9v-45H741.38v-7.35H782.8Zm15.92,25.61v19.38h-9.13V263.24h20c5.79,0,10.46,1.56,13.92,4.57a15,15,0,0,1,5.12,12c0,5.13-1.67,9.13-5,11.92S815.54,296,809.52,296h-10.8v.11Zm0-7.35h10.92c3.23,0,5.68-.78,7.35-2.23a8.48,8.48,0,0,0,2.56-6.56,9,9,0,0,0-2.68-6.8,10.3,10.3,0,0,0-7.12-2.67H798.61Zm79.62,2a31.08,31.08,0,0,1-2.67,13.47,19.75,19.75,0,0,1-7.57,8.91,21,21,0,0,1-29-6.24,20.61,20.61,0,0,1-1.44-2.67A30,30,0,0,1,835,291v-2.9a31,31,0,0,1,2.68-13.47,20,20,0,0,1,7.68-8.91,22.21,22.21,0,0,1,22.6,0,21.06,21.06,0,0,1,7.69,8.8,32.73,32.73,0,0,1,2.78,13.36Zm-9-2.79q0-8.68-3.34-13.36a11.51,11.51,0,0,0-18.48,0q-3.35,4.68-3.35,13v3q0,8.7,3.35,13.37a11.08,11.08,0,0,0,9.35,4.67,10.54,10.54,0,0,0,9.24-4.56c2.23-3.12,3.23-7.57,3.23-13.48V288Zm59.57,27.51h-9V292.19H896.49v23.28h-9.13V263.24h9.13V285h23.38V263.24h9Zm52.23,0h-9V292.19H948.71v23.28h-9.13V263.24h9.13V285H972.1V263.24h9Zm52.44-24.72a31.08,31.08,0,0,1-2.67,13.47,19.75,19.75,0,0,1-7.57,8.91,21.6,21.6,0,0,1-11.36,3.12,21,21,0,0,1-11.25-3.12,20.68,20.68,0,0,1-7.68-8.91A31.86,31.86,0,0,1,990.25,291v-2.9a31.08,31.08,0,0,1,2.67-13.47,20,20,0,0,1,7.68-8.91,22.22,22.22,0,0,1,22.61,0,21,21,0,0,1,7.68,8.8,32.73,32.73,0,0,1,2.78,13.36Zm-9-2.79q0-8.68-3.34-13.36a11.55,11.55,0,0,0-16.14-2.34,11.79,11.79,0,0,0-2.34,2.34q-3.35,4.68-3.34,13v3q0,8.7,3.34,13.37a11,11,0,0,0,9.35,4.67,10.53,10.53,0,0,0,9.24-4.56c2.23-3,3.23-7.57,3.23-13.48Zm48.66,4.12h-21.49v16h25.06v7.23h-34.19V263.13h34v7.35h-24.83V285h21.49ZM527.7,377.6A30.92,30.92,0,0,1,525,391.07a19.65,19.65,0,0,1-7.57,8.91,21.51,21.51,0,0,1-11.36,3.12,20.23,20.23,0,0,1-19-12,30.1,30.1,0,0,1-2.67-13.25v-2.89a31.13,31.13,0,0,1,2.67-13.48,19.87,19.87,0,0,1,7.69-8.9,22.21,22.21,0,0,1,22.6,0,21,21,0,0,1,7.68,8.79,32.58,32.58,0,0,1,2.79,13.36Zm-9-2.78q0-8.69-3.34-13.37a11.56,11.56,0,0,0-18.49,0q-3.35,4.68-3.34,13v3q0,8.68,3.34,13.36a11,11,0,0,0,9.36,4.68,10.56,10.56,0,0,0,9.24-4.57c2.22-3,3.23-7.57,3.23-13.47v-2.67Zm51.11-17.49H545.73V370h10.69a22.14,22.14,0,0,1,10,2,14.25,14.25,0,0,1,6.45,5.57,16.54,16.54,0,0,1-2.78,20.15c-3.34,3-7.79,4.46-13.58,4.57h-20V350.1h33.3v7.23Zm-24.06,20.05v17.7h10.69a10.13,10.13,0,0,0,7.13-2.45,8.89,8.89,0,0,0,2.56-6.68,7.77,7.77,0,0,0-2.56-6.23,9.93,9.93,0,0,0-7-2.34Zm55.46,0,10.46-27.28h10.14l-18.26,43.31-1.67,3.23q-3.51,6.35-11.7,6.35l-3.67-.22.11-7.13a27.44,27.44,0,0,0,3,.11,5.62,5.62,0,0,0,5.45-3.34L597,388l-17.82-38.09h9.91Zm67.48-27.28v52.22h-9v-20.6a49.72,49.72,0,0,1-12.14,1.45c-6.24,0-10.91-1.34-14.14-4.12s-4.79-6.91-4.79-12.36V350.1h9v16.59c0,3.34.78,5.68,2.34,7.12s4.12,2.12,7.68,2.12a45,45,0,0,0,12.14-1.56V350Zm41.42,28.95H688.6v16h25v7.24H679.47V350.1h34v7.35H688.6v14.47h21.49Zm52.44,23.27h-9V379.05H730.13v23.27H721V350.1h9.13v21.71h23.39V350.1h9Zm42.76-52.22h9.13v52.22h-9.13V365.13l-22.93,37.19h-9.14V350.1h9.14v37.3Zm50.56,28.95H834.36v16h25v7.24H825.23V350.1h34v7.35H834.36v14.47h21.49Z"/><ellipse class="cls-8" cx="1490.11" cy="627.53" rx="373.89" ry="32.97"/><ellipse class="cls-9" cx="1490.11" cy="627.53" rx="373.89" ry="32.97"/><path class="cls-10" d="M1517.31,194.11c-16.59-15.12-55.13-90-140.49-74.86-25,6.61-37.38,27.61-44.73,51.86s-17.64,42.74-30.87,59-64.36,82.84-86.1,137.23-14.48,122.22,90.62,154.35,266,58.48,334.94,55.86,88.82,1.26,134.71,24.78,31.6-67.52,26.88-148.47-49-163.69-145.11-183.85S1533.79,209.23,1517.31,194.11Z"/><rect class="cls-1" x="1141.94" y="220.04" width="732.25" height="411.38"/><g id="Мужик"><g id="стул"><path class="cls-11" d="M1765.83,469.41c15.23,5.67,18.27,8.08,20.16,11.13s4.83,8.4-1,14.38-8.92,6.41-14.91,6.93-72.13,2.42-72.13,2.42V625.54l-12.6.1V499.75Z"/><rect class="cls-11" x="1685.41" y="504.48" width="12.6" height="122.85"/><rect class="cls-11" x="1775.91" y="487.68" width="12.6" height="139.65"/></g><path id="СТУЛ-2" class="cls-12" d="M1653.59,382.79s2.21-20.48,9-29.72,52.29-15.54,61.21-15.85,47.67-.63,56.28,5.46,17.22,13,14.49,33-14.91,85.15-14.91,85.15l-103,8.71Z"/><path class="cls-13" d="M1681.73,602.44V630s0,2.52-2.2,2.52H1639.1s-3.46-1.16,0-3.15,17.64-11.66,18.8-12.39,2.2-1.89,2.41-5.25,0-7.87,0-7.87Z"/><path class="cls-13" d="M1632.38,602.44V630s0,2.52-2.1,2.52h-39.69s-3.36-1.16,0-3.15,17.33-11.66,18.38-12.39,2.1-1.89,2.31-5.25,0-7.87,0-7.87Z"/><g class="cls-14"><path class="cls-15" d="M1726.46,472.14s-12.08,21.84-44.83,25-29.82,1.78-29.82,1.78.73,39.17-1.79,58.7-16.59,49.77-16.59,49.77h-22.89s-3.78-84.84-4.72-94.29-4.73-23.73,0-33,5.77-8.09,5.77-8.09h114.87Z"/><path class="cls-16" d="M1726.46,472.14s-12.08,21.84-44.83,25-29.82,1.78-29.82,1.78.73,39.17-1.79,58.7-13.23,49.77-13.23,49.77l-32.44,4.2s2.31-89.15,1.47-98.49-4.73-23.73,0-33,5.77-8.09,5.77-8.09Z"/></g><g class="cls-17"><path class="cls-15" d="M1764.78,472.14s-12.07,21.84-44.83,25-29.82,1.78-29.82,1.78.73,39.17-1.78,58.7-6.51,47.46-6.51,47.46h-22s-14.81-82.74-15.65-92-4.72-23.73,0-33,5.78-8.09,5.78-8.09h114.86Z"/><path class="cls-18" d="M1764.78,472.14s-12.07,21.84-44.83,25-29.82,1.78-29.82,1.78.73,39.17-1.78,58.7-6.51,47.46-6.51,47.46h-22s-14.81-82.74-15.65-92-4.72-23.73,0-33,5.78-8.09,5.78-8.09h114.86Z"/></g><g class="cls-19"><path class="cls-20" d="M1659.05,358.74c3.57-15.22,23.83-29.61,45.25-32.76s44.63-.73,54.6,1.58,25.41,14.59,26.36,36.43,2,47.78-3.78,55.34-4,8.61-38.75,7.56-67.4,0-67.4,0Z"/><path class="cls-21" d="M1656.43,371.24c3.57-12.39,24.36-24.26,46.3-26.88s45.46-.63,55.54,1.36,25.83,12.08,27,29.82,2,39.17-3.89,45.36-4.09,7-39.58,6.3-68.77,0-68.77,0Z"/><path class="cls-22" d="M1694.22,412.92c5.78-4.83,14.81-.73,15.33-1.78s41-10.4,41.27-12.29-4.62-35.59-4.62-35.59l23.83-4.73,7.35,3.68s8.51,32.76,8.51,34.86-3.57,24.46-3.57,24.46-20.16,8.4-29.4,8-51.56-.94-51.56-.94Z"/></g><g class="cls-19"><path class="cls-23" d="M1659.05,358.74c3.57-15.22,23.83-29.61,45.25-32.76s44.63-.73,54.6,1.58,25.41,14.59,26.36,36.43,2,47.78-3.78,55.34-4,8.61-38.75,7.56-67.4,0-67.4,0Z"/><path class="cls-24" d="M1656.43,371.24c3.57-12.39,24.36-24.26,46.3-26.88s45.46-.63,55.54,1.36,25.83,12.08,27,29.82,2,39.17-3.89,45.36-4.09,7-39.58,6.3-68.77,0-68.77,0Z"/><path class="cls-25" d="M1694.22,412.92c5.78-4.83,14.81-.73,15.33-1.78s41-10.4,41.27-12.29-4.62-35.59-4.62-35.59l23.83-4.73,7.35,3.68s8.51,32.76,8.51,34.86-3.57,24.46-3.57,24.46-20.16,8.4-29.4,8-51.56-.94-51.56-.94Z"/></g><path class="cls-26" d="M1741.05,427.83H1596.37a6.81,6.81,0,0,1-6.83-6.82l-7.87-57a6.8,6.8,0,0,1,6.82-6.82h98.8a6.81,6.81,0,0,1,6.83,6.82l7.24,58.38,35.28.11a4.21,4.21,0,0,1,4.2,4.2v1.15Z"/><path class="cls-27" d="M1704.3,331.65s.32,13.65,14.49,13.76,15.86-13.55,15.86-13.55l-6.93-1.78s0-12.18-.63-15.75-10.5,7-10.5,7l-5.25,2.31-.21,7.46Z"/><path class="cls-28" d="M1671.44,296c3.36-.11,8.82,1.89,16.9-13.34s29.4-16.27,35.07-16.17,13.55.32,15.65,8.3-4,13.23-4,13.75,3.25,10.08,2,12.6-10.39.94-10.39.94l-2,7.35a95.29,95.29,0,0,0-30-6.4c-16-.32-21.73-4.83-22.15-5.14A17.58,17.58,0,0,1,1671.44,296Z"/><path class="cls-29" d="M1691.07,302.57s3.36,19.32,13.13,24.88,18.69-2.52,19.63-3.67,4.83-5.25,4.94-8.09a26.56,26.56,0,0,0,0-4s8.82-.94,8.71-7.35a7.8,7.8,0,0,0-7.35-8.08,8.68,8.68,0,0,0-1.68.11c-3,.73-7,6.71-6,9,1.47,3.26-3.78,1.26-6.41-2.41a11.64,11.64,0,0,1-2.1-6.72s-7.56,4.51-12.6,5.56A55.88,55.88,0,0,1,1691.07,302.57Z"/></g><g id="Девушка"><path class="cls-30" d="M1309.52,280.63s-2.73-25.41-10.61-37.07-61.11-19.32-71.61-19.74-55.54-.73-65.72,6.83-20.16,16.06-16.91,41.16S1162,377.75,1162,377.75l120.43,10.81Z"/><g id="стул-3"><path class="cls-11" d="M1215.33,422.79c-17.74,7-21.31,9.87-23.62,13.76s-5.56,10.29,1.26,17.74,10.5,7.87,17.32,8.5,61.22,3,61.22,3V614.3h-45.68l1.26,9h106V614.2l-46.73.21V460Z"/><circle class="cls-11" cx="1279.28" cy="620.39" r="12.7"/><circle class="cls-11" cx="1221.42" cy="620.39" r="12.7"/><circle class="cls-11" cx="1337.34" cy="620.39" r="12.7"/></g><path class="cls-13" d="M1356.35,605.28v29.18s-.95,2.52,3.67,2.94,43.15,0,43.15,0,5.88-.42.63-3.46-24.25-14.39-24.25-14.39-2.42-1.26-2.42-5.14v-6.72Z"/><path class="cls-13" d="M1316.87,605.28v29.18s-.95,2.52,3.57,2.94,43.15,0,43.15,0,5.88-.42.63-3.46S1340,619.55,1340,619.55s-2.42-1.26-2.42-5.14v-6.72Z"/><g class="cls-31"><path class="cls-15" d="M1249.88,426.15s14.49,29,53.76,33.18,35.8,2.31,35.8,2.31-.94,51.87,2.1,78,8.51,71.4,8.51,71.4l35.17.74s15.33-117.71,16.48-130-1.47-32.76-7.14-45.15-7-10.6-7-10.6Z"/><path class="cls-32" d="M1252.29,425.63s9.45,36.95,48.72,41.26l39.27,4.2S1340.91,513,1344,539s6,72,6,72l37.69-1.89s15.44-116.55,16.49-128.94-1.58-31.7-7.14-44-7-10.6-7-10.6Z"/></g><g class="cls-33"><path class="cls-15" d="M1208.51,426.15s6,39,45.15,43.15,38.43,6.51,38.43,6.51,4.93,37.91,8,63.95,14.49,69.72,14.49,69.72l25.93-.74s18.59-114.34,19.64-126.63-1.47-32.75-7.14-45.14-7-10.61-7-10.61Z"/><path class="cls-34" d="M1208.51,426.15s14.49,29,53.76,33.18,35.8,2.31,35.8,2.31-.94,51.87,2.1,78,8.19,68.88,8.19,68.88l35.49,1.26s15.44-116.55,16.49-128.94-1.58-31.7-7.14-44-7-10.6-7-10.6l-137.65-.11Z"/></g><path class="cls-35" d="M1294.92,270.55c-3.78-6-7.56-12.18-6.3-17s13.13-25.2,9.45-43-23.1-27.41-34.23-29.19-28.66-3.05-39.48,10.08-14.8,32.65-14.27,43.15-6,24.36-21.53,34.65-27.51,26.25-24,58,54.17,29.4,54.17,29.4Z"/><g class="cls-36"><path class="cls-23" d="M1326.84,297.85c-3.78-15.54-25.3-30.45-48.09-33.5s-47.25-.73-57.75,1.58-26.87,15.12-27.92,37.37-2.1,48.83,4,56.7,4.2,8.82,41.15,7.88,71.4,0,71.4,0Z"/><path class="cls-37" d="M1328.42,297.85c-3.78-15.54-25.31-30.45-48.09-33.5s-47.25-.73-57.75,1.58-26.88,15.12-27.93,37.37-2.1,48.83,4,56.7,4.2,8.82,41.16,7.88,71.4,0,71.4,0Z"/><path class="cls-38" d="M1302.38,357.17c-8.09-6.2-22.58,1.36-23.42,0s-55.12-15.54-55.54-18,10.18-42.52,10.18-42.52l-36.95-8.92-10.29,4.72s2.73,42.52,2.73,45.15,3.25,30.45,3.25,30.45,15.33,10.92,28.24,10.39,72-1.15,72-1.15Z"/></g><path class="cls-39" d="M1250.61,368.61h145.11a6.8,6.8,0,0,0,6.82-6.82l7.88-57.33a6.81,6.81,0,0,0-6.83-6.82h-99.11a6.81,6.81,0,0,0-6.83,6.82l-7.24,58.69-35.49.11a4.26,4.26,0,0,0-4.2,4.41l-.11.94Z"/><path class="cls-40" d="M1268.36,246.19l3.78,19.32-4.94,8.82-21.84-11s3.47-27.4,5.15-30.13S1268.36,246.19,1268.36,246.19Z"/><path class="cls-29" d="M1281.17,230.65s-5.88,16.8-12.08,19.53-12.6-5.36-13.23-5.88-6.51-7.35-6.51-7.35l.21-2.84-2-.42a.58.58,0,0,1-.42-.73h0c0-.11,0-.21.1-.21l3.78-4.41a15,15,0,0,0,2.42-3.36l2.41-3.89a1.29,1.29,0,0,1,1.68-.31l9.24,5.14a17.52,17.52,0,0,0,4.94,2.21Z"/><polygon class="cls-41" points="1275.5 263.51 1277.07 283.46 1267.94 275.27 1261.11 286.08 1242.11 263.41 1244.84 262.57 1267.2 274.33 1272.14 262.57 1275.5 263.51"/></g><path id="Стол" class="cls-11" d="M1835.45,630.16h-2.94c-1.89,0-3.47-2.21-3.47-5l-.73-147c0-2.83-1.58-5-3.47-5l-281.29-.52c-1.89,0-3.46,2.2-3.46,5l-.74,147.94c0,2.83-1.57,5.14-3.57,5l-3.15-.11c-1.89,0-3.36-2.31-3.36-5v-193c0-2.83,1.58-5,3.47-5h302.6c1.89,0,3.47,2.21,3.47,5V625.22C1838.91,628,1837.34,630.16,1835.45,630.16Z"/><path id="Стол-2" class="cls-11" d="M1482.55,633h-3.15c-2.1,0-3.78-2.94-3.78-6.4l-.94-193.51c0-3.57-1.68-6.4-3.78-6.4l-311.11-.74c-2.1,0-3.78,2.84-3.78,6.41L1155.07,627c0,3.57-1.79,6.51-3.89,6.4l-3.46-.1c-2.1-.11-3.68-2.94-3.68-6.51V375.23c0-3.57,1.68-6.51,3.78-6.51h334.73c2.1,0,3.78,2.94,3.78,6.51V626.59C1486.44,630.05,1484.65,633,1482.55,633Z"/><path class="cls-7" d="M489.87,105.57c.61,4.35,2.05,7.25,4,8.94s4.95,2.54,8.69,2.54a11.94,11.94,0,0,0,9.78-4.83c2.54-3.14,3.5-7.73,3.75-13.29H495.67V93.26h20.41c0-5.68-1.21-10-3.75-13.29a12.08,12.08,0,0,0-10.14-5c-3.5,0-6.28.85-8.33,2.66a14,14,0,0,0-3.75,8.94h-6.88c.6-5.44,2.54-9.54,5.8-12.68s7.73-4.59,13.28-4.59a21.58,21.58,0,0,1,11,2.9,18.16,18.16,0,0,1,7.24,8.57,32.5,32.5,0,0,1,2.54,12.68v5.19a30.09,30.09,0,0,1-2.54,12.68,20.79,20.79,0,0,1-7.12,8.57,19.7,19.7,0,0,1-10.63,2.9c-5.67,0-10.14-1.45-13.52-4.34s-5.44-7.25-6-12.68h6.4v-.25ZM572.47,122h-6.89V75.87H540V122H533.1V70.19h39.37V122Zm52.28-24.27A32.6,32.6,0,0,1,622.22,111,19.84,19.84,0,0,1,615,119.7a19.64,19.64,0,0,1-11,2.9,21.45,21.45,0,0,1-10.86-2.9,18.76,18.76,0,0,1-7.25-8.57,31.23,31.23,0,0,1-2.66-12.92V94.47a32,32,0,0,1,2.54-13.17,19.32,19.32,0,0,1,18.11-11.83,20.16,20.16,0,0,1,11,3.14,19.08,19.08,0,0,1,7.25,8.69,31.83,31.83,0,0,1,2.53,13.29v2.89h.12Zm-6.64-3.39c0-6.27-1.21-10.86-3.74-14.12s-5.8-5-10.39-5a12,12,0,0,0-10.14,5c-2.53,3.38-3.74,8-3.74,13.76v3.75c0,6,1.21,10.62,3.74,14.12a12.24,12.24,0,0,0,10.39,5c4.34,0,8-1.69,10.14-4.83,2.53-3.14,3.74-8,3.74-13.76Zm54.95,11.23c-.61,5.44-2.66,9.79-6,12.68s-8,4.35-13.53,4.35A18.65,18.65,0,0,1,638.76,116c-3.74-4.35-5.43-10.14-5.43-17.75V93.26a30.09,30.09,0,0,1,2.53-12.68,18.23,18.23,0,0,1,7.25-8.33,20.66,20.66,0,0,1,11-2.9c5.43,0,10,1.45,13.28,4.59s5.19,7.24,5.8,12.68h-6.77c-.6-4.11-1.93-7.13-4-8.94S657.6,75,654.1,75A12.17,12.17,0,0,0,644,79.85c-2.53,3.14-3.74,8-3.74,13.77v4.95c0,5.68,1.21,10,3.5,13.28a11.18,11.18,0,0,0,9.78,5c3.75,0,6.64-.84,8.7-2.53s3.38-4.83,4-8.94h6.89v.24Z"/><path class="cls-42" d="M390.66,213.8c-2.65,15.68-3.75,19.87-11.48,26.28C369.68,247.59,257.73,267,257.29,180c-.44-91,66.24-117.69,76.18-122.55,10.38-4.86,14.57-1.55,13.69,10.38l20.1,13.69s-.67,5.74,0,7.28c3.53,6.41,21,15.9,21,15.9,0,4.2-9.93,23.19-32.46,16.78-8.39-2.21-32.68-.44-3.53,30"/><path class="cls-43" d="M432.62,141.15l-25.18,48.36h-51"/><path class="cls-44" d="M374.32,177.37c0-21.64,14.57-32.46,35.77-21.64"/><path class="cls-44" d="M361.29,176.48c-1.1-31.13,26.94-49,55.65-33.78"/><path class="cls-44" d="M387.57,176.93c0-9.5,4.64-15.68,17.22-9.94"/><path class="cls-7" d="M1584.49,61.3H1579V76.5h-2.2V61.3h-5.5V59.4h13.2Zm6.3,15.4a5.73,5.73,0,0,1-4.2-1.7,6.05,6.05,0,0,1-1.6-4.5v-.4a7.39,7.39,0,0,1,.7-3.4,5.68,5.68,0,0,1,2-2.3,4.79,4.79,0,0,1,2.8-.8,4.64,4.64,0,0,1,3.8,1.6,7.12,7.12,0,0,1,1.4,4.7v.9h-8.6a4.08,4.08,0,0,0,1.1,3,3.34,3.34,0,0,0,2.7,1.1,4.23,4.23,0,0,0,2-.5,4.07,4.07,0,0,0,1.4-1.2l1.3,1A5.33,5.33,0,0,1,1590.79,76.7Zm-.3-11.4a2.7,2.7,0,0,0-2.2,1,4.2,4.2,0,0,0-1.1,2.7h6.4v-.2a4.72,4.72,0,0,0-.9-2.6A2.94,2.94,0,0,0,1590.49,65.3Zm18.2-1.5V76.5h-2.2V65.6h-4.3l-.3,4.7a10.09,10.09,0,0,1-1.1,4.7,3.43,3.43,0,0,1-2.8,1.5h-.9V74.6h.6a1.85,1.85,0,0,0,1.5-1.2,14.13,14.13,0,0,0,.6-4.1l.2-5.4,8.7-.1Zm8.7,12.9a5.73,5.73,0,0,1-4.2-1.7,6.05,6.05,0,0,1-1.6-4.5v-.4a7.39,7.39,0,0,1,.7-3.4,5.68,5.68,0,0,1,2-2.3,4.79,4.79,0,0,1,2.8-.8,4.52,4.52,0,0,1,3.8,1.6,7.12,7.12,0,0,1,1.4,4.7v.9h-8.6a4.08,4.08,0,0,0,1.1,3,3.34,3.34,0,0,0,2.7,1.1,3.56,3.56,0,0,0,1.9-.5,5.26,5.26,0,0,0,1.4-1.2l1.3,1A5,5,0,0,1,1617.39,76.7Zm-.2-11.4a2.7,2.7,0,0,0-2.2,1,4.2,4.2,0,0,0-1.1,2.7h6.4v-.2a4.72,4.72,0,0,0-.9-2.6A3.1,3.1,0,0,0,1617.19,65.3Zm7.2,5.1a9,9,0,0,1,1.2-5,3.81,3.81,0,0,1,3.4-1.8,4.84,4.84,0,0,1,1.8.3V58.5h2.2V64a3.81,3.81,0,0,1,1.9-.4,3.93,3.93,0,0,1,3.4,1.8,9.53,9.53,0,0,1,1.2,5.2,7.51,7.51,0,0,1-1.2,4.5,4,4,0,0,1-3.4,1.7,3.58,3.58,0,0,1-1.9-.4v5h-2.2v-5a4.84,4.84,0,0,1-1.8.3,4.08,4.08,0,0,1-3.4-1.7,7.63,7.63,0,0,1-1.2-4.6Zm12.9,0a7.53,7.53,0,0,0-.8-3.7,2.45,2.45,0,0,0-2.3-1.3,5.07,5.07,0,0,0-1.3.2v9.2a5.07,5.07,0,0,0,1.3.2,2.84,2.84,0,0,0,2.3-1.1A5.68,5.68,0,0,0,1637.29,70.4Zm-10.8.2a5.58,5.58,0,0,0,.8,3.2,2.53,2.53,0,0,0,2.2,1.1,4.3,4.3,0,0,0,1.2-.2V65.5a3.73,3.73,0,0,0-1.2-.2,2.31,2.31,0,0,0-2.2,1.3A8.28,8.28,0,0,0,1626.49,70.6Zm15.3-.6a7.67,7.67,0,0,1,.7-3.4,5.68,5.68,0,0,1,2-2.3,6.11,6.11,0,0,1,3-.8,5.45,5.45,0,0,1,4.2,1.8,6.8,6.8,0,0,1,1.6,4.8v.2a7.25,7.25,0,0,1-.7,3.3,5.59,5.59,0,0,1-2,2.3,6.11,6.11,0,0,1-3,.8,5.45,5.45,0,0,1-4.2-1.8,6.71,6.71,0,0,1-1.6-4.7Zm2.1.3a5.29,5.29,0,0,0,1,3.4,3,3,0,0,0,2.6,1.3,2.93,2.93,0,0,0,2.6-1.3,6.4,6.4,0,0,0,1-3.6,5.29,5.29,0,0,0-1-3.4,3.25,3.25,0,0,0-5.2,0A5.94,5.94,0,0,0,1643.89,70.3Zm22.4,6.2h-2.2V71.1h-5.8v5.4h-2.2V63.8h2.2v5.5h5.8V63.8h2.2Zm6-8.3h3.3a5.14,5.14,0,0,1,3.4,1.1,3.84,3.84,0,0,1,1.3,3,3.54,3.54,0,0,1-1.3,3,4.91,4.91,0,0,1-3.5,1.1h-5.4V63.8h2.2Zm12.4,8.3h-2.2V63.8h2.2Zm-12.4-6.6v4.8h3.2a2.88,2.88,0,0,0,1.9-.6,2.41,2.41,0,0,0,.7-1.7,2.06,2.06,0,0,0-.7-1.7,2.14,2.14,0,0,0-1.8-.7l-3.3-.1Zm32.9.4a7.69,7.69,0,0,1-1.3,4.7,4.28,4.28,0,0,1-3.6,1.8,4.47,4.47,0,0,1-3.6-1.5v6.1h-2.2V63.8h2l.1,1.4a4.86,4.86,0,0,1,7.3.1,7.42,7.42,0,0,1,1.3,4.8Zm-2.3-.3a5.71,5.71,0,0,0-.9-3.4,2.91,2.91,0,0,0-2.5-1.2,3.4,3.4,0,0,0-3,1.7v6.1a3.11,3.11,0,0,0,3,1.7,3,3,0,0,0,2.5-1.2C1702.69,72.9,1702.89,71.7,1702.89,70Zm10.3,6.7A5.73,5.73,0,0,1,1709,75a6.05,6.05,0,0,1-1.6-4.5v-.4a7.39,7.39,0,0,1,.7-3.4,5.68,5.68,0,0,1,2-2.3,4.79,4.79,0,0,1,2.8-.8,4.52,4.52,0,0,1,3.8,1.6,7.12,7.12,0,0,1,1.4,4.7v.9h-8.6a4.08,4.08,0,0,0,1.1,3,3.34,3.34,0,0,0,2.7,1.1,3.56,3.56,0,0,0,1.9-.5,5.26,5.26,0,0,0,1.4-1.2l1.3,1A5.16,5.16,0,0,1,1713.19,76.7Zm-.3-11.4a2.7,2.7,0,0,0-2.2,1,4.2,4.2,0,0,0-1.1,2.7h6.3v-.2a4.72,4.72,0,0,0-.9-2.6A2.58,2.58,0,0,0,1712.89,65.3Zm15.9.3H1723V76.5h-2.2V63.8h8Zm10.1-1.8h2.2V76.5h-2.2V67.3l-5.8,9.2h-2.2V63.8h2.2v9.3Zm5,6.2a7.67,7.67,0,0,1,.7-3.4,5.68,5.68,0,0,1,2-2.3,6.11,6.11,0,0,1,3-.8,5.45,5.45,0,0,1,4.2,1.8,6.8,6.8,0,0,1,1.6,4.8v.2a7.25,7.25,0,0,1-.7,3.3,6.42,6.42,0,0,1-2,2.3,6.11,6.11,0,0,1-3,.8,5.45,5.45,0,0,1-4.2-1.8,6.71,6.71,0,0,1-1.6-4.7Zm2.3.3a5.29,5.29,0,0,0,1,3.4,3,3,0,0,0,2.6,1.3,2.93,2.93,0,0,0,2.6-1.3,5.7,5.7,0,0,0,1-3.6,5.29,5.29,0,0,0-1-3.4,3.25,3.25,0,0,0-5.2,0A5.34,5.34,0,0,0,1746.19,70.3Zm22.5,6.2h-2.2V71.1h-5.8v5.4h-2.2V63.8h2.2v5.5h5.8V63.8h2.2Zm11.2,0a8.57,8.57,0,0,1-.3-1.3,5,5,0,0,1-3.6,1.6,4.5,4.5,0,0,1-3.1-1.1,3.42,3.42,0,0,1-1.2-2.7,3.75,3.75,0,0,1,1.5-3.1,7.23,7.23,0,0,1,4.2-1.1h2.1v-1a2.14,2.14,0,0,0-.7-1.8,2.58,2.58,0,0,0-2-.7,3.38,3.38,0,0,0-2,.6,1.87,1.87,0,0,0-.8,1.4h-2.2a2.74,2.74,0,0,1,.7-1.8,4.2,4.2,0,0,1,1.8-1.4,7.08,7.08,0,0,1,2.6-.5,5,5,0,0,1,3.4,1.1,3.84,3.84,0,0,1,1.3,3v5.8a9.82,9.82,0,0,0,.4,2.8v.2Zm-3.6-1.7a4.14,4.14,0,0,0,1.9-.5,2.91,2.91,0,0,0,1.3-1.4V70.3h-1.7c-2.7,0-4,.8-4,2.3a1.86,1.86,0,0,0,.7,1.6A3,3,0,0,0,1776.29,74.8Zm19.2-11V76.5h-2.2V65.6H1789l-.3,4.7a10.09,10.09,0,0,1-1.1,4.7,3.43,3.43,0,0,1-2.8,1.5h-.9V74.6h.6a1.85,1.85,0,0,0,1.5-1.2,14.13,14.13,0,0,0,.6-4.1l.2-5.4,8.7-.1Zm5.9,4.4h3.3a5.14,5.14,0,0,1,3.4,1.1,3.84,3.84,0,0,1,1.3,3,3.54,3.54,0,0,1-1.3,3,4.91,4.91,0,0,1-3.5,1.1h-5.4V63.8h2.2Zm0,1.7v4.8h3.2a2.88,2.88,0,0,0,1.9-.6,2.41,2.41,0,0,0,.7-1.7,2.06,2.06,0,0,0-.7-1.7,2.14,2.14,0,0,0-1.8-.7l-3.3-.1Zm21,6.6h-2.2V71.1h-5.8v5.4h-2.2V63.8h2.2v5.5h5.8V63.8h2.2Zm2.9-6.5a7.67,7.67,0,0,1,.7-3.4,5.68,5.68,0,0,1,2-2.3,6.11,6.11,0,0,1,3-.8,5.45,5.45,0,0,1,4.2,1.8,6.8,6.8,0,0,1,1.6,4.8v.2a7.25,7.25,0,0,1-.7,3.3,5.59,5.59,0,0,1-2,2.3,6.11,6.11,0,0,1-3,.8,5.45,5.45,0,0,1-4.2-1.8,6.71,6.71,0,0,1-1.6-4.7Zm2.2.3a5.29,5.29,0,0,0,1,3.4,3,3,0,0,0,2.6,1.3,2.93,2.93,0,0,0,2.6-1.3,5.7,5.7,0,0,0,1-3.6,5.29,5.29,0,0,0-1-3.4,3.25,3.25,0,0,0-5.2,0A5.34,5.34,0,0,0,1827.49,70.3Zm20.3-6.5h2.2V76.5h-2.2V67.3l-5.9,9.2h-2.2V63.8h2.2v9.3Zm.5-4.6a2.9,2.9,0,0,1-1,2.3,3.92,3.92,0,0,1-5,0,2.76,2.76,0,0,1-1-2.3h1.8a2.5,2.5,0,0,0,.4,1.3,1.8,1.8,0,0,0,3.1-1.3Zm19.4,6.4h-5.8V76.5h-2.2V63.8h8Zm1,4.4a7.67,7.67,0,0,1,.7-3.4,5.68,5.68,0,0,1,2-2.3,6.11,6.11,0,0,1,3-.8,5.45,5.45,0,0,1,4.2,1.8,6.8,6.8,0,0,1,1.6,4.8v.2a7.25,7.25,0,0,1-.7,3.3,6.42,6.42,0,0,1-2,2.3,6.11,6.11,0,0,1-3,.8,5.45,5.45,0,0,1-4.2-1.8,6.71,6.71,0,0,1-1.6-4.7Zm2.1.3a5.29,5.29,0,0,0,1,3.4,3,3,0,0,0,2.6,1.3,2.93,2.93,0,0,0,2.6-1.3,5.7,5.7,0,0,0,1-3.6,5.29,5.29,0,0,0-1-3.4,3.25,3.25,0,0,0-5.2,0A5.94,5.94,0,0,0,1870.79,70.3Zm22.9,0a7.69,7.69,0,0,1-1.3,4.7,4.28,4.28,0,0,1-3.6,1.8,4.47,4.47,0,0,1-3.6-1.5v6.1H1883V63.8h2l.1,1.4a4.86,4.86,0,0,1,7.3.1,7.42,7.42,0,0,1,1.3,4.8Zm-2.3-.3a5.71,5.71,0,0,0-.9-3.4,3,3,0,0,0-2.5-1.2,3.4,3.4,0,0,0-3,1.7v6.1a3.11,3.11,0,0,0,3,1.7,3,3,0,0,0,2.5-1.2C1891.19,72.9,1891.39,71.7,1891.39,70Zm14.8-6.2V76.5H1904V71.6h-3.3l-3,4.9h-2.3l3.2-5.3a4.5,4.5,0,0,1-1.9-1.4,4.1,4.1,0,0,1-.7-2.2,3.29,3.29,0,0,1,1.3-2.8,5.42,5.42,0,0,1,3.5-1.1h5.4Zm-8,3.9a2,2,0,0,0,.6,1.5,2.35,2.35,0,0,0,1.7.6h3.5V65.6h-3.1a2.88,2.88,0,0,0-1.9.6A1.56,1.56,0,0,0,1898.19,67.7Zm21,8.8H1917V71.9a9.25,9.25,0,0,1-2.9.4,4.89,4.89,0,0,1-3.6-1.2,4.84,4.84,0,0,1-1.3-3.5V63.8h2.2v3.9c0,1.9.9,2.8,2.7,2.8a9.25,9.25,0,0,0,2.9-.4V63.8h2.2V76.5Zm8.7.2a5.73,5.73,0,0,1-4.2-1.7,6.05,6.05,0,0,1-1.6-4.5v-.4a7.39,7.39,0,0,1,.7-3.4,5,5,0,0,1,2-2.3,4.79,4.79,0,0,1,2.8-.8,4.64,4.64,0,0,1,3.8,1.6,7.12,7.12,0,0,1,1.4,4.7v.9h-8.6a4.08,4.08,0,0,0,1.1,3,3.34,3.34,0,0,0,2.7,1.1,3.56,3.56,0,0,0,1.9-.5,5.26,5.26,0,0,0,1.4-1.2l1.3,1A5,5,0,0,1,1927.89,76.7Zm-.2-11.4a2.7,2.7,0,0,0-2.2,1,4.2,4.2,0,0,0-1.1,2.7h6.4v-.2a4.72,4.72,0,0,0-.9-2.6A3.1,3.1,0,0,0,1927.69,65.3Zm15.8-1.5h2.2V76.5h-2.2V67.3l-5.9,9.2h-2.2V63.8h2.2v9.3Zm.7-4.6a2.9,2.9,0,0,1-1,2.3,3.92,3.92,0,0,1-5,0,2.76,2.76,0,0,1-1-2.3h1.8a2.5,2.5,0,0,0,.4,1.3,1.73,1.73,0,0,0,1.3.5,1.9,1.9,0,0,0,1.3-.5,1.73,1.73,0,0,0,.5-1.3Zm21.3,4.6V76.5h-2.2V65.6H1959l-.3,4.7a10.09,10.09,0,0,1-1.1,4.7,3.43,3.43,0,0,1-2.8,1.5h-.9V74.6h.6a1.85,1.85,0,0,0,1.5-1.2,14.13,14.13,0,0,0,.6-4.1l.2-5.4,8.7-.1Zm11.8,0h2.2V76.5h-2.2V67.3l-5.8,9.2h-2.2V63.8h2.2v9.3Zm16,12.7h-2.2V71.1h-5.8v5.4h-2.2V63.8h2.2v5.5h5.8V63.8h2.2Zm11.6-12.7h2.2V76.5h-2.2V67.3l-5.8,9.2h-2.2V63.8h2.2v9.3Zm13.9,0h2.2V76.5h-2.2V67.3l-5.9,9.2h-2.2V63.8h2.2v9.3Zm5.5,11.5a1.22,1.22,0,0,1,.3-.9,1.16,1.16,0,0,1,1-.4,1.05,1.05,0,0,1,1,.4,1.61,1.61,0,0,1,.3.9,1.22,1.22,0,0,1-.3.9,1.53,1.53,0,0,1-1,.4,1.16,1.16,0,0,1-1-.4A1.22,1.22,0,0,1,2024.29,75.3Zm.1-10.3a1.22,1.22,0,0,1,.3-.9,1.16,1.16,0,0,1,1-.4,1.05,1.05,0,0,1,1,.4,1.61,1.61,0,0,1,.3.9,1.22,1.22,0,0,1-.3.9,1.53,1.53,0,0,1-1,.4,1.16,1.16,0,0,1-1-.4A1.61,1.61,0,0,1,2024.39,65Zm-319,33.3a7.69,7.69,0,0,1-1.3,4.7,4.28,4.28,0,0,1-3.6,1.8,4.47,4.47,0,0,1-3.6-1.5v6.1h-2.2V91.8h2l.1,1.4a4.86,4.86,0,0,1,7.3.1,7.42,7.42,0,0,1,1.3,4.8Zm-2.2-.3a5.71,5.71,0,0,0-.9-3.4,2.91,2.91,0,0,0-2.5-1.2,3.13,3.13,0,0,0-2.9,1.7v6.1a3.11,3.11,0,0,0,3,1.7,3,3,0,0,0,2.5-1.2A7,7,0,0,0,1703.19,98Zm4.4,0a9.37,9.37,0,0,1,.7-3.4,5.68,5.68,0,0,1,2-2.3,6.11,6.11,0,0,1,3-.8,5.45,5.45,0,0,1,4.2,1.8,6.8,6.8,0,0,1,1.6,4.8v.2a7.25,7.25,0,0,1-.7,3.3,5.59,5.59,0,0,1-2,2.3,6.11,6.11,0,0,1-3,.8,5.45,5.45,0,0,1-4.2-1.8,6.71,6.71,0,0,1-1.6-4.7Zm2.2.3a5.29,5.29,0,0,0,1,3.4,3,3,0,0,0,2.6,1.3,2.93,2.93,0,0,0,2.6-1.3,6.4,6.4,0,0,0,1-3.6,5.29,5.29,0,0,0-1-3.4,3.25,3.25,0,0,0-5.2,0A5.34,5.34,0,0,0,1709.79,98.3Zm11.1,4.4.8-.9a8.92,8.92,0,0,0,1.4-4.9l.2-5.1h8.2v10.9h1.6v5.5h-2.2v-3.7h-8.8v3.7h-2.2v-5.5Zm2.6,0h5.8V93.8h-3.9l-.1,3A11.77,11.77,0,0,1,1723.49,102.7Zm20.2-10.9h2.2v12.7h-2.2V95.3l-5.8,9.2h-2.2V91.8h2.2v9.3Zm15.1,1.8h-4.3v10.9h-2.2V93.6h-4.2V91.8h10.6l.1,1.8Zm6.4,11.1a5.73,5.73,0,0,1-4.2-1.7,6.05,6.05,0,0,1-1.6-4.5v-.4a7.39,7.39,0,0,1,.7-3.4,5.68,5.68,0,0,1,2-2.3,4.79,4.79,0,0,1,2.8-.8,4.85,4.85,0,0,1,3.9,1.6,7.12,7.12,0,0,1,1.4,4.7v.9h-8.6a4.08,4.08,0,0,0,1.1,3,3.34,3.34,0,0,0,2.7,1.1,4.23,4.23,0,0,0,2-.5,5.26,5.26,0,0,0,1.4-1.2l1.3,1A5.6,5.6,0,0,1,1765.19,104.7Zm-.3-11.4a2.7,2.7,0,0,0-2.2,1,4.2,4.2,0,0,0-1.1,2.7h6.3v-.2a4.72,4.72,0,0,0-.9-2.6A2.58,2.58,0,0,0,1764.89,93.3Zm18.1-1.5v12.7h-2.2V93.6h-4.3l-.3,4.7a10.09,10.09,0,0,1-1.1,4.7,3.2,3.2,0,0,1-2.8,1.5h-.9v-1.9h.6a1.85,1.85,0,0,0,1.5-1.2,14.13,14.13,0,0,0,.6-4.1l.2-5.4,8.7-.1Zm13.2,0v12.7H1794V99.6h-3.3l-3,4.9h-2.3l3.2-5.3a4.5,4.5,0,0,1-1.9-1.4,4.1,4.1,0,0,1-.7-2.2,3.29,3.29,0,0,1,1.3-2.8,5.42,5.42,0,0,1,3.5-1.1l5.4.1Zm-7.9,3.9a2,2,0,0,0,.6,1.5,2.35,2.35,0,0,0,1.7.6h3.4V93.6h-3.1a2.88,2.88,0,0,0-1.9.6A1.68,1.68,0,0,0,1788.29,95.7Zm18.7,5.9,4.3-9.8h2.7v12.7h-2.2V95.3l-4.1,9.2h-1.5l-4.2-9.4v9.4h-2.2V91.8h2.8Zm10.4,1.7a1.22,1.22,0,0,1,.3-.9,1.45,1.45,0,0,1,2,0,1.8,1.8,0,0,1,.4.9,1,1,0,0,1-.4.9,1.53,1.53,0,0,1-1,.4,1.16,1.16,0,0,1-1-.4A1.9,1.9,0,0,1,1817.39,103.3Zm.1-10.3a1.22,1.22,0,0,1,.3-.9,1.16,1.16,0,0,1,1-.4,1.05,1.05,0,0,1,1,.4,1.8,1.8,0,0,1,.4.9,1,1,0,0,1-.4.9,1.53,1.53,0,0,1-1,.4,1.16,1.16,0,0,1-1-.4A1.61,1.61,0,0,1,1817.49,93Zm18,2.3h4.8v2.1h-4.8v5.4h-2.2V97.4h-4.8V95.3h4.8v-5h2.2Zm18.2-6.7-7.1,15.8h-2.3l7.1-15.3h-9.2V87.3h11.5Zm8.5,8.9a17,17,0,0,1,.7-5.1A16.25,16.25,0,0,1,1865,88a8.45,8.45,0,0,1,2.9-2.8l.4,1.4a9.52,9.52,0,0,0-2.8,4,18.82,18.82,0,0,0-1.2,6v1a18,18,0,0,0,1.7,7.9,9.81,9.81,0,0,0,2.4,3.1l-.4,1.3a10.1,10.1,0,0,1-3-2.9A16.4,16.4,0,0,1,1862.19,97.5Zm11.3-2.6h1.6a3.65,3.65,0,0,0,2.4-.8,2.58,2.58,0,0,0,.9-2.1,2.65,2.65,0,0,0-3-3,3.57,3.57,0,0,0-2.3.8,2.52,2.52,0,0,0-.8,2.1h-2.2a4.33,4.33,0,0,1,1.5-3.4,5.49,5.49,0,0,1,3.8-1.3,5.17,5.17,0,0,1,3.8,1.3,4.74,4.74,0,0,1,1.4,3.6,3.81,3.81,0,0,1-.7,2.2,4.6,4.6,0,0,1-2,1.6,4.35,4.35,0,0,1,2.2,1.5,4.15,4.15,0,0,1,.8,2.5,4.61,4.61,0,0,1-1.5,3.6,6.5,6.5,0,0,1-7.8,0,4.33,4.33,0,0,1-1.5-3.4h2.2a2.94,2.94,0,0,0,.9,2.2,3.65,3.65,0,0,0,2.4.8,3.46,3.46,0,0,0,2.4-.8,2.92,2.92,0,0,0,.8-2.4,2.87,2.87,0,0,0-.9-2.3,4,4,0,0,0-2.6-.8h-1.6V94.9Zm19.4,3.8h2.4v1.8h-2.4v4h-2.2v-4h-7.8V99.2l7.6-11.8h2.3l.1,11.3Zm-7.5,0h5.3V90.3l-.3.5Zm23,5.8h-11.2v-1.6l5.9-6.6a12.19,12.19,0,0,0,1.8-2.4,4.49,4.49,0,0,0,.5-1.9,3.29,3.29,0,0,0-.8-2.2,2.79,2.79,0,0,0-2.2-.9,3.33,3.33,0,0,0-2.5.9,3.57,3.57,0,0,0-.9,2.6h-2.2a5,5,0,0,1,1.5-3.8,5.59,5.59,0,0,1,4.1-1.5,5.32,5.32,0,0,1,3.8,1.3,4.22,4.22,0,0,1,1.4,3.3c0,1.7-1.1,3.7-3.2,6l-4.6,5h8.6v1.8Zm7.6-6.8a16.79,16.79,0,0,1-.7,5,16.25,16.25,0,0,1-2.1,4.4,8.22,8.22,0,0,1-3,2.9l-.4-1.3a9.34,9.34,0,0,0,2.9-4.3,18.84,18.84,0,0,0,1.1-6.5v-.4a22.36,22.36,0,0,0-.5-4.6,14.25,14.25,0,0,0-1.4-3.8,8,8,0,0,0-2.1-2.6l.4-1.3a8.86,8.86,0,0,1,2.9,2.9,16.25,16.25,0,0,1,2.1,4.4A17.18,17.18,0,0,1,1916,97.7Zm20.2,6.8H1925v-1.6l5.9-6.6a12.19,12.19,0,0,0,1.8-2.4,4.49,4.49,0,0,0,.5-1.9,3.29,3.29,0,0,0-.8-2.2,2.79,2.79,0,0,0-2.2-.9,3.33,3.33,0,0,0-2.5.9,3.57,3.57,0,0,0-.9,2.6h-2.2a5,5,0,0,1,1.5-3.8,5.59,5.59,0,0,1,4.1-1.5,5.32,5.32,0,0,1,3.8,1.3,4.22,4.22,0,0,1,1.4,3.3c0,1.7-1.1,3.7-3.2,6l-4.6,5h8.6v1.8Zm9.4,0h-2.2V90l-4.4,1.6v-2l6.2-2.3h.3l.1,17.2ZM1963,88.6l-7.1,15.8h-2.3l7-15.3h-9.2V87.3h11.5l.1,1.3Zm7.2,9.5h-5.7V96.3h5.7Zm10.4-10.7v1.8h-.4a5.35,5.35,0,0,0-4,1.5,6,6,0,0,0-1.7,4.1,4.68,4.68,0,0,1,3.7-1.5,4.06,4.06,0,0,1,3.5,1.6A5.94,5.94,0,0,1,1983,99a6.07,6.07,0,0,1-1.4,4.2,4.78,4.78,0,0,1-3.8,1.6,5,5,0,0,1-4-1.9,7.73,7.73,0,0,1-1.5-4.9v-.8a11.63,11.63,0,0,1,2-7.2c1.3-1.7,3.3-2.5,6-2.6Zm-2.8,7.7a3.52,3.52,0,0,0-2.1.7,3.15,3.15,0,0,0-1.3,1.7v.8a5.29,5.29,0,0,0,1,3.4,2.91,2.91,0,0,0,4.7.2,4.23,4.23,0,0,0,.8-2.8,4.65,4.65,0,0,0-.8-2.8A2.68,2.68,0,0,0,1977.79,95.1Zm18.8-6.5-7.1,15.8h-2.3l7-15.3H1985V87.3h11.5l.1,1.3Zm7.2,9.5h-5.7V96.3h5.7Zm13.1,6.4h-11.2v-1.6l5.9-6.6a12.19,12.19,0,0,0,1.8-2.4,4.49,4.49,0,0,0,.5-1.9,3.29,3.29,0,0,0-.8-2.2,2.79,2.79,0,0,0-2.2-.9,3.33,3.33,0,0,0-2.5.9,3.57,3.57,0,0,0-.9,2.6h-2.2a5,5,0,0,1,1.5-3.8,5.59,5.59,0,0,1,4.1-1.5,5.32,5.32,0,0,1,3.8,1.3,4.22,4.22,0,0,1,1.4,3.3c0,1.7-1.1,3.7-3.2,6l-4.6,5h8.6v1.8Zm9.4,0h-2.2V90l-4.4,1.6v-2l6.2-2.3h.3l.1,17.2Zm-474.2,24.8,3-9.5h2.3l-5.1,14.6c-.8,2.1-2,3.2-3.8,3.2h-.4l-.8-.2v-1.8h.6a2.86,2.86,0,0,0,1.7-.4,2.77,2.77,0,0,0,1-1.6l.5-1.3-4.5-12.5h2.4Zm16.8,3.2h-2.2v-4.6a9.67,9.67,0,0,1-2.9.4,4.89,4.89,0,0,1-3.6-1.2,4.84,4.84,0,0,1-1.3-3.5v-3.8h2.2v3.9c0,1.9.9,2.8,2.7,2.8a9.25,9.25,0,0,0,2.9-.4v-6.3h2.2v12.7Zm11.6-12.7h2.2v12.7h-2.2v-9.2l-5.8,9.2h-2.2V119.8h2.2v9.3Zm15.1,1.8h-4.3v10.9h-2.2V121.6h-4.2v-1.8h10.6l.1,1.8Zm6.4,11.1a5.73,5.73,0,0,1-4.2-1.7,6.05,6.05,0,0,1-1.6-4.5v-.4a7.39,7.39,0,0,1,.7-3.4,5.68,5.68,0,0,1,2-2.3,4.79,4.79,0,0,1,2.8-.8,4.64,4.64,0,0,1,3.8,1.6,7.12,7.12,0,0,1,1.4,4.7v.9h-8.6a4.08,4.08,0,0,0,1.1,3,3.34,3.34,0,0,0,2.7,1.1,4.23,4.23,0,0,0,2-.5,4.07,4.07,0,0,0,1.4-1.2l1.3,1A5.12,5.12,0,0,1,1602,132.7Zm-.2-11.4a2.7,2.7,0,0,0-2.2,1,4.2,4.2,0,0,0-1.1,2.7h6.3v-.2a4.72,4.72,0,0,0-.9-2.6A2.58,2.58,0,0,0,1601.79,121.3Zm18.1-1.5v12.7h-2.2V121.6h-4.3l-.3,4.7a10.09,10.09,0,0,1-1.1,4.7,3.43,3.43,0,0,1-2.8,1.5h-.9v-1.9h.6a1.85,1.85,0,0,0,1.5-1.2,14.13,14.13,0,0,0,.6-4.1l.2-5.4,8.7-.1Zm13.2,0v12.7h-2.2v-4.9h-3.3l-3,4.9h-2.4l3.2-5.3a4.5,4.5,0,0,1-1.9-1.4,4.1,4.1,0,0,1-.7-2.2,3.29,3.29,0,0,1,1.3-2.8,5.42,5.42,0,0,1,3.5-1.1l5.5.1Zm-8,3.9a2,2,0,0,0,.6,1.5,2.35,2.35,0,0,0,1.7.6h3.5v-4.2h-3.1a2.71,2.71,0,0,0-1.9.6A1.76,1.76,0,0,0,1625.09,123.7Zm18.8,5.9,4.3-9.8h2.7v12.7h-2.2v-9.2l-4.1,9.2h-1.5l-4.2-9.4v9.4h-2.2V119.8h2.8Zm24.6-9.8h2.2v12.7h-2.2v-9.2l-5.8,9.2h-2.2V119.8h2.2v9.3Zm18.9,9.8,4.3-9.8h2.7v12.7h-2.2v-9.2l-4.1,9.2h-1.5l-4.2-9.4v9.4h-2.2V119.8h2.8Zm15.8,3.1a5.73,5.73,0,0,1-4.2-1.7,6.05,6.05,0,0,1-1.6-4.5v-.4a7.39,7.39,0,0,1,.7-3.4,5.68,5.68,0,0,1,2-2.3,4.79,4.79,0,0,1,2.8-.8,4.52,4.52,0,0,1,3.8,1.6,7.12,7.12,0,0,1,1.4,4.7v.9h-8.6a4.08,4.08,0,0,0,1.1,3,3.34,3.34,0,0,0,2.7,1.1,3.56,3.56,0,0,0,1.9-.5,5.26,5.26,0,0,0,1.4-1.2l1.3,1A5.06,5.06,0,0,1,1703.19,132.7Zm-.3-11.4a2.7,2.7,0,0,0-2.2,1,4.2,4.2,0,0,0-1.1,2.7h6.3v-.2a4.72,4.72,0,0,0-.9-2.6A2.45,2.45,0,0,0,1702.89,121.3Zm17,.3h-4.3v10.9h-2.2V121.6h-4.2v-1.8h10.6l.1,1.8Zm1.1,4.4a7.67,7.67,0,0,1,.7-3.4,5.68,5.68,0,0,1,2-2.3,6.11,6.11,0,0,1,3-.8,5.45,5.45,0,0,1,4.2,1.8,6.8,6.8,0,0,1,1.6,4.8v.2a7.25,7.25,0,0,1-.7,3.3,6.42,6.42,0,0,1-2,2.3,6.11,6.11,0,0,1-3,.8,5.45,5.45,0,0,1-4.2-1.8,6.71,6.71,0,0,1-1.6-4.7Zm2.2.3a5.29,5.29,0,0,0,1,3.4,3,3,0,0,0,2.6,1.3,2.93,2.93,0,0,0,2.6-1.3,6.4,6.4,0,0,0,1-3.6,5.29,5.29,0,0,0-1-3.4,3.25,3.25,0,0,0-5.2,0A5.34,5.34,0,0,0,1723.19,126.3Zm11.1,4.4.8-.9c.9-1.1,1.3-2.7,1.4-4.9l.2-5.1h8.2v10.9h1.6v5.5h-2.2v-3.7h-8.8v3.7h-2.2v-5.5Zm2.6,0h5.8v-8.9h-3.9l-.1,3A11.77,11.77,0,0,1,1736.89,130.7Zm20.2-10.9h2.2v12.7h-2.2v-9.2l-5.8,9.2h-2.2V119.8h2.2v9.3Zm10.7,11.1a2.94,2.94,0,0,0,3-2.5h2.1a3.68,3.68,0,0,1-.8,2.1,5.48,5.48,0,0,1-1.8,1.6,5.53,5.53,0,0,1-6.5-1.1,7,7,0,0,1-1.5-4.7v-.4a7.25,7.25,0,0,1,.7-3.3,4.59,4.59,0,0,1,1.9-2.2,5.57,5.57,0,0,1,3-.8,4.75,4.75,0,0,1,3.5,1.3,5.07,5.07,0,0,1,1.5,3.3h-2.1a3.37,3.37,0,0,0-.9-2,3,3,0,0,0-2.1-.8,3.09,3.09,0,0,0-2.6,1.2,5.51,5.51,0,0,0-.9,3.4v.4a5.51,5.51,0,0,0,.9,3.4A3.31,3.31,0,0,0,1767.79,130.9Zm16.9-9.3h-4.3v10.9h-2.2V121.6H1774v-1.8h10.6l.1,1.8Zm9.8,10.9a8.57,8.57,0,0,1-.3-1.3,5,5,0,0,1-3.6,1.6,4.5,4.5,0,0,1-3.1-1.1,3.42,3.42,0,0,1-1.2-2.7,3.75,3.75,0,0,1,1.5-3.1,7.23,7.23,0,0,1,4.2-1.1h2.1v-1a2.14,2.14,0,0,0-.7-1.8,2.44,2.44,0,0,0-2-.7,2.88,2.88,0,0,0-1.9.6,1.87,1.87,0,0,0-.8,1.4h-2.2a2.74,2.74,0,0,1,.7-1.8,4.89,4.89,0,0,1,1.8-1.4,7,7,0,0,1,2.5-.5,5,5,0,0,1,3.4,1.1,3.84,3.84,0,0,1,1.3,3v5.8a7.22,7.22,0,0,0,.4,2.8v.2Zm-3.6-1.7a4.14,4.14,0,0,0,1.9-.5,2.91,2.91,0,0,0,1.3-1.4v-2.6h-1.7c-2.7,0-4,.8-4,2.3a1.86,1.86,0,0,0,.7,1.6A2.79,2.79,0,0,0,1790.89,130.8Zm16.1-1.2,4.3-9.8h2.7v12.7h-2.2v-9.2l-4.1,9.2h-1.5l-4.2-9.4v9.4h-2.2V119.8h2.8Zm10.4,1.7a1.22,1.22,0,0,1,.3-.9,1.45,1.45,0,0,1,2,0,1.8,1.8,0,0,1,.4.9,1,1,0,0,1-.4.9,1.53,1.53,0,0,1-1,.4,1.16,1.16,0,0,1-1-.4A1.9,1.9,0,0,1,1817.39,131.3Zm.1-10.3a1.22,1.22,0,0,1,.3-.9,1.16,1.16,0,0,1,1-.4,1.05,1.05,0,0,1,1,.4,1.8,1.8,0,0,1,.4.9,1,1,0,0,1-.4.9,1.53,1.53,0,0,1-1,.4,1.16,1.16,0,0,1-1-.4A1.61,1.61,0,0,1,1817.49,121Zm18,2.3h4.8v2.1h-4.8v5.4h-2.2v-5.4h-4.8v-2.1h4.8v-5h2.2Zm18.2-6.7-7.1,15.8h-2.3l7.1-15.3h-9.2v-1.8h11.5Zm8.5,8.9a17,17,0,0,1,.7-5.1,16.25,16.25,0,0,1,2.1-4.4,8.45,8.45,0,0,1,2.9-2.8l.4,1.4a9.52,9.52,0,0,0-2.8,4,18.82,18.82,0,0,0-1.2,6v1a18,18,0,0,0,1.7,7.9,9.81,9.81,0,0,0,2.4,3.1l-.4,1.3a10.1,10.1,0,0,1-3-2.9A16.4,16.4,0,0,1,1862.19,125.5Zm11.3-2.6h1.6a3.65,3.65,0,0,0,2.4-.8,2.58,2.58,0,0,0,.9-2.1,2.65,2.65,0,0,0-3-3,3.57,3.57,0,0,0-2.3.8,2.52,2.52,0,0,0-.8,2.1h-2.2a4.33,4.33,0,0,1,1.5-3.4,5.49,5.49,0,0,1,3.8-1.3,5.17,5.17,0,0,1,3.8,1.3,4.74,4.74,0,0,1,1.4,3.6,3.81,3.81,0,0,1-.7,2.2,4.6,4.6,0,0,1-2,1.6,4.35,4.35,0,0,1,2.2,1.5,4.15,4.15,0,0,1,.8,2.5,4.61,4.61,0,0,1-1.5,3.6,6.5,6.5,0,0,1-7.8,0,4.33,4.33,0,0,1-1.5-3.4h2.2a2.94,2.94,0,0,0,.9,2.2,3.65,3.65,0,0,0,2.4.8,3.46,3.46,0,0,0,2.4-.8,2.92,2.92,0,0,0,.8-2.4,2.87,2.87,0,0,0-.9-2.3,4,4,0,0,0-2.6-.8h-1.6v-1.9Zm19.4,3.8h2.4v1.8h-2.4v4h-2.2v-4h-7.8v-1.3l7.6-11.8h2.3l.1,11.3Zm-7.5,0h5.3v-8.4l-.3.5Zm23,5.8h-11.2v-1.6l5.9-6.6a12.19,12.19,0,0,0,1.8-2.4,4.49,4.49,0,0,0,.5-1.9,3.29,3.29,0,0,0-.8-2.2,2.79,2.79,0,0,0-2.2-.9,3.33,3.33,0,0,0-2.5.9,3.57,3.57,0,0,0-.9,2.6h-2.2a5,5,0,0,1,1.5-3.8,5.59,5.59,0,0,1,4.1-1.5,5.32,5.32,0,0,1,3.8,1.3,4.22,4.22,0,0,1,1.4,3.3c0,1.7-1.1,3.7-3.2,6l-4.6,5h8.6v1.8Zm7.6-6.8a16.79,16.79,0,0,1-.7,5,16.25,16.25,0,0,1-2.1,4.4,8.22,8.22,0,0,1-3,2.9l-.4-1.3a9.34,9.34,0,0,0,2.9-4.3,18.84,18.84,0,0,0,1.1-6.5v-.4a22.36,22.36,0,0,0-.5-4.6,14.25,14.25,0,0,0-1.4-3.8,8,8,0,0,0-2.1-2.6l.4-1.3a8.86,8.86,0,0,1,2.9,2.9,16.25,16.25,0,0,1,2.1,4.4A17.18,17.18,0,0,1,1916,125.7Zm20.2,6.8H1925v-1.6l5.9-6.6a12.19,12.19,0,0,0,1.8-2.4,4.49,4.49,0,0,0,.5-1.9,3.29,3.29,0,0,0-.8-2.2,2.79,2.79,0,0,0-2.2-.9,3.33,3.33,0,0,0-2.5.9,3.57,3.57,0,0,0-.9,2.6h-2.2a5,5,0,0,1,1.5-3.8,5.59,5.59,0,0,1,4.1-1.5,5.32,5.32,0,0,1,3.8,1.3,4.22,4.22,0,0,1,1.4,3.3c0,1.7-1.1,3.7-3.2,6l-4.6,5h8.6v1.8Zm5.5-9.6h1.6a3.65,3.65,0,0,0,2.4-.8,2.58,2.58,0,0,0,.9-2.1,2.65,2.65,0,0,0-3-3,3.57,3.57,0,0,0-2.3.8,2.52,2.52,0,0,0-.8,2.1h-2.2a4.33,4.33,0,0,1,1.5-3.4,5.49,5.49,0,0,1,3.8-1.3,5.17,5.17,0,0,1,3.8,1.3,4.65,4.65,0,0,1,.7,5.8,4.6,4.6,0,0,1-2,1.6,4.35,4.35,0,0,1,2.2,1.5,4.15,4.15,0,0,1,.8,2.5,4.61,4.61,0,0,1-1.5,3.6,6.5,6.5,0,0,1-7.8,0,4.33,4.33,0,0,1-1.5-3.4h2.2a2.94,2.94,0,0,0,.9,2.2,3.57,3.57,0,0,0,2.3.8,3.65,3.65,0,0,0,2.4-.8,2.92,2.92,0,0,0,.8-2.4,2.87,2.87,0,0,0-.9-2.3,4,4,0,0,0-2.6-.8h-1.6v-1.9Zm18.8-7.5v1.8h-.4a5.35,5.35,0,0,0-4,1.5,6,6,0,0,0-1.7,4.1,4.68,4.68,0,0,1,3.7-1.5,4.06,4.06,0,0,1,3.5,1.6,5.94,5.94,0,0,1,1.3,4.1,6.07,6.07,0,0,1-1.4,4.2,4.64,4.64,0,0,1-3.8,1.6,4.83,4.83,0,0,1-4-1.9,7.73,7.73,0,0,1-1.5-4.9v-.8a11.63,11.63,0,0,1,2-7.2c1.3-1.7,3.3-2.5,6-2.6Zm-2.9,7.7a3.52,3.52,0,0,0-2.1.7,3.15,3.15,0,0,0-1.3,1.7v.8a5.29,5.29,0,0,0,1,3.4,2.91,2.91,0,0,0,4.7.2,4.28,4.28,0,0,0,.9-2.8,4.1,4.1,0,0,0-.9-2.8A2.47,2.47,0,0,0,1957.59,123.1Zm12.6,3h-5.7v-1.8h5.7Zm12.2-6.2a3.69,3.69,0,0,1-.7,2.3,5.48,5.48,0,0,1-1.8,1.6,4.43,4.43,0,0,1,2.1,1.7,4.38,4.38,0,0,1,.8,2.5,4.26,4.26,0,0,1-1.5,3.5,5.58,5.58,0,0,1-3.9,1.3,5.42,5.42,0,0,1-3.9-1.3,4.54,4.54,0,0,1-1.5-3.5,4.38,4.38,0,0,1,.8-2.5,5.1,5.1,0,0,1,2.1-1.7,4.64,4.64,0,0,1-1.8-1.6,4.53,4.53,0,0,1,.7-5.7,5.27,5.27,0,0,1,3.6-1.3,4.84,4.84,0,0,1,3.6,1.3A4,4,0,0,1,1982.39,119.9Zm-1.7,7.9a3,3,0,0,0-.9-2.3,3.65,3.65,0,0,0-4.8,0,3.17,3.17,0,0,0-.9,2.3,3,3,0,0,0,.9,2.3,3.19,3.19,0,0,0,2.4.8,3.65,3.65,0,0,0,2.4-.8A3,3,0,0,0,1980.69,127.8Zm-3.3-10.8a3.23,3.23,0,0,0-2.1.8,2.9,2.9,0,1,0,4.2,0A2.78,2.78,0,0,0,1977.39,117Zm9.2,6.9.9-8.5h8.7v2h-6.9l-.5,4.7a5.3,5.3,0,0,1,2.8-.7,4.68,4.68,0,0,1,3.7,1.5,6.07,6.07,0,0,1,1.4,4.2,6.25,6.25,0,0,1-1.4,4.2,5.35,5.35,0,0,1-4,1.5,5.24,5.24,0,0,1-3.7-1.3,5,5,0,0,1-1.6-3.5h2.1a3.49,3.49,0,0,0,1,2.2,3.23,3.23,0,0,0,2.2.7,3,3,0,0,0,2.4-1,4.1,4.1,0,0,0,.9-2.8,3.83,3.83,0,0,0-.9-2.7,3,3,0,0,0-2.5-1,3.4,3.4,0,0,0-2.2.6l-.6.5Zm17.2,2.2h-5.7v-1.8h5.7Zm10.4-10.7v1.8h-.4a5.35,5.35,0,0,0-4,1.5,6,6,0,0,0-1.7,4.1,4.68,4.68,0,0,1,3.7-1.5,4.38,4.38,0,0,1,3.6,1.6,5.94,5.94,0,0,1,1.3,4.1,6.07,6.07,0,0,1-1.4,4.2,4.78,4.78,0,0,1-3.8,1.6,4.83,4.83,0,0,1-4-1.9,7.73,7.73,0,0,1-1.5-4.9v-.8a11.63,11.63,0,0,1,2-7.2c1.3-1.7,3.3-2.5,6-2.6Zm-2.9,7.7a3.52,3.52,0,0,0-2.1.7,3.71,3.71,0,0,0-1.3,1.7v.8a5.93,5.93,0,0,0,.9,3.4,2.71,2.71,0,0,0,2.4,1.3,2.84,2.84,0,0,0,2.3-1.1,4.23,4.23,0,0,0,.8-2.8,4.65,4.65,0,0,0-.8-2.8A2.23,2.23,0,0,0,2011.29,123.1Zm15,9.4h-2.2V118l-4.4,1.6v-2l6.2-2.3h.3l.1,17.2Zm-345.5,26.2.8-.9a8.92,8.92,0,0,0,1.4-4.9l.2-5.1h8.2v10.9h1.6v5.5h-2.2v-3.7H1682v3.7h-2.2v-5.5Zm2.6,0h5.8v-8.9h-3.9l-.1,3A10.09,10.09,0,0,1,1683.39,158.7Zm20.2-10.9h2.2v12.7h-2.2v-9.2l-5.8,9.2h-2.2V147.8h2.2v9.3Zm16.4,6.5a7.69,7.69,0,0,1-1.3,4.7,4.28,4.28,0,0,1-3.6,1.8,4.47,4.47,0,0,1-3.6-1.5v6.1h-2.2V147.8h2l.1,1.4a4.86,4.86,0,0,1,7.3.1,7.42,7.42,0,0,1,1.3,4.8Zm-2.2-.3a5.71,5.71,0,0,0-.9-3.4,2.91,2.91,0,0,0-2.5-1.2,3.4,3.4,0,0,0-3,1.7v6.1a3.11,3.11,0,0,0,3,1.7,3,3,0,0,0,2.5-1.2A6.1,6.1,0,0,0,1717.79,154Zm10.2,6.7a5.73,5.73,0,0,1-4.2-1.7,6.05,6.05,0,0,1-1.6-4.5v-.4a7.39,7.39,0,0,1,.7-3.4,5.68,5.68,0,0,1,2-2.3,4.79,4.79,0,0,1,2.8-.8,4.52,4.52,0,0,1,3.8,1.6,7.12,7.12,0,0,1,1.4,4.7v.9h-8.6a4.08,4.08,0,0,0,1.1,3,3.34,3.34,0,0,0,2.7,1.1,3.56,3.56,0,0,0,1.9-.5,5.26,5.26,0,0,0,1.4-1.2l1.3,1A5.06,5.06,0,0,1,1728,160.7Zm-.3-11.4a2.7,2.7,0,0,0-2.2,1,4.2,4.2,0,0,0-1.1,2.7h6.3v-.2a4.72,4.72,0,0,0-.9-2.6A2.34,2.34,0,0,0,1727.69,149.3Zm11.7,5.8h-1.6v5.4h-2.2V147.8h2.2v5.4h1.4l4.3-5.4h2.6l-5,6.1,5.4,6.6h-2.8Zm18.5-5.5h-4.3v10.9h-2.2V149.6h-4.2v-1.8h10.6l.1,1.8Zm1,4.4a7.67,7.67,0,0,1,.7-3.4,5.68,5.68,0,0,1,2-2.3,6.11,6.11,0,0,1,3-.8,5.45,5.45,0,0,1,4.2,1.8,6.8,6.8,0,0,1,1.6,4.8v.2a7.25,7.25,0,0,1-.7,3.3,5.59,5.59,0,0,1-2,2.3,6.11,6.11,0,0,1-3,.8,5.45,5.45,0,0,1-4.2-1.8,6.71,6.71,0,0,1-1.6-4.7Zm2.2.3a5.29,5.29,0,0,0,1,3.4,3,3,0,0,0,2.6,1.3,2.93,2.93,0,0,0,2.6-1.3,5.7,5.7,0,0,0,1-3.6,5.29,5.29,0,0,0-1-3.4,3.25,3.25,0,0,0-5.2,0A5.34,5.34,0,0,0,1761.09,154.3Zm22.8,0a7.69,7.69,0,0,1-1.3,4.7,4.28,4.28,0,0,1-3.6,1.8,4.47,4.47,0,0,1-3.6-1.5v6.1h-2.2V147.8h2l.1,1.4a4.86,4.86,0,0,1,7.3.1,7.42,7.42,0,0,1,1.3,4.8Zm-2.2-.3a5.71,5.71,0,0,0-.9-3.4,2.91,2.91,0,0,0-2.5-1.2,3.13,3.13,0,0,0-2.9,1.7v6.1a3.11,3.11,0,0,0,3,1.7,3,3,0,0,0,2.5-1.2A7,7,0,0,0,1781.69,154Zm12.8,6.5a8.57,8.57,0,0,1-.3-1.3,5,5,0,0,1-3.6,1.6,4.5,4.5,0,0,1-3.1-1.1,3.42,3.42,0,0,1-1.2-2.7,3.75,3.75,0,0,1,1.5-3.1,7.23,7.23,0,0,1,4.2-1.1h2.1v-1a2.14,2.14,0,0,0-.7-1.8,2.44,2.44,0,0,0-2-.7,2.88,2.88,0,0,0-1.9.6,1.87,1.87,0,0,0-.8,1.4h-2.2a2.74,2.74,0,0,1,.7-1.8,4.89,4.89,0,0,1,1.8-1.4,7,7,0,0,1,2.5-.5,5,5,0,0,1,3.4,1.1,3.84,3.84,0,0,1,1.3,3v5.8a7.22,7.22,0,0,0,.4,2.8v.2Zm-3.6-1.7a4.14,4.14,0,0,0,1.9-.5,2.91,2.91,0,0,0,1.3-1.4v-2.6h-1.7c-2.7,0-4,.8-4,2.3a1.86,1.86,0,0,0,.7,1.6A2.79,2.79,0,0,0,1790.89,158.8Zm16.1-1.2,4.3-9.8h2.7v12.7h-2.2v-9.2l-4.1,9.2h-1.5l-4.2-9.4v9.4h-2.2V147.8h2.8Zm10.4,1.7a1.22,1.22,0,0,1,.3-.9,1.45,1.45,0,0,1,2,0,1.8,1.8,0,0,1,.4.9,1,1,0,0,1-.4.9,1.53,1.53,0,0,1-1,.4,1.16,1.16,0,0,1-1-.4A1.9,1.9,0,0,1,1817.39,159.3Zm.1-10.3a1.22,1.22,0,0,1,.3-.9,1.16,1.16,0,0,1,1-.4,1.05,1.05,0,0,1,1,.4,1.8,1.8,0,0,1,.4.9,1,1,0,0,1-.4.9,1.53,1.53,0,0,1-1,.4,1.16,1.16,0,0,1-1-.4A1.61,1.61,0,0,1,1817.49,149Zm18,2.3h4.8v2.1h-4.8v5.4h-2.2v-5.4h-4.8v-2.1h4.8v-5h2.2Zm18.2-6.7-7.1,15.8h-2.3l7.1-15.3h-9.2v-1.8h11.5Zm8.5,8.9a17,17,0,0,1,.7-5.1,16.25,16.25,0,0,1,2.1-4.4,8.45,8.45,0,0,1,2.9-2.8l.4,1.4a9.52,9.52,0,0,0-2.8,4,18.82,18.82,0,0,0-1.2,6v1a18,18,0,0,0,1.7,7.9,9.81,9.81,0,0,0,2.4,3.1l-.4,1.3a10.1,10.1,0,0,1-3-2.9A16.4,16.4,0,0,1,1862.19,153.5Zm16.4-.5a6.53,6.53,0,0,1-1.6,1.3,4.94,4.94,0,0,1-4.7-.2,4.7,4.7,0,0,1-1.7-2,7.17,7.17,0,0,1-.6-2.9,6.43,6.43,0,0,1,.7-3.1,5.31,5.31,0,0,1,1.8-2.1,5.07,5.07,0,0,1,2.8-.7,4.71,4.71,0,0,1,4,1.9,8.24,8.24,0,0,1,1.5,5.2v.6c0,3.3-.7,5.7-2,7.3a7.46,7.46,0,0,1-5.9,2.3h-.4v-1.9h.4a5.64,5.64,0,0,0,4.1-1.4A6.05,6.05,0,0,0,1878.59,153Zm-3.3,0a3.06,3.06,0,0,0,2-.7,3.15,3.15,0,0,0,1.3-1.7v-.9a6.27,6.27,0,0,0-.9-3.5,2.67,2.67,0,0,0-2.3-1.3,2.84,2.84,0,0,0-2.3,1.1,4.37,4.37,0,0,0-.9,2.9,5.22,5.22,0,0,0,.8,2.9A2.68,2.68,0,0,0,1875.29,153Zm19.2.2a10,10,0,0,1-1.3,5.7,4.78,4.78,0,0,1-4.1,1.9,4.53,4.53,0,0,1-4-1.8c-.9-1.2-1.3-3-1.4-5.4v-2.9c0-2.5.4-4.4,1.3-5.6a4.71,4.71,0,0,1,4.1-1.8,4.84,4.84,0,0,1,4.1,1.8c.9,1.2,1.3,3,1.3,5.4Zm-2.2-3a8,8,0,0,0-.8-4,2.69,2.69,0,0,0-2.4-1.3,2.51,2.51,0,0,0-2.4,1.3,7.58,7.58,0,0,0-.8,3.9v3.5a8.73,8.73,0,0,0,.8,4.1,2.93,2.93,0,0,0,4.8.1,7.58,7.58,0,0,0,.8-3.9Zm16.1,10.3h-11.2v-1.6l5.9-6.6a12.19,12.19,0,0,0,1.8-2.4,4.49,4.49,0,0,0,.5-1.9,3.29,3.29,0,0,0-.8-2.2,2.79,2.79,0,0,0-2.2-.9,3.33,3.33,0,0,0-2.5.9,3.57,3.57,0,0,0-.9,2.6h-2.2a5,5,0,0,1,1.5-3.8,5.59,5.59,0,0,1,4.1-1.5,5.32,5.32,0,0,1,3.8,1.3,4.22,4.22,0,0,1,1.4,3.3c0,1.7-1.1,3.7-3.2,6l-4.6,5h8.6v1.8Zm7.6-6.8a16.79,16.79,0,0,1-.7,5,16.25,16.25,0,0,1-2.1,4.4,8.22,8.22,0,0,1-3,2.9l-.4-1.3a9.34,9.34,0,0,0,2.9-4.3,18.84,18.84,0,0,0,1.1-6.5v-.4a22.36,22.36,0,0,0-.5-4.6,14.25,14.25,0,0,0-1.4-3.8,8,8,0,0,0-2.1-2.6l.4-1.3a8.86,8.86,0,0,1,2.9,2.9,16.25,16.25,0,0,1,2.1,4.4A17.18,17.18,0,0,1,1916,153.7Zm20-9.1-7.1,15.8h-2.3l7.1-15.3h-9.2v-1.8H1936Zm10.8,8.4a5.09,5.09,0,0,1-1.6,1.3,4.94,4.94,0,0,1-4.7-.2,5.51,5.51,0,0,1-1.7-2,7.17,7.17,0,0,1-.6-2.9,7.79,7.79,0,0,1,.6-3.1,4.84,4.84,0,0,1,1.9-2.1,5.07,5.07,0,0,1,2.8-.7,4.71,4.71,0,0,1,4,1.9,8.24,8.24,0,0,1,1.5,5.2v.6c0,3.3-.7,5.7-2,7.3a7.46,7.46,0,0,1-5.9,2.3h-.4v-1.9h.5a5.64,5.64,0,0,0,4.1-1.4A6.5,6.5,0,0,0,1946.79,153Zm-3.3,0a3.06,3.06,0,0,0,2-.7,3.56,3.56,0,0,0,1.3-1.7v-.9a6.27,6.27,0,0,0-.9-3.5,2.67,2.67,0,0,0-2.3-1.3,3,3,0,0,0-2.3,1.1,4.37,4.37,0,0,0-.9,2.9,5.22,5.22,0,0,0,.8,2.9A2.68,2.68,0,0,0,1943.49,153Zm9.5-1.1.9-8.5h8.8v2h-6.9l-.5,4.7a5.3,5.3,0,0,1,2.8-.7,4.68,4.68,0,0,1,3.7,1.5,6.07,6.07,0,0,1,1.4,4.2,6.25,6.25,0,0,1-1.4,4.2,6,6,0,0,1-7.7.2,4.65,4.65,0,0,1-1.6-3.5h2a3.49,3.49,0,0,0,1,2.2,3.23,3.23,0,0,0,2.2.7,3,3,0,0,0,2.4-1,4.1,4.1,0,0,0,.9-2.8,3.83,3.83,0,0,0-.9-2.7,3,3,0,0,0-2.5-1,3.59,3.59,0,0,0-2.2.6l-.6.5Zm17.2,2.2h-5.7v-1.8h5.7Zm2.9-2.2.9-8.5h8.7v2h-6.9l-.5,4.7a5.3,5.3,0,0,1,2.8-.7,4.68,4.68,0,0,1,3.7,1.5,6.07,6.07,0,0,1,1.4,4.2,6.25,6.25,0,0,1-1.4,4.2,5.35,5.35,0,0,1-4,1.5,5.24,5.24,0,0,1-3.7-1.3,4.65,4.65,0,0,1-1.6-3.5h2a3.49,3.49,0,0,0,1,2.2,3.23,3.23,0,0,0,2.2.7,3,3,0,0,0,2.4-1,4.1,4.1,0,0,0,.9-2.8,3.83,3.83,0,0,0-.9-2.7,3,3,0,0,0-2.5-1,3.4,3.4,0,0,0-2.2.6l-.6.5Zm19.6,8.6h-2.2V146l-4.4,1.6v-2l6.2-2.3h.3l.1,17.2Zm11.1-6.4h-5.7v-1.8h5.7Zm12.2-6.2a3.69,3.69,0,0,1-.7,2.3,4.64,4.64,0,0,1-1.8,1.6,4.43,4.43,0,0,1,2.1,1.7,4.38,4.38,0,0,1,.8,2.5,4.26,4.26,0,0,1-1.5,3.5,5.58,5.58,0,0,1-3.9,1.3,5.68,5.68,0,0,1-4-1.3,4.54,4.54,0,0,1-1.5-3.5,4.38,4.38,0,0,1,.8-2.5,5.1,5.1,0,0,1,2.1-1.7,4,4,0,0,1-1.8-1.6,4.53,4.53,0,0,1,.7-5.7,5.35,5.35,0,0,1,3.7-1.3,4.84,4.84,0,0,1,3.6,1.3A4,4,0,0,1,2016,147.9Zm-1.7,7.9a3,3,0,0,0-.9-2.3,3.24,3.24,0,0,0-2.4-.9,2.87,2.87,0,0,0-2.3.9,3.17,3.17,0,0,0-.9,2.3,3.37,3.37,0,0,0,.8,2.3,3.19,3.19,0,0,0,2.4.8,3.65,3.65,0,0,0,2.4-.8A3,3,0,0,0,2014.29,155.8ZM2011,145a2.9,2.9,0,1,0,0,5.8,3,3,0,0,0,2.1-.8,3.16,3.16,0,0,0,0-4.2A2.78,2.78,0,0,0,2011,145Zm18.9,8.2a10,10,0,0,1-1.3,5.7,4.78,4.78,0,0,1-4.1,1.9,4.53,4.53,0,0,1-4-1.8c-.9-1.2-1.3-3-1.4-5.4v-2.9c0-2.5.4-4.4,1.3-5.6a4.71,4.71,0,0,1,4.1-1.8,4.84,4.84,0,0,1,4.1,1.8c.9,1.2,1.3,3,1.3,5.4Zm-2.2-3a8,8,0,0,0-.8-4,2.69,2.69,0,0,0-2.4-1.3,2.51,2.51,0,0,0-2.4,1.3,7.58,7.58,0,0,0-.8,3.9v3.5a8.73,8.73,0,0,0,.8,4.1,2.51,2.51,0,0,0,2.4,1.3,2.62,2.62,0,0,0,2.4-1.2,7.58,7.58,0,0,0,.8-3.9Zm-233.3,49.2,5.6,13.9,5.6-13.9h2.9v17.1h-2.3v-6.6l.2-7.2-5.6,13.8h-1.7l-5.6-13.8.2,7.1v6.6h-2.3V199.3l3,.1Zm26,4.4h2.2v12.7h-2.2v-9.2l-5.8,9.2h-2.2V203.8h2.2v9.3Zm16,12.7h-2.2v-5.4h-5.8v5.4h-2.2V203.8h2.2v5.5h5.8v-5.5h2.2Zm10.4-9.2a1.51,1.51,0,0,0-.7-1.4,2.7,2.7,0,0,0-1.9-.5,2.88,2.88,0,0,0-1.9.6,1.87,1.87,0,0,0-.8,1.4h-2.2a3.32,3.32,0,0,1,1.4-2.7,5.62,5.62,0,0,1,3.5-1.1,5.4,5.4,0,0,1,3.5,1,3.16,3.16,0,0,1,1.2,2.7,3,3,0,0,1-.5,1.6,2.49,2.49,0,0,1-1.5,1.1,2.9,2.9,0,0,1,2.2,3,3.37,3.37,0,0,1-1.4,2.8,6.7,6.7,0,0,1-7.2-.1,3.56,3.56,0,0,1-1.4-2.9h2.2a2.25,2.25,0,0,0,.8,1.6,3.77,3.77,0,0,0,2.1.7,3.17,3.17,0,0,0,2-.6,1.9,1.9,0,0,0,.8-1.5,1.75,1.75,0,0,0-.6-1.5,3.44,3.44,0,0,0-2-.5h-2.2v-1.8h2.4C1846.09,209.1,1846.79,208.4,1846.79,207.3Zm5.1,7.4.8-.9a8.92,8.92,0,0,0,1.4-4.9l.2-5.1h8.2v10.9h1.6v5.5h-2.2v-3.7H1853v3.7h-2.2v-5.5Zm2.6,0h5.8v-8.9h-3.9l-.1,3A10.09,10.09,0,0,1,1854.49,214.7Zm22.7-4.4a7.69,7.69,0,0,1-1.3,4.7,4.28,4.28,0,0,1-3.6,1.8,4.47,4.47,0,0,1-3.6-1.5v6.1h-2.2V203.8h2l.1,1.4a4.86,4.86,0,0,1,7.3.1,7.42,7.42,0,0,1,1.3,4.8Zm-2.1-.3a5.71,5.71,0,0,0-.9-3.4,2.91,2.91,0,0,0-2.5-1.2,3.13,3.13,0,0,0-2.9,1.7v6.1a3.11,3.11,0,0,0,3,1.7,3,3,0,0,0,2.5-1.2A7,7,0,0,0,1875.09,210Zm12.7,6.5a8.57,8.57,0,0,1-.3-1.3,5,5,0,0,1-3.6,1.6,4.5,4.5,0,0,1-3.1-1.1,3.42,3.42,0,0,1-1.2-2.7,3.75,3.75,0,0,1,1.5-3.1,7.23,7.23,0,0,1,4.2-1.1h2.1v-1a2.14,2.14,0,0,0-.7-1.8,2.58,2.58,0,0,0-2-.7,2.88,2.88,0,0,0-1.9.6,1.87,1.87,0,0,0-.8,1.4h-2.2a2.74,2.74,0,0,1,.7-1.8,4.2,4.2,0,0,1,1.8-1.4,7,7,0,0,1,2.5-.5,5,5,0,0,1,3.4,1.1,3.84,3.84,0,0,1,1.3,3v5.8a9.82,9.82,0,0,0,.4,2.8v.2Zm-3.6-1.7a4.14,4.14,0,0,0,1.9-.5,2.91,2.91,0,0,0,1.3-1.4v-2.6h-1.7c-2.7,0-4,.8-4,2.3a1.86,1.86,0,0,0,.7,1.6A2.79,2.79,0,0,0,1884.19,214.8Zm9.1,1.7V203.8h5a7,7,0,0,1,3.9.9,2.9,2.9,0,0,1,1.4,2.6,3,3,0,0,1-.5,1.6,3.81,3.81,0,0,1-1.6,1.1,2.8,2.8,0,0,1,1.8,1.1,2.49,2.49,0,0,1,.7,1.9,3,3,0,0,1-1.3,2.7,6.18,6.18,0,0,1-3.6.9l-5.8-.1Zm2.1-5.6v3.8h3.6a3.44,3.44,0,0,0,2-.5,1.75,1.75,0,0,0,.7-1.4c0-1.3-.9-1.9-2.8-1.9Zm0-1.7h2.8q3,0,3-1.8c0-1.2-1-1.8-2.9-1.8h-3l.1,3.6Zm30.7,7.3h-2.3V201.3h-8.4v15.2h-2.3V199.4H1926v17.1Zm14.5-6.2a7.69,7.69,0,0,1-1.3,4.7,4.28,4.28,0,0,1-3.6,1.8,4.47,4.47,0,0,1-3.6-1.5v6.1h-2.2V203.8h2l.1,1.4a4.86,4.86,0,0,1,7.3.1,7.42,7.42,0,0,1,1.3,4.8Zm-2.2-.3a5.71,5.71,0,0,0-.9-3.4,2.91,2.91,0,0,0-2.5-1.2,3.4,3.4,0,0,0-3,1.7v6.1a3.36,3.36,0,0,0,5.5.5A6.1,6.1,0,0,0,1938.39,210Zm13.1-6.2h2.2v12.7h-2.2v-9.2l-5.8,9.2h-2.2V203.8h2.2v9.3Zm9.6,7.3h-1.6v5.4h-2.2V203.8h2.2v5.4h1.4l4.3-5.4h2.6l-5,6.1,5.4,6.6h-2.8Zm16.9,5.4a8.57,8.57,0,0,1-.3-1.3,5,5,0,0,1-3.6,1.6,4.5,4.5,0,0,1-3.1-1.1,3.42,3.42,0,0,1-1.2-2.7,3.75,3.75,0,0,1,1.5-3.1,7.36,7.36,0,0,1,4.3-1.1h2.1v-1a2.14,2.14,0,0,0-.7-1.8,2.58,2.58,0,0,0-2-.7,2.88,2.88,0,0,0-1.9.6,1.87,1.87,0,0,0-.8,1.4h-2.2a2.74,2.74,0,0,1,.7-1.8,4.2,4.2,0,0,1,1.8-1.4,7,7,0,0,1,2.5-.5,5,5,0,0,1,3.4,1.1,3.84,3.84,0,0,1,1.3,3v5.8a9.82,9.82,0,0,0,.4,2.8v.2Zm-3.6-1.7a4.14,4.14,0,0,0,1.9-.5,3.48,3.48,0,0,0,1.3-1.4v-2.6h-1.7c-2.7,0-4,.8-4,2.3a1.86,1.86,0,0,0,.7,1.6A2.79,2.79,0,0,0,1974.39,214.8Zm16.1-1.2,4.3-9.8h2.7v12.7h-2.2v-9.2l-4.1,9.2h-1.5l-4.2-9.4v9.4h-2.2V203.8h2.8Zm12.9-5.4h3.3a5.14,5.14,0,0,1,3.4,1.1,3.84,3.84,0,0,1,1.3,3,3.54,3.54,0,0,1-1.3,3,4.91,4.91,0,0,1-3.5,1.1h-5.4V203.7h2.2Zm0,1.7v4.8h3.2a2.88,2.88,0,0,0,1.9-.6,2.41,2.41,0,0,0,0-3.4,2.14,2.14,0,0,0-1.8-.7h-3.3v-.1Zm20.3-6.1v12.7h-2.2v-4.9h-3.3l-3,4.9h-2.3l3.2-5.3a4.5,4.5,0,0,1-1.9-1.4,4.1,4.1,0,0,1-.7-2.2,3.29,3.29,0,0,1,1.3-2.8,5.42,5.42,0,0,1,3.5-1.1h5.4Zm-7.9,3.9a2,2,0,0,0,.6,1.5,2.35,2.35,0,0,0,1.7.6h3.5v-4.2h-3.1a2.71,2.71,0,0,0-1.9.6A1.56,1.56,0,0,0,2015.79,207.7Zm11.3,7.6a1.22,1.22,0,0,1,.3-.9,1.45,1.45,0,0,1,2,0,1.8,1.8,0,0,1,.4.9,1,1,0,0,1-.4.9,1.53,1.53,0,0,1-1,.4,1.16,1.16,0,0,1-1-.4A1.9,1.9,0,0,1,2027.09,215.3Zm.1-10.3a1.22,1.22,0,0,1,.3-.9,1.16,1.16,0,0,1,1-.4,1.05,1.05,0,0,1,1,.4,1.8,1.8,0,0,1,.4.9,1,1,0,0,1-.4.9,1.53,1.53,0,0,1-1,.4,1.16,1.16,0,0,1-1-.4A1.61,1.61,0,0,1,2027.19,205Zm-191.7,30.3h4.8v2.1h-4.8v5.4h-2.2v-5.4h-4.8v-2.1h4.8v-5h2.2Zm18.2-6.7-7.1,15.8h-2.3l7.1-15.3h-9.2v-1.8h11.5Zm8.5,8.9a17,17,0,0,1,.7-5.1,16.25,16.25,0,0,1,2.1-4.4,8.45,8.45,0,0,1,2.9-2.8l.4,1.4a9.52,9.52,0,0,0-2.8,4,18.82,18.82,0,0,0-1.2,6v1a18,18,0,0,0,1.7,7.9,9.81,9.81,0,0,0,2.4,3.1l-.4,1.3a10.1,10.1,0,0,1-3-2.9A16.4,16.4,0,0,1,1862.19,237.5Zm11.3-2.6h1.6a3.65,3.65,0,0,0,2.4-.8,2.58,2.58,0,0,0,.9-2.1,2.65,2.65,0,0,0-3-3,3.57,3.57,0,0,0-2.3.8,2.52,2.52,0,0,0-.8,2.1h-2.2a4.33,4.33,0,0,1,1.5-3.4,5.49,5.49,0,0,1,3.8-1.3,5.17,5.17,0,0,1,3.8,1.3,4.74,4.74,0,0,1,1.4,3.6,3.81,3.81,0,0,1-.7,2.2,4.6,4.6,0,0,1-2,1.6,4.35,4.35,0,0,1,2.2,1.5,4.15,4.15,0,0,1,.8,2.5,4.61,4.61,0,0,1-1.5,3.6,6.5,6.5,0,0,1-7.8,0,4.33,4.33,0,0,1-1.5-3.4h2.2a2.94,2.94,0,0,0,.9,2.2,3.65,3.65,0,0,0,2.4.8,3.46,3.46,0,0,0,2.4-.8,2.92,2.92,0,0,0,.8-2.4,2.87,2.87,0,0,0-.9-2.3,4,4,0,0,0-2.6-.8h-1.6v-1.9Zm19.4,3.8h2.4v1.8h-2.4v4h-2.2v-4h-7.8v-1.3l7.6-11.8h2.3l.1,11.3Zm-7.5,0h5.3v-8.4l-.3.5Zm23,5.8h-11.2v-1.6l5.9-6.6a12.19,12.19,0,0,0,1.8-2.4,4.49,4.49,0,0,0,.5-1.9,3.29,3.29,0,0,0-.8-2.2,2.79,2.79,0,0,0-2.2-.9,3.33,3.33,0,0,0-2.5.9,3.57,3.57,0,0,0-.9,2.6h-2.2a5,5,0,0,1,1.5-3.8,5.59,5.59,0,0,1,4.1-1.5,5.32,5.32,0,0,1,3.8,1.3,4.22,4.22,0,0,1,1.4,3.3c0,1.7-1.1,3.7-3.2,6l-4.6,5h8.6v1.8Zm7.6-6.8a16.79,16.79,0,0,1-.7,5,16.25,16.25,0,0,1-2.1,4.4,8.22,8.22,0,0,1-3,2.9l-.4-1.3a9.34,9.34,0,0,0,2.9-4.3,18.84,18.84,0,0,0,1.1-6.5v-.4a22.36,22.36,0,0,0-.5-4.6,14.25,14.25,0,0,0-1.4-3.8,8,8,0,0,0-2.1-2.6l.4-1.3a8.86,8.86,0,0,1,2.9,2.9,16.25,16.25,0,0,1,2.1,4.4A17.18,17.18,0,0,1,1916,237.7Zm20.2,6.8H1925v-1.6l5.9-6.6a12.19,12.19,0,0,0,1.8-2.4,4.49,4.49,0,0,0,.5-1.9,3.29,3.29,0,0,0-.8-2.2,2.79,2.79,0,0,0-2.2-.9,3.33,3.33,0,0,0-2.5.9,3.57,3.57,0,0,0-.9,2.6h-2.2a5,5,0,0,1,1.5-3.8,5.59,5.59,0,0,1,4.1-1.5,5.32,5.32,0,0,1,3.8,1.3,4.22,4.22,0,0,1,1.4,3.3c0,1.7-1.1,3.7-3.2,6l-4.6,5h8.6v1.8Zm3.3-8.6.9-8.5h8.7v2h-6.9l-.5,4.7a5.3,5.3,0,0,1,2.8-.7,4.68,4.68,0,0,1,3.7,1.5,6.07,6.07,0,0,1,1.4,4.2,6.25,6.25,0,0,1-1.4,4.2,6,6,0,0,1-7.7.2,4.65,4.65,0,0,1-1.6-3.5h2a3.49,3.49,0,0,0,1,2.2,3.23,3.23,0,0,0,2.2.7,3,3,0,0,0,2.4-1,4.1,4.1,0,0,0,.9-2.8,3.83,3.83,0,0,0-.9-2.7,3,3,0,0,0-2.5-1,3.59,3.59,0,0,0-2.2.6l-.6.5Zm22.8-4a3.69,3.69,0,0,1-.7,2.3,4,4,0,0,1-1.8,1.6,4.43,4.43,0,0,1,2.1,1.7,4.38,4.38,0,0,1,.8,2.5,4.26,4.26,0,0,1-1.5,3.5,6.1,6.1,0,0,1-3.9,1.3,5.42,5.42,0,0,1-3.9-1.3,4.54,4.54,0,0,1-1.5-3.5,4.38,4.38,0,0,1,.8-2.5,5.1,5.1,0,0,1,2.1-1.7,4.64,4.64,0,0,1-1.8-1.6,4.53,4.53,0,0,1,.7-5.7,5.27,5.27,0,0,1,3.6-1.3,4.84,4.84,0,0,1,3.6,1.3A4,4,0,0,1,1962.29,231.9Zm-1.7,7.9a3,3,0,0,0-.9-2.3,3.65,3.65,0,0,0-4.8,0,3.17,3.17,0,0,0-.9,2.3,3,3,0,0,0,.9,2.3,3.19,3.19,0,0,0,2.4.8,3.65,3.65,0,0,0,2.4-.8A3,3,0,0,0,1960.59,239.8Zm-3.3-10.8a3.23,3.23,0,0,0-2.1.8,2.9,2.9,0,1,0,4.2,0A3,3,0,0,0,1957.29,229Zm12.9,9.1h-5.7v-1.8h5.7Zm12.6-.9a10,10,0,0,1-1.3,5.7,4.78,4.78,0,0,1-4.1,1.9,4.53,4.53,0,0,1-4-1.8c-.9-1.2-1.3-3-1.4-5.4v-2.9c0-2.5.4-4.4,1.3-5.6a4.71,4.71,0,0,1,4.1-1.8,4.84,4.84,0,0,1,4.1,1.8c.9,1.2,1.3,3,1.3,5.4Zm-2.2-3a8,8,0,0,0-.8-4,2.75,2.75,0,0,0-2.5-1.3,2.51,2.51,0,0,0-2.4,1.3,7.84,7.84,0,0,0-.8,3.9v3.5a8.73,8.73,0,0,0,.8,4.1,2.51,2.51,0,0,0,2.4,1.3,2.62,2.62,0,0,0,2.4-1.2,7.58,7.58,0,0,0,.8-3.9l.1-3.7Zm16-5.6-7.1,15.8h-2.3l7-15.3H1985v-1.8h11.5l.1,1.3Zm7.2,9.5h-5.7v-1.8h5.7Zm12.2-6.2a3.69,3.69,0,0,1-.7,2.3,4.64,4.64,0,0,1-1.8,1.6,4.43,4.43,0,0,1,2.1,1.7,4.38,4.38,0,0,1,.8,2.5,4.26,4.26,0,0,1-1.5,3.5,5.58,5.58,0,0,1-3.9,1.3,5.68,5.68,0,0,1-4-1.3,4.54,4.54,0,0,1-1.5-3.5,4.38,4.38,0,0,1,.8-2.5,5.1,5.1,0,0,1,2.1-1.7,4,4,0,0,1-1.8-1.6,4.53,4.53,0,0,1,.7-5.7,5.35,5.35,0,0,1,3.7-1.3,4.84,4.84,0,0,1,3.6,1.3A4,4,0,0,1,2016,231.9Zm-1.7,7.9a3,3,0,0,0-.9-2.3,3.24,3.24,0,0,0-2.4-.9,2.87,2.87,0,0,0-2.3.9,3.17,3.17,0,0,0-.9,2.3,3.37,3.37,0,0,0,.8,2.3,3.19,3.19,0,0,0,2.4.8,3.65,3.65,0,0,0,2.4-.8A3,3,0,0,0,2014.29,239.8ZM2011,229a2.9,2.9,0,1,0,0,5.8,3,3,0,0,0,2.1-.8,3.16,3.16,0,0,0,0-4.2A2.78,2.78,0,0,0,2011,229Zm19.2-.4-7.1,15.8h-2.3l7-15.3h-9.2v-1.8h11.5l.1,1.3Z"/></g></g></svg>