<?xml version="1.0" encoding="utf-8"?>
<!-- Generator: Adobe Illustrator 22.0.1, SVG Export Plug-In . SVG Version: 6.00 Build 0)  -->
<svg version="1.1" id="Слой_1" xmlns="http://www.w3.org/2000/svg" xmlns:xlink="http://www.w3.org/1999/xlink" x="0px" y="0px"
	 viewBox="0 0 2308.6 781.9" style="enable-background:new 0 0 2308.6 781.9;" xml:space="preserve">
<style type="text/css">
	.st0{opacity:0.9;}
	.st1{fill:#C135DC;}
	.st2{fill:url(#SVGID_1_);}
	.st3{fill:#5D209E;}
	.st4{fill:url(#SVGID_2_);}
	.st5{fill:#FFFFFF;}
	.st6{fill:#3B167D;}
	.st7{fill:url(#SVGID_3_);}
	.st8{fill:url(#SVGID_4_);}
	.st9{fill:none;}
	.st10{fill:#FFA860;}
	.st11{fill:url(#СТУЛ-2_1_);}
	.st12{fill:#2F3F68;}
	.st13{clip-path:url(#SVGID_6_);}
	.st14{fill:#281757;}
	.st15{fill:url(#SVGID_7_);}
	.st16{clip-path:url(#SVGID_9_);}
	.st17{fill:url(#SVGID_10_);}
	.st18{clip-path:url(#SVGID_12_);}
	.st19{fill:url(#SVGID_13_);}
	.st20{fill:url(#SVGID_14_);}
	.st21{fill:url(#SVGID_15_);}
	.st22{clip-path:url(#SVGID_17_);}
	.st23{fill:#00AFE4;}
	.st24{fill:url(#SVGID_18_);}
	.st25{fill:url(#SVGID_19_);}
	.st26{fill:url(#SVGID_20_);}
	.st27{fill:url(#SVGID_21_);}
	.st28{fill:url(#SVGID_22_);}
	.st29{fill:#FFCD98;}
	.st30{fill:url(#SVGID_23_);}
	.st31{clip-path:url(#SVGID_25_);}
	.st32{fill:url(#SVGID_26_);}
	.st33{clip-path:url(#SVGID_28_);}
	.st34{fill:url(#SVGID_29_);}
	.st35{fill:url(#SVGID_30_);}
	.st36{clip-path:url(#SVGID_32_);}
	.st37{fill:url(#SVGID_33_);}
	.st38{fill:url(#SVGID_34_);}
	.st39{fill:url(#SVGID_35_);}
	.st40{fill:url(#SVGID_36_);}
	.st41{fill:#FEFEFE;}
	.st42{fill:none;stroke:#FFFFFF;stroke-width:6;stroke-linecap:round;stroke-miterlimit:10;}
	.st43{fill:none;stroke:#FFFFFF;stroke-width:5;stroke-miterlimit:10;}
	.st44{fill:none;stroke:#FFFFFF;stroke-width:3;stroke-miterlimit:10;}
</style>
<title>Шапка v6.2</title>
<g id="Слой_2_1_">
	<g id="Слой_1-2">
		<g id="Слой_2-2">
			<g id="Слой_1-2-2">
				<g class="st0">
					<path class="st1" d="M362.7,689C-77.8,513.5-14.1,205.5,75.9,0h2181c15,25.5,69.3,136,46,325c-19.7,159.5-86.5,339.5-324,410.5
						s-397.5-41-768.5-46.5S803.2,864.5,362.7,689z"/>
					
						<linearGradient id="SVGID_1_" gradientUnits="userSpaceOnUse" x1="406.6509" y1="-906.9263" x2="1972.6509" y2="-1266.9261" gradientTransform="matrix(1 0 0 1 0 1418)">
						<stop  offset="0" style="stop-color:#AB3AE0"/>
						<stop  offset="1" style="stop-color:#D535E5;stop-opacity:0"/>
					</linearGradient>
					<path class="st2" d="M362.7,689C-77.8,513.5-14.1,205.5,75.9,0h2181c15,25.5,69.3,136,46,325c-19.7,159.5-86.5,339.5-324,410.5
						s-397.5-41-768.5-46.5S803.2,864.5,362.7,689z"/>
				</g>
				<g class="st0">
					<path class="st3" d="M1450.3,780c-453.9,20-644.5-124.5-842.5-146.5C336.8,593,313.9,750,135.8,685
						C-39.8,620.9-28.6,223.5,75.9,0h2176c42,84.5,62.9,201,40,333C2226.9,708,1915.9,759.5,1450.3,780z"/>
					
						<linearGradient id="SVGID_2_" gradientUnits="userSpaceOnUse" x1="38.7011" y1="-2008.9813" x2="1968.2009" y2="-441.4813" gradientTransform="matrix(1 0 0 1 0 1418)">
						<stop  offset="0" style="stop-color:#6240D5"/>
						<stop  offset="1" style="stop-color:#480C7D;stop-opacity:0.35"/>
					</linearGradient>
					<path class="st4" d="M1450.3,780c-453.9,20-644.5-124.5-842.5-146.5C336.8,593,313.9,750,135.8,685
						C-39.8,620.9-28.6,223.5,75.9,0h2176c42,84.5,62.9,201,40,333C2226.9,708,1915.9,759.5,1450.3,780z"/>
				</g>
				<path class="st5" d="M534,241.4h-8.6v-12.8h-34.4v12.8h-8.8l-0.3-20h4.2c2.3-2.5,4.1-5.5,5-8.8c1.3-4.2,2.1-8.6,2.5-13l1.4-23.2
					h33v45h6.7L534,241.4z M496.4,221.4h22.4v-37.7h-15.2l-0.9,14.7C502.1,208.2,500,215.9,496.4,221.4L496.4,221.4z M573.3,176.4
					h9.1v52.2h-9.1v-37.2l-22.9,37.2h-9.1v-52.2h9.1v37.3L573.3,176.4z M633.1,211.6c-0.6,5.6-2.6,9.9-6.1,13s-8.3,4.7-14.4,4.7
					c-3.9,0.1-7.7-0.9-11-2.9c-3.2-2-5.8-5-7.3-8.5c-1.8-4-2.7-8.3-2.7-12.7v-4.9c-0.1-4.5,0.8-8.9,2.7-13c1.6-3.6,4.2-6.6,7.5-8.7
					c3.4-2.1,7.4-3.1,11.4-3c5.8,0,10.4,1.6,13.9,4.7s5.6,7.6,6.1,13.3h-9c-0.5-3.8-1.6-6.5-3.3-8.1s-4.3-2.6-7.7-2.6
					c-3.6-0.2-7,1.4-9.1,4.3c-2.1,2.9-3.2,7.1-3.2,12.7v4.6c0,5.7,1,9.9,3,12.9c2,2.9,5.4,4.6,8.9,4.4c3.6,0,6.2-0.8,8-2.4
					s2.9-4.2,3.5-8L633.1,211.6z M678,183.7h-16.2v44.9h-9v-45h-16.2v-7.4H678V183.7z M709.8,216.5h-20.3l-4.2,12.1h-9.5l19.7-52.2
					h8.1l19.8,52.2h-9.5L709.8,216.5z M692.1,209.1h15.2l-7.6-21.7L692.1,209.1z M771,228.6h-9v-23.3h-23.4v23.3h-9.1v-52.2h9.1
					v21.7H762v-21.7h9V228.6z M781.7,176.4h9.1v45h23v-45h9.2v45h6.3l-0.7,19.9h-8.3v-12.7h-38.5v-52.2H781.7z M868.7,176.4h9.1
					v52.2h-9.1v-37.2l-22.9,37.2h-9.1v-52.2h9.1v37.3L868.7,176.4z M930.4,203.9c0.1,4.6-0.8,9.2-2.7,13.5c-1.6,3.7-4.2,6.8-7.6,8.9
					c-3.4,2.1-7.4,3.2-11.4,3.1c-8.2,0.2-15.7-4.5-19-12c-1.9-4.2-2.9-8.7-2.8-13.3v-2.9c-0.1-4.6,0.8-9.2,2.7-13.5
					c1.6-3.7,4.3-6.8,7.7-8.9c7-4.1,15.6-4.1,22.6,0c3.4,2.1,6,5.2,7.7,8.8c1.9,4.2,2.8,8.8,2.8,13.4L930.4,203.9L930.4,203.9z
					 M921.3,201.1c0-5.8-1.1-10.2-3.3-13.4c-3.8-5.1-11-6.2-16.1-2.4c-0.9,0.7-1.7,1.5-2.4,2.4c-2.2,3.1-3.3,7.5-3.3,13v3
					c0,5.8,1.1,10.2,3.3,13.4c2.1,3,5.6,4.8,9.3,4.7c3.7,0.2,7.2-1.5,9.2-4.6c2.2-3,3.2-7.6,3.2-13.5L921.3,201.1L921.3,201.1z
					 M980.9,228.6h-9.1v-23.3h-23.4v23.3h-9.1v-52.2h9.1v21.7h23.4v-21.7h9v52.2H980.9z M1033.2,228.6h-9v-23.3h-23.4v23.3h-9.1
					v-52.2h9.1v21.7h23.4v-21.7h9V228.6z M1085.6,203.9c0.1,4.6-0.8,9.2-2.7,13.5c-1.6,3.7-4.2,6.8-7.6,8.9
					c-3.4,2.1-7.4,3.2-11.4,3.1c-8.2,0.2-15.7-4.5-19-12c-1.9-4.2-2.8-8.7-2.7-13.3v-2.9c-0.1-4.6,0.8-9.2,2.7-13.5
					c1.6-3.7,4.3-6.8,7.7-8.9c7-4.1,15.6-4.1,22.6,0c3.3,2.1,6,5.2,7.7,8.8c1.9,4.2,2.8,8.8,2.7,13.4L1085.6,203.9z M1076.6,201.1
					c0-5.8-1.1-10.2-3.3-13.4c-3.8-5.1-11-6.2-16.1-2.3c0,0,0,0,0,0l0,0c-0.9,0.7-1.7,1.5-2.3,2.3c-2.2,3.1-3.3,7.5-3.3,13v3
					c0,5.8,1.1,10.2,3.3,13.4c2.1,3,5.6,4.8,9.3,4.7c3.7,0.2,7.2-1.5,9.3-4.6c2.2-3,3.2-7.6,3.2-13.5V201.1L1076.6,201.1z
					 M1125.3,205.2h-21.5v16h25.1v7.2h-34.2v-52.2h34v7.4h-24.8v14.5h21.5L1125.3,205.2z M518,263.1h9.1v52.3H518v-37.2l-22.9,37.2
					h-9v-52.2h9v37.3L518,263.1z M563.9,298.4c0.5,3.8,1.6,6.5,3.5,8.1s4.5,2.5,8,2.5c3.4,0.1,6.7-1.4,8.7-4.1
					c2-2.7,3.1-6.7,3.3-11.8h-18.5v-7.3h18.5c-0.2-5.2-1.3-9.1-3.5-11.8c-2.1-2.7-5.4-4.3-8.9-4.1c-3.3,0-5.9,0.9-7.7,2.6
					s-2.9,4.5-3.3,8.2h-9c0.5-5.7,2.6-10.1,6.1-13.3s8.1-4.8,13.9-4.8c4-0.1,7.9,1,11.4,3c3.3,2,5.9,5,7.5,8.6
					c1.9,4,2.8,8.5,2.7,12.9v4.5c0.1,4.5-0.8,8.9-2.6,13c-1.5,3.5-4.1,6.5-7.3,8.6c-3.3,2-7.2,3.1-11.1,3c-5.9,0-10.7-1.5-14.3-4.7
					s-5.7-7.5-6.1-13H563.9z M645.2,263.1v52.3h-9v-45h-16l-0.9,20.1c-0.1,5-0.9,9.9-2.3,14.7c-0.9,3-2.7,5.7-5.1,7.6
					c-2.7,1.7-5.8,2.6-9,2.4h-2.3v-7.2l1.5-0.1c1.8-0.1,3.5-0.9,4.8-2.2c1.3-1.7,2.2-3.7,2.5-5.8c0.7-3.7,1.2-7.5,1.2-11.4l1-25.6
					L645.2,263.1z M686.7,292.1h-21.5v16h25.1v7.2h-34.2v-52.2h34v7.4h-24.9V285h21.5L686.7,292.1z M713.1,293.1H707v22.4h-9v-52.2
					h9v21.9h5l15.4-21.9h11.1l-17.9,25.1l19.4,27.3h-10.9L713.1,293.1z M782.8,270.5h-16.3v45h-9v-45h-16.2v-7.4h41.4L782.8,270.5z
					 M798.7,296.1v19.4h-9.1v-52.2h20c5.8,0,10.5,1.6,13.9,4.6c3.4,3,5.3,7.4,5.1,12c0,5.1-1.7,9.1-5,11.9s-8.1,4.3-14.1,4.3
					L798.7,296.1L798.7,296.1L798.7,296.1z M798.7,288.7h10.9c3.2,0,5.7-0.8,7.3-2.2c1.8-1.7,2.7-4.1,2.6-6.6c0.1-2.5-0.9-5-2.7-6.8
					c-1.9-1.8-4.5-2.7-7.1-2.7h-11.1L798.7,288.7z M878.3,290.7c0.1,4.6-0.8,9.2-2.7,13.5c-1.6,3.7-4.2,6.8-7.6,8.9
					c-9.7,6.3-22.7,3.5-29-6.2c-0.5-0.9-1-1.7-1.4-2.7c-1.9-4.1-2.8-8.7-2.6-13.2v-2.9c-0.1-4.6,0.8-9.2,2.7-13.5
					c1.6-3.7,4.3-6.8,7.7-8.9c7-4.1,15.6-4.1,22.6,0c3.3,2.1,6,5.2,7.7,8.8c1.9,4.2,2.8,8.8,2.8,13.4L878.3,290.7z M869.3,288
					c0-5.8-1.1-10.2-3.3-13.4c-3.8-5.1-11-6.2-16.1-2.4c-0.9,0.7-1.7,1.5-2.4,2.4c-2.2,3.1-3.3,7.5-3.3,13v3
					c0,5.8,1.1,10.3,3.3,13.4c2.1,3,5.6,4.8,9.3,4.7c3.7,0.2,7.2-1.5,9.2-4.6c2.2-3.1,3.2-7.6,3.2-13.5L869.3,288L869.3,288z
					 M928.9,315.5h-9v-23.3h-23.4v23.3h-9.1v-52.2h9.1V285h23.4v-21.8h9L928.9,315.5z M981.1,315.5h-9v-23.3h-23.4v23.3h-9.1v-52.2
					h9.1V285h23.4v-21.8h9L981.1,315.5z M1033.6,290.7c0.1,4.6-0.8,9.2-2.7,13.5c-1.6,3.7-4.2,6.8-7.6,8.9
					c-3.4,2.1-7.4,3.1-11.4,3.1c-4,0-7.9-1-11.3-3.1c-3.4-2.2-6-5.3-7.7-8.9c-1.9-4.2-2.8-8.7-2.8-13.2v-2.9
					c-0.1-4.6,0.8-9.2,2.7-13.5c1.6-3.7,4.3-6.8,7.7-8.9c7-4.1,15.6-4.1,22.6,0c3.3,2.1,6,5.2,7.7,8.8c1.9,4.2,2.8,8.8,2.8,13.4
					L1033.6,290.7z M1024.6,288c0-5.8-1.1-10.2-3.3-13.4c-3.8-5.1-11-6.1-16.1-2.3c-0.9,0.7-1.7,1.5-2.3,2.3
					c-2.2,3.1-3.3,7.5-3.3,13v3c0,5.8,1.1,10.3,3.3,13.4c2.1,3,5.6,4.8,9.3,4.7c3.7,0.2,7.2-1.5,9.2-4.6c2.2-3,3.2-7.6,3.2-13.5
					L1024.6,288z M1073.2,292.1h-21.5v16h25.1v7.2h-34.2v-52.2h34v7.4h-24.8V285h21.5L1073.2,292.1z M527.7,377.6
					c0.1,4.6-0.8,9.2-2.7,13.5c-1.6,3.7-4.2,6.8-7.6,8.9c-3.4,2.1-7.4,3.2-11.4,3.1c-8.2,0.2-15.7-4.5-19-12
					c-1.9-4.2-2.8-8.7-2.7-13.3V375c-0.1-4.6,0.8-9.2,2.7-13.5c1.6-3.7,4.3-6.8,7.7-8.9c7-4.1,15.6-4.1,22.6,0
					c3.3,2.1,6,5.2,7.7,8.8c1.9,4.2,2.8,8.8,2.8,13.4L527.7,377.6z M518.7,374.8c0-5.8-1.1-10.3-3.3-13.4
					c-3.8-5.1-11.1-6.1-16.2-2.3c0,0,0,0,0,0c-0.9,0.7-1.6,1.4-2.3,2.3c-2.2,3.1-3.3,7.5-3.3,13v3c0,5.8,1.1,10.2,3.3,13.4
					c2.1,3,5.7,4.8,9.4,4.7c3.7,0.2,7.2-1.5,9.2-4.6c2.2-3,3.2-7.6,3.2-13.5L518.7,374.8L518.7,374.8z M569.8,357.3h-24.1V370h10.7
					c3.4-0.1,6.9,0.6,10,2c2.7,1.2,4.9,3.1,6.5,5.6c3.8,6.6,2.7,14.9-2.8,20.1c-3.3,3-7.8,4.5-13.6,4.6h-20v-52.2h33.3L569.8,357.3
					L569.8,357.3z M545.8,377.4v17.7h10.7c2.6,0.1,5.2-0.7,7.1-2.5c1.8-1.8,2.7-4.2,2.6-6.7c0.1-2.4-0.8-4.7-2.6-6.2
					c-1.9-1.7-4.5-2.5-7-2.3H545.8z M601.2,377.4l10.5-27.3h10.1l-18.3,43.3l-1.7,3.2c-2.3,4.2-6.2,6.4-11.7,6.4l-3.7-0.2l0.1-7.1
					c1,0.1,2,0.1,3,0.1c2.3,0.1,4.5-1.2,5.5-3.3l1.9-4.4l-17.8-38.1h9.9L601.2,377.4z M668.7,350.1v52.2h-9v-20.6
					c-4,1-8,1.5-12.1,1.5c-6.2,0-10.9-1.3-14.1-4.1s-4.8-6.9-4.8-12.4v-16.6h9v16.6c0,3.3,0.8,5.7,2.3,7.1s4.1,2.1,7.7,2.1
					c4.1,0,8.2-0.5,12.1-1.6V350L668.7,350.1z M710.1,379.1h-21.5v16h25v7.2h-34.1v-52.2h34v7.4h-24.9v14.5h21.5L710.1,379.1z
					 M762.5,402.3h-9V379h-23.4v23.3H721v-52.2h9.1v21.7h23.4v-21.7h9L762.5,402.3z M805.3,350.1h9.1v52.2h-9.1v-37.2l-22.9,37.2
					h-9.1v-52.2h9.1v37.3L805.3,350.1z M855.9,379.1h-21.5v16h25v7.2h-34.1v-52.2h34v7.4h-24.9v14.5h21.5L855.9,379.1z"/>
				<ellipse class="st6" cx="1490.1" cy="636.5" rx="373.9" ry="33"/>
				
					<radialGradient id="SVGID_3_" cx="7455.5464" cy="436.169" r="1.1196" gradientTransform="matrix(1 32.5 -368.52 11.34 154771.5625 -246615.0781)" gradientUnits="userSpaceOnUse">
					<stop  offset="0" style="stop-color:#4C2AA5"/>
					<stop  offset="1" style="stop-color:#431F83"/>
				</radialGradient>
				<ellipse class="st7" cx="1490.1" cy="636.5" rx="373.9" ry="33"/>
				
					<radialGradient id="SVGID_4_" cx="7496.4932" cy="435.1707" r="1.12" gradientTransform="matrix(115.56 211.91 -261.19 142.43 -751119.3125 -1650160.625)" gradientUnits="userSpaceOnUse">
					<stop  offset="0" style="stop-color:#FCD3DF;stop-opacity:0.12"/>
					<stop  offset="1" style="stop-color:#E0A0C6"/>
				</radialGradient>
				<path class="st8" d="M1517.3,203.1c-16.6-15.1-55.1-90-140.5-74.9c-25,6.6-37.4,27.6-44.7,51.9s-17.6,42.7-30.9,59
					s-64.4,82.8-86.1,137.2s-14.5,122.2,90.6,154.4s266,58.5,334.9,55.9s88.8,1.3,134.7,24.8s31.6-67.5,26.9-148.5
					s-49-163.7-145.1-183.9S1533.8,218.2,1517.3,203.1z"/>
				<rect x="1141.9" y="229" class="st9" width="732.3" height="411.4"/>
				<g id="Мужик">
					<g id="стул">
						<path class="st10" d="M1765.8,478.4c15.2,5.7,18.3,8.1,20.2,11.1s4.8,8.4-1,14.4s-8.9,6.4-14.9,6.9s-72.1,2.4-72.1,2.4v121.3
							l-12.6,0.1V508.8L1765.8,478.4z"/>
						<rect x="1685.4" y="513.5" class="st10" width="12.6" height="122.8"/>
						<rect x="1775.9" y="496.7" class="st10" width="12.6" height="139.6"/>
					</g>
					
						<linearGradient id="СТУЛ-2_1_" gradientUnits="userSpaceOnUse" x1="-24.0811" y1="2775.3301" x2="-30.4611" y2="2663.3101" gradientTransform="matrix(1 0 0 -1 1748.5699 3158)">
						<stop  offset="0" style="stop-color:#FFB770"/>
						<stop  offset="0.37" style="stop-color:#FFAE7A"/>
						<stop  offset="1" style="stop-color:#FF9594"/>
					</linearGradient>
					<path id="СТУЛ-2" class="st11" d="M1653.6,391.8c0,0,2.2-20.5,9-29.7s52.3-15.5,61.2-15.9s47.7-0.6,56.3,5.5
						s17.2,13,14.5,33s-14.9,85.1-14.9,85.1l-103,8.7L1653.6,391.8z"/>
					<path class="st12" d="M1681.7,611.4V639c0,0,0,2.5-2.2,2.5h-40.4c0,0-3.5-1.2,0-3.2s17.6-11.7,18.8-12.4s2.2-1.9,2.4-5.3
						s0-7.9,0-7.9L1681.7,611.4z"/>
					<path class="st12" d="M1632.4,611.4V639c0,0,0,2.5-2.1,2.5h-39.7c0,0-3.4-1.2,0-3.2s17.3-11.7,18.4-12.4s2.1-1.9,2.3-5.3
						s0-7.9,0-7.9L1632.4,611.4z"/>
					<g>
						<defs>
							<path id="SVGID_5_" d="M1726.5,481.1c0,0-12.1,21.8-44.8,25s-29.8,1.8-29.8,1.8s-3.7,39.2-6.3,58.7s-12.1,49.8-12.1,49.8
								h-22.9c0,0-3.8-84.8-4.7-94.3s-3.4-28,1.4-37.4s4.5-3.6,4.5-3.6L1726.5,481.1z"/>
						</defs>
						<clipPath id="SVGID_6_">
							<use xlink:href="#SVGID_5_"  style="overflow:visible;"/>
						</clipPath>
						<g class="st13">
							<path class="st14" d="M1726.5,481.1c0,0-12.1,21.8-44.8,25s-29.8,1.8-29.8,1.8s0.7,39.2-1.8,58.7s-16.6,49.8-16.6,49.8h-22.9
								c0,0-3.8-84.8-4.7-94.3s-4.7-23.7,0-33s5.8-8.1,5.8-8.1h114.9L1726.5,481.1z"/>
							
								<linearGradient id="SVGID_7_" gradientUnits="userSpaceOnUse" x1="1517.8271" y1="2540.8542" x2="1657.7172" y2="2631.0444" gradientTransform="matrix(1 0 0 -1 0 3158)">
								<stop  offset="0" style="stop-color:#FF4BC4"/>
								<stop  offset="1" style="stop-color:#604FC4;stop-opacity:0"/>
							</linearGradient>
							<path class="st15" d="M1726.5,481.1c0,0-12.1,21.8-44.8,25s-29.8,1.8-29.8,1.8s0.7,39.2-1.8,58.7s-13.2,49.8-13.2,49.8
								l-32.4,4.2c0,0,2.3-89.2,1.5-98.5s-4.7-23.7,0-33s5.8-8.1,5.8-8.1L1726.5,481.1z"/>
						</g>
					</g>
					<g>
						<defs>
							<path id="SVGID_8_" d="M1764.8,481.1c0,0-12.1,21.8-44.8,25s-29.8,1.8-29.8,1.8s0.7,39.2-1.8,58.7s-6.5,47.5-6.5,47.5h-22
								c0,0-14.8-82.7-15.7-92s-4.7-23.7,0-33s5.8-8.1,5.8-8.1h114.9L1764.8,481.1z"/>
						</defs>
						<clipPath id="SVGID_9_">
							<use xlink:href="#SVGID_8_"  style="overflow:visible;"/>
						</clipPath>
						<g class="st16">
							<path class="st14" d="M1764.8,481.1c0,0-12.1,21.8-44.8,25s-29.8,1.8-29.8,1.8s0.7,39.2-1.8,58.7s-6.5,47.5-6.5,47.5h-22
								c0,0-14.8-82.7-15.7-92s-4.7-23.7,0-33s5.8-8.1,5.8-8.1h114.9L1764.8,481.1z"/>
							
								<linearGradient id="SVGID_10_" gradientUnits="userSpaceOnUse" x1="1577.6841" y1="2553.7139" x2="1703.504" y2="2634.8237" gradientTransform="matrix(1 0 0 -1 0 3158)">
								<stop  offset="0" style="stop-color:#FF4BC4"/>
								<stop  offset="1" style="stop-color:#604FC4;stop-opacity:0"/>
							</linearGradient>
							<path class="st17" d="M1764.8,481.1c0,0-12.1,21.8-44.8,25s-29.8,1.8-29.8,1.8s0.7,39.2-1.8,58.7s-6.5,47.5-6.5,47.5h-22
								c0,0-14.8-82.7-15.7-92s-4.7-23.7,0-33s5.8-8.1,5.8-8.1h114.9L1764.8,481.1z"/>
						</g>
					</g>
					<g>
						<defs>
							<path id="SVGID_11_" d="M1666.5,383.2c6.3-26.1,14.2-41.7,38.2-42.6c16.6-0.6,28.7-1.4,40.8,2.5s24,15.9,30.3,35.2
								c12.1,37.6,4,44-0.3,51.4s-15.3,7.2-41.7,6.3s-51.2,0-51.2,0L1666.5,383.2z"/>
						</defs>
						<clipPath id="SVGID_12_">
							<use xlink:href="#SVGID_11_"  style="overflow:visible;"/>
						</clipPath>
						<g class="st18">
							
								<linearGradient id="SVGID_13_" gradientUnits="userSpaceOnUse" x1="1672.7507" y1="-1017.4876" x2="1785.9308" y2="-1051.3076" gradientTransform="matrix(1 0 0 1 0 1422)">
								<stop  offset="0" style="stop-color:#281757"/>
								<stop  offset="0.16" style="stop-color:#301961"/>
								<stop  offset="0.43" style="stop-color:#441D7B"/>
								<stop  offset="0.78" style="stop-color:#6525A6"/>
								<stop  offset="1" style="stop-color:#7C2AC4"/>
							</linearGradient>
							<path class="st19" d="M1659.1,367.7c3.6-15.2,23.8-29.6,45.3-32.8s44.6-0.7,54.6,1.6s25.4,14.6,26.4,36.4s2,47.8-3.8,55.3
								s-4,8.6-38.8,7.6s-67.4,0-67.4,0L1659.1,367.7z"/>
							
								<linearGradient id="SVGID_14_" gradientUnits="userSpaceOnUse" x1="1675.1709" y1="-1009.387" x2="1788.3608" y2="-1043.2072" gradientTransform="matrix(1 0 0 1 0 1422)">
								<stop  offset="0" style="stop-color:#281757"/>
								<stop  offset="0.16" style="stop-color:#301961"/>
								<stop  offset="0.43" style="stop-color:#441D7B"/>
								<stop  offset="0.78" style="stop-color:#6525A6"/>
								<stop  offset="1" style="stop-color:#7C2AC4"/>
							</linearGradient>
							<path class="st20" d="M1656.4,380.2c3.6-12.4,24.4-24.3,46.3-26.9s45.5-0.6,55.5,1.4s25.8,12.1,27,29.8s2,39.2-3.9,45.4
								s-4.1,7-39.6,6.3s-68.8,0-68.8,0L1656.4,380.2z"/>
							
								<linearGradient id="SVGID_15_" gradientUnits="userSpaceOnUse" x1="1679.5089" y1="-994.8538" x2="1792.6989" y2="-1028.6736" gradientTransform="matrix(1 0 0 1 0 1422)">
								<stop  offset="0" style="stop-color:#281757"/>
								<stop  offset="0.16" style="stop-color:#301961"/>
								<stop  offset="0.43" style="stop-color:#441D7B"/>
								<stop  offset="0.78" style="stop-color:#6525A6"/>
								<stop  offset="1" style="stop-color:#7C2AC4"/>
							</linearGradient>
							<path class="st21" d="M1694.2,421.9c5.8-4.8,14.8-0.7,15.3-1.8s41-10.4,41.3-12.3s-4.6-35.6-4.6-35.6l23.8-4.7l7.3,3.7
								c0,0,8.5,32.8,8.5,34.9s-3.6,24.5-3.6,24.5s-20.2,8.4-29.4,8s-51.6-0.9-51.6-0.9L1694.2,421.9z"/>
						</g>
					</g>
					<g>
						<defs>
							<path id="SVGID_16_" d="M1666.5,383.2c6.3-26.1,14.2-41.7,38.2-42.6c16.6-0.6,28.7-1.4,40.8,2.5s24,15.9,30.3,35.2
								c12.1,37.6,4,44-0.3,51.4s-15.3,7.2-41.7,6.3s-51.2,0-51.2,0L1666.5,383.2z"/>
						</defs>
						<clipPath id="SVGID_17_">
							<use xlink:href="#SVGID_16_"  style="overflow:visible;"/>
						</clipPath>
						<g class="st22">
							<path class="st23" d="M1659.1,367.7c3.6-15.2,23.8-29.6,45.3-32.8s44.6-0.7,54.6,1.6s25.4,14.6,26.4,36.4s2,47.8-3.8,55.3
								s-4,8.6-38.8,7.6s-67.4,0-67.4,0L1659.1,367.7z"/>
							
								<linearGradient id="SVGID_18_" gradientUnits="userSpaceOnUse" x1="1750.3004" y1="2713.2703" x2="1719.6604" y2="2767.4502" gradientTransform="matrix(1 0 0 -1 0 3158)">
								<stop  offset="0" style="stop-color:#6086C4"/>
								<stop  offset="1" style="stop-color:#00AFE4;stop-opacity:0"/>
							</linearGradient>
							<path class="st24" d="M1656.4,380.2c3.6-12.4,24.4-24.3,46.3-26.9s45.5-0.6,55.5,1.4s25.8,12.1,27,29.8s2,39.2-3.9,45.4
								s-4.1,7-39.6,6.3s-68.8,0-68.8,0L1656.4,380.2z"/>
							
								<linearGradient id="SVGID_19_" gradientUnits="userSpaceOnUse" x1="1737.9974" y1="2731.2412" x2="1777.9474" y2="2809.4912" gradientTransform="matrix(1 0 0 -1 0 3158)">
								<stop  offset="0" style="stop-color:#60E5C4"/>
								<stop  offset="0.57" style="stop-color:#608AC4;stop-opacity:3.000000e-02"/>
								<stop  offset="1" style="stop-color:#6086C4;stop-opacity:0"/>
							</linearGradient>
							<path class="st25" d="M1694.2,421.9c5.8-4.8,14.8-0.7,15.3-1.8s41-10.4,41.3-12.3s-4.6-35.6-4.6-35.6l23.8-4.7l7.3,3.7
								c0,0,8.5,32.8,8.5,34.9s-3.6,24.5-3.6,24.5s-20.2,8.4-29.4,8s-51.6-0.9-51.6-0.9L1694.2,421.9z"/>
						</g>
					</g>
					
						<linearGradient id="SVGID_20_" gradientUnits="userSpaceOnUse" x1="1589.9967" y1="2771.9587" x2="1742.5468" y2="2726.3889" gradientTransform="matrix(1 0 0 -1 0 3158)">
						<stop  offset="0" style="stop-color:#281757"/>
						<stop  offset="0.16" style="stop-color:#301961"/>
						<stop  offset="0.43" style="stop-color:#441D7B"/>
						<stop  offset="0.78" style="stop-color:#6525A6"/>
						<stop  offset="1" style="stop-color:#7C2AC4"/>
					</linearGradient>
					<path class="st26" d="M1741.1,436.8h-144.7c-3.8,0-6.8-3-6.8-6.8v0l0,0l-7.9-57c0-3.7,3-6.8,6.8-6.8c0,0,0,0,0,0h98.8
						c3.8,0,6.8,3,6.8,6.8v0l0,0l7.2,58.4l35.3,0.1c2.3,0,4.2,1.9,4.2,4.2v1.1L1741.1,436.8z"/>
					
						<linearGradient id="SVGID_21_" gradientUnits="userSpaceOnUse" x1="1719.2882" y1="2808.6401" x2="1719.9481" y2="2839.03" gradientTransform="matrix(1 0 0 -1 0 3158)">
						<stop  offset="0" style="stop-color:#FFCD98"/>
						<stop  offset="0.35" style="stop-color:#FFC397"/>
						<stop  offset="0.94" style="stop-color:#FFA994"/>
						<stop  offset="1" style="stop-color:#FFA694"/>
					</linearGradient>
					<path class="st27" d="M1704.3,340.6c0,0,0.3,13.6,14.5,13.8s15.9-13.5,15.9-13.5l-6.9-1.8c0,0,0-12.2-0.6-15.8s-10.5,7-10.5,7
						l-5.3,2.3l-0.2,7.5L1704.3,340.6z"/>
					
						<linearGradient id="SVGID_22_" gradientUnits="userSpaceOnUse" x1="1695.2892" y1="2868.6777" x2="1758.9491" y2="2844.4678" gradientTransform="matrix(1 0 0 -1 0 3158)">
						<stop  offset="0" style="stop-color:#281757"/>
						<stop  offset="0.16" style="stop-color:#301961"/>
						<stop  offset="0.43" style="stop-color:#441D7B"/>
						<stop  offset="0.78" style="stop-color:#6525A6"/>
						<stop  offset="1" style="stop-color:#7C2AC4"/>
					</linearGradient>
					<path class="st28" d="M1671.4,305c3.4-0.1,8.8,1.9,16.9-13.3s29.4-16.3,35.1-16.2s13.6,0.3,15.7,8.3s-4,13.2-4,13.8
						s3.3,10.1,2,12.6s-10.4,0.9-10.4,0.9l-2,7.4c-9.6-3.7-19.7-5.9-30-6.4c-16-0.3-21.7-4.8-22.2-5.1
						C1672.1,306.3,1671.8,305.7,1671.4,305z"/>
					<path class="st29" d="M1691.1,311.6c0,0,3.4,19.3,13.1,24.9s18.7-2.5,19.6-3.7s4.8-5.3,4.9-8.1c0.1-1.3,0.1-2.7,0-4
						c0,0,8.8-0.9,8.7-7.4c0.2-4.2-3.1-7.8-7.3-8.1c-0.6,0-1.1,0-1.7,0.1c-3,0.7-7,6.7-6,9c1.5,3.3-3.8,1.3-6.4-2.4
						c-1.4-2-2.1-4.3-2.1-6.7c0,0-7.6,4.5-12.6,5.6C1697.9,311.4,1694.5,311.6,1691.1,311.6z"/>
				</g>
				<g id="Девушка">
					
						<linearGradient id="SVGID_23_" gradientUnits="userSpaceOnUse" x1="19624.7109" y1="2879.6599" x2="19616.7793" y2="2740.5" gradientTransform="matrix(-1 0 0 -1 20851.3105 3158)">
						<stop  offset="0" style="stop-color:#FFB770"/>
						<stop  offset="0.37" style="stop-color:#FFAE7A"/>
						<stop  offset="1" style="stop-color:#FF9594"/>
					</linearGradient>
					<path class="st30" d="M1309.5,289.6c0,0-2.7-25.4-10.6-37.1s-61.1-19.3-71.6-19.7s-55.5-0.7-65.7,6.8s-20.2,16.1-16.9,41.2
						s17.3,105.9,17.3,105.9l120.4,10.8L1309.5,289.6z"/>
					<g id="стул-3">
						<path class="st10" d="M1215.3,431.8c-17.7,7-21.3,9.9-23.6,13.8s-5.6,10.3,1.3,17.7s10.5,7.9,17.3,8.5s61.2,3,61.2,3v148.5
							h-45.7l1.3,9h106v-9.1l-46.7,0.2V469L1215.3,431.8z"/>
						<circle class="st10" cx="1279.3" cy="629.4" r="12.7"/>
						<circle class="st10" cx="1221.4" cy="629.4" r="12.7"/>
						<circle class="st10" cx="1337.3" cy="629.4" r="12.7"/>
					</g>
					<path class="st12" d="M1356.3,614.3v29.2c0,0-0.9,2.5,3.7,2.9s43.2,0,43.2,0s5.9-0.4,0.6-3.5s-24.3-14.4-24.3-14.4
						s-2.4-1.3-2.4-5.1v-6.7L1356.3,614.3z"/>
					<path class="st12" d="M1316.9,614.3v29.2c0,0-0.9,2.5,3.6,2.9s43.2,0,43.2,0s5.9-0.4,0.6-3.5s-24.2-14.4-24.2-14.4
						s-2.4-1.3-2.4-5.1v-6.7L1316.9,614.3z"/>
					<g>
						<defs>
							<path id="SVGID_24_" d="M1246.6,435.1c0,0,15.8,26.6,54.2,35.3c33.4,7.7,41.2,5.6,41.2,5.6s-0.5,46.8,2.4,73
								s8.8,68.6,8.8,68.6h25.4c0,0,10.7-103.3,11.9-115.7s4-34.2-1.7-46.5c-3.3-7.3-7.8-14.1-13.1-20.2L1246.6,435.1z"/>
						</defs>
						<clipPath id="SVGID_25_">
							<use xlink:href="#SVGID_24_"  style="overflow:visible;"/>
						</clipPath>
						<g class="st31">
							<path class="st14" d="M1249.9,435.1c0,0,14.5,29,53.8,33.2s35.8,2.3,35.8,2.3s-0.9,51.9,2.1,78s8.5,71.4,8.5,71.4l35.2,0.7
								c0,0,15.3-117.7,16.5-130s-1.5-32.8-7.1-45.1s-7-10.6-7-10.6L1249.9,435.1z"/>
							
								<linearGradient id="SVGID_26_" gradientUnits="userSpaceOnUse" x1="19356.0215" y1="2550.137" x2="19523.4414" y2="2658.0769" gradientTransform="matrix(-1 0 0 -1 20851.3105 3158)">
								<stop  offset="0" style="stop-color:#FF4BC4"/>
								<stop  offset="1" style="stop-color:#604FC4;stop-opacity:0"/>
							</linearGradient>
							<path class="st32" d="M1252.3,434.6c0,0,9.4,37,48.7,41.3l39.3,4.2c0,0,0.6,41.9,3.7,67.9s6,72,6,72l37.7-1.9
								c0,0,15.4-116.5,16.5-128.9s-1.6-31.7-7.1-44s-7-10.6-7-10.6L1252.3,434.6z"/>
						</g>
					</g>
					<g>
						<defs>
							<path id="SVGID_27_" d="M1208.5,435.1c0,0,15.8,26.6,54.2,35.3c33.4,7.7,41.2,5.6,41.2,5.6s-0.5,46.8,2.4,73
								s8.8,68.6,8.8,68.6h25.4c0,0,12.6-103.3,13.8-115.7s4.5-40.8-1.2-53.2s-10.5-13.4-10.5-13.4L1208.5,435.1z"/>
						</defs>
						<clipPath id="SVGID_28_">
							<use xlink:href="#SVGID_27_"  style="overflow:visible;"/>
						</clipPath>
						<g class="st33">
							<path class="st14" d="M1208.5,435.1c0,0,6,39,45.2,43.1s38.4,6.5,38.4,6.5s4.9,37.9,8,64s14.5,69.7,14.5,69.7l25.9-0.7
								c0,0,18.6-114.3,19.6-126.6s-1.5-32.8-7.1-45.1s-7-10.6-7-10.6L1208.5,435.1z"/>
							
								<linearGradient id="SVGID_29_" gradientUnits="userSpaceOnUse" x1="19398.832" y1="2551.0769" x2="19566.2617" y2="2659.0371" gradientTransform="matrix(-1 0 0 -1 20851.3105 3158)">
								<stop  offset="0" style="stop-color:#FF4BC4"/>
								<stop  offset="1" style="stop-color:#604FC4;stop-opacity:0"/>
							</linearGradient>
							<path class="st34" d="M1208.5,435.1c0,0,14.5,29,53.8,33.2s35.8,2.3,35.8,2.3s-0.9,51.9,2.1,78s8.2,68.9,8.2,68.9l35.5,1.3
								c0,0,15.4-116.5,16.5-128.9s-1.6-31.7-7.1-44s-7-10.6-7-10.6L1208.5,435.1L1208.5,435.1z"/>
						</g>
					</g>
					
						<linearGradient id="SVGID_30_" gradientUnits="userSpaceOnUse" x1="19574.4531" y1="2919.8743" x2="19679.5137" y2="2835.3042" gradientTransform="matrix(-1 0 0 -1 20851.3105 3158)">
						<stop  offset="0" style="stop-color:#281757"/>
						<stop  offset="0.16" style="stop-color:#301961"/>
						<stop  offset="0.43" style="stop-color:#441D7B"/>
						<stop  offset="0.78" style="stop-color:#6525A6"/>
						<stop  offset="1" style="stop-color:#7C2AC4"/>
					</linearGradient>
					<path class="st35" d="M1294.9,279.5c-3.8-6-7.6-12.2-6.3-17s13.1-25.2,9.4-43s-23.1-27.4-34.2-29.2s-28.7-3.1-39.5,10.1
						s-14.8,32.7-14.3,43.2s-6,24.4-21.5,34.6s-27.5,26.3-24,58s54.2,29.4,54.2,29.4L1294.9,279.5z"/>
					<g>
						<defs>
							<path id="SVGID_31_" d="M1328.4,306.9c-3.8-15.5-25.3-30.5-48.1-33.5s-47.3-0.7-57.8,1.6s-26.9,15.1-27.9,37.4
								s-2.1,48.8,4,56.7s4.2,8.8,41.2,7.9s71.4,0,71.4,0L1328.4,306.9z"/>
						</defs>
						<clipPath id="SVGID_32_">
							<use xlink:href="#SVGID_31_"  style="overflow:visible;"/>
						</clipPath>
						<g class="st36">
							<path class="st23" d="M1326.8,306.9c-3.8-15.5-25.3-30.5-48.1-33.5s-47.3-0.7-57.8,1.6s-26.9,15.1-27.9,37.4
								s-2.1,48.8,4,56.7s4.2,8.8,41.2,7.9s71.4,0,71.4,0L1326.8,306.9z"/>
							
								<linearGradient id="SVGID_33_" gradientUnits="userSpaceOnUse" x1="19623.0039" y1="2774.6519" x2="19587.5332" y2="2837.3721" gradientTransform="matrix(-1 0 0 -1 20851.3105 3158)">
								<stop  offset="0" style="stop-color:#6086C4"/>
								<stop  offset="1" style="stop-color:#00AFE4;stop-opacity:0"/>
							</linearGradient>
							<path class="st37" d="M1328.4,306.9c-3.8-15.5-25.3-30.5-48.1-33.5s-47.3-0.7-57.8,1.6s-26.9,15.1-27.9,37.4
								s-2.1,48.8,4,56.7s4.2,8.8,41.2,7.9s71.4,0,71.4,0L1328.4,306.9z"/>
							
								<linearGradient id="SVGID_34_" gradientUnits="userSpaceOnUse" x1="19604.5078" y1="2787.481" x2="19657.2988" y2="2890.8311" gradientTransform="matrix(-1 0 0 -1 20851.3105 3158)">
								<stop  offset="0" style="stop-color:#60E5C4"/>
								<stop  offset="0.57" style="stop-color:#608AC4;stop-opacity:3.000000e-02"/>
								<stop  offset="1" style="stop-color:#6086C4;stop-opacity:0"/>
							</linearGradient>
							<path class="st38" d="M1302.4,366.2c-8.1-6.2-22.6,1.4-23.4,0s-55.1-15.5-55.5-18s10.2-42.5,10.2-42.5l-36.9-8.9l-10.3,4.7
								c0,0,2.7,42.5,2.7,45.1s3.3,30.5,3.3,30.5s15.3,10.9,28.2,10.4s72-1.1,72-1.1L1302.4,366.2z"/>
						</g>
					</g>
					
						<linearGradient id="SVGID_35_" gradientUnits="userSpaceOnUse" x1="19449.1445" y1="2831.4089" x2="19602.2949" y2="2785.6589" gradientTransform="matrix(-1 0 0 -1 20851.3105 3158)">
						<stop  offset="0" style="stop-color:#281757"/>
						<stop  offset="0.16" style="stop-color:#301961"/>
						<stop  offset="0.43" style="stop-color:#441D7B"/>
						<stop  offset="0.78" style="stop-color:#6525A6"/>
						<stop  offset="1" style="stop-color:#7C2AC4"/>
					</linearGradient>
					<path class="st39" d="M1250.6,377.6h145.1c3.8,0,6.8-3,6.8-6.8l0,0l0,0l7.9-57.3c0-3.8-3-6.8-6.8-6.8h-99.1
						c-3.8,0-6.8,3-6.8,6.8v0l0,0l-7.2,58.7l-35.5,0.1c-2.4,0-4.2,2-4.2,4.3c0,0,0,0,0,0v0.1L1250.6,377.6L1250.6,377.6z"/>
					
						<linearGradient id="SVGID_36_" gradientUnits="userSpaceOnUse" x1="19592.5605" y1="2874.5901" x2="19592.5605" y2="2916.26" gradientTransform="matrix(-1 0 0 -1 20851.3105 3158)">
						<stop  offset="0" style="stop-color:#FFCD98"/>
						<stop  offset="0.35" style="stop-color:#FFC397"/>
						<stop  offset="0.94" style="stop-color:#FFA994"/>
						<stop  offset="1" style="stop-color:#FFA694"/>
					</linearGradient>
					<path class="st40" d="M1268.4,255.2l3.8,19.3l-4.9,8.8l-21.8-11c0,0,3.5-27.4,5.2-30.1S1268.4,255.2,1268.4,255.2z"/>
					<path class="st29" d="M1281.2,239.6c0,0-5.9,16.8-12.1,19.5s-12.6-5.4-13.2-5.9s-6.5-7.4-6.5-7.4l0.2-2.8l-2-0.4
						c-0.3-0.1-0.5-0.4-0.4-0.7c0,0,0,0,0,0l0,0l0,0c0-0.1,0-0.2,0.1-0.2l3.8-4.4c1-1,1.8-2.1,2.4-3.4l2.4-3.9
						c0.4-0.5,1.1-0.6,1.7-0.3l9.2,5.1c1.5,1,3.2,1.7,4.9,2.2L1281.2,239.6z"/>
					<polygon class="st41" points="1275.5,272.5 1277.1,292.5 1267.9,284.3 1261.1,295.1 1242.1,272.4 1244.8,271.6 1267.2,283.3 
						1272.1,271.6 					"/>
				</g>
				<path id="Стол" class="st10" d="M1835.4,639.2h-2.9c-1.9,0-3.5-2.2-3.5-5l-0.7-147c0-2.8-1.6-5-3.5-5l-281.3-0.5
					c-1.9,0-3.5,2.2-3.5,5l-0.7,147.9c0,2.8-1.6,5.1-3.6,5l-3.2-0.1c-1.9,0-3.4-2.3-3.4-5v-193c0-2.8,1.6-5,3.5-5h302.6
					c1.9,0,3.5,2.2,3.5,5v192.8C1838.9,637,1837.3,639.2,1835.4,639.2z"/>
				<path id="Стол-2" class="st10" d="M1482.6,642h-3.2c-2.1,0-3.8-2.9-3.8-6.4l-0.9-193.5c0-3.6-1.7-6.4-3.8-6.4l-311.1-0.7
					c-2.1,0-3.8,2.8-3.8,6.4l-0.9,194.6c0,3.6-1.8,6.5-3.9,6.4l-3.5-0.1c-2.1-0.1-3.7-2.9-3.7-6.5V384.2c0-3.6,1.7-6.5,3.8-6.5
					h334.7c2.1,0,3.8,2.9,3.8,6.5v251.4C1486.4,639,1484.7,642,1482.6,642z"/>
				<path class="st5" d="M489.9,105.6c0.6,4.3,2,7.3,4,8.9s5,2.5,8.7,2.5c3.8,0.1,7.5-1.7,9.8-4.8c2.5-3.1,3.5-7.7,3.8-13.3h-20.4
					v-5.7h20.4c0-5.7-1.2-10-3.8-13.3c-2.3-3.2-6.1-5.1-10.1-5c-3.5,0-6.3,0.8-8.3,2.7c-2.3,2.4-3.6,5.6-3.8,8.9h-6.9
					c0.6-5.4,2.5-9.5,5.8-12.7s7.7-4.6,13.3-4.6c3.9,0,7.7,1,11,2.9c3.3,2,5.8,5,7.2,8.6c1.7,4,2.6,8.3,2.5,12.7v5.2
					c0.1,4.4-0.8,8.7-2.5,12.7c-1.6,3.5-4,6.4-7.1,8.6c-3.2,2-6.9,3-10.6,2.9c-5.7,0-10.1-1.4-13.5-4.3s-5.4-7.3-6-12.7h6.4v-0.3
					L489.9,105.6z M572.5,122h-6.9V75.9H540V122h-6.9V70.2h39.4V122z M624.8,97.7c0.1,4.6-0.8,9.1-2.5,13.3
					c-3,7.4-10.3,12-18.2,11.6c-3.8,0-7.6-1-10.9-2.9c-3.2-2-5.8-5-7.3-8.6c-1.8-4.1-2.7-8.5-2.7-12.9v-3.7c-0.1-4.5,0.8-9,2.5-13.2
					c3.1-7.3,10.2-12,18.1-11.8c3.9,0,7.7,1.1,11,3.1c3.2,2.1,5.8,5.1,7.3,8.7c1.8,4.2,2.7,8.7,2.5,13.3v2.9h0.1L624.8,97.7z
					 M618.1,94.3c0-6.3-1.2-10.9-3.7-14.1c-2.4-3.3-6.3-5.2-10.4-5c-4-0.1-7.8,1.7-10.1,5c-2.5,3.4-3.7,8-3.7,13.8v3.8
					c0,6,1.2,10.6,3.7,14.1c2.4,3.3,6.3,5.2,10.4,5c4.3,0,8-1.7,10.1-4.8c2.5-3.1,3.7-8,3.7-13.8V94.3z M673.1,105.6
					c-0.6,5.4-2.7,9.8-6,12.7s-8,4.3-13.5,4.3c-5.7,0.2-11.1-2.3-14.8-6.6c-3.7-4.3-5.4-10.1-5.4-17.8v-5c-0.1-4.4,0.8-8.7,2.5-12.7
					c1.5-3.5,4-6.4,7.3-8.3c3.3-2,7.1-3,11-2.9c5.4,0,10,1.4,13.3,4.6s5.2,7.2,5.8,12.7h-6.8c-0.6-4.1-1.9-7.1-4-8.9
					s-4.8-2.7-8.3-2.7c-4-0.1-7.7,1.7-10.1,4.8c-2.5,3.1-3.7,8-3.7,13.8v4.9c0,5.7,1.2,10,3.5,13.3c2.2,3.3,5.9,5.2,9.8,5
					c3.8,0,6.6-0.8,8.7-2.5s3.4-4.8,4-8.9h6.9L673.1,105.6L673.1,105.6z"/>
				<path class="st42" d="M390.7,213.8c-2.6,15.7-3.8,19.9-11.5,26.3c-9.5,7.5-121.4,26.9-121.9-60.1c-0.4-91,66.2-117.7,76.2-122.6
					c10.4-4.9,14.6-1.5,13.7,10.4l20.1,13.7c0,0-0.7,5.7,0,7.3c3.5,6.4,21,15.9,21,15.9c0,4.2-9.9,23.2-32.5,16.8
					c-8.4-2.2-32.7-0.4-3.5,30"/>
				<path class="st43" d="M432.6,141.1l-25.2,48.4h-51"/>
				<path class="st44" d="M374.3,177.4c0-21.6,14.6-32.5,35.8-21.6"/>
				<path class="st44" d="M361.3,176.5c-1.1-31.1,26.9-49,55.6-33.8"/>
				<path class="st44" d="M387.6,176.9c0-9.5,4.6-15.7,17.2-9.9"/>
				<path class="st5" d="M1584.4,61.4h-5.5v15.2h-2.2V61.4h-5.5v-1.8h13.2V61.4z M1590.6,76.8c-1.6,0.1-3.1-0.6-4.2-1.7
					c-1.1-1.2-1.7-2.9-1.6-4.5v-0.4c0-1.2,0.2-2.3,0.7-3.4c0.4-0.9,1.1-1.7,2-2.3c0.8-0.6,1.8-0.8,2.8-0.8c1.5-0.1,2.9,0.5,3.8,1.6
					c1,1.3,1.5,3,1.4,4.7v0.9h-8.6c0,1.1,0.4,2.2,1.1,3c0.7,0.8,1.7,1.2,2.7,1.2c0.7,0,1.3-0.1,1.9-0.5c0.5-0.3,1-0.7,1.4-1.2l1.3,1
					C1594.4,75.9,1592.6,76.9,1590.6,76.8z M1590.4,65.4c-0.8,0-1.6,0.4-2.2,1c-0.6,0.7-1,1.7-1.1,2.7h6.4V69c0-0.9-0.3-1.8-0.9-2.6
					C1592,65.8,1591.2,65.4,1590.4,65.4z M1608.5,63.9v12.7h-2.2V65.7h-4.3l-0.3,4.7c0,1.6-0.4,3.2-1.1,4.7
					c-0.6,0.9-1.7,1.5-2.8,1.5h-0.8v-1.9h0.6c0.7-0.1,1.3-0.6,1.5-1.2c0.4-1.3,0.6-2.7,0.6-4.1l0.2-5.4L1608.5,63.9z M1617.2,76.8
					c-1.6,0.1-3.1-0.6-4.2-1.7c-1.1-1.2-1.7-2.9-1.6-4.5v-0.4c0-1.2,0.2-2.3,0.7-3.4c0.4-0.9,1.1-1.7,2-2.3c0.8-0.6,1.8-0.8,2.8-0.8
					c1.5-0.1,2.9,0.5,3.8,1.6c1,1.3,1.5,3,1.4,4.7v0.9h-8.6c0,1.1,0.4,2.2,1.1,3c0.7,0.8,1.7,1.2,2.7,1.2c0.7,0,1.3-0.1,1.9-0.5
					c0.5-0.3,1-0.7,1.4-1.2l1.3,1C1621,75.9,1619.2,76.9,1617.2,76.8z M1617,65.4c-0.8,0-1.6,0.4-2.2,1c-0.6,0.7-1,1.7-1.1,2.7h6.3
					V69c0-0.9-0.3-1.8-0.9-2.6C1618.6,65.8,1617.8,65.4,1617,65.4z M1624.3,70.4c-0.1-1.8,0.3-3.5,1.2-5c0.7-1.2,2-1.9,3.4-1.8
					c0.6,0,1.2,0.1,1.8,0.3v-5.4h2.2v5.5c0.6-0.3,1.3-0.4,1.9-0.4c1.4,0,2.7,0.7,3.4,1.8c0.9,1.6,1.4,3.4,1.2,5.2
					c0.1,1.6-0.3,3.1-1.2,4.5c-0.8,1.1-2,1.7-3.4,1.7c-0.7,0-1.3-0.1-1.9-0.4v5h-2.2v-5c-0.6,0.2-1.2,0.4-1.8,0.3
					c-1.3,0-2.6-0.6-3.4-1.7c-0.9-1.3-1.3-2.9-1.2-4.5L1624.3,70.4z M1637.2,70.4c0.1-1.3-0.2-2.6-0.8-3.7c-0.4-0.8-1.3-1.3-2.3-1.3
					c-0.4,0-0.9,0.1-1.3,0.2v9.2c0.4,0.1,0.9,0.2,1.3,0.2c0.9,0,1.7-0.4,2.3-1.1C1636.9,72.9,1637.2,71.7,1637.2,70.4L1637.2,70.4z
					 M1626.4,70.7c-0.1,1.1,0.2,2.3,0.8,3.2c0.5,0.7,1.3,1.1,2.2,1.1c0.4,0,0.8-0.1,1.2-0.2v-9.2c-0.4-0.1-0.8-0.2-1.2-0.2
					c-0.9,0-1.8,0.5-2.2,1.3C1626.6,67.9,1626.3,69.3,1626.4,70.7L1626.4,70.7z M1641.6,70.1c0-1.2,0.2-2.3,0.7-3.3
					c0.4-0.9,1.1-1.7,2-2.3c0.9-0.5,1.9-0.8,3-0.8c1.6-0.1,3.1,0.6,4.2,1.8c1.1,1.3,1.7,3,1.6,4.8v0.2c0,1.2-0.2,2.3-0.7,3.3
					c-0.4,0.9-1.1,1.7-2,2.3c-0.9,0.5-1.9,0.8-3,0.8c-1.6,0.1-3.1-0.6-4.2-1.8c-1.1-1.3-1.7-3-1.6-4.8L1641.6,70.1z M1643.8,70.3
					c-0.1,1.2,0.3,2.4,1,3.4c1.1,1.4,3.2,1.7,4.7,0.6c0.2-0.2,0.4-0.4,0.6-0.6c0.7-1.1,1.1-2.3,1-3.6c0.1-1.2-0.3-2.4-1-3.4
					c-1.1-1.4-3.2-1.7-4.6-0.6c-0.2,0.2-0.4,0.4-0.6,0.6C1644,67.8,1643.7,69.1,1643.8,70.3L1643.8,70.3z M1666.2,76.5h-2.2v-5.4
					h-5.8v5.4h-2.2V63.9h2.2v5.5h5.8v-5.5h2.2L1666.2,76.5z M1672.1,68.2h3.3c1.2-0.1,2.4,0.3,3.4,1.1c0.8,0.8,1.3,1.9,1.3,3
					c0,1.1-0.4,2.2-1.3,3c-1,0.8-2.2,1.2-3.5,1.1h-5.4V63.9h2.1L1672.1,68.2z M1684.5,76.5h-2.2V63.9h2.2V76.5z M1672,70v4.8h3.2
					c0.7,0,1.4-0.2,1.9-0.6c0.5-0.5,0.7-1.1,0.7-1.7c0-0.6-0.2-1.3-0.7-1.7c-0.5-0.5-1.1-0.7-1.8-0.7L1672,70z M1704.9,70.3
					c0.1,1.7-0.4,3.3-1.3,4.7c-0.8,1.2-2.2,1.8-3.6,1.8c-1.4,0.1-2.7-0.5-3.6-1.5v6.1h-2.2V63.9h2l0.1,1.4c0.9-1.1,2.3-1.7,3.7-1.6
					c1.4-0.1,2.8,0.6,3.6,1.7c1,1.4,1.4,3.1,1.3,4.8L1704.9,70.3z M1702.8,70.1c0.1-1.2-0.3-2.4-0.9-3.4c-0.6-0.8-1.5-1.3-2.5-1.2
					c-1.3-0.1-2.4,0.6-3,1.8v6c0.6,1.1,1.7,1.8,3,1.7c1,0,1.9-0.4,2.5-1.2C1702.5,72.7,1702.8,71.4,1702.8,70.1L1702.8,70.1z
					 M1713,76.8c-1.6,0.1-3.1-0.6-4.2-1.7c-1.1-1.2-1.7-2.9-1.6-4.5v-0.4c0-1.2,0.2-2.3,0.7-3.4c0.4-0.9,1.1-1.7,2-2.3
					c0.8-0.5,1.8-0.8,2.8-0.8c1.5-0.1,2.9,0.5,3.8,1.6c1,1.3,1.5,3,1.4,4.7v0.9h-8.6c0,1.1,0.4,2.2,1.1,3c0.7,0.8,1.7,1.2,2.7,1.2
					c0.7,0,1.4-0.1,2-0.5c0.5-0.3,1-0.7,1.4-1.2l1.3,1C1716.8,76,1714.9,76.9,1713,76.8z M1712.7,65.4c-0.8,0-1.6,0.4-2.2,1
					c-0.6,0.8-1,1.7-1.1,2.7h6.3V69c0-0.9-0.3-1.8-0.9-2.6C1714.3,65.8,1713.5,65.4,1712.7,65.4L1712.7,65.4z M1728.7,65.7h-5.8
					v10.9h-2.2V63.9h8L1728.7,65.7z M1738.8,63.9h2.2v12.7h-2.2v-9.2l-5.8,9.2h-2.2V63.9h2.2v9.3L1738.8,63.9z M1743.8,70.1
					c0-1.2,0.2-2.3,0.7-3.3c0.4-0.9,1.1-1.7,2-2.3c0.9-0.5,1.9-0.8,3-0.8c1.6-0.1,3.1,0.6,4.2,1.8c1.1,1.3,1.7,3,1.6,4.8v0.2
					c0,1.2-0.2,2.3-0.7,3.3c-0.4,0.9-1.1,1.7-2,2.3c-0.9,0.6-1.9,0.8-3,0.8c-1.6,0.1-3.2-0.6-4.2-1.8c-1.1-1.3-1.7-3-1.6-4.8
					L1743.8,70.1z M1746,70.4c-0.1,1.2,0.3,2.4,1,3.4c1.1,1.4,3.2,1.7,4.7,0.6c0.2-0.2,0.4-0.4,0.6-0.6c0.7-1.1,1.1-2.3,1-3.6
					c0.1-1.2-0.3-2.4-1-3.4c-1.1-1.4-3.2-1.7-4.6-0.6c-0.2,0.2-0.4,0.4-0.6,0.6C1746.3,67.8,1745.9,69.1,1746,70.4z M1768.4,76.6
					h-2.2v-5.4h-5.8v5.4h-2.2V63.9h2.2v5.5h5.8v-5.5h2.2V76.6z M1779.8,76.6c-0.2-0.4-0.3-0.9-0.3-1.3c-0.9,1-2.2,1.6-3.6,1.6
					c-1.1,0-2.2-0.3-3.1-1.1c-0.8-0.7-1.2-1.7-1.2-2.7c-0.1-1.2,0.5-2.4,1.5-3.1c1.3-0.8,2.8-1.2,4.3-1.1h2.1v-1
					c0-0.7-0.2-1.3-0.7-1.8c-0.5-0.5-1.3-0.7-2-0.7c-0.7,0-1.4,0.2-1.9,0.6c-0.5,0.3-0.8,0.8-0.8,1.4h-2.2c0-0.7,0.2-1.3,0.7-1.8
					c0.5-0.6,1.1-1.1,1.8-1.4c0.8-0.4,1.7-0.5,2.5-0.5c1.2-0.1,2.5,0.3,3.4,1.1c0.8,0.8,1.3,1.9,1.3,3v5.8c0,0.9,0.1,1.9,0.4,2.8
					v0.2L1779.8,76.6z M1776.2,74.9c0.7,0,1.3-0.2,1.9-0.5c0.6-0.3,1-0.8,1.3-1.4v-2.6h-1.7c-2.7,0-4,0.8-4,2.3
					c0,0.6,0.2,1.2,0.7,1.6C1774.9,74.7,1775.5,75,1776.2,74.9L1776.2,74.9z M1795.4,63.9v12.7h-2.2V65.7h-4.3l-0.3,4.7
					c0,1.6-0.4,3.2-1.1,4.7c-0.6,0.9-1.7,1.5-2.8,1.5h-0.9v-1.9h0.6c0.7-0.1,1.3-0.6,1.5-1.2c0.4-1.3,0.6-2.7,0.6-4.1l0.2-5.4
					L1795.4,63.9z M1801.2,68.3h3.3c1.2-0.1,2.4,0.3,3.4,1.1c0.8,0.8,1.3,1.9,1.3,3c0,1.1-0.4,2.2-1.3,3c-1,0.8-2.2,1.2-3.5,1.1
					h-5.4V63.9h2.2L1801.2,68.3z M1801.2,70.1v4.8h3.2c0.7,0,1.4-0.2,1.9-0.6c0.5-0.4,0.7-1.1,0.7-1.7c0-0.6-0.2-1.3-0.7-1.7
					c-0.5-0.5-1.1-0.7-1.8-0.7L1801.2,70.1z M1822.2,76.6h-2.2v-5.4h-5.8v5.4h-2.2V63.9h2.2v5.5h5.8v-5.5h2.2V76.6z M1825.1,70.2
					c0-1.2,0.2-2.3,0.7-3.3c0.4-0.9,1.1-1.7,2-2.3c0.9-0.5,1.9-0.8,3-0.8c1.6-0.1,3.1,0.6,4.2,1.8c1.1,1.3,1.7,3,1.6,4.8v0.2
					c0,1.2-0.2,2.3-0.7,3.3c-0.4,0.9-1.1,1.7-2,2.3c-0.9,0.5-1.9,0.8-3,0.8c-1.6,0.1-3.1-0.6-4.2-1.8c-1.1-1.3-1.7-3-1.6-4.8
					L1825.1,70.2z M1827.3,70.4c-0.1,1.2,0.3,2.4,1,3.4c1.1,1.4,3.2,1.7,4.7,0.6c0.2-0.2,0.4-0.4,0.6-0.6c0.7-1.1,1.1-2.3,1-3.6
					c0.1-1.2-0.3-2.4-1-3.4c-1.1-1.4-3.2-1.7-4.6-0.6c-0.2,0.2-0.4,0.4-0.6,0.6C1827.6,67.8,1827.3,69.1,1827.3,70.4L1827.3,70.4z
					 M1847.6,63.9h2.2v12.7h-2.2v-9.2l-5.8,9.2h-2.2V63.9h2.2v9.3L1847.6,63.9z M1848.2,59.3c0,0.9-0.3,1.7-1,2.3
					c-1.5,1.2-3.6,1.2-5.1,0c-0.7-0.6-1-1.4-1-2.3h1.9c0,0.5,0.1,0.9,0.4,1.3c0.7,0.7,1.8,0.7,2.5,0c0.3-0.3,0.5-0.8,0.5-1.3
					L1848.2,59.3z M1867.4,65.7h-5.8v10.9h-2.2V63.9h8L1867.4,65.7z M1868.5,70.2c0-1.2,0.2-2.3,0.7-3.3c0.4-0.9,1.1-1.7,2-2.3
					c0.9-0.6,1.9-0.8,3-0.8c1.6-0.1,3.1,0.6,4.2,1.8c1.1,1.3,1.7,3,1.6,4.8v0.2c0,1.1-0.2,2.3-0.7,3.3c-0.4,0.9-1.1,1.7-2,2.3
					c-0.9,0.6-1.9,0.8-3,0.8c-1.6,0.1-3.1-0.6-4.2-1.8c-1.1-1.3-1.7-3-1.6-4.8L1868.5,70.2z M1870.7,70.4c-0.1,1.2,0.3,2.4,1,3.4
					c0.6,0.8,1.6,1.3,2.6,1.3c1,0,2-0.5,2.6-1.3c0.7-1.1,1.1-2.3,1-3.6c0.1-1.2-0.3-2.4-1-3.4c-1.1-1.4-3.2-1.7-4.6-0.6
					c-0.2,0.2-0.4,0.4-0.6,0.6C1871,67.8,1870.6,69.1,1870.7,70.4L1870.7,70.4z M1893.4,70.4c0.1,1.7-0.4,3.3-1.3,4.7
					c-0.8,1.2-2.2,1.8-3.6,1.8c-1.4,0.1-2.7-0.5-3.6-1.5v6.1h-2.2V63.9h2l0.1,1.4c0.9-1.1,2.3-1.7,3.7-1.6c1.4-0.1,2.8,0.6,3.6,1.7
					c1,1.4,1.4,3.1,1.3,4.8L1893.4,70.4z M1891.3,70.2c0.1-1.2-0.3-2.4-0.9-3.4c-0.6-0.8-1.5-1.3-2.5-1.2c-1.2,0-2.4,0.6-2.9,1.8v6
					c0.6,1.1,1.7,1.8,3,1.7c1,0,1.9-0.4,2.5-1.2C1891.1,72.7,1891.4,71.4,1891.3,70.2L1891.3,70.2z M1905.9,63.9v12.7h-2.2v-4.9
					h-3.3l-3,4.9h-2.3l3.2-5.3c-1.5-0.5-2.6-1.9-2.5-3.6c0-1.1,0.4-2.1,1.3-2.8c1-0.8,2.2-1.1,3.5-1.1L1905.9,63.9z M1898,67.8
					c0,0.6,0.2,1.1,0.6,1.5c0.5,0.4,1.1,0.6,1.7,0.6h3.4v-4.2h-3.1c-0.7,0-1.4,0.2-1.9,0.6C1898.2,66.6,1898,67.2,1898,67.8z
					 M1919,76.6h-2.2V72c-1,0.2-1.9,0.4-2.9,0.4c-1.3,0.1-2.6-0.3-3.6-1.2c-0.9-0.9-1.3-2.2-1.3-3.5v-3.8h2.2v3.9
					c0,1.9,0.9,2.8,2.7,2.8c1,0,2-0.1,2.9-0.4v-6.3h2.2V76.6z M1927.7,76.8c-1.6,0.1-3.1-0.6-4.2-1.7c-1.1-1.2-1.7-2.9-1.6-4.5v-0.4
					c0-1.2,0.2-2.3,0.7-3.4c0.4-0.9,1.1-1.7,2-2.3c0.8-0.6,1.8-0.8,2.8-0.8c1.5-0.1,2.9,0.5,3.8,1.6c1,1.3,1.5,3,1.4,4.7v0.9h-8.6
					c0,1.1,0.4,2.2,1.1,3c0.7,0.8,1.7,1.2,2.7,1.2c0.7,0,1.4-0.1,2-0.5c0.5-0.3,1-0.7,1.4-1.2l1.3,1
					C1931.5,76,1929.7,76.9,1927.7,76.8L1927.7,76.8z M1927.5,65.4c-0.8,0-1.7,0.4-2.2,1c-0.6,0.8-1,1.7-1.1,2.7h6.3V69
					c0-0.9-0.3-1.8-0.9-2.6C1929.1,65.8,1928.3,65.4,1927.5,65.4L1927.5,65.4z M1943.4,63.9h2.2v12.7h-2.2v-9.2l-5.8,9.2h-2.2V63.9
					h2.2v9.3L1943.4,63.9z M1944,59.3c0,0.9-0.3,1.7-1,2.3c-1.5,1.2-3.6,1.2-5.1,0c-0.7-0.6-1-1.4-1-2.3h1.8c0,0.5,0.1,0.9,0.4,1.3
					c0.8,0.6,1.8,0.6,2.6,0c0.3-0.3,0.5-0.8,0.5-1.3L1944,59.3z M1965.4,63.9v12.7h-2.2V65.7h-4.3l-0.3,4.7c0,1.6-0.4,3.2-1.1,4.7
					c-0.6,0.9-1.7,1.5-2.8,1.5h-0.9v-1.9h0.6c0.7-0.1,1.3-0.6,1.5-1.2c0.4-1.3,0.6-2.7,0.6-4.1l0.2-5.4L1965.4,63.9z M1977.1,63.9
					h2.2v12.7h-2.2v-9.2l-5.8,9.2h-2.2V63.9h2.2v9.3L1977.1,63.9z M1993.1,76.6h-2.2v-5.4h-5.8v5.4h-2.2V63.9h2.2v5.5h5.8v-5.5h2.2
					V76.6z M2004.8,63.9h2.2v12.7h-2.2v-9.2l-5.8,9.2h-2.2V63.9h2.2v9.3L2004.8,63.9z M2018.6,63.9h2.2v12.7h-2.2v-9.2l-5.8,9.2
					h-2.2V63.9h2.2v9.3L2018.6,63.9z M2024.2,75.5c0-0.3,0.1-0.7,0.3-0.9c0.6-0.5,1.4-0.5,2,0c0.2,0.3,0.4,0.6,0.3,0.9
					c0,0.3-0.1,0.7-0.3,0.9c-0.6,0.5-1.4,0.5-2,0C2024.3,76.1,2024.2,75.8,2024.2,75.5L2024.2,75.5z M2024.2,65.1
					c0-0.3,0.1-0.7,0.3-0.9c0.5-0.6,1.4-0.6,1.9-0.1c0.3,0.3,0.4,0.6,0.4,1c0,0.3-0.1,0.7-0.3,0.9c-0.6,0.5-1.4,0.5-2,0
					C2024.3,65.8,2024.2,65.4,2024.2,65.1L2024.2,65.1z M1814.7,93.1c0-0.3,0.1-0.7,0.3-0.9c0.6-0.5,1.4-0.5,2,0
					c0.2,0.3,0.4,0.6,0.3,0.9c0,0.3-0.1,0.7-0.3,0.9c-0.6,0.5-1.4,0.5-2,0C1814.8,93.8,1814.7,93.4,1814.7,93.1L1814.7,93.1z
					 M1648.7,102.9l0.8-0.9c1-1.5,1.5-3.2,1.4-4.9l0.2-5.1h8.2v10.9h1.6v5.5h-2.2v-3.7h-8.8v3.7h-2.2v-5.5H1648.7z M1651.3,102.9
					h5.8V94h-3.9l-0.1,3C1653.1,99,1652.5,101.1,1651.3,102.9L1651.3,102.9z M1673.7,91.9v12.7h-2.2V93.7h-4.3l-0.3,4.7
					c0,1.6-0.4,3.2-1.1,4.7c-0.6,0.9-1.7,1.5-2.8,1.5h-0.9v-1.9h0.6c0.7-0.1,1.3-0.6,1.5-1.2c0.4-1.3,0.6-2.7,0.6-4.1l0.2-5.4
					L1673.7,91.9z M1686.9,91.9v12.7h-2.2v-4.9h-3.3l-3,4.9h-2.3l3.2-5.3c-1.5-0.5-2.6-1.9-2.5-3.6c0-1.1,0.4-2.1,1.3-2.8
					c1-0.8,2.2-1.1,3.5-1.1L1686.9,91.9z M1678.9,95.8c0,0.6,0.2,1.1,0.6,1.5c0.5,0.4,1.1,0.6,1.7,0.6h3.4v-4.2h-3.1
					c-0.7,0-1.4,0.2-1.9,0.6C1679.2,94.7,1678.9,95.2,1678.9,95.8L1678.9,95.8z M1707,98.4c0.1,1.7-0.4,3.3-1.3,4.7
					c-0.8,1.2-2.2,1.8-3.6,1.8c-1.4,0.1-2.7-0.5-3.6-1.5v6.1h-2.2V91.9h2l0.1,1.4c0.9-1.1,2.3-1.7,3.7-1.6c1.4-0.1,2.8,0.6,3.6,1.7
					c1,1.4,1.4,3.1,1.3,4.8L1707,98.4z M1704.8,98.2c0.1-1.2-0.3-2.4-0.9-3.4c-0.6-0.8-1.5-1.3-2.5-1.2c-1.3-0.1-2.4,0.6-3,1.8v6
					c0.6,1.1,1.7,1.8,3,1.7c1,0,1.9-0.4,2.5-1.2C1704.6,100.7,1704.9,99.4,1704.8,98.2L1704.8,98.2z M1709.2,98.2
					c0-1.2,0.2-2.3,0.7-3.3c0.4-0.9,1.1-1.7,2-2.3c0.9-0.6,1.9-0.8,3-0.8c1.6-0.1,3.1,0.6,4.2,1.8c1.1,1.3,1.7,3,1.6,4.8v0.2
					c0,1.1-0.2,2.3-0.7,3.3c-0.4,0.9-1.1,1.7-2,2.3c-0.9,0.6-1.9,0.8-3,0.8c-1.6,0.1-3.1-0.6-4.2-1.8c-1.1-1.3-1.7-3-1.6-4.8
					L1709.2,98.2z M1711.4,98.4c-0.1,1.2,0.3,2.4,1,3.4c0.6,0.8,1.6,1.3,2.6,1.3c1,0,2-0.5,2.6-1.3c0.7-1.1,1.1-2.3,1-3.6
					c0.1-1.2-0.3-2.4-1-3.4c-1.1-1.4-3.2-1.7-4.6-0.6c-0.2,0.2-0.4,0.4-0.6,0.6C1711.7,95.9,1711.3,97.1,1711.4,98.4L1711.4,98.4z
					 M1722.5,102.9l0.8-0.9c1-1.5,1.5-3.2,1.4-4.9l0.2-5.1h8.2v10.9h1.6v5.5h-2.2v-3.7h-8.8v3.7h-2.2v-5.5H1722.5z M1725.1,102.9
					h5.8V94h-3.9l-0.1,3C1726.9,99,1726.3,101.1,1725.1,102.9L1725.1,102.9z M1745.3,91.9h2.2v12.7h-2.2v-9.2l-5.8,9.2h-2.2V91.9
					h2.2v9.3L1745.3,91.9z M1760.4,93.7h-4.3v10.9h-2.1v-11h-4.2v-1.8h10.6L1760.4,93.7z M1766.8,104.9c-1.6,0.1-3.1-0.6-4.2-1.7
					c-1.1-1.2-1.7-2.9-1.6-4.5v-0.4c0-1.2,0.2-2.3,0.7-3.4c0.4-0.9,1.1-1.7,2-2.3c0.8-0.6,1.8-0.8,2.8-0.8c1.5-0.1,2.9,0.5,3.8,1.6
					c1,1.3,1.5,3,1.4,4.7v0.9h-8.6c0,1.1,0.4,2.2,1.1,3c0.7,0.8,1.7,1.2,2.7,1.1c0.7,0,1.3-0.1,1.9-0.5c0.5-0.3,1-0.7,1.4-1.2l1.3,1
					C1770.6,104,1768.7,104.9,1766.8,104.9L1766.8,104.9z M1766.5,93.5c-0.8,0-1.6,0.4-2.2,1c-0.6,0.7-1,1.7-1.1,2.7h6.4V97
					c0-0.9-0.3-1.8-0.9-2.6C1768.2,93.8,1767.4,93.4,1766.5,93.5L1766.5,93.5z M1784.7,91.9v12.7h-2.2V93.7h-4.3l-0.3,4.7
					c0,1.6-0.4,3.2-1.1,4.7c-0.6,0.9-1.7,1.5-2.8,1.5h-0.9v-1.9h0.6c0.7-0.1,1.3-0.6,1.5-1.2c0.4-1.3,0.6-2.7,0.6-4.1l0.2-5.4
					L1784.7,91.9z M1793.4,104.9c-1.6,0.1-3.1-0.6-4.2-1.7c-1.1-1.2-1.7-2.9-1.6-4.5v-0.4c0-1.2,0.2-2.3,0.7-3.4
					c0.4-0.9,1.1-1.7,2-2.3c0.8-0.6,1.8-0.8,2.8-0.8c1.5-0.1,2.9,0.5,3.8,1.6c1,1.3,1.5,3,1.4,4.7v0.9h-8.6c0,1.1,0.4,2.2,1.1,3
					c0.7,0.8,1.7,1.2,2.7,1.1c0.7,0,1.3-0.1,1.9-0.5c0.5-0.3,1-0.7,1.4-1.2l1.3,1C1797.2,104,1795.3,104.9,1793.4,104.9
					L1793.4,104.9z M1793.1,93.5c-0.8,0-1.6,0.4-2.2,1c-0.6,0.7-1,1.7-1.1,2.7h6.3V97c0-0.9-0.3-1.8-0.9-2.6
					C1794.8,93.8,1794,93.4,1793.1,93.5L1793.1,93.5z M1809.1,91.9h2.2v12.7h-2.2v-9.2l-5.8,9.2h-2.2V91.9h2.2v9.3L1809.1,91.9z
					 M1809.7,87.3c0,0.9-0.3,1.7-1,2.3c-1.5,1.2-3.6,1.2-5.1,0c-0.7-0.6-1-1.4-1-2.3h1.8c0,0.5,0.1,0.9,0.4,1.3
					c0.7,0.7,1.8,0.8,2.5,0.1c0.4-0.4,0.6-0.9,0.6-1.4L1809.7,87.3z M1814.7,103.5c0-0.3,0.1-0.7,0.3-0.9c0.3-0.3,0.6-0.4,1-0.4
					c0.4,0,0.7,0.1,1,0.4c0.2,0.3,0.4,0.6,0.3,0.9c0,0.3-0.1,0.7-0.3,0.9c-0.3,0.3-0.6,0.4-1,0.4c-0.4,0-0.7-0.1-1-0.4
					C1814.8,104.1,1814.6,103.8,1814.7,103.5L1814.7,103.5z M1814.7,93.1c0-0.3,0.1-0.7,0.3-0.9c0.6-0.5,1.4-0.5,2,0
					c0.2,0.3,0.4,0.6,0.3,0.9c0,0.3-0.1,0.7-0.3,0.9c-0.6,0.5-1.4,0.5-2,0C1814.8,93.8,1814.7,93.4,1814.7,93.1L1814.7,93.1z
					 M1832.7,95.5h4.8v2h-4.8v5.4h-2.2v-5.4h-4.8v-2h4.8v-5h2.2V95.5z M1850.9,88.8l-7.1,15.8h-2.3l7-15.3h-9.2v-1.8h11.5
					L1850.9,88.8z M1859.4,97.7c0-1.7,0.2-3.4,0.7-5.1c0.5-1.6,1.2-3.1,2.1-4.4c0.7-1.1,1.7-2.1,2.9-2.8l0.4,1.4
					c-1.3,1.1-2.2,2.4-2.8,4c-0.7,1.9-1.1,3.9-1.2,6v1c-0.1,2.7,0.5,5.4,1.7,7.9c0.6,1.2,1.4,2.3,2.4,3.1l-0.4,1.3
					c-1.2-0.7-2.2-1.7-3-2.9C1860.3,104.4,1859.4,101,1859.4,97.7L1859.4,97.7z M1870.6,95h1.6c0.9,0,1.7-0.3,2.4-0.8
					c0.6-0.5,0.9-1.3,0.9-2.1c0-2-1-3-3-3c-0.8,0-1.6,0.2-2.3,0.8c-0.6,0.6-0.9,1.3-0.8,2.1h-2.2c0-1.3,0.5-2.5,1.5-3.4
					c1-0.9,2.4-1.4,3.8-1.3c1.4-0.1,2.7,0.4,3.8,1.3c0.9,0.9,1.4,2.2,1.4,3.6c0,0.8-0.3,1.5-0.7,2.2c-0.5,0.7-1.2,1.3-2,1.6
					c0.9,0.2,1.6,0.8,2.2,1.5c0.5,0.7,0.8,1.6,0.8,2.5c0.1,1.4-0.5,2.7-1.5,3.6c-1.1,0.9-2.5,1.4-3.9,1.4c-1.4,0.1-2.8-0.4-3.9-1.3
					c-1-0.9-1.5-2.1-1.5-3.4h2.2c0,0.8,0.3,1.6,0.9,2.2c0.7,0.6,1.5,0.9,2.4,0.8c0.9,0.1,1.7-0.2,2.4-0.8c0.6-0.6,0.9-1.5,0.8-2.4
					c0.1-0.9-0.3-1.7-0.9-2.3c-0.8-0.6-1.7-0.9-2.6-0.8h-1.6L1870.6,95z M1890.1,98.9h2.4v1.8h-2.4v4h-2.1v-4h-7.8v-1.3l7.6-11.8
					h2.3L1890.1,98.9z M1882.6,98.9h5.4v-8.4l-0.3,0.5L1882.6,98.9z M1905.6,104.6h-11.2V103l5.9-6.6c0.7-0.7,1.3-1.5,1.8-2.4
					c0.3-0.6,0.5-1.3,0.5-1.9c0-0.8-0.3-1.6-0.8-2.2c-0.6-0.6-1.4-0.9-2.2-0.8c-0.9-0.1-1.8,0.3-2.5,0.9c-0.6,0.7-0.9,1.6-0.9,2.6
					h-2.2c-0.1-1.4,0.5-2.8,1.5-3.8c1.1-1,2.6-1.5,4.1-1.4c1.4-0.1,2.7,0.4,3.8,1.3c0.9,0.8,1.4,2.1,1.4,3.3c0,1.7-1.1,3.7-3.2,6
					l-4.6,5h8.6L1905.6,104.6z M1913.2,97.8c0,1.7-0.2,3.4-0.7,5c-0.4,1.6-1.2,3.1-2.1,4.4c-0.8,1.2-1.8,2.2-3,2.9l-0.4-1.3
					c1.3-1.1,2.3-2.6,2.9-4.3c0.8-2.1,1.2-4.3,1.2-6.5v-0.4c0-1.5-0.2-3.1-0.5-4.6c-0.3-1.3-0.8-2.6-1.4-3.8c-0.5-1-1.2-1.9-2.1-2.6
					l0.4-1.3c1.2,0.7,2.2,1.7,3,2.9c0.9,1.3,1.6,2.8,2.1,4.4C1913,94.3,1913.2,96,1913.2,97.8L1913.2,97.8z M1933.4,104.6h-11.2V103
					l5.9-6.6c0.7-0.7,1.3-1.5,1.8-2.4c0.3-0.6,0.5-1.3,0.5-1.9c0-0.8-0.3-1.6-0.8-2.2c-0.6-0.6-1.3-0.9-2.2-0.8
					c-0.9-0.1-1.8,0.3-2.5,0.9c-0.6,0.7-1,1.6-0.9,2.6h-2.2c-0.1-1.4,0.5-2.8,1.5-3.8c1.1-1,2.6-1.5,4.1-1.4
					c1.4-0.1,2.7,0.4,3.8,1.3c0.9,0.8,1.4,2.1,1.4,3.3c0,1.7-1.1,3.7-3.2,6l-4.6,5h8.6L1933.4,104.6z M1942.8,104.6h-2.2V90.1
					l-4.4,1.6v-2l6.2-2.3h0.3L1942.8,104.6z M1960.2,88.8l-7.1,15.8h-2.3l7-15.3h-9.2v-1.8h11.5L1960.2,88.8z M1967.4,98.3h-5.7
					v-1.8h5.7V98.3z M1980.3,88.8l-7.1,15.8h-2.2l7-15.3h-9.2v-1.8h11.5L1980.3,88.8z M1991.1,97.1c-0.4,0.5-1,1-1.6,1.3
					c-0.6,0.3-1.3,0.5-2.1,0.5c-0.9,0-1.8-0.2-2.6-0.7c-0.7-0.5-1.3-1.2-1.7-2c-0.4-0.9-0.6-1.9-0.6-2.9c0-1.1,0.2-2.1,0.6-3.1
					c0.4-0.9,1-1.6,1.9-2.1c0.8-0.5,1.8-0.7,2.8-0.7c1.6-0.1,3.1,0.6,4,1.9c1.1,1.5,1.6,3.3,1.5,5.2V95c0,3.3-0.7,5.8-2,7.3
					c-1.3,1.5-3.3,2.3-6,2.4h-0.3v-1.8h0.5c2.8,0.3,5.4-1.8,5.7-4.6C1991.2,97.8,1991.2,97.5,1991.1,97.1L1991.1,97.1z M1987.7,97.1
					c0.7,0,1.4-0.2,2-0.7c0.6-0.4,1.1-1,1.3-1.7v-0.9c0.1-1.2-0.3-2.4-0.9-3.5c-0.8-1.3-2.6-1.7-3.9-0.9c-0.3,0.2-0.6,0.4-0.8,0.7
					c-0.6,0.8-0.9,1.9-0.9,2.9c0,1,0.3,2,0.8,2.9C1986,96.7,1986.9,97.1,1987.7,97.1L1987.7,97.1z M2001,98.3h-5.7v-1.8h5.7
					L2001,98.3z M2006,95h1.6c0.9,0,1.7-0.3,2.4-0.8c0.6-0.5,0.9-1.3,0.9-2.1c0-2-1-3-3-3c-0.8,0-1.6,0.2-2.3,0.8
					c-0.6,0.6-0.9,1.3-0.8,2.1h-2.2c0-1.3,0.5-2.5,1.5-3.4c1-0.9,2.4-1.4,3.8-1.3c1.4-0.1,2.7,0.4,3.8,1.3c0.9,0.9,1.4,2.2,1.4,3.6
					c0,0.8-0.3,1.5-0.7,2.2c-0.5,0.7-1.2,1.3-2,1.6c0.9,0.2,1.6,0.8,2.2,1.5c0.5,0.7,0.8,1.6,0.8,2.5c0.1,1.4-0.5,2.7-1.5,3.6
					c-1.1,0.9-2.5,1.4-3.9,1.4c-1.4,0.1-2.8-0.4-3.9-1.3c-1-0.9-1.5-2.1-1.5-3.4h2.2c0,0.8,0.3,1.6,0.9,2.2c0.6,0.6,1.5,0.9,2.3,0.8
					c0.9,0.1,1.7-0.2,2.4-0.8c0.6-0.6,0.9-1.5,0.8-2.4c0.1-0.9-0.3-1.7-0.9-2.3c-0.8-0.6-1.7-0.9-2.6-0.8h-1.6L2006,95z
					 M2023.4,104.6h-2.2V90.1l-4.4,1.6v-2l6.2-2.3h0.3L2023.4,104.6z M1791.4,143.6l5.6,13.9l5.6-13.9h2.9v17.1h-2.3V154l0.2-7.2
					l-5.6,13.8h-1.7l-5.6-13.8l0.2,7.1v6.6h-2.3v-17.1L1791.4,143.6z M1817.3,147.9h2.2v12.7h-2.2v-9.2l-5.8,9.2h-2.2v-12.7h2.2v9.3
					L1817.3,147.9z M1833.3,160.6h-2.2v-5.4h-5.8v5.4h-2.2v-12.7h2.2v5.5h5.8v-5.5h2.2V160.6z M1843.8,151.4c0-0.6-0.2-1.1-0.7-1.4
					c-0.5-0.4-1.2-0.6-1.9-0.5c-0.7,0-1.4,0.2-1.9,0.6c-0.5,0.3-0.8,0.8-0.8,1.4h-2.2c0-1.1,0.5-2.1,1.4-2.7c1-0.7,2.2-1.1,3.5-1.1
					c1.2-0.1,2.5,0.3,3.5,1c0.8,0.6,1.3,1.7,1.2,2.7c0,0.6-0.2,1.1-0.5,1.6c-0.4,0.5-0.9,0.9-1.5,1.1c1.4,0.3,2.3,1.6,2.2,3
					c0,1.1-0.5,2.1-1.3,2.8c-1.1,0.7-2.3,1.1-3.6,1c-1.3,0.1-2.6-0.3-3.6-1.1c-0.9-0.7-1.5-1.8-1.4-2.9h2.2c0,0.6,0.3,1.2,0.8,1.6
					c1.2,0.8,2.8,0.9,4.1,0.1c0.5-0.3,0.8-0.9,0.8-1.5c0.1-0.6-0.2-1.2-0.6-1.5c-0.6-0.4-1.3-0.5-2-0.5h-2.2v-1.9h2.4
					C1843.1,153.2,1843.9,152.6,1843.8,151.4L1843.8,151.4z M1848.9,158.9l0.8-0.9c1-1.5,1.5-3.2,1.4-4.9l0.2-5.1h8.2v10.9h1.6v5.5
					h-2.1v-3.7h-8.8v3.7h-2.2v-5.5H1848.9z M1851.5,158.9h5.8V150h-3.9l-0.1,3C1853.3,155,1852.7,157.1,1851.5,158.9L1851.5,158.9z
					 M1874.2,154.4c0.1,1.7-0.4,3.3-1.3,4.7c-0.8,1.2-2.2,1.8-3.6,1.8c-1.4,0.1-2.7-0.5-3.6-1.5v6.1h-2.2v-17.6h2l0.1,1.4
					c0.9-1.1,2.3-1.7,3.7-1.6c1.4-0.1,2.8,0.6,3.6,1.7c1,1.4,1.4,3.1,1.3,4.8L1874.2,154.4z M1872,154.2c0.1-1.2-0.3-2.4-0.9-3.4
					c-0.6-0.8-1.5-1.3-2.5-1.2c-1.3-0.1-2.4,0.6-3,1.8v6.1c0.6,1.1,1.7,1.8,3,1.7c1,0,1.9-0.4,2.5-1.2
					C1871.8,156.8,1872.2,155.5,1872,154.2L1872,154.2z M1884.8,160.6c-0.2-0.4-0.3-0.9-0.3-1.3c-0.9,1-2.2,1.6-3.6,1.6
					c-1.1,0-2.2-0.3-3.1-1.1c-0.8-0.7-1.2-1.7-1.2-2.7c-0.1-1.2,0.5-2.4,1.5-3.1c1.3-0.8,2.8-1.2,4.3-1.1h2.1v-1
					c0-0.7-0.2-1.3-0.7-1.8c-0.5-0.5-1.3-0.7-2-0.7c-0.7,0-1.4,0.2-1.9,0.6c-0.5,0.3-0.8,0.8-0.8,1.4h-2.1c0-0.7,0.2-1.3,0.7-1.8
					c0.5-0.6,1.1-1.1,1.8-1.4c0.8-0.4,1.7-0.5,2.5-0.5c1.2-0.1,2.5,0.3,3.4,1.1c0.8,0.8,1.3,1.9,1.3,3v5.8c0,0.9,0.1,1.9,0.4,2.8
					v0.2L1884.8,160.6z M1881.2,159c0.7,0,1.3-0.2,1.9-0.5c0.6-0.3,1-0.8,1.3-1.4v-2.6h-1.7c-2.7,0-4,0.8-4,2.3
					c0,0.6,0.2,1.2,0.7,1.6C1880,158.8,1880.6,159,1881.2,159L1881.2,159z M1890.2,160.6v-12.7h5c1.4-0.1,2.7,0.2,3.9,0.9
					c0.9,0.6,1.4,1.5,1.3,2.6c0,0.6-0.2,1.1-0.5,1.6c-0.4,0.5-0.9,0.9-1.6,1.1c0.7,0.1,1.4,0.5,1.8,1.1c0.5,0.5,0.7,1.2,0.7,1.9
					c0.1,1.1-0.4,2.1-1.3,2.7c-1.1,0.7-2.3,1-3.6,0.9L1890.2,160.6z M1892.4,155.1v3.8h3.6c0.7,0,1.4-0.1,2-0.5
					c0.5-0.3,0.7-0.9,0.7-1.4c0-1.3-0.9-1.9-2.8-1.9L1892.4,155.1z M1892.4,153.3h2.8c2,0,3-0.6,3-1.8s-1-1.8-2.9-1.8h-3
					L1892.4,153.3z M1923,160.6h-2.3v-15.3h-8.4v15.2h-2.3v-17.1h12.9V160.6z M1937.5,154.4c0.1,1.7-0.4,3.3-1.3,4.7
					c-0.8,1.2-2.2,1.8-3.6,1.8c-1.4,0.1-2.7-0.5-3.6-1.5v6.1h-2.2v-17.6h2l0.1,1.4c0.9-1.1,2.3-1.7,3.7-1.6c1.4-0.1,2.8,0.6,3.6,1.7
					c1,1.4,1.4,3.1,1.3,4.8L1937.5,154.4z M1935.3,154.2c0.1-1.2-0.3-2.4-0.9-3.4c-0.6-0.8-1.5-1.3-2.5-1.2c-1.3-0.1-2.4,0.6-3,1.8
					v6.1c0.6,1.1,1.7,1.8,3,1.7c1,0,1.9-0.4,2.5-1.2c0.7-1.1,1.1-2.4,1-3.7L1935.3,154.2z M1948.5,147.9h2.2v12.7h-2.2v-9.2
					l-5.8,9.2h-2.2v-12.7h2.2v9.3L1948.5,147.9z M1958.1,155.2h-1.6v5.4h-2.2v-12.7h2.2v5.4h1.5l4.3-5.4h2.6l-5,6.1l5.4,6.6h-2.8
					L1958.1,155.2z M1974.9,160.6c-0.2-0.4-0.3-0.9-0.3-1.3c-0.9,1-2.2,1.6-3.6,1.6c-1.1,0-2.2-0.3-3.1-1.1
					c-0.8-0.7-1.2-1.7-1.2-2.7c-0.1-1.2,0.5-2.4,1.5-3.1c1.3-0.8,2.8-1.2,4.3-1.1h2.1v-1c0-0.7-0.2-1.3-0.7-1.8
					c-0.5-0.5-1.3-0.7-2-0.7c-0.7,0-1.4,0.2-1.9,0.6c-0.5,0.3-0.8,0.8-0.8,1.4h-2.2c0-0.7,0.2-1.3,0.7-1.8c0.5-0.6,1.1-1.1,1.8-1.4
					c0.8-0.4,1.7-0.5,2.5-0.5c1.2-0.1,2.5,0.3,3.4,1.1c0.8,0.8,1.3,1.9,1.3,3v5.8c0,0.9,0.1,1.9,0.4,2.8v0.2L1974.9,160.6z
					 M1971.3,159c0.7,0,1.3-0.2,1.9-0.5c0.6-0.3,1-0.8,1.3-1.4v-2.6h-1.6c-2.7,0-4,0.8-4,2.3c0,0.6,0.2,1.2,0.7,1.6
					c0.5,0.4,1.1,0.6,1.8,0.5L1971.3,159z M1987.4,157.8l4.3-9.8h2.7v12.7h-2.2v-9.2l-4.1,9.2h-1.5l-4.2-9.4v9.4h-2.2v-12.7h2.8
					L1987.4,157.8z M2000.3,152.3h3.3c1.2,0,2.4,0.4,3.4,1.1c0.8,0.8,1.3,1.9,1.3,3c0,1.2-0.4,2.3-1.3,3.1c-1,0.8-2.2,1.2-3.5,1.1
					h-5.4v-12.7h2.2L2000.3,152.3z M2000.3,154.1v4.8h3.2c0.7,0,1.4-0.2,1.9-0.6c0.5-0.4,0.7-1.1,0.7-1.7c0-0.6-0.2-1.3-0.7-1.7
					c-0.5-0.5-1.1-0.7-1.8-0.7H2000.3z M2020.7,147.9v12.7h-2.2v-4.9h-3.3l-3,4.9h-2.2l3.2-5.3c-0.7-0.3-1.4-0.7-1.9-1.4
					c-0.4-0.6-0.7-1.4-0.7-2.2c0-1.1,0.5-2.2,1.3-2.8c1-0.8,2.2-1.1,3.5-1.1L2020.7,147.9z M2012.7,151.8c0,0.6,0.2,1.1,0.6,1.5
					c0.5,0.4,1.1,0.6,1.7,0.6h3.4v-4.2h-3.1c-0.7,0-1.4,0.2-1.9,0.6c-0.4,0.4-0.6,0.9-0.6,1.5L2012.7,151.8z M2024.1,159.5
					c0-0.3,0.1-0.7,0.3-0.9c0.6-0.5,1.4-0.5,2,0c0.2,0.3,0.4,0.6,0.3,0.9c0,0.3-0.1,0.7-0.3,0.9c-0.6,0.5-1.4,0.5-2,0
					c-0.2-0.3-0.3-0.6-0.2-0.9L2024.1,159.5z M2024.1,149.1c0-0.3,0.1-0.7,0.3-0.9c0.5-0.6,1.4-0.6,1.9-0.1c0.3,0.3,0.4,0.6,0.4,1
					c0,0.3-0.1,0.7-0.3,0.9c-0.6,0.5-1.4,0.5-2,0c-0.2-0.3-0.3-0.6-0.2-0.9L2024.1,149.1z M1832.6,179.5h4.8v2h-4.8v5.4h-2.2v-5.4
					h-4.8v-2h4.8v-5h2.2V179.5z M1850.8,172.8l-7.1,15.8h-2.3l7-15.3h-9.2v-1.8h11.5L1850.8,172.8z M1859.4,181.7
					c0-1.7,0.2-3.4,0.7-5.1c0.5-1.6,1.2-3.1,2.1-4.4c0.7-1.1,1.7-2.1,2.9-2.8l0.4,1.4c-1.3,1.1-2.2,2.4-2.8,4
					c-0.7,1.9-1.1,3.9-1.2,6v1c-0.1,2.7,0.5,5.4,1.7,7.9c0.6,1.2,1.4,2.3,2.4,3.1l-0.4,1.3c-1.2-0.7-2.2-1.7-3-2.9
					c-1.8-2.8-2.8-6.2-2.6-9.5L1859.4,181.7z M1870.6,179h1.6c0.9,0,1.7-0.3,2.4-0.8c0.6-0.5,0.9-1.3,0.9-2.1c0-2-1-3-3-3
					c-0.8,0-1.6,0.2-2.3,0.8c-0.6,0.6-0.9,1.3-0.8,2.1h-2.2c0-1.3,0.5-2.5,1.5-3.4c1-0.9,2.4-1.4,3.8-1.3c1.4-0.1,2.7,0.4,3.8,1.3
					c0.9,0.9,1.4,2.2,1.4,3.6c0,0.8-0.3,1.5-0.7,2.2c-0.5,0.7-1.2,1.3-2,1.6c0.9,0.2,1.6,0.8,2.2,1.5c0.5,0.7,0.8,1.6,0.8,2.5
					c0.1,1.4-0.5,2.7-1.5,3.6c-1.1,0.9-2.5,1.4-3.9,1.4c-1.4,0.1-2.8-0.4-3.9-1.3c-1-0.9-1.5-2.1-1.5-3.4h2.2c0,0.8,0.3,1.6,0.9,2.2
					c0.7,0.6,1.5,0.9,2.4,0.8c0.9,0.1,1.7-0.2,2.4-0.8c0.6-0.6,0.9-1.5,0.8-2.4c0.1-0.9-0.3-1.7-0.9-2.3c-0.8-0.6-1.7-0.9-2.6-0.8
					h-1.6L1870.6,179z M1890,182.9h2.4v1.8h-2.4v4h-2v-4h-7.8v-1.3l7.6-11.8h2.3L1890,182.9z M1882.6,182.9h5.4v-8.4l-0.3,0.5
					L1882.6,182.9z M1905.6,188.6h-11.2V187l5.9-6.6c0.7-0.7,1.3-1.5,1.8-2.4c0.3-0.6,0.5-1.3,0.5-1.9c0-0.8-0.3-1.6-0.8-2.2
					c-0.6-0.6-1.4-0.9-2.2-0.9c-0.9-0.1-1.8,0.3-2.5,0.9c-0.6,0.7-0.9,1.6-0.9,2.6h-2.2c-0.1-1.4,0.5-2.8,1.5-3.8
					c1.1-1,2.6-1.5,4.1-1.4c1.4-0.1,2.7,0.4,3.8,1.3c0.9,0.8,1.4,2.1,1.4,3.3c0,1.7-1.1,3.7-3.2,6l-4.6,4.9h8.6L1905.6,188.6z
					 M1913.1,181.8c0,1.7-0.2,3.4-0.7,5c-0.4,1.6-1.2,3.1-2.1,4.4c-0.8,1.2-1.8,2.2-3,2.9l-0.4-1.3c1.3-1.1,2.3-2.6,2.9-4.3
					c0.8-2.1,1.2-4.3,1.3-6.5v-0.4c0-1.5-0.2-3.1-0.5-4.6c-0.3-1.3-0.8-2.6-1.4-3.8c-0.5-1-1.2-1.9-2.1-2.6l0.4-1.3
					c1.2,0.7,2.2,1.7,3,2.9c0.9,1.3,1.6,2.8,2.1,4.4c0.5,1.7,0.7,3.4,0.7,5.2L1913.1,181.8z M1933.3,188.6h-11.2V187l5.9-6.6
					c0.7-0.7,1.3-1.5,1.8-2.4c0.3-0.6,0.5-1.3,0.5-1.9c0-0.8-0.3-1.6-0.8-2.2c-0.6-0.6-1.3-0.9-2.2-0.9c-0.9-0.1-1.8,0.3-2.5,0.9
					c-0.6,0.7-1,1.6-0.9,2.6h-2.2c-0.1-1.4,0.5-2.8,1.5-3.8c1.1-1,2.6-1.5,4.1-1.4c1.4-0.1,2.7,0.4,3.8,1.3c0.9,0.8,1.4,2.1,1.4,3.3
					c0,1.7-1.1,3.7-3.2,6l-4.6,4.9h8.6L1933.3,188.6z M1936.6,180.1l0.9-8.5h8.7v2h-6.9l-0.5,4.7c0.9-0.5,1.9-0.8,2.8-0.7
					c1.4-0.1,2.8,0.5,3.7,1.6c1,1.2,1.5,2.7,1.4,4.2c0.1,1.5-0.4,3-1.4,4.2c-1.1,1.1-2.5,1.6-4,1.5c-1.3,0.1-2.7-0.4-3.7-1.3
					c-1-0.9-1.6-2.1-1.6-3.5h2.1c0.1,0.8,0.4,1.6,1,2.2c0.6,0.5,1.4,0.8,2.2,0.7c0.9,0,1.8-0.3,2.4-1c0.6-0.8,0.9-1.8,0.9-2.9
					c0.1-1-0.3-2-0.9-2.7c-0.6-0.7-1.5-1.1-2.5-1.1c-0.8,0-1.6,0.2-2.2,0.6l-0.6,0.5L1936.6,180.1z M1959.5,176
					c0,0.8-0.2,1.6-0.7,2.3c-0.5,0.7-1.1,1.2-1.8,1.6c0.8,0.3,1.6,0.9,2.1,1.7c0.5,0.7,0.8,1.6,0.8,2.5c0.1,1.3-0.5,2.6-1.5,3.5
					c-2.3,1.7-5.5,1.7-7.9,0c-1-0.9-1.5-2.2-1.5-3.5c0-0.9,0.3-1.8,0.8-2.5c0.5-0.8,1.3-1.3,2.1-1.7c-0.7-0.3-1.3-0.9-1.8-1.6
					c-0.4-0.7-0.7-1.5-0.7-2.3c-0.1-1.3,0.4-2.5,1.4-3.4c2.1-1.7,5.1-1.7,7.3,0c1,0.9,1.5,2.1,1.5,3.4L1959.5,176z M1957.7,184
					c0-0.9-0.3-1.7-0.9-2.3c-0.6-0.6-1.5-0.9-2.4-0.9c-1.7-0.1-3.1,1.1-3.2,2.7c0,0.2,0,0.3,0,0.5c0,0.8,0.3,1.7,0.9,2.3
					c1.4,1.1,3.4,1.1,4.8,0c0.7-0.6,1-1.5,1-2.4L1957.7,184z M1954.4,173.2c-0.8,0-1.5,0.3-2.1,0.8c-0.5,0.6-0.8,1.4-0.8,2.1
					c0,0.8,0.2,1.5,0.8,2.1c0.6,0.5,1.3,0.8,2.1,0.8c0.8,0,1.5-0.3,2.1-0.8c1.1-1.2,1.1-3,0-4.2c-0.5-0.6-1.2-0.9-2-0.9
					L1954.4,173.2z M1967.3,182.3h-5.7v-1.8h5.7V182.3z M1979.9,181.4c0.1,2-0.3,3.9-1.3,5.7c-2,2.2-5.4,2.5-7.6,0.5
					c-0.2-0.1-0.3-0.3-0.5-0.5c-1-1.6-1.5-3.5-1.4-5.4v-2.9c-0.1-2,0.3-3.9,1.3-5.6c2-2.3,5.5-2.4,7.8-0.4c0.1,0.1,0.2,0.2,0.4,0.4
					c0.9,1.2,1.3,3,1.3,5.4V181.4z M1977.7,178.4c0.1-1.4-0.2-2.8-0.8-4c-0.5-0.8-1.5-1.3-2.4-1.3c-1-0.1-1.9,0.4-2.4,1.3
					c-0.6,1.2-0.9,2.5-0.8,3.9v3.5c-0.1,1.4,0.2,2.8,0.8,4.1c0.5,0.9,1.4,1.4,2.4,1.3c1,0.1,1.9-0.4,2.4-1.2
					c0.6-1.2,0.9-2.6,0.8-3.9L1977.7,178.4z M1993.7,172.8l-7.1,15.8h-2.3l7-15.3h-9.2v-1.8h11.5L1993.7,172.8z M2000.9,182.3h-5.7
					v-1.8h5.8L2000.9,182.3z M2013.2,176c0,0.8-0.2,1.6-0.7,2.3c-0.5,0.7-1.1,1.2-1.8,1.6c0.8,0.3,1.6,0.9,2.1,1.7
					c0.5,0.7,0.8,1.6,0.8,2.5c0.1,1.3-0.5,2.6-1.5,3.5c-2.3,1.7-5.5,1.7-7.9,0c-1-0.9-1.5-2.2-1.5-3.5c0-0.9,0.3-1.8,0.8-2.5
					c0.5-0.8,1.3-1.3,2.1-1.7c-0.7-0.3-1.4-0.9-1.8-1.6c-0.4-0.7-0.7-1.5-0.7-2.3c-0.1-1.3,0.4-2.5,1.4-3.4c2.1-1.7,5.1-1.7,7.3,0
					C2012.8,173.5,2013.3,174.7,2013.2,176L2013.2,176z M2011.4,184c0-0.9-0.3-1.7-0.9-2.3c-0.6-0.6-1.5-0.9-2.4-0.9
					c-1.7-0.1-3.1,1.1-3.2,2.8c0,0.2,0,0.3,0,0.5c0,0.8,0.3,1.7,0.8,2.3c1.4,1.1,3.4,1.1,4.8,0
					C2011.2,185.7,2011.5,184.8,2011.4,184L2011.4,184z M2008.2,173.2c-0.8,0-1.5,0.3-2.1,0.8c-1,1.2-1,3,0,4.3
					c0.6,0.5,1.3,0.8,2.1,0.8c0.8,0,1.5-0.3,2.1-0.8c1.1-1.2,1.1-3,0-4.2C2009.7,173.4,2009,173.1,2008.2,173.2L2008.2,173.2z
					 M2027.3,172.8l-7.1,15.8h-2.3l7-15.3h-9.2v-1.8h11.5L2027.3,172.8z"/>
			</g>
		</g>
	</g>
</g>
</svg>
