<svg xmlns="http://www.w3.org/2000/svg" xmlns:xlink="http://www.w3.org/1999/xlink" viewBox="0 0 2308.62 781.89"><defs><style>.cls-1,.cls-42,.cls-43,.cls-44{fill:none;}.cls-2{opacity:0.9;}.cls-3{fill:#c135dc;}.cls-4{fill:url(#Безымянный_градиент);}.cls-5{fill:#5d209e;}.cls-6{fill:url(#Безымянный_градиент_2);}.cls-7{fill:#fff;}.cls-8{fill:#3b167d;}.cls-9{fill:url(#Безымянный_градиент_3);}.cls-10{fill:url(#Безымянный_градиент_4);}.cls-11{fill:#ffa860;}.cls-12{fill:url(#Безымянный_градиент_16);}.cls-13{fill:#2f3f68;}.cls-14{clip-path:url(#clip-path);}.cls-15{fill:#281757;}.cls-16{fill:url(#Безымянный_градиент_18);}.cls-17{clip-path:url(#clip-path-2);}.cls-18{fill:url(#Безымянный_градиент_18-2);}.cls-19{clip-path:url(#clip-path-3);}.cls-20{fill:url(#Безымянный_градиент_22);}.cls-21{fill:url(#Безымянный_градиент_22-2);}.cls-22{fill:url(#Безымянный_градиент_22-3);}.cls-23{fill:#00afe4;}.cls-24{fill:url(#Безымянный_градиент_20);}.cls-25{fill:url(#Безымянный_градиент_21);}.cls-26{fill:url(#Безымянный_градиент_22-4);}.cls-27{fill:url(#Безымянный_градиент_23);}.cls-28{fill:url(#Безымянный_градиент_22-5);}.cls-29{fill:#ffcd98;}.cls-30{fill:url(#Безымянный_градиент_16-2);}.cls-31{clip-path:url(#clip-path-5);}.cls-32{fill:url(#Безымянный_градиент_18-3);}.cls-33{clip-path:url(#clip-path-6);}.cls-34{fill:url(#Безымянный_градиент_18-4);}.cls-35{fill:url(#Безымянный_градиент_22-6);}.cls-36{clip-path:url(#clip-path-7);}.cls-37{fill:url(#Безымянный_градиент_20-2);}.cls-38{fill:url(#Безымянный_градиент_21-2);}.cls-39{fill:url(#Безымянный_градиент_22-7);}.cls-40{fill:url(#Безымянный_градиент_23-2);}.cls-41{fill:#fefefe;}.cls-42,.cls-43,.cls-44{stroke:#fff;stroke-miterlimit:10;}.cls-42{stroke-linecap:round;stroke-width:6px;}.cls-43{stroke-width:5px;}.cls-44{stroke-width:3px;}</style><linearGradient id="Безымянный_градиент" x1="406.65" y1="1986.93" x2="1972.65" y2="2346.93" gradientTransform="matrix(1, 0, 0, -1, 0, 2498)" gradientUnits="userSpaceOnUse"><stop offset="0" stop-color="#ab3ae0"/><stop offset="1" stop-color="#d535e5" stop-opacity="0"/></linearGradient><linearGradient id="Безымянный_градиент_2" x1="38.7" y1="3088.98" x2="1968.2" y2="1521.48" gradientTransform="matrix(1, 0, 0, -1, 0, 2498)" gradientUnits="userSpaceOnUse"><stop offset="0" stop-color="#6240d5"/><stop offset="1" stop-color="#480c7d" stop-opacity="0.35"/></linearGradient><radialGradient id="Безымянный_градиент_3" cx="7257.18" cy="496.37" r="1.12" gradientTransform="matrix(1, 32.5, 368.52, -11.34, -188689.06, -229593.21)" gradientUnits="userSpaceOnUse"><stop offset="0" stop-color="#4c2aa5"/><stop offset="1" stop-color="#431f83"/></radialGradient><radialGradient id="Безымянный_градиент_4" cx="7302.34" cy="497.64" r="1.12" gradientTransform="matrix(115.56, 211.91, 261.19, -142.43, -972323.73, -1476157.34)" gradientUnits="userSpaceOnUse"><stop offset="0" stop-color="#fcd3df" stop-opacity="0.12"/><stop offset="1" stop-color="#e0a0c6"/></radialGradient><linearGradient id="Безымянный_градиент_16" x1="-24.08" y1="-1991.33" x2="-30.46" y2="-1879.31" gradientTransform="translate(1748.57 2374)" gradientUnits="userSpaceOnUse"><stop offset="0" stop-color="#ffb770"/><stop offset="0.37" stop-color="#ffae7a"/><stop offset="1" stop-color="#ff9594"/></linearGradient><clipPath id="clip-path"><path class="cls-1" d="M1726.46,481.14s-12.08,21.84-44.83,25-29.82,1.78-29.82,1.78-3.68,39.17-6.3,58.7-12.08,49.77-12.08,49.77h-22.89s-3.78-84.84-4.72-94.29-3.36-28,1.36-37.38,4.52-3.57,4.52-3.57Z"/></clipPath><linearGradient id="Безымянный_градиент_18" x1="1517.83" y1="-1756.85" x2="1657.72" y2="-1847.04" gradientTransform="translate(0 2374)" gradientUnits="userSpaceOnUse"><stop offset="0" stop-color="#ff4bc4"/><stop offset="1" stop-color="#604fc4" stop-opacity="0"/></linearGradient><clipPath id="clip-path-2"><path class="cls-1" d="M1764.78,481.14s-12.07,21.84-44.83,25-29.82,1.78-29.82,1.78.73,39.17-1.78,58.7-6.51,47.46-6.51,47.46h-22s-14.81-82.74-15.65-92-4.72-23.73,0-33S1650,481,1650,481h114.86Z"/></clipPath><linearGradient id="Безымянный_градиент_18-2" x1="1577.68" y1="-1769.72" x2="1703.5" y2="-1850.83" xlink:href="#Безымянный_градиент_18"/><clipPath id="clip-path-3"><path class="cls-1" d="M1666.51,383.18c6.3-26.15,14.17-41.69,38.21-42.63,16.59-.63,28.67-1.37,40.85,2.52s24,15.85,30.34,35.17c12.08,37.59,4,44-.31,51.35s-15.33,7.24-41.69,6.3-51.23,0-51.23,0Z"/></clipPath><linearGradient id="Безымянный_градиент_22" x1="1672.75" y1="2097.49" x2="1785.93" y2="2131.31" gradientTransform="matrix(1, 0, 0, -1, 0, 2502)" gradientUnits="userSpaceOnUse"><stop offset="0" stop-color="#281757"/><stop offset="0.16" stop-color="#301961"/><stop offset="0.43" stop-color="#441d7b"/><stop offset="0.78" stop-color="#6525a6"/><stop offset="1" stop-color="#7c2ac4"/></linearGradient><linearGradient id="Безымянный_градиент_22-2" x1="1675.17" y1="2089.39" x2="1788.36" y2="2123.21" xlink:href="#Безымянный_градиент_22"/><linearGradient id="Безымянный_градиент_22-3" x1="1679.51" y1="2074.85" x2="1792.7" y2="2108.67" xlink:href="#Безымянный_градиент_22"/><linearGradient id="Безымянный_градиент_20" x1="1750.3" y1="-1929.27" x2="1719.66" y2="-1983.45" gradientTransform="translate(0 2374)" gradientUnits="userSpaceOnUse"><stop offset="0" stop-color="#6086c4"/><stop offset="1" stop-color="#00afe4" stop-opacity="0"/></linearGradient><linearGradient id="Безымянный_градиент_21" x1="1738" y1="-1947.24" x2="1777.95" y2="-2025.49" gradientTransform="translate(0 2374)" gradientUnits="userSpaceOnUse"><stop offset="0" stop-color="#60e5c4"/><stop offset="0.57" stop-color="#608ac4" stop-opacity="0.03"/><stop offset="1" stop-color="#6086c4" stop-opacity="0"/></linearGradient><linearGradient id="Безымянный_градиент_22-4" x1="1590" y1="-1987.97" x2="1742.55" y2="-1942.4" gradientTransform="translate(0 2374)" xlink:href="#Безымянный_градиент_22"/><linearGradient id="Безымянный_градиент_23" x1="1719.29" y1="-2024.64" x2="1719.95" y2="-2055.03" gradientTransform="translate(0 2374)" gradientUnits="userSpaceOnUse"><stop offset="0" stop-color="#ffcd98"/><stop offset="0.35" stop-color="#ffc397"/><stop offset="0.94" stop-color="#ffa994"/><stop offset="1" stop-color="#ffa694"/></linearGradient><linearGradient id="Безымянный_градиент_22-5" x1="1695.29" y1="-2084.68" x2="1758.95" y2="-2060.47" gradientTransform="translate(0 2374)" xlink:href="#Безымянный_градиент_22"/><linearGradient id="Безымянный_градиент_16-2" x1="19236.71" y1="-2095.66" x2="19228.78" y2="-1956.5" gradientTransform="matrix(-1, 0, 0, 1, 20463.31, 2374)" xlink:href="#Безымянный_градиент_16"/><clipPath id="clip-path-5"><path class="cls-1" d="M1246.62,435.15s15.75,26.57,54.18,35.28c33.39,7.66,41.2,5.57,41.2,5.57s-.52,46.83,2.42,73,8.82,68.56,8.82,68.56h25.4s10.71-103.32,11.87-115.71,4-34.23-1.68-46.51a79.24,79.24,0,0,0-13.13-20.16Z"/></clipPath><linearGradient id="Безымянный_градиент_18-3" x1="18968.02" y1="-1766.14" x2="19135.44" y2="-1874.08" gradientTransform="matrix(-1, 0, 0, 1, 20463.31, 2374)" xlink:href="#Безымянный_градиент_18"/><clipPath id="clip-path-6"><path class="cls-1" d="M1208.51,435.15s15.75,26.57,54.18,35.28c33.39,7.66,41.16,5.56,41.16,5.56s-.53,46.83,2.41,73,8.82,68.56,8.82,68.56h25.41s12.6-103.32,13.76-115.71,4.51-40.84-1.16-53.23-10.5-13.44-10.5-13.44Z"/></clipPath><linearGradient id="Безымянный_градиент_18-4" x1="19010.83" y1="-1767.08" x2="19178.26" y2="-1875.04" gradientTransform="matrix(-1, 0, 0, 1, 20463.31, 2374)" xlink:href="#Безымянный_градиент_18"/><linearGradient id="Безымянный_градиент_22-6" x1="19186.45" y1="-2135.87" x2="19291.51" y2="-2051.3" gradientTransform="matrix(-1, 0, 0, 1, 20463.31, 2374)" xlink:href="#Безымянный_градиент_22"/><clipPath id="clip-path-7"><path class="cls-1" d="M1328.42,306.85c-3.78-15.54-25.31-30.45-48.09-33.5s-47.25-.73-57.75,1.58-26.88,15.12-27.93,37.37-2.1,48.83,4,56.7,4.2,8.82,41.16,7.88,71.4,0,71.4,0Z"/></clipPath><linearGradient id="Безымянный_градиент_20-2" x1="19235" y1="-1990.65" x2="19199.53" y2="-2053.37" gradientTransform="matrix(-1, 0, 0, 1, 20463.31, 2374)" xlink:href="#Безымянный_градиент_20"/><linearGradient id="Безымянный_градиент_21-2" x1="19216.51" y1="-2003.48" x2="19269.3" y2="-2106.83" gradientTransform="matrix(-1, 0, 0, 1, 20463.31, 2374)" xlink:href="#Безымянный_градиент_21"/><linearGradient id="Безымянный_градиент_22-7" x1="19061.15" y1="-2047.43" x2="19214.3" y2="-2001.68" gradientTransform="matrix(-1, 0, 0, 1, 20463.31, 2374)" xlink:href="#Безымянный_градиент_22"/><linearGradient id="Безымянный_градиент_23-2" x1="19204.56" y1="-2090.59" x2="19204.56" y2="-2132.26" gradientTransform="matrix(-1, 0, 0, 1, 20463.31, 2374)" xlink:href="#Безымянный_градиент_23"/></defs><title>Шапка v6.2</title><g id="Слой_2" data-name="Слой 2"><g id="Слой_1-2" data-name="Слой 1"><g id="Слой_2-2" data-name="Слой 2"><g id="Слой_1-2-2" data-name="Слой 1-2"><g class="cls-2"><path class="cls-3" d="M362.69,689C-77.81,513.5-14.11,205.5,75.89,0h2181c15,25.5,69.3,136,46,325-19.7,159.5-86.5,339.5-324,410.5s-397.5-41-768.5-46.5S803.19,864.5,362.69,689Z"/><path class="cls-4" d="M362.69,689C-77.81,513.5-14.11,205.5,75.89,0h2181c15,25.5,69.3,136,46,325-19.7,159.5-86.5,339.5-324,410.5s-397.5-41-768.5-46.5S803.19,864.5,362.69,689Z"/></g><g class="cls-2"><path class="cls-5" d="M1450.29,780c-453.9,20-644.5-124.5-842.5-146.5-271-40.5-293.9,116.5-472,51.5C-39.81,620.9-28.61,223.5,75.89,0h2176c42,84.5,62.9,201,40,333C2226.89,708,1915.89,759.5,1450.29,780Z"/><path class="cls-6" d="M1450.29,780c-453.9,20-644.5-124.5-842.5-146.5-271-40.5-293.9,116.5-472,51.5C-39.81,620.9-28.61,223.5,75.89,0h2176c42,84.5,62.9,201,40,333C2226.89,708,1915.89,759.5,1450.29,780Z"/></g><path class="cls-7" d="M534,241.42h-8.57V228.61H491.06v12.81h-8.8l-.33-20h4.23a21.62,21.62,0,0,0,5-8.79,57,57,0,0,0,2.45-13L495,176.39h33v45h6.68Zm-37.63-20h22.38V183.74H503.53l-.89,14.7c-.55,9.8-2.67,17.48-6.23,22.93Zm76.94-45h9.13v52.22h-9.13V191.42l-22.94,37.19h-9.13V176.39h9.13v37.3Zm59.8,35.19c-.56,5.56-2.57,9.91-6.13,13s-8.35,4.68-14.36,4.68a20.25,20.25,0,0,1-11-2.89,19.42,19.42,0,0,1-7.35-8.47,31.17,31.17,0,0,1-2.67-12.69v-4.9a29.41,29.41,0,0,1,2.67-13,20.22,20.22,0,0,1,7.46-8.68,20.46,20.46,0,0,1,11.36-3c5.79,0,10.36,1.56,13.92,4.68s5.57,7.57,6.13,13.25h-9c-.45-3.79-1.56-6.46-3.34-8.13s-4.35-2.56-7.69-2.56a10.52,10.52,0,0,0-9.13,4.34c-2.11,2.9-3.23,7.13-3.23,12.69v4.57c0,5.68,1,9.91,3,12.92a10.14,10.14,0,0,0,8.91,4.45c3.56,0,6.23-.78,8-2.45s2.9-4.23,3.46-8ZM678,183.74H661.76v44.87h-9v-45H636.6v-7.35H678Zm31.85,32.74H689.6l-4.23,12.13H675.9l19.71-52.22h8.13l19.82,52.22H714.1Zm-17.71-7.35H707.3l-7.57-21.72ZM771,228.61h-9V205.34H738.59v23.27h-9.13V176.39h9.13V198.1H762V176.39h9Zm10.69-52.22h9.13v45h23v-45H823v45h6.35l-.67,19.94h-8.35v-12.7H781.8V176.39Zm87,0h9.13v52.22h-9.13V191.42l-22.94,37.19h-9.13V176.39h9.13v37.3Zm61.69,27.5a31.24,31.24,0,0,1-2.67,13.48,19.64,19.64,0,0,1-7.57,8.9,21.46,21.46,0,0,1-11.36,3.12,20.21,20.21,0,0,1-19-12A29.92,29.92,0,0,1,887,204.12v-2.9a30.92,30.92,0,0,1,2.68-13.47,19.86,19.86,0,0,1,7.68-8.91,22.21,22.21,0,0,1,22.6,0,20.81,20.81,0,0,1,7.69,8.8,32.71,32.71,0,0,1,2.8,13.36l-.11,2.89Zm-9.13-2.78q0-8.69-3.34-13.36a11.51,11.51,0,0,0-18.48,0c-2.23,3.11-3.35,7.46-3.35,13v3q0,8.69,3.35,13.36a11,11,0,0,0,9.35,4.68,10.55,10.55,0,0,0,9.24-4.57c2.23-3,3.23-7.57,3.23-13.47v-2.64Zm59.68,27.5H971.8V205.34H948.38v23.27h-9.13V176.39h9.13V198.1h23.38V176.39h9v52.22Zm52.23,0h-9V205.34h-23.39v23.27h-9.13V176.39h9.13V198.1h23.39V176.39h9Zm52.44-24.72a31.24,31.24,0,0,1-2.67,13.48,19.64,19.64,0,0,1-7.57,8.9,21.46,21.46,0,0,1-11.36,3.12,20.21,20.21,0,0,1-19-12,30.1,30.1,0,0,1-2.67-13.25v-2.9a31.05,31.05,0,0,1,2.67-13.47,19.86,19.86,0,0,1,7.68-8.91,22.23,22.23,0,0,1,22.61,0,20.92,20.92,0,0,1,7.68,8.8,31,31,0,0,1,2.67,13.36Zm-9-2.78q0-8.69-3.34-13.36a11.53,11.53,0,0,0-16.14-2.34h0a11.79,11.79,0,0,0-2.34,2.34c-2.23,3.11-3.34,7.46-3.34,13v3q0,8.69,3.34,13.36a11,11,0,0,0,9.35,4.68,10.55,10.55,0,0,0,9.25-4.57c2.22-3,3.22-7.57,3.22-13.47v-2.64Zm48.66,4.12h-21.49v16h25.06v7.24h-34.19V176.28h34v7.35h-24.83V198.1h21.49ZM518,263.13h9.13v52.34H518v-37.2l-22.94,37.2h-9V263.24h9v37.31Zm45.87,35.3c.45,3.79,1.56,6.46,3.46,8.13s4.45,2.45,8,2.45a10.28,10.28,0,0,0,8.69-4.12c2-2.67,3.12-6.68,3.34-11.81H568.9v-7.34h18.48c-.22-5.24-1.34-9.14-3.45-11.81a10.69,10.69,0,0,0-8.91-4.12c-3.34,0-5.9.89-7.68,2.56s-2.9,4.46-3.34,8.24h-9c.55-5.68,2.56-10.13,6.12-13.25s8.13-4.79,13.92-4.79a21.51,21.51,0,0,1,11.36,3,19.28,19.28,0,0,1,7.46,8.57,29.07,29.07,0,0,1,2.67,12.92v4.46a31.06,31.06,0,0,1-2.56,13,19.06,19.06,0,0,1-7.35,8.58,20.59,20.59,0,0,1-11.13,3c-5.91,0-10.69-1.55-14.26-4.67s-5.68-7.46-6.12-13Zm81.29-35.3v52.34h-9v-45h-16l-.89,20.15a55.1,55.1,0,0,1-2.34,14.7,14.91,14.91,0,0,1-5.12,7.58,15.32,15.32,0,0,1-9,2.44h-2.34v-7.23l1.45-.11a7.21,7.21,0,0,0,4.78-2.23,12.27,12.27,0,0,0,2.5-5.77,65.59,65.59,0,0,0,1.23-11.36l1-25.61Zm41.53,28.95H665.21v16h25.06v7.23H656.08V263.13h34v7.35H665.21V285H686.7Zm26.4,1H707v22.39h-9V263.24h9v21.94h5l15.37-21.94H738.5L720.56,288.3,740,315.58H729.13Zm69.7-22.6H766.54v45h-9v-45H741.38v-7.35H782.8Zm15.92,25.61v19.38h-9.13V263.24h20c5.79,0,10.46,1.56,13.92,4.57a15,15,0,0,1,5.12,12c0,5.13-1.67,9.13-5,11.92s-8.08,4.27-14.1,4.27h-10.8v.09Zm0-7.35h10.92c3.23,0,5.68-.78,7.35-2.23a8.49,8.49,0,0,0,2.56-6.56,9,9,0,0,0-2.68-6.8,10.28,10.28,0,0,0-7.12-2.67H798.61Zm79.62,2a31.2,31.2,0,0,1-2.67,13.47,19.79,19.79,0,0,1-7.57,8.91,21,21,0,0,1-29-6.24,19.64,19.64,0,0,1-1.44-2.67A30,30,0,0,1,835,291v-2.9a30.92,30.92,0,0,1,2.68-13.47,20,20,0,0,1,7.68-8.91,22.21,22.21,0,0,1,22.6,0,21.07,21.07,0,0,1,7.69,8.8,32.85,32.85,0,0,1,2.78,13.36Zm-9-2.79q0-8.68-3.34-13.36a11.51,11.51,0,0,0-18.48,0q-3.35,4.68-3.35,13v3q0,8.7,3.35,13.37a11.09,11.09,0,0,0,9.35,4.67,10.56,10.56,0,0,0,9.24-4.56c2.23-3.12,3.23-7.57,3.23-13.48V288Zm59.57,27.51h-9V292.19H896.49v23.28h-9.13V263.24h9.13V285h23.38V263.24h9Zm52.23,0h-9V292.19H948.71v23.28h-9.13V263.24h9.13V285H972.1V263.24h9Zm52.44-24.72a31.2,31.2,0,0,1-2.67,13.47,19.79,19.79,0,0,1-7.57,8.91,21.67,21.67,0,0,1-11.36,3.12,21.06,21.06,0,0,1-11.25-3.12,20.63,20.63,0,0,1-7.68-8.91A31.82,31.82,0,0,1,990.25,291v-2.9a31.05,31.05,0,0,1,2.67-13.47,20,20,0,0,1,7.68-8.91,22.23,22.23,0,0,1,22.61,0,21,21,0,0,1,7.68,8.8,32.85,32.85,0,0,1,2.78,13.36Zm-9-2.79q0-8.68-3.34-13.36a11.56,11.56,0,0,0-16.14-2.34,11.79,11.79,0,0,0-2.34,2.34q-3.35,4.68-3.34,13v3q0,8.7,3.34,13.37a11,11,0,0,0,9.35,4.67,10.54,10.54,0,0,0,9.24-4.56c2.23-3,3.23-7.57,3.23-13.48Zm48.66,4.12h-21.49v16h25.06v7.23h-34.19V263.13h34v7.35h-24.83V285h21.49ZM527.7,377.6a30.91,30.91,0,0,1-2.7,13.47,19.62,19.62,0,0,1-7.57,8.91,21.46,21.46,0,0,1-11.36,3.12,20.23,20.23,0,0,1-19-12,30.1,30.1,0,0,1-2.67-13.25V375a31.1,31.1,0,0,1,2.67-13.48,19.92,19.92,0,0,1,7.69-8.9,22.21,22.21,0,0,1,22.6,0,21,21,0,0,1,7.68,8.79,32.7,32.7,0,0,1,2.79,13.36Zm-9-2.78q0-8.69-3.34-13.37a11.55,11.55,0,0,0-16.19-2.3,11.39,11.39,0,0,0-2.3,2.3q-3.35,4.68-3.34,13v3q0,8.69,3.34,13.36a11,11,0,0,0,9.36,4.68,10.55,10.55,0,0,0,9.24-4.57c2.22-3,3.23-7.57,3.23-13.47v-2.63Zm51.11-17.49H545.73V370h10.69a22.09,22.09,0,0,1,10,2,14.27,14.27,0,0,1,6.45,5.57,16.55,16.55,0,0,1-2.78,20.15c-3.34,3-7.79,4.46-13.58,4.57h-20V350.1h33.3v7.23Zm-24.06,20.05v17.7h10.69a10.15,10.15,0,0,0,7.13-2.45,8.89,8.89,0,0,0,2.56-6.68,7.75,7.75,0,0,0-2.56-6.23,9.93,9.93,0,0,0-7-2.34Zm55.46,0,10.46-27.28h10.14l-18.26,43.31-1.67,3.23q-3.51,6.35-11.7,6.35l-3.67-.22.11-7.13a27.35,27.35,0,0,0,3,.11,5.62,5.62,0,0,0,5.45-3.34L597,388l-17.82-38.09h9.91Zm67.48-27.28v52.22h-9v-20.6a49.66,49.66,0,0,1-12.14,1.45c-6.24,0-10.91-1.34-14.14-4.12s-4.79-6.91-4.79-12.36V350.1h9v16.59c0,3.34.78,5.68,2.34,7.12s4.12,2.12,7.68,2.12a44.85,44.85,0,0,0,12.14-1.56V350Zm41.42,28.95H688.6v16h25v7.24H679.47V350.1h34v7.35H688.6v14.47h21.49Zm52.44,23.27h-9V379.05H730.13v23.27H721V350.1h9.13v21.71h23.39V350.1h9Zm42.76-52.22h9.13v52.22h-9.13V365.13l-22.93,37.19h-9.14V350.1h9.14v37.3Zm50.56,28.95H834.36v16h25v7.24H825.23V350.1h34v7.35H834.36v14.47h21.49Z"/><ellipse class="cls-8" cx="1490.11" cy="636.53" rx="373.89" ry="32.97"/><ellipse class="cls-9" cx="1490.11" cy="636.53" rx="373.89" ry="32.97"/><path class="cls-10" d="M1517.31,203.11c-16.59-15.12-55.13-90-140.49-74.86-25,6.61-37.38,27.61-44.73,51.86s-17.64,42.74-30.87,59-64.36,82.84-86.1,137.23-14.48,122.22,90.62,154.35,266,58.48,334.94,55.86,88.82,1.26,134.71,24.78,31.6-67.52,26.88-148.47-49-163.69-145.11-183.85S1533.79,218.23,1517.31,203.11Z"/><rect class="cls-1" x="1141.94" y="229.04" width="732.25" height="411.38"/><g id="Мужик"><g id="стул"><path class="cls-11" d="M1765.83,478.41c15.23,5.67,18.27,8.08,20.16,11.13s4.83,8.4-1,14.38-8.92,6.41-14.91,6.93-72.13,2.42-72.13,2.42V634.54l-12.6.1V508.75Z"/><rect class="cls-11" x="1685.41" y="513.48" width="12.6" height="122.85"/><rect class="cls-11" x="1775.91" y="496.68" width="12.6" height="139.65"/></g><path id="СТУЛ-2" class="cls-12" d="M1653.59,391.79s2.21-20.48,9-29.72,52.29-15.54,61.21-15.85,47.67-.63,56.28,5.46,17.22,13,14.49,33-14.91,85.15-14.91,85.15l-103,8.71Z"/><path class="cls-13" d="M1681.73,611.44V639s0,2.52-2.2,2.52H1639.1s-3.46-1.16,0-3.15,17.64-11.66,18.8-12.39,2.2-1.89,2.41-5.25,0-7.87,0-7.87Z"/><path class="cls-13" d="M1632.38,611.44V639s0,2.52-2.1,2.52h-39.69s-3.36-1.16,0-3.15S1607.92,626.71,1609,626s2.1-1.89,2.31-5.25,0-7.87,0-7.87Z"/><g class="cls-14"><path class="cls-15" d="M1726.46,481.14s-12.08,21.84-44.83,25-29.82,1.78-29.82,1.78.73,39.17-1.79,58.7-16.59,49.77-16.59,49.77h-22.89s-3.78-84.84-4.72-94.29-4.73-23.73,0-33,5.77-8.09,5.77-8.09h114.87Z"/><path class="cls-16" d="M1726.46,481.14s-12.08,21.84-44.83,25-29.82,1.78-29.82,1.78.73,39.17-1.79,58.7-13.23,49.77-13.23,49.77l-32.44,4.2s2.31-89.15,1.47-98.49-4.73-23.73,0-33,5.77-8.09,5.77-8.09Z"/></g><g class="cls-17"><path class="cls-15" d="M1764.78,481.14s-12.07,21.84-44.83,25-29.82,1.78-29.82,1.78.73,39.17-1.78,58.7-6.51,47.46-6.51,47.46h-22s-14.81-82.74-15.65-92-4.72-23.73,0-33S1650,481,1650,481h114.86Z"/><path class="cls-18" d="M1764.78,481.14s-12.07,21.84-44.83,25-29.82,1.78-29.82,1.78.73,39.17-1.78,58.7-6.51,47.46-6.51,47.46h-22s-14.81-82.74-15.65-92-4.72-23.73,0-33S1650,481,1650,481h114.86Z"/></g><g class="cls-19"><path class="cls-20" d="M1659.05,367.74c3.57-15.22,23.83-29.61,45.25-32.76s44.63-.73,54.6,1.58,25.41,14.59,26.36,36.43,2,47.78-3.78,55.34-4,8.61-38.75,7.56-67.4,0-67.4,0Z"/><path class="cls-21" d="M1656.43,380.24c3.57-12.39,24.36-24.26,46.3-26.88s45.46-.63,55.54,1.36,25.83,12.08,27,29.82,2,39.17-3.89,45.36-4.09,7-39.58,6.3-68.77,0-68.77,0Z"/><path class="cls-22" d="M1694.22,421.92c5.78-4.83,14.81-.73,15.33-1.78s41-10.4,41.27-12.29-4.62-35.59-4.62-35.59l23.83-4.73,7.35,3.68s8.51,32.76,8.51,34.86-3.57,24.46-3.57,24.46-20.16,8.4-29.4,8-51.56-.94-51.56-.94Z"/></g><g class="cls-19"><path class="cls-23" d="M1659.05,367.74c3.57-15.22,23.83-29.61,45.25-32.76s44.63-.73,54.6,1.58,25.41,14.59,26.36,36.43,2,47.78-3.78,55.34-4,8.61-38.75,7.56-67.4,0-67.4,0Z"/><path class="cls-24" d="M1656.43,380.24c3.57-12.39,24.36-24.26,46.3-26.88s45.46-.63,55.54,1.36,25.83,12.08,27,29.82,2,39.17-3.89,45.36-4.09,7-39.58,6.3-68.77,0-68.77,0Z"/><path class="cls-25" d="M1694.22,421.92c5.78-4.83,14.81-.73,15.33-1.78s41-10.4,41.27-12.29-4.62-35.59-4.62-35.59l23.83-4.73,7.35,3.68s8.51,32.76,8.51,34.86-3.57,24.46-3.57,24.46-20.16,8.4-29.4,8-51.56-.94-51.56-.94Z"/></g><path class="cls-26" d="M1741.05,436.83H1596.37a6.81,6.81,0,0,1-6.83-6.79v0l-7.87-57a6.79,6.79,0,0,1,6.78-6.82h98.84a6.81,6.81,0,0,1,6.83,6.79v0l7.24,58.38,35.28.11a4.21,4.21,0,0,1,4.2,4.2v1.15Z"/><path class="cls-27" d="M1704.3,340.65s.32,13.65,14.49,13.76,15.86-13.55,15.86-13.55l-6.93-1.78s0-12.18-.63-15.75-10.5,7-10.5,7l-5.25,2.31-.21,7.46Z"/><path class="cls-28" d="M1671.44,305c3.36-.11,8.82,1.89,16.9-13.34s29.4-16.27,35.07-16.17,13.55.32,15.65,8.3-4,13.23-4,13.75,3.25,10.08,2,12.6-10.39.94-10.39.94l-2,7.35a95.3,95.3,0,0,0-30-6.4c-16-.32-21.73-4.83-22.15-5.14A17.7,17.7,0,0,1,1671.44,305Z"/><path class="cls-29" d="M1691.07,311.57s3.36,19.32,13.13,24.88,18.69-2.52,19.63-3.67,4.83-5.25,4.94-8.09a26.7,26.7,0,0,0,0-4s8.82-.94,8.71-7.35a7.8,7.8,0,0,0-7.35-8.08,8.58,8.58,0,0,0-1.68.11c-3,.73-7,6.71-6,9,1.47,3.26-3.78,1.26-6.41-2.41a11.63,11.63,0,0,1-2.1-6.72s-7.56,4.51-12.6,5.56A56.06,56.06,0,0,1,1691.07,311.57Z"/></g><g id="Девушка"><path class="cls-30" d="M1309.52,289.63s-2.73-25.41-10.61-37.07-61.11-19.32-71.61-19.74-55.54-.73-65.72,6.83-20.16,16.06-16.91,41.16S1162,386.75,1162,386.75l120.43,10.81Z"/><g id="стул-3"><path class="cls-11" d="M1215.33,431.79c-17.74,7-21.31,9.87-23.62,13.76s-5.56,10.29,1.26,17.74,10.5,7.87,17.32,8.5,61.22,3,61.22,3V623.3h-45.68l1.26,9h106v-9.1l-46.73.21V469Z"/><circle class="cls-11" cx="1279.28" cy="629.39" r="12.7"/><circle class="cls-11" cx="1221.42" cy="629.39" r="12.7"/><circle class="cls-11" cx="1337.34" cy="629.39" r="12.7"/></g><path class="cls-13" d="M1356.35,614.28v29.18s-.95,2.52,3.67,2.94,43.15,0,43.15,0,5.88-.42.63-3.46-24.25-14.39-24.25-14.39-2.42-1.26-2.42-5.14v-6.72Z"/><path class="cls-13" d="M1316.87,614.28v29.18s-.95,2.52,3.57,2.94,43.15,0,43.15,0,5.88-.42.63-3.46S1340,628.55,1340,628.55s-2.42-1.26-2.42-5.14v-6.72Z"/><g class="cls-31"><path class="cls-15" d="M1249.88,435.15s14.49,29,53.76,33.18,35.8,2.31,35.8,2.31-.94,51.87,2.1,78,8.51,71.4,8.51,71.4l35.17.74s15.33-117.71,16.48-130-1.47-32.76-7.14-45.15-7-10.6-7-10.6Z"/><path class="cls-32" d="M1252.29,434.63s9.45,36.95,48.72,41.26l39.27,4.2S1340.91,522,1344,548s6,72,6,72l37.69-1.89s15.44-116.55,16.49-128.94-1.58-31.7-7.14-44-7-10.6-7-10.6Z"/></g><g class="cls-33"><path class="cls-15" d="M1208.51,435.15s6,39,45.15,43.15,38.43,6.51,38.43,6.51,4.93,37.91,8,63.95,14.49,69.72,14.49,69.72l25.93-.74s18.59-114.34,19.64-126.63-1.47-32.75-7.14-45.14-7-10.61-7-10.61Z"/><path class="cls-34" d="M1208.51,435.15s14.49,29,53.76,33.18,35.8,2.31,35.8,2.31-.94,51.87,2.1,78,8.19,68.88,8.19,68.88l35.49,1.26s15.44-116.55,16.49-128.94-1.58-31.7-7.14-44-7-10.6-7-10.6l-137.65-.11Z"/></g><path class="cls-35" d="M1294.92,279.55c-3.78-6-7.56-12.18-6.3-17s13.13-25.2,9.45-43-23.1-27.41-34.23-29.19-28.66-3.05-39.48,10.08-14.8,32.65-14.27,43.15-6,24.36-21.53,34.65-27.51,26.25-24,58,54.17,29.4,54.17,29.4Z"/><g class="cls-36"><path class="cls-23" d="M1326.84,306.85c-3.78-15.54-25.3-30.45-48.09-33.5s-47.25-.73-57.75,1.58-26.87,15.12-27.92,37.37-2.1,48.83,4,56.7,4.2,8.82,41.15,7.88,71.4,0,71.4,0Z"/><path class="cls-37" d="M1328.42,306.85c-3.78-15.54-25.31-30.45-48.09-33.5s-47.25-.73-57.75,1.58-26.88,15.12-27.93,37.37-2.1,48.83,4,56.7,4.2,8.82,41.16,7.88,71.4,0,71.4,0Z"/><path class="cls-38" d="M1302.38,366.17c-8.09-6.2-22.58,1.36-23.42,0s-55.12-15.54-55.54-18,10.18-42.52,10.18-42.52l-36.95-8.92-10.29,4.72s2.73,42.52,2.73,45.15,3.25,30.45,3.25,30.45,15.33,10.92,28.24,10.39,72-1.15,72-1.15Z"/></g><path class="cls-39" d="M1250.61,377.61h145.11a6.8,6.8,0,0,0,6.82-6.78v0l7.88-57.33a6.82,6.82,0,0,0-6.8-6.82h-99.14a6.81,6.81,0,0,0-6.83,6.79v0l-7.24,58.69-35.49.11a4.26,4.26,0,0,0-4.2,4.32v.09l-.11.94Z"/><path class="cls-40" d="M1268.36,255.19l3.78,19.32-4.94,8.82-21.84-11s3.47-27.4,5.15-30.13S1268.36,255.19,1268.36,255.19Z"/><path class="cls-29" d="M1281.17,239.65s-5.88,16.8-12.08,19.53-12.6-5.36-13.23-5.88-6.51-7.35-6.51-7.35l.21-2.84-2-.42a.58.58,0,0,1-.43-.7v0h0c0-.11,0-.21.1-.21l3.78-4.41a14.88,14.88,0,0,0,2.42-3.36l2.41-3.89a1.29,1.29,0,0,1,1.68-.31l9.24,5.14a17.55,17.55,0,0,0,4.94,2.21Z"/><polygon class="cls-41" points="1275.5 272.51 1277.07 292.46 1267.94 284.27 1261.11 295.08 1242.11 272.41 1244.84 271.57 1267.2 283.33 1272.14 271.57 1275.5 272.51"/></g><path id="Стол" class="cls-11" d="M1835.45,639.16h-2.94c-1.89,0-3.47-2.21-3.47-5l-.73-147c0-2.83-1.58-5-3.47-5l-281.29-.52c-1.89,0-3.46,2.2-3.46,5l-.74,147.94c0,2.83-1.57,5.14-3.57,5l-3.15-.11c-1.89,0-3.36-2.31-3.36-5v-193c0-2.83,1.58-5,3.47-5h302.6c1.89,0,3.47,2.21,3.47,5V634.22C1838.91,637,1837.34,639.16,1835.45,639.16Z"/><path id="Стол-2" class="cls-11" d="M1482.55,642h-3.15c-2.1,0-3.78-2.94-3.78-6.4l-.94-193.51c0-3.57-1.68-6.4-3.78-6.4L1159.79,435c-2.1,0-3.78,2.84-3.78,6.41L1155.07,636c0,3.57-1.79,6.51-3.89,6.4l-3.46-.1c-2.1-.11-3.68-2.94-3.68-6.51V384.23c0-3.57,1.68-6.51,3.78-6.51h334.73c2.1,0,3.78,2.94,3.78,6.51V635.59C1486.44,639.05,1484.65,642,1482.55,642Z"/><path class="cls-7" d="M489.87,105.57c.61,4.35,2.05,7.25,4,8.94s4.95,2.54,8.69,2.54a11.94,11.94,0,0,0,9.78-4.83c2.54-3.14,3.5-7.73,3.75-13.29H495.67V93.26h20.41c0-5.68-1.21-10-3.75-13.29a12.07,12.07,0,0,0-10.14-5c-3.5,0-6.28.85-8.33,2.66a14,14,0,0,0-3.75,8.94h-6.88c.6-5.44,2.54-9.54,5.8-12.68s7.73-4.59,13.28-4.59a21.65,21.65,0,0,1,11,2.9,18.15,18.15,0,0,1,7.24,8.57,32.48,32.48,0,0,1,2.54,12.68v5.19a30.21,30.21,0,0,1-2.54,12.68,20.82,20.82,0,0,1-7.12,8.57,19.72,19.72,0,0,1-10.63,2.9c-5.67,0-10.14-1.45-13.52-4.34s-5.44-7.25-6-12.68h6.4v-.25ZM572.47,122h-6.89V75.87H540V122h-6.9V70.19h39.37Zm52.28-24.27A32.66,32.66,0,0,1,622.22,111,18.58,18.58,0,0,1,604,122.6a21.47,21.47,0,0,1-10.86-2.9,18.7,18.7,0,0,1-7.25-8.57,31.22,31.22,0,0,1-2.66-12.92V94.47a32,32,0,0,1,2.54-13.17,19.32,19.32,0,0,1,18.11-11.83,20.13,20.13,0,0,1,11,3.14,19.1,19.1,0,0,1,7.25,8.69,31.75,31.75,0,0,1,2.53,13.29v2.89h.12Zm-6.64-3.39c0-6.27-1.21-10.86-3.74-14.12a12.28,12.28,0,0,0-10.39-5,12,12,0,0,0-10.14,5c-2.53,3.38-3.74,8-3.74,13.76v3.75c0,6,1.21,10.62,3.74,14.12a12.23,12.23,0,0,0,10.39,5c4.34,0,8-1.69,10.14-4.83,2.53-3.14,3.74-8,3.74-13.76Zm54.95,11.23c-.61,5.44-2.66,9.79-6,12.68s-8,4.35-13.53,4.35a18.66,18.66,0,0,1-14.77-6.6c-3.74-4.35-5.43-10.14-5.43-17.75v-5a30,30,0,0,1,2.53-12.68,18.24,18.24,0,0,1,7.25-8.33,20.63,20.63,0,0,1,11-2.9c5.43,0,10,1.45,13.28,4.59s5.19,7.24,5.8,12.68h-6.77c-.6-4.11-1.93-7.13-4-8.94S657.6,75,654.1,75A12.18,12.18,0,0,0,644,79.85c-2.53,3.14-3.74,8-3.74,13.77v4.95c0,5.68,1.21,10,3.5,13.28a11.19,11.19,0,0,0,9.78,5c3.75,0,6.64-.84,8.7-2.53s3.38-4.83,4-8.94h6.89v.24Z"/><path class="cls-42" d="M390.66,213.8c-2.65,15.68-3.75,19.87-11.48,26.28C369.68,247.59,257.73,267,257.29,180c-.44-91,66.24-117.69,76.18-122.55,10.38-4.86,14.57-1.55,13.69,10.38l20.1,13.69s-.67,5.74,0,7.28c3.53,6.41,21,15.9,21,15.9,0,4.2-9.93,23.19-32.46,16.78-8.39-2.21-32.68-.44-3.53,30"/><path class="cls-43" d="M432.62,141.15l-25.18,48.36h-51"/><path class="cls-44" d="M374.32,177.37c0-21.64,14.57-32.46,35.77-21.64"/><path class="cls-44" d="M361.29,176.48c-1.1-31.13,26.94-49,55.65-33.78"/><path class="cls-44" d="M387.57,176.93c0-9.5,4.64-15.68,17.22-9.94"/><path class="cls-7" d="M1584.36,61.37h-5.49V76.58h-2.23V61.37h-5.48V59.52h13.2Zm6.28,15.45a5.54,5.54,0,0,1-4.2-1.69,6.32,6.32,0,0,1-1.61-4.53v-.4a7.61,7.61,0,0,1,.71-3.37,5.72,5.72,0,0,1,2-2.32,5.06,5.06,0,0,1,2.81-.84,4.72,4.72,0,0,1,3.84,1.63,7,7,0,0,1,1.37,4.66v.9H1587a4.63,4.63,0,0,0,1.09,3,3.48,3.48,0,0,0,2.68,1.15,3.79,3.79,0,0,0,1.94-.47,5,5,0,0,0,1.4-1.24l1.32,1A5.33,5.33,0,0,1,1590.64,76.82Zm-.27-11.37a2.87,2.87,0,0,0-2.2,1,4.65,4.65,0,0,0-1.11,2.67h6.36v-.16a4.2,4.2,0,0,0-.89-2.56A2.76,2.76,0,0,0,1590.37,65.45Zm18.13-1.55V76.58h-2.18V65.7H1602l-.26,4.74a10.5,10.5,0,0,1-1.1,4.68,3.18,3.18,0,0,1-2.8,1.46H1597V74.67l.62,0a1.8,1.8,0,0,0,1.51-1.22,13.74,13.74,0,0,0,.59-4.08l.23-5.43Zm8.74,12.92a5.51,5.51,0,0,1-4.19-1.69,6.28,6.28,0,0,1-1.62-4.53v-.4a7.76,7.76,0,0,1,.71-3.37,5.72,5.72,0,0,1,2-2.32,5.08,5.08,0,0,1,2.81-.84,4.76,4.76,0,0,1,3.85,1.63,7.06,7.06,0,0,1,1.37,4.66v.9h-8.59a4.52,4.52,0,0,0,1.09,3,3.45,3.45,0,0,0,2.67,1.15,3.79,3.79,0,0,0,1.94-.47,5,5,0,0,0,1.4-1.24l1.32,1A5.32,5.32,0,0,1,1617.24,76.82ZM1617,65.45a2.88,2.88,0,0,0-2.2,1,4.58,4.58,0,0,0-1.1,2.67H1620v-.16a4.13,4.13,0,0,0-.89-2.56A2.74,2.74,0,0,0,1617,65.45Zm7.27,5a8.79,8.79,0,0,1,1.23-5,3.86,3.86,0,0,1,3.37-1.82,4.14,4.14,0,0,1,1.75.34V58.58h2.17v5.5a4.25,4.25,0,0,1,1.92-.41,3.87,3.87,0,0,1,3.38,1.82,9.21,9.21,0,0,1,1.24,5.23,7.24,7.24,0,0,1-1.24,4.46,3.94,3.94,0,0,1-3.36,1.65,4.57,4.57,0,0,1-1.94-.38v5h-2.17v-5a4.33,4.33,0,0,1-1.77.34,4,4,0,0,1-3.36-1.65,7.43,7.43,0,0,1-1.22-4.53Zm12.89,0a7,7,0,0,0-.82-3.7,2.53,2.53,0,0,0-2.26-1.33,3.16,3.16,0,0,0-1.29.24v9.17a3.8,3.8,0,0,0,1.31.2,2.59,2.59,0,0,0,2.25-1.12A6,6,0,0,0,1637.13,70.48Zm-10.73.24a5.68,5.68,0,0,0,.77,3.24,2.49,2.49,0,0,0,2.19,1.1,3.45,3.45,0,0,0,1.23-.21v-9.2a3.29,3.29,0,0,0-1.21-.2,2.44,2.44,0,0,0-2.2,1.28A7.88,7.88,0,0,0,1626.4,70.72Zm15.15-.59a7.56,7.56,0,0,1,.72-3.35,5.45,5.45,0,0,1,2-2.3,5.58,5.58,0,0,1,3-.81,5.33,5.33,0,0,1,4.18,1.79,6.9,6.9,0,0,1,1.61,4.77v.15a7.47,7.47,0,0,1-.72,3.33,5.36,5.36,0,0,1-2,2.29,5.68,5.68,0,0,1-3,.82,5.36,5.36,0,0,1-4.18-1.79,6.91,6.91,0,0,1-1.59-4.75Zm2.18.25a5.44,5.44,0,0,0,1,3.39,3.32,3.32,0,0,0,5.25,0,6,6,0,0,0,1-3.63,5.35,5.35,0,0,0-1-3.38,3.28,3.28,0,0,0-5.21,0A5.85,5.85,0,0,0,1643.73,70.38Zm22.44,6.2H1664V71.17h-5.83v5.41H1656V63.9h2.18v5.5H1664V63.9h2.17Zm5.86-8.3h3.29a5.07,5.07,0,0,1,3.41,1.12,3.79,3.79,0,0,1,1.25,3,3.9,3.9,0,0,1-1.29,3,5,5,0,0,1-3.46,1.14h-5.37V63.9H1672Zm12.48,8.3h-2.18V63.9h2.18ZM1672,70v4.77h3.22a2.66,2.66,0,0,0,1.89-.62,2.26,2.26,0,0,0,.66-1.72,2.37,2.37,0,0,0-.65-1.72,2.46,2.46,0,0,0-1.82-.71Zm32.93.34a7.63,7.63,0,0,1-1.33,4.67,4.24,4.24,0,0,1-3.58,1.77,4.67,4.67,0,0,1-3.64-1.47v6.11h-2.17V63.9h2l.1,1.41a4.47,4.47,0,0,1,3.68-1.64,4.3,4.3,0,0,1,3.61,1.72,7.67,7.67,0,0,1,1.34,4.8Zm-2.17-.24a5.61,5.61,0,0,0-.92-3.39,2.93,2.93,0,0,0-2.5-1.24,3.19,3.19,0,0,0-3,1.75v6a3.19,3.19,0,0,0,3,1.74,2.92,2.92,0,0,0,2.47-1.23A6.11,6.11,0,0,0,1702.79,70.14ZM1713,76.82a5.52,5.52,0,0,1-4.19-1.69,6.28,6.28,0,0,1-1.62-4.53v-.4a7.62,7.62,0,0,1,.72-3.37,5.63,5.63,0,0,1,2-2.32,5.1,5.1,0,0,1,2.81-.84,4.76,4.76,0,0,1,3.85,1.63,7.06,7.06,0,0,1,1.37,4.66v.9h-8.59a4.52,4.52,0,0,0,1.09,3,3.45,3.45,0,0,0,2.67,1.15,3.83,3.83,0,0,0,2-.47,5,5,0,0,0,1.39-1.24l1.32,1A5.32,5.32,0,0,1,1713,76.82Zm-.27-11.37a2.88,2.88,0,0,0-2.2,1,4.64,4.64,0,0,0-1.1,2.67h6.35v-.16a4.13,4.13,0,0,0-.89-2.56A2.74,2.74,0,0,0,1712.71,65.45Zm15.93.25h-5.85V76.58h-2.18V63.9h8Zm10.09-1.8h2.17V76.58h-2.17V67.34l-5.85,9.24h-2.17V63.9h2.17v9.26Zm5.07,6.23a7.56,7.56,0,0,1,.73-3.35,5.45,5.45,0,0,1,2-2.3,5.56,5.56,0,0,1,3-.81,5.34,5.34,0,0,1,4.18,1.79,6.9,6.9,0,0,1,1.61,4.77v.15a7.47,7.47,0,0,1-.72,3.33,5.32,5.32,0,0,1-2,2.29,5.62,5.62,0,0,1-3,.82A5.36,5.36,0,0,1,1745.4,75a6.86,6.86,0,0,1-1.6-4.75Zm2.18.25a5.44,5.44,0,0,0,1,3.39,3.32,3.32,0,0,0,5.25,0,6,6,0,0,0,1-3.63,5.35,5.35,0,0,0-1-3.38,3.28,3.28,0,0,0-5.21,0A5.85,5.85,0,0,0,1746,70.38Zm22.44,6.2h-2.16V71.17h-5.83v5.41h-2.18V63.9h2.18v5.5h5.83V63.9h2.16Zm11.32,0a4.78,4.78,0,0,1-.3-1.33,4.86,4.86,0,0,1-3.61,1.57,4.47,4.47,0,0,1-3.08-1.06,3.45,3.45,0,0,1-1.2-2.69,3.57,3.57,0,0,1,1.5-3.07,7.09,7.09,0,0,1,4.25-1.1h2.1v-1a2.4,2.4,0,0,0-.67-1.8,2.72,2.72,0,0,0-2-.68,3.15,3.15,0,0,0-1.94.58,1.71,1.71,0,0,0-.79,1.42h-2.18a3,3,0,0,1,.67-1.83,4.57,4.57,0,0,1,1.83-1.4,6.07,6.07,0,0,1,2.54-.52,5,5,0,0,1,3.43,1.1,3.93,3.93,0,0,1,1.29,3v5.84a7.1,7.1,0,0,0,.45,2.78v.18Zm-3.59-1.65a3.72,3.72,0,0,0,1.93-.53A3.11,3.11,0,0,0,1779.4,73v-2.6h-1.69q-4,0-4,2.33a2,2,0,0,0,.68,1.6A2.63,2.63,0,0,0,1776.15,74.93Zm19.22-11V76.58h-2.18V65.7h-4.32l-.25,4.74a10.35,10.35,0,0,1-1.11,4.68,3.17,3.17,0,0,1-2.8,1.46h-.86V74.67l.62,0a1.81,1.81,0,0,0,1.51-1.22,13.83,13.83,0,0,0,.58-4.08l.24-5.43Zm5.84,4.38h3.3a5.09,5.09,0,0,1,3.41,1.12,3.79,3.79,0,0,1,1.25,3,3.9,3.9,0,0,1-1.29,3,5,5,0,0,1-3.47,1.14h-5.36V63.9h2.16Zm0,1.76v4.77h3.23a2.62,2.62,0,0,0,1.88-.62,2.23,2.23,0,0,0,.67-1.72,2.34,2.34,0,0,0-.66-1.72,2.44,2.44,0,0,0-1.81-.71Zm21,6.54h-2.17V71.17h-5.83v5.41h-2.18V63.9h2.18v5.5h5.83V63.9h2.17Zm2.91-6.45a7.56,7.56,0,0,1,.73-3.35,5.45,5.45,0,0,1,2-2.3,5.58,5.58,0,0,1,3-.81,5.33,5.33,0,0,1,4.18,1.79,6.9,6.9,0,0,1,1.61,4.77v.15a7.47,7.47,0,0,1-.72,3.33,5.36,5.36,0,0,1-2,2.29,5.68,5.68,0,0,1-3,.82,5.36,5.36,0,0,1-4.18-1.79,6.91,6.91,0,0,1-1.6-4.75Zm2.18.25a5.44,5.44,0,0,0,1,3.39,3.32,3.32,0,0,0,5.25,0,6,6,0,0,0,1-3.63,5.35,5.35,0,0,0-1-3.38,3.28,3.28,0,0,0-5.21,0A5.85,5.85,0,0,0,1827.33,70.38Zm20.29-6.48h2.17V76.58h-2.17V67.34l-5.85,9.24h-2.17V63.9h2.17v9.26Zm.59-4.61a2.91,2.91,0,0,1-1,2.28,4.15,4.15,0,0,1-5.07,0,2.9,2.9,0,0,1-1-2.27H1843a1.81,1.81,0,0,0,.44,1.29,1.76,1.76,0,0,0,3-1.29Zm19.2,6.41h-5.85V76.58h-2.17V63.9h8Zm1.08,4.43a7.43,7.43,0,0,1,.73-3.35,5.45,5.45,0,0,1,2-2.3,5.55,5.55,0,0,1,3-.81,5.35,5.35,0,0,1,4.19,1.79,6.9,6.9,0,0,1,1.6,4.77v.15a7.47,7.47,0,0,1-.71,3.33,5.38,5.38,0,0,1-2,2.29,5.62,5.62,0,0,1-3,.82,5.38,5.38,0,0,1-4.19-1.79,6.91,6.91,0,0,1-1.59-4.75Zm2.18.25a5.44,5.44,0,0,0,1,3.39,3.16,3.16,0,0,0,2.63,1.28,3.11,3.11,0,0,0,2.62-1.29,6,6,0,0,0,1-3.63,5.41,5.41,0,0,0-1-3.38,3.29,3.29,0,0,0-5.22,0A5.92,5.92,0,0,0,1870.67,70.38Zm22.79,0a7.63,7.63,0,0,1-1.32,4.67,4.24,4.24,0,0,1-3.59,1.77,4.63,4.63,0,0,1-3.63-1.47v6.11h-2.17V63.9h2l.11,1.41a4.47,4.47,0,0,1,3.68-1.64,4.32,4.32,0,0,1,3.61,1.72,7.67,7.67,0,0,1,1.33,4.8Zm-2.16-.24a5.61,5.61,0,0,0-.92-3.39,2.93,2.93,0,0,0-2.51-1.24,3.18,3.18,0,0,0-2.95,1.75v6a3.19,3.19,0,0,0,3,1.74,2.92,2.92,0,0,0,2.47-1.23A6.11,6.11,0,0,0,1891.3,70.14Zm14.62-6.24V76.58h-2.18V71.65h-3.27l-3,4.93h-2.34l3.19-5.26a3.57,3.57,0,0,1-2.52-3.55,3.41,3.41,0,0,1,1.3-2.79,5.4,5.4,0,0,1,3.48-1.08ZM1898,67.79a1.93,1.93,0,0,0,.63,1.5,2.46,2.46,0,0,0,1.68.58h3.44V65.66h-3.12a2.9,2.9,0,0,0-1.92.6A1.9,1.9,0,0,0,1898,67.79Zm21,8.79h-2.18V72a11.54,11.54,0,0,1-2.93.37,5,5,0,0,1-3.64-1.21,4.7,4.7,0,0,1-1.26-3.47V63.89h2.17v3.86c0,1.89.94,2.83,2.73,2.83a11.54,11.54,0,0,0,2.93-.37V63.9H1919Zm8.74.24a5.54,5.54,0,0,1-4.2-1.69,6.28,6.28,0,0,1-1.62-4.53v-.4a7.62,7.62,0,0,1,.72-3.37,5.65,5.65,0,0,1,2-2.32,5.06,5.06,0,0,1,2.81-.84,4.72,4.72,0,0,1,3.84,1.63,7,7,0,0,1,1.37,4.66v.9h-8.59a4.57,4.57,0,0,0,1.09,3,3.47,3.47,0,0,0,2.67,1.15,3.8,3.8,0,0,0,2-.47,4.82,4.82,0,0,0,1.39-1.24l1.33,1A5.33,5.33,0,0,1,1927.72,76.82Zm-.27-11.37a2.9,2.9,0,0,0-2.21,1,4.64,4.64,0,0,0-1.1,2.67h6.35v-.16a4.07,4.07,0,0,0-.89-2.56A2.74,2.74,0,0,0,1927.45,65.45Zm15.94-1.55h2.16V76.58h-2.16V67.34l-5.85,9.24h-2.17V63.9h2.17v9.26Zm.58-4.61a2.91,2.91,0,0,1-1,2.28,4.16,4.16,0,0,1-5.08,0,2.93,2.93,0,0,1-1-2.27h1.77a1.81,1.81,0,0,0,.45,1.29,2.06,2.06,0,0,0,2.57,0,1.71,1.71,0,0,0,.47-1.29Zm21.41,4.61V76.58h-2.18V65.7h-4.31l-.26,4.74a10.5,10.5,0,0,1-1.1,4.68,3.18,3.18,0,0,1-2.8,1.46h-.87V74.67l.62,0a1.79,1.79,0,0,0,1.51-1.22,13.74,13.74,0,0,0,.59-4.08l.24-5.43Zm11.68,0h2.17V76.58h-2.17V67.34l-5.84,9.24h-2.17V63.9h2.17v9.26Zm16,12.68h-2.17V71.17h-5.82v5.41h-2.18V63.9h2.18v5.5h5.82V63.9h2.17Zm11.7-12.68h2.17V76.58h-2.17V67.34l-5.85,9.24h-2.17V63.9h2.17v9.26Zm13.85,0h2.17V76.58h-2.17V67.34l-5.85,9.24h-2.17V63.9h2.17v9.26Zm5.58,11.55a1.37,1.37,0,0,1,.33-.94,1.52,1.52,0,0,1,2,0,1.29,1.29,0,0,1,.35.94,1.21,1.21,0,0,1-.35.9,1.58,1.58,0,0,1-2,0A1.28,1.28,0,0,1,2024.2,75.45Zm0-10.35a1.37,1.37,0,0,1,.33-.94,1.36,1.36,0,0,1,2.36.94,1.21,1.21,0,0,1-.35.9,1.58,1.58,0,0,1-2,0A1.28,1.28,0,0,1,2024.21,65.1Zm-659.16,37.71.75-.92a8.71,8.71,0,0,0,1.44-4.92l.2-5.07h8.17v10.91h1.63v5.5h-2.17v-3.73h-8.84v3.73h-2.17v-5.5Zm2.57,0h5.82v-8.9h-3.9l-.13,3A10.46,10.46,0,0,1,1367.62,102.81ZM1390,91.9v12.68h-2.18V93.7h-4.31l-.26,4.74a10.5,10.5,0,0,1-1.1,4.68,3.18,3.18,0,0,1-2.8,1.46h-.87v-1.91l.62,0a1.8,1.8,0,0,0,1.51-1.22,13.74,13.74,0,0,0,.59-4.08l.23-5.43Zm13.17,0v12.68H1401V99.65h-3.27l-3,4.93h-2.34l3.19-5.26a3.57,3.57,0,0,1-2.52-3.55,3.41,3.41,0,0,1,1.3-2.79,5.36,5.36,0,0,1,3.48-1.08Zm-7.93,3.89a1.93,1.93,0,0,0,.63,1.5,2.45,2.45,0,0,0,1.67.58H1401V93.66h-3.12a2.9,2.9,0,0,0-1.92.6A1.87,1.87,0,0,0,1395.28,95.79ZM1415,91.9v10.91h4.64V91.9h2.17v10.91h4.63V91.9h2.18v12.68h-15.8V91.9Zm21,7.28h-1.58v5.4h-2.18V91.9h2.18v5.37h1.41l4.27-5.37h2.63l-5,6.1,5.44,6.58h-2.76Zm8.18-1.05a7.56,7.56,0,0,1,.72-3.35,5.39,5.39,0,0,1,5-3.11,5.36,5.36,0,0,1,4.19,1.79,6.9,6.9,0,0,1,1.6,4.77v.15a7.61,7.61,0,0,1-.71,3.33,5.38,5.38,0,0,1-2,2.29,5.65,5.65,0,0,1-3,.82,5.38,5.38,0,0,1-4.19-1.79,6.91,6.91,0,0,1-1.59-4.75Zm2.18.25a5.44,5.44,0,0,0,1,3.39,3.16,3.16,0,0,0,2.63,1.28,3.11,3.11,0,0,0,2.62-1.29,6,6,0,0,0,1-3.63,5.41,5.41,0,0,0-1-3.38,3.29,3.29,0,0,0-5.22,0A5.92,5.92,0,0,0,1446.36,98.38Zm22.29-6.48v12.68h-2.18V93.7h-4.32l-.25,4.74a10.5,10.5,0,0,1-1.1,4.68,3.18,3.18,0,0,1-2.81,1.46h-.86v-1.91l.62,0a1.8,1.8,0,0,0,1.51-1.22,14.08,14.08,0,0,0,.59-4.08l.23-5.43Zm9.35,5.76a18.24,18.24,0,0,1,.7-5.09,15.24,15.24,0,0,1,2.12-4.43,9,9,0,0,1,2.92-2.81l.45,1.43a9.39,9.39,0,0,0-2.82,4,17.58,17.58,0,0,0-1.19,6v1a17.5,17.5,0,0,0,1.65,7.85,9.25,9.25,0,0,0,2.37,3.12l-.45,1.32a9.43,9.43,0,0,1-3-2.9A16.34,16.34,0,0,1,1478,97.66Zm18.65,6.92h-2.16V93.7h-5.84v10.88h-2.18V91.9h10.18Zm8.75.24a5.54,5.54,0,0,1-4.2-1.69,6.28,6.28,0,0,1-1.62-4.53v-.4a7.62,7.62,0,0,1,.72-3.37,5.65,5.65,0,0,1,2-2.32,5.06,5.06,0,0,1,2.81-.84A4.72,4.72,0,0,1,1509,93.3a7,7,0,0,1,1.37,4.66v.9h-8.59a4.57,4.57,0,0,0,1.09,3,3.47,3.47,0,0,0,2.67,1.15,3.8,3.8,0,0,0,2-.47,4.82,4.82,0,0,0,1.39-1.24l1.33,1A5.33,5.33,0,0,1,1505.4,104.82Zm-.27-11.37a2.9,2.9,0,0,0-2.21,1,4.64,4.64,0,0,0-1.1,2.67h6.35v-.16a4.07,4.07,0,0,0-.89-2.56A2.74,2.74,0,0,0,1505.13,93.45Zm7.63,9.36.75-.92A8.87,8.87,0,0,0,1515,97l.2-5.07h8.17v10.91h1.62v5.5h-2.16v-3.73h-8.85v3.73h-2.17v-5.5Zm2.56,0h5.83v-8.9h-3.91l-.12,3A10.46,10.46,0,0,1,1515.32,102.81Zm19.85,1.77a4.78,4.78,0,0,1-.3-1.33,4.86,4.86,0,0,1-3.61,1.57,4.47,4.47,0,0,1-3.08-1.06,3.45,3.45,0,0,1-1.2-2.69,3.57,3.57,0,0,1,1.5-3.07,7.07,7.07,0,0,1,4.25-1.1h2.1v-1a2.37,2.37,0,0,0-.68-1.8,2.68,2.68,0,0,0-2-.68,3.15,3.15,0,0,0-1.94.58,1.71,1.71,0,0,0-.79,1.42h-2.18a3,3,0,0,1,.67-1.83,4.57,4.57,0,0,1,1.83-1.4,6.07,6.07,0,0,1,2.54-.52,5,5,0,0,1,3.43,1.1,3.93,3.93,0,0,1,1.29,3v5.84a7.1,7.1,0,0,0,.45,2.78v.18Zm-3.59-1.65a3.72,3.72,0,0,0,1.93-.53,3.11,3.11,0,0,0,1.32-1.37v-2.6h-1.69q-4,0-4,2.33a2,2,0,0,0,.68,1.6A2.63,2.63,0,0,0,1531.58,102.93Zm17-9.23h-5.85v10.88h-2.18V91.9h8Zm1.08,4.43a7.43,7.43,0,0,1,.73-3.35,5.45,5.45,0,0,1,2-2.3,5.55,5.55,0,0,1,3-.81,5.35,5.35,0,0,1,4.19,1.79,6.9,6.9,0,0,1,1.6,4.77v.15a7.47,7.47,0,0,1-.71,3.33,5.38,5.38,0,0,1-2,2.29,5.62,5.62,0,0,1-3,.82,5.38,5.38,0,0,1-4.19-1.79,6.91,6.91,0,0,1-1.59-4.75Zm2.18.25a5.44,5.44,0,0,0,1,3.39,3.16,3.16,0,0,0,2.63,1.28,3.11,3.11,0,0,0,2.62-1.29,6,6,0,0,0,1-3.63,5.41,5.41,0,0,0-1-3.38,3.29,3.29,0,0,0-5.22,0A5.92,5.92,0,0,0,1551.85,98.38Zm20.27-4.68h-5.84v10.88h-2.18V91.9h8Zm1.08,4.43a7.43,7.43,0,0,1,.73-3.35,5.45,5.45,0,0,1,2-2.3,5.56,5.56,0,0,1,3-.81,5.34,5.34,0,0,1,4.18,1.79,6.9,6.9,0,0,1,1.6,4.77v.15a7.47,7.47,0,0,1-.71,3.33,5.32,5.32,0,0,1-2,2.29,5.62,5.62,0,0,1-3,.82,5.36,5.36,0,0,1-4.18-1.79,6.86,6.86,0,0,1-1.6-4.75Zm2.18.25a5.5,5.5,0,0,0,1,3.39,3.17,3.17,0,0,0,2.63,1.28,3.1,3.1,0,0,0,2.62-1.29,6,6,0,0,0,1-3.63,5.41,5.41,0,0,0-1-3.38,3.28,3.28,0,0,0-5.21,0A5.85,5.85,0,0,0,1575.38,98.38Zm12.28,6.2V91.9h4.95a7.07,7.07,0,0,1,3.88.89,2.91,2.91,0,0,1,1.36,2.59,2.65,2.65,0,0,1-.53,1.6,3.26,3.26,0,0,1-1.56,1.08,3.41,3.41,0,0,1,1.84,1,2.71,2.71,0,0,1,.7,1.88,3.09,3.09,0,0,1-1.29,2.67,6.05,6.05,0,0,1-3.62.92Zm2.17-5.56v3.82h3.59a3.3,3.3,0,0,0,2-.51,1.62,1.62,0,0,0,.68-1.41c0-1.27-.93-1.9-2.79-1.9Zm0-1.74h2.8c2,0,3-.59,3-1.78s-1-1.8-2.88-1.84h-3Zm25.5-5.38h2.17v12.68h-2.17V95.34l-5.85,9.24h-2.16V91.9h2.16v9.26Zm19.43,12.68a4.44,4.44,0,0,1-.3-1.33,4.88,4.88,0,0,1-3.61,1.57,4.51,4.51,0,0,1-3.09-1.06,3.47,3.47,0,0,1-1.19-2.69,3.57,3.57,0,0,1,1.5-3.07,7.06,7.06,0,0,1,4.24-1.1h2.11v-1a2.4,2.4,0,0,0-.68-1.8,2.68,2.68,0,0,0-2-.68,3.18,3.18,0,0,0-2,.58,1.73,1.73,0,0,0-.78,1.42h-2.18a3,3,0,0,1,.66-1.83,4.71,4.71,0,0,1,1.83-1.4,6.12,6.12,0,0,1,2.55-.52,5,5,0,0,1,3.43,1.1,3.93,3.93,0,0,1,1.29,3v5.84a7.31,7.31,0,0,0,.44,2.78v.18Zm-3.6-1.65a3.75,3.75,0,0,0,1.94-.53,3.11,3.11,0,0,0,1.32-1.37v-2.6h-1.7c-2.66,0-4,.78-4,2.33a2,2,0,0,0,.68,1.6A2.6,2.6,0,0,0,1631.16,102.93Zm8.72-.12.75-.92a8.71,8.71,0,0,0,1.44-4.92l.2-5.07h8.17v10.91h1.63v5.5h-2.17v-3.73h-8.85v3.73h-2.16v-5.5Zm2.57,0h5.82v-8.9h-3.9l-.13,3A10.46,10.46,0,0,1,1642.45,102.81Zm19.32-1.1,4.31-9.81h2.71v12.68h-2.17V95.36l-4.1,9.22H1661l-4.18-9.42v9.42h-2.17V91.9h2.81Zm18.72-9.81h2.16v12.68h-2.16V95.34l-5.85,9.24h-2.17V91.9h2.17v9.26Zm16,12.68h-2.16V99.17h-5.83v5.41h-2.18V91.9h2.18v5.5h5.83V91.9h2.16Zm11.7-12.68h2.17v12.68h-2.17V95.34l-5.85,9.24h-2.17V91.9h2.17v9.26Zm10.73,11.15a3.17,3.17,0,0,0,2-.7,2.47,2.47,0,0,0,1-1.76h2a3.93,3.93,0,0,1-.75,2.07,4.83,4.83,0,0,1-1.85,1.57,5.63,5.63,0,0,1-6.56-1.13,6.92,6.92,0,0,1-1.52-4.74V98a7.58,7.58,0,0,1,.68-3.3,5.16,5.16,0,0,1,1.94-2.23,5.59,5.59,0,0,1,3-.8,5.08,5.08,0,0,1,3.54,1.28,4.51,4.51,0,0,1,1.51,3.31h-2a3,3,0,0,0-3-2.81,3,3,0,0,0-2.56,1.2,5.52,5.52,0,0,0-.91,3.43v.41a5.39,5.39,0,0,0,.91,3.37A3,3,0,0,0,1718.92,103.05Zm16.9-9.39h-4.25v10.92h-2.17V93.66h-4.17V91.9h10.59Zm12.82,4.72a7.63,7.63,0,0,1-1.32,4.67,4.24,4.24,0,0,1-3.59,1.77,4.63,4.63,0,0,1-3.63-1.47v6.11h-2.17V91.9h2l.11,1.41a4.47,4.47,0,0,1,3.68-1.64,4.32,4.32,0,0,1,3.61,1.72,7.67,7.67,0,0,1,1.33,4.8Zm-2.16-.24a5.61,5.61,0,0,0-.92-3.39,2.93,2.93,0,0,0-2.51-1.24,3.18,3.18,0,0,0-3,1.75v6a3.19,3.19,0,0,0,3,1.74,2.92,2.92,0,0,0,2.47-1.23A6.11,6.11,0,0,0,1746.48,98.14Zm12.76,6.44a4.37,4.37,0,0,1-.31-1.33,4.86,4.86,0,0,1-3.61,1.57,4.49,4.49,0,0,1-3.08-1.06,3.44,3.44,0,0,1-1.19-2.69,3.57,3.57,0,0,1,1.5-3.07,7,7,0,0,1,4.24-1.1h2.11v-1a2.4,2.4,0,0,0-.68-1.8,2.7,2.7,0,0,0-2-.68,3.15,3.15,0,0,0-1.94.58,1.71,1.71,0,0,0-.79,1.42h-2.18a3,3,0,0,1,.67-1.83,4.57,4.57,0,0,1,1.83-1.4,6.07,6.07,0,0,1,2.54-.52,5,5,0,0,1,3.44,1.1,4,4,0,0,1,1.28,3v5.84a7.1,7.1,0,0,0,.45,2.78v.18Zm-3.6-1.65a3.72,3.72,0,0,0,1.93-.53,3.19,3.19,0,0,0,1.33-1.37v-2.6h-1.7q-4,0-4,2.33a2,2,0,0,0,.68,1.6A2.65,2.65,0,0,0,1755.64,102.93Zm9-11h2.18v10.91h5.84V91.9h2.16v10.91h1.52l-.21,5.54h-2v-3.77h-9.54Zm22.24,0h2.17v12.68h-2.17V95.34l-5.84,9.24h-2.17V91.9h2.17v9.26Zm13.85,0h2.17v12.68h-2.17V95.34l-5.84,9.24h-2.17V91.9h2.17v9.26Zm10.66,5.88a18,18,0,0,1-.69,5,15,15,0,0,1-2.1,4.42,9.09,9.09,0,0,1-3,2.88l-.45-1.32a9.33,9.33,0,0,0,2.89-4.29,18.53,18.53,0,0,0,1.13-6.47v-.38a18.92,18.92,0,0,0-.52-4.57,14.93,14.93,0,0,0-1.44-3.79,8.84,8.84,0,0,0-2.06-2.62l.45-1.32a9,9,0,0,1,2.95,2.86,14.85,14.85,0,0,1,2.09,4.42A18.35,18.35,0,0,1,1811.4,97.78Zm3.27,5.67a1.41,1.41,0,0,1,.32-.94,1.31,1.31,0,0,1,1-.38,1.3,1.3,0,0,1,1,.38,1.33,1.33,0,0,1,.35.94,1.25,1.25,0,0,1-.35.9,1.32,1.32,0,0,1-1,.36,1.34,1.34,0,0,1-1-.36A1.32,1.32,0,0,1,1814.67,103.45Zm0-10.35a1.37,1.37,0,0,1,.33-.94,1.55,1.55,0,0,1,2,0,1.29,1.29,0,0,1,.35.94,1.21,1.21,0,0,1-.35.9,1.58,1.58,0,0,1-2,0A1.28,1.28,0,0,1,1814.68,93.1Zm18,2.33h4.76v2h-4.76v5.39h-2.18V97.48h-4.75v-2h4.75v-5h2.18Zm18.2-6.69-7.06,15.84h-2.28l7-15.28h-9.24V87.52h11.53Zm8.56,8.92a18.24,18.24,0,0,1,.7-5.09,15,15,0,0,1,2.12-4.43,9,9,0,0,1,2.92-2.81l.44,1.43a9.38,9.38,0,0,0-2.81,4,17.58,17.58,0,0,0-1.19,6v1a17.5,17.5,0,0,0,1.65,7.85,9.36,9.36,0,0,0,2.36,3.12l-.44,1.32a9.43,9.43,0,0,1-3-2.9A16.34,16.34,0,0,1,1859.47,97.66Zm16.37-.58a5.15,5.15,0,0,1-1.63,1.3,4.36,4.36,0,0,1-2.06.5,4.59,4.59,0,0,1-2.58-.73,4.69,4.69,0,0,1-1.69-2,7,7,0,0,1-.6-2.92,7.17,7.17,0,0,1,.65-3.08,4.87,4.87,0,0,1,1.85-2.1,5.32,5.32,0,0,1,2.79-.72,4.72,4.72,0,0,1,4,1.9,8.15,8.15,0,0,1,1.47,5.15V95q0,5-2,7.28t-5.94,2.35h-.42v-1.83h.45a6,6,0,0,0,4.13-1.4A6,6,0,0,0,1875.84,97.08Zm-3.34,0a3.33,3.33,0,0,0,2-.66,3.92,3.92,0,0,0,1.35-1.66V93.9a5.93,5.93,0,0,0-.93-3.47,2.75,2.75,0,0,0-2.34-1.34,2.8,2.8,0,0,0-2.3,1.1,4.56,4.56,0,0,0-.86,2.89,4.72,4.72,0,0,0,.83,2.88A2.66,2.66,0,0,0,1872.5,97.08Zm19.21.23a9.9,9.9,0,0,1-1.31,5.66,5.4,5.4,0,0,1-8.1,0,9.37,9.37,0,0,1-1.36-5.41V94.7a9.69,9.69,0,0,1,1.3-5.59,5.5,5.5,0,0,1,8.13,0c.87,1.17,1.31,3,1.34,5.43Zm-2.17-3a7.89,7.89,0,0,0-.78-4,3,3,0,0,0-4.87,0,7.79,7.79,0,0,0-.79,3.86v3.47a8.19,8.19,0,0,0,.8,4.09,2.68,2.68,0,0,0,2.44,1.31,2.63,2.63,0,0,0,2.38-1.24,7.87,7.87,0,0,0,.82-3.92Zm16.12,10.24h-11.18V103l5.91-6.57a13.46,13.46,0,0,0,1.8-2.41,4,4,0,0,0,.51-1.94,3.06,3.06,0,0,0-.81-2.19,2.83,2.83,0,0,0-2.16-.85,3.39,3.39,0,0,0-2.52.92,3.53,3.53,0,0,0-.89,2.56h-2.17a5,5,0,0,1,1.52-3.81,5.62,5.62,0,0,1,4.06-1.45,5.35,5.35,0,0,1,3.76,1.25,4.22,4.22,0,0,1,1.39,3.32q0,2.52-3.21,6l-4.57,5h8.56Zm7.53-6.8a17.68,17.68,0,0,1-.7,5,14.71,14.71,0,0,1-2.09,4.42,9.09,9.09,0,0,1-3,2.88l-.45-1.32a9.41,9.41,0,0,0,2.89-4.29A18.53,18.53,0,0,0,1911,98v-.38a19.43,19.43,0,0,0-.52-4.57,14.93,14.93,0,0,0-1.44-3.79,8.84,8.84,0,0,0-2.06-2.62l.45-1.32a9,9,0,0,1,3,2.86,14.85,14.85,0,0,1,2.09,4.42A18.35,18.35,0,0,1,1913.19,97.78Zm20.08-9-7.06,15.84h-2.28l7-15.28h-9.24V87.52h11.53ZM1944,97.08a5,5,0,0,1-1.63,1.3,4.33,4.33,0,0,1-2.06.5,4.64,4.64,0,0,1-2.58-.73,4.75,4.75,0,0,1-1.69-2,7.63,7.63,0,0,1,.05-6A4.93,4.93,0,0,1,1938,88a5.32,5.32,0,0,1,2.79-.72,4.74,4.74,0,0,1,4,1.9,8.21,8.21,0,0,1,1.46,5.15V95q0,5-2,7.28t-5.94,2.35h-.42v-1.83h.46a5.17,5.17,0,0,0,5.69-5.69Zm-3.34,0a3.36,3.36,0,0,0,2-.66,4,4,0,0,0,1.34-1.66V93.9a6,6,0,0,0-.92-3.47,2.82,2.82,0,0,0-4.64-.24,4.5,4.5,0,0,0-.87,2.89,4.79,4.79,0,0,0,.83,2.88A2.66,2.66,0,0,0,1940.7,97.08Zm9.51-1,.86-8.51h8.75v2h-6.91l-.51,4.65a5.49,5.49,0,0,1,2.84-.74A4.69,4.69,0,0,1,1959,95a6,6,0,0,1,1.37,4.16,5.87,5.87,0,0,1-1.43,4.16,5.21,5.21,0,0,1-4,1.51,5.36,5.36,0,0,1-3.69-1.26,5,5,0,0,1-1.63-3.46h2.05a3.47,3.47,0,0,0,1,2.21,3.26,3.26,0,0,0,2.23.74,2.93,2.93,0,0,0,2.36-1,4.29,4.29,0,0,0,.87-2.85,3.88,3.88,0,0,0-.94-2.74,3.12,3.12,0,0,0-2.47-1.05,3.56,3.56,0,0,0-2.23.63l-.57.46Zm17.21,2.19h-5.72V96.45h5.72Zm2.9-2.19.86-8.51h8.74v2H1973l-.51,4.65a5.49,5.49,0,0,1,2.84-.74,4.69,4.69,0,0,1,3.71,1.55,6,6,0,0,1,1.37,4.16,5.87,5.87,0,0,1-1.43,4.16,5.21,5.21,0,0,1-4,1.51,5.41,5.41,0,0,1-3.7-1.26,5,5,0,0,1-1.62-3.46h2a3.47,3.47,0,0,0,1,2.21,3.26,3.26,0,0,0,2.23.74,2.93,2.93,0,0,0,2.36-1,4.29,4.29,0,0,0,.87-2.85,3.88,3.88,0,0,0-.94-2.74,3.12,3.12,0,0,0-2.47-1.05,3.54,3.54,0,0,0-2.23.63l-.57.46Zm19.6,8.55h-2.18V90.13l-4.37,1.61v-2l6.21-2.33h.34ZM2001,98.22h-5.72V96.45H2001ZM2013.25,92a3.9,3.9,0,0,1-.68,2.28,4.6,4.6,0,0,1-1.81,1.56,4.88,4.88,0,0,1,2.11,1.67,4.24,4.24,0,0,1,.78,2.5,4.47,4.47,0,0,1-1.5,3.53,6.56,6.56,0,0,1-7.87,0,4.5,4.5,0,0,1-1.48-3.53,4.38,4.38,0,0,1,.75-2.5,4.83,4.83,0,0,1,2.1-1.69,4.47,4.47,0,0,1-1.8-1.55,4.1,4.1,0,0,1-.65-2.27,4.43,4.43,0,0,1,1.38-3.42,5.89,5.89,0,0,1,7.28,0A4.4,4.4,0,0,1,2013.25,92Zm-1.77,8a3.13,3.13,0,0,0-.91-2.33,3.2,3.2,0,0,0-2.37-.9,3,3,0,0,0-3.23,3.23,3.06,3.06,0,0,0,.85,2.29,3.88,3.88,0,0,0,4.8,0A3.09,3.09,0,0,0,2011.48,99.93Zm-3.25-10.86a2.8,2.8,0,0,0-2.08.79,3.31,3.31,0,0,0,0,4.26,2.8,2.8,0,0,0,2.09.8,2.77,2.77,0,0,0,2.07-.8,3.23,3.23,0,0,0,0-4.23A2.76,2.76,0,0,0,2008.23,89.07Zm18.85,8.24a9.9,9.9,0,0,1-1.3,5.66,5.41,5.41,0,0,1-8.11,0,9.45,9.45,0,0,1-1.36-5.41V94.7a9.69,9.69,0,0,1,1.3-5.59,5.5,5.5,0,0,1,8.13,0,9.25,9.25,0,0,1,1.34,5.43Zm-2.17-3a8,8,0,0,0-.77-4,3,3,0,0,0-4.88,0,7.8,7.8,0,0,0-.78,3.86v3.47a8.09,8.09,0,0,0,.8,4.09,2.68,2.68,0,0,0,2.43,1.31,2.62,2.62,0,0,0,2.38-1.24,7.66,7.66,0,0,0,.82-3.92Zm-376.19,36.47.75-.92a8.87,8.87,0,0,0,1.44-4.92l.2-5.07h8.17v10.91h1.62v5.5h-2.16v-3.73h-8.85v3.73h-2.17v-5.5Zm2.56,0h5.83v-8.9h-3.9l-.13,3A10.46,10.46,0,0,1,1651.28,130.81Zm22.42-10.91v12.68h-2.18V121.7h-4.31l-.26,4.74a10.5,10.5,0,0,1-1.1,4.68,3.18,3.18,0,0,1-2.8,1.46h-.87v-1.91l.62,0a1.81,1.81,0,0,0,1.52-1.22,13.83,13.83,0,0,0,.58-4.08l.24-5.43Zm13.17,0v12.68h-2.18v-4.93h-3.27l-3,4.93h-2.35l3.19-5.26a3.57,3.57,0,0,1-2.52-3.55,3.41,3.41,0,0,1,1.3-2.79,5.4,5.4,0,0,1,3.48-1.08Zm-7.93,3.89a1.93,1.93,0,0,0,.63,1.5,2.46,2.46,0,0,0,1.68.58h3.44v-4.21h-3.11a2.91,2.91,0,0,0-1.93.6A1.9,1.9,0,0,0,1678.94,123.79Zm28.08,2.59a7.57,7.57,0,0,1-1.33,4.67,4.23,4.23,0,0,1-3.58,1.77,4.63,4.63,0,0,1-3.63-1.47v6.11h-2.17V119.9h2l.1,1.41a4.49,4.49,0,0,1,3.68-1.64,4.29,4.29,0,0,1,3.61,1.72,7.67,7.67,0,0,1,1.34,4.8Zm-2.17-.24a5.61,5.61,0,0,0-.91-3.39,3,3,0,0,0-2.51-1.24,3.17,3.17,0,0,0-3,1.75v6a3.18,3.18,0,0,0,3,1.74,2.9,2.9,0,0,0,2.47-1.23A6.11,6.11,0,0,0,1704.85,126.14Zm4.36,0a7.43,7.43,0,0,1,.73-3.35,5.45,5.45,0,0,1,2-2.3,5.55,5.55,0,0,1,3-.81,5.36,5.36,0,0,1,4.19,1.79,6.9,6.9,0,0,1,1.6,4.77v.15a7.61,7.61,0,0,1-.71,3.33,5.38,5.38,0,0,1-2,2.29,5.62,5.62,0,0,1-3,.82,5.38,5.38,0,0,1-4.19-1.79,6.91,6.91,0,0,1-1.59-4.75Zm2.18.25a5.44,5.44,0,0,0,1,3.39,3.16,3.16,0,0,0,2.63,1.28,3.11,3.11,0,0,0,2.62-1.29,6,6,0,0,0,1-3.63,5.41,5.41,0,0,0-1-3.38,3.29,3.29,0,0,0-5.22,0A5.92,5.92,0,0,0,1711.39,126.38Zm11.13,4.43.75-.92a8.71,8.71,0,0,0,1.44-4.92l.2-5.07h8.17v10.91h1.63v5.5h-2.17v-3.73h-8.85v3.73h-2.16v-5.5Zm2.57,0h5.82v-8.9H1727l-.13,3A10.46,10.46,0,0,1,1725.09,130.81Zm20.23-10.91h2.16v12.68h-2.16v-9.24l-5.85,9.24h-2.17V119.9h2.17v9.26Zm15.07,1.76h-4.26v10.92H1754V121.66h-4.17V119.9h10.6Zm6.43,11.16a5.54,5.54,0,0,1-4.2-1.69,6.32,6.32,0,0,1-1.61-4.53v-.4a7.61,7.61,0,0,1,.71-3.37,5.72,5.72,0,0,1,2-2.32,5.06,5.06,0,0,1,2.81-.84,4.72,4.72,0,0,1,3.84,1.63,7,7,0,0,1,1.37,4.66v.9h-8.59a4.63,4.63,0,0,0,1.09,3,3.48,3.48,0,0,0,2.68,1.15,3.79,3.79,0,0,0,1.94-.47,5,5,0,0,0,1.4-1.24l1.32,1A5.33,5.33,0,0,1,1766.82,132.82Zm-.27-11.37a2.87,2.87,0,0,0-2.2,1,4.65,4.65,0,0,0-1.11,2.67h6.36v-.16a4.2,4.2,0,0,0-.89-2.56A2.76,2.76,0,0,0,1766.55,121.45Zm18.13-1.55v12.68h-2.18V121.7h-4.31l-.26,4.74a10.5,10.5,0,0,1-1.1,4.68,3.18,3.18,0,0,1-2.8,1.46h-.87v-1.91l.62,0a1.8,1.8,0,0,0,1.51-1.22,13.74,13.74,0,0,0,.59-4.08l.23-5.43Zm8.74,12.92a5.51,5.51,0,0,1-4.19-1.69,6.28,6.28,0,0,1-1.62-4.53v-.4a7.76,7.76,0,0,1,.71-3.37,5.72,5.72,0,0,1,2-2.32,5.08,5.08,0,0,1,2.81-.84,4.72,4.72,0,0,1,3.84,1.63,7,7,0,0,1,1.38,4.66v.9h-8.59a4.52,4.52,0,0,0,1.09,3,3.45,3.45,0,0,0,2.67,1.15,3.79,3.79,0,0,0,1.94-.47,5,5,0,0,0,1.4-1.24l1.32,1A5.32,5.32,0,0,1,1793.42,132.82Zm-.27-11.37a2.88,2.88,0,0,0-2.2,1,4.58,4.58,0,0,0-1.1,2.67h6.35v-.16a4.13,4.13,0,0,0-.89-2.56A2.74,2.74,0,0,0,1793.15,121.45Zm15.94-1.55h2.17v12.68h-2.17v-9.24l-5.85,9.24h-2.17V119.9h2.17v9.26Zm.58-4.61a2.91,2.91,0,0,1-1,2.28,4.15,4.15,0,0,1-5.07,0,2.91,2.91,0,0,1-1-2.27h1.77a1.81,1.81,0,0,0,.45,1.29,1.76,1.76,0,0,0,3.05-1.29Zm5,16.16a1.41,1.41,0,0,1,.32-.94,1.31,1.31,0,0,1,1-.38,1.3,1.3,0,0,1,1,.38,1.33,1.33,0,0,1,.35.94,1.25,1.25,0,0,1-.35.9,1.32,1.32,0,0,1-1,.36,1.34,1.34,0,0,1-1-.36A1.32,1.32,0,0,1,1814.67,131.45Zm0-10.35a1.37,1.37,0,0,1,.33-.94,1.55,1.55,0,0,1,2,0,1.29,1.29,0,0,1,.35.94,1.21,1.21,0,0,1-.35.9,1.58,1.58,0,0,1-2,0A1.28,1.28,0,0,1,1814.68,121.1Zm18,2.33h4.76v2h-4.76v5.39h-2.18v-5.39h-4.75v-2h4.75v-5h2.18Zm18.2-6.69-7.06,15.84h-2.28l7-15.28h-9.24v-1.78h11.53Zm8.56,8.92a18.24,18.24,0,0,1,.7-5.09,15,15,0,0,1,2.12-4.43,9,9,0,0,1,2.92-2.81l.44,1.43a9.38,9.38,0,0,0-2.81,4,17.58,17.58,0,0,0-1.19,6v1a17.5,17.5,0,0,0,1.65,7.85,9.36,9.36,0,0,0,2.36,3.12l-.44,1.32a9.43,9.43,0,0,1-3-2.9A16.34,16.34,0,0,1,1859.47,125.66Zm11.21-2.66h1.63a3.65,3.65,0,0,0,2.42-.81,2.71,2.71,0,0,0,.87-2.12c0-2-1-3-3-3a3.1,3.1,0,0,0-2.25.81,2.77,2.77,0,0,0-.84,2.12h-2.16a4.38,4.38,0,0,1,1.47-3.37,5.44,5.44,0,0,1,3.78-1.34,5.32,5.32,0,0,1,3.78,1.27,4.61,4.61,0,0,1,1.37,3.55,3.73,3.73,0,0,1-.72,2.16,4.28,4.28,0,0,1-2,1.56,4.17,4.17,0,0,1,2.17,1.48,4.08,4.08,0,0,1,.77,2.52,4.65,4.65,0,0,1-1.5,3.64,5.61,5.61,0,0,1-3.9,1.35,5.85,5.85,0,0,1-3.92-1.3,4.33,4.33,0,0,1-1.5-3.44h2.18a2.82,2.82,0,0,0,.88,2.16,3.35,3.35,0,0,0,2.36.81,3.26,3.26,0,0,0,2.4-.82,3.19,3.19,0,0,0,.83-2.36,2.85,2.85,0,0,0-.91-2.28,4,4,0,0,0-2.64-.82h-1.63Zm19.48,3.85h2.37v1.77h-2.37v4H1888v-4h-7.77v-1.27l7.64-11.83h2.31Zm-7.49,0H1888v-8.36l-.26.46Zm23,5.73h-11.18V131l5.91-6.57a13.46,13.46,0,0,0,1.8-2.41,4,4,0,0,0,.51-1.94,3.06,3.06,0,0,0-.81-2.19,2.83,2.83,0,0,0-2.16-.85,3.39,3.39,0,0,0-2.52.92,3.53,3.53,0,0,0-.89,2.56h-2.17a5,5,0,0,1,1.52-3.81,5.62,5.62,0,0,1,4.06-1.45,5.35,5.35,0,0,1,3.76,1.25,4.22,4.22,0,0,1,1.39,3.32q0,2.52-3.21,6l-4.57,5h8.56Zm7.53-6.8a17.68,17.68,0,0,1-.7,5,14.71,14.71,0,0,1-2.09,4.42,9.09,9.09,0,0,1-3,2.88l-.45-1.32a9.41,9.41,0,0,0,2.89-4.29A18.53,18.53,0,0,0,1911,126v-.38a19.43,19.43,0,0,0-.52-4.57,14.93,14.93,0,0,0-1.44-3.79,8.84,8.84,0,0,0-2.06-2.62l.45-1.32a9,9,0,0,1,3,2.86,14.85,14.85,0,0,1,2.09,4.42A18.35,18.35,0,0,1,1913.19,125.78Zm20.25,6.8h-11.18V131l5.9-6.57a13.62,13.62,0,0,0,1.81-2.41,4.12,4.12,0,0,0,.5-1.94,3.06,3.06,0,0,0-.81-2.19,2.82,2.82,0,0,0-2.15-.85,3.38,3.38,0,0,0-2.52.92,3.48,3.48,0,0,0-.89,2.56h-2.17a5,5,0,0,1,1.51-3.81,5.65,5.65,0,0,1,4.07-1.45,5.37,5.37,0,0,1,3.76,1.25,4.24,4.24,0,0,1,1.38,3.32q0,2.52-3.21,6l-4.57,5h8.57Zm9.42,0h-2.18V118.13l-4.37,1.61v-2l6.21-2.33h.34Zm17.37-15.84-7.07,15.84h-2.27l7-15.28h-9.24v-1.78h11.54Zm7.19,9.48h-5.72v-1.77h5.72Zm12.91-9.48-7.06,15.84H1971l7-15.28h-9.24v-1.78h11.53Zm10.77,8.34a5.11,5.11,0,0,1-1.62,1.3,4.4,4.4,0,0,1-2.07.5,4.64,4.64,0,0,1-2.58-.73,4.73,4.73,0,0,1-1.68-2,7,7,0,0,1-.6-2.92,7.16,7.16,0,0,1,.64-3.08,4.89,4.89,0,0,1,1.86-2.1,5.26,5.26,0,0,1,2.78-.72,4.74,4.74,0,0,1,4,1.9,8.15,8.15,0,0,1,1.46,5.15V123q0,5-2,7.28t-6,2.35H1985v-1.83h.46a5.17,5.17,0,0,0,5.69-5.69Zm-3.34,0a3.36,3.36,0,0,0,2-.66,4,4,0,0,0,1.35-1.66v-.86a5.93,5.93,0,0,0-.93-3.47,2.82,2.82,0,0,0-4.64-.24,4.5,4.5,0,0,0-.87,2.89,4.79,4.79,0,0,0,.83,2.88A2.69,2.69,0,0,0,1987.76,125.08Zm13.25,1.14h-5.72v-1.77H2001Zm5-3.22h1.63a3.62,3.62,0,0,0,2.41-.81,2.68,2.68,0,0,0,.88-2.12c0-2-1-3-3-3a3.1,3.1,0,0,0-2.25.81,2.8,2.8,0,0,0-.83,2.12h-2.17a4.36,4.36,0,0,1,1.48-3.37,5.44,5.44,0,0,1,3.77-1.34,5.36,5.36,0,0,1,3.79,1.27,4.65,4.65,0,0,1,1.37,3.55,3.74,3.74,0,0,1-.73,2.16,4.28,4.28,0,0,1-2,1.56,4.17,4.17,0,0,1,2.17,1.48,4,4,0,0,1,.77,2.52,4.65,4.65,0,0,1-1.5,3.64,5.61,5.61,0,0,1-3.9,1.35,5.82,5.82,0,0,1-3.91-1.3,4.33,4.33,0,0,1-1.5-3.44h2.18a2.78,2.78,0,0,0,.88,2.16,3.32,3.32,0,0,0,2.35.81,3.25,3.25,0,0,0,2.4-.82,3.15,3.15,0,0,0,.84-2.36,2.86,2.86,0,0,0-.92-2.28,4,4,0,0,0-2.63-.82h-1.63Zm17.45,9.58h-2.18V118.13l-4.37,1.61v-2l6.21-2.33h.34Zm-232,38.94,5.58,13.92,5.57-13.92h2.92v17.06h-2.25v-6.64l.21-7.17-5.6,13.81h-1.72l-5.59-13.78.22,7.14v6.64h-2.25V171.52Zm25.91,4.38h2.17v12.68h-2.17v-9.24l-5.85,9.24h-2.17V175.9h2.17v9.26Zm16,12.68h-2.17v-5.41h-5.83v5.41h-2.18V175.9h2.18v5.5h5.83v-5.5h2.17Zm10.46-9.21a1.67,1.67,0,0,0-.68-1.4,2.9,2.9,0,0,0-1.86-.53,3,3,0,0,0-1.92.6,1.75,1.75,0,0,0-.77,1.4h-2.15a3.25,3.25,0,0,1,1.38-2.7,5.51,5.51,0,0,1,3.46-1.06,5.57,5.57,0,0,1,3.47,1,3.21,3.21,0,0,1,1.24,2.72,2.6,2.6,0,0,1-.52,1.57,3.46,3.46,0,0,1-1.46,1.14,2.89,2.89,0,0,1,2.21,3,3.3,3.3,0,0,1-1.34,2.77,5.83,5.83,0,0,1-3.6,1,5.89,5.89,0,0,1-3.62-1.07,3.46,3.46,0,0,1-1.42-2.91h2.16a2,2,0,0,0,.82,1.6,3.69,3.69,0,0,0,4.06.08,1.77,1.77,0,0,0,.76-1.49,1.72,1.72,0,0,0-.64-1.52,3.36,3.36,0,0,0-2-.47h-2.17V181.2h2.36C1843.14,181.16,1843.88,180.55,1843.88,179.37Zm5.11,7.44.75-.92a8.87,8.87,0,0,0,1.44-4.92l.2-5.07h8.17v10.91h1.63v5.5H1859v-3.73h-8.85v3.73H1848l0-5.5Zm2.57,0h5.82v-8.9h-3.9l-.13,3A10.46,10.46,0,0,1,1851.56,186.81Zm22.73-4.43a7.63,7.63,0,0,1-1.32,4.67,4.26,4.26,0,0,1-3.59,1.77,4.63,4.63,0,0,1-3.63-1.47v6.11h-2.17V175.9h2l.11,1.41a4.47,4.47,0,0,1,3.68-1.64,4.32,4.32,0,0,1,3.61,1.72,7.67,7.67,0,0,1,1.33,4.8Zm-2.17-.24a5.61,5.61,0,0,0-.91-3.39,3,3,0,0,0-2.51-1.24,3.17,3.17,0,0,0-3,1.75v6.05a3.19,3.19,0,0,0,3,1.74,2.93,2.93,0,0,0,2.47-1.23A6.11,6.11,0,0,0,1872.12,182.14Zm12.77,6.44a4.37,4.37,0,0,1-.31-1.33,4.86,4.86,0,0,1-3.61,1.57,4.47,4.47,0,0,1-3.08-1.06,3.45,3.45,0,0,1-1.2-2.69,3.57,3.57,0,0,1,1.5-3.07,7.09,7.09,0,0,1,4.25-1.1h2.11v-1a2.4,2.4,0,0,0-.68-1.8,2.72,2.72,0,0,0-2-.68,3.15,3.15,0,0,0-1.94.58,1.71,1.71,0,0,0-.79,1.42H1877a3,3,0,0,1,.67-1.83,4.57,4.57,0,0,1,1.83-1.4,6.07,6.07,0,0,1,2.54-.52,5,5,0,0,1,3.43,1.1,3.93,3.93,0,0,1,1.29,3v5.84a7.1,7.1,0,0,0,.45,2.78v.18Zm-3.6-1.65a3.72,3.72,0,0,0,1.93-.53,3.19,3.19,0,0,0,1.33-1.37v-2.6h-1.7q-4,0-4,2.33a2,2,0,0,0,.68,1.6A2.63,2.63,0,0,0,1881.29,186.93Zm9,1.65V175.9h5a7.09,7.09,0,0,1,3.88.89,2.9,2.9,0,0,1,1.35,2.59,2.64,2.64,0,0,1-.52,1.6,3.26,3.26,0,0,1-1.56,1.08,3.45,3.45,0,0,1,1.84,1.05,2.71,2.71,0,0,1,.7,1.88,3.09,3.09,0,0,1-1.29,2.67,6.15,6.15,0,0,1-3.62.92Zm2.17-5.56v3.82h3.58a3.31,3.31,0,0,0,2-.51,1.64,1.64,0,0,0,.68-1.41c0-1.27-.93-1.9-2.79-1.9Zm0-1.74h2.8c2,0,3-.59,3-1.78s-1-1.8-2.89-1.84h-3Zm30.67,7.3h-2.26V173.37h-8.42v15.21h-2.25V171.52h12.93Zm14.47-6.2a7.63,7.63,0,0,1-1.32,4.67,4.26,4.26,0,0,1-3.59,1.77,4.63,4.63,0,0,1-3.63-1.47v6.11h-2.17V175.9h2l.1,1.41a4.49,4.49,0,0,1,3.68-1.64,4.29,4.29,0,0,1,3.61,1.72,7.67,7.67,0,0,1,1.34,4.8Zm-2.17-.24a5.61,5.61,0,0,0-.91-3.39,3,3,0,0,0-2.51-1.24,3.17,3.17,0,0,0-3,1.75v6.05a3.19,3.19,0,0,0,3,1.74,2.93,2.93,0,0,0,2.48-1.23A6.18,6.18,0,0,0,1935.45,182.14Zm13.14-6.24h2.17v12.68h-2.17v-9.24l-5.85,9.24h-2.17V175.9h2.17v9.26Zm9.6,7.28h-1.59v5.4h-2.18V175.9h2.18v5.37H1958l4.27-5.37h2.62l-5,6.1,5.43,6.58h-2.75Zm16.84,5.4a4.37,4.37,0,0,1-.31-1.33,4.86,4.86,0,0,1-3.61,1.57,4.47,4.47,0,0,1-3.08-1.06,3.45,3.45,0,0,1-1.2-2.69,3.57,3.57,0,0,1,1.5-3.07,7.09,7.09,0,0,1,4.25-1.1h2.11v-1a2.4,2.4,0,0,0-.68-1.8,2.7,2.7,0,0,0-2-.68,3.15,3.15,0,0,0-1.94.58,1.71,1.71,0,0,0-.79,1.42h-2.18a3,3,0,0,1,.67-1.83,4.57,4.57,0,0,1,1.83-1.4,6.07,6.07,0,0,1,2.54-.52,5,5,0,0,1,3.43,1.1,3.93,3.93,0,0,1,1.29,3v5.84a7.1,7.1,0,0,0,.45,2.78v.18Zm-3.6-1.65a3.72,3.72,0,0,0,1.93-.53,3.19,3.19,0,0,0,1.33-1.37v-2.6H1973q-4,0-4,2.33a2,2,0,0,0,.68,1.6A2.65,2.65,0,0,0,1971.43,186.93Zm16.12-1.22,4.32-9.81h2.7v12.68h-2.17v-9.22l-4.1,9.22h-1.5l-4.18-9.42v9.42h-2.17V175.9h2.81Zm12.88-5.44h3.3a5.14,5.14,0,0,1,3.41,1.13,3.79,3.79,0,0,1,1.25,3,3.9,3.9,0,0,1-1.29,3.05,5.06,5.06,0,0,1-3.47,1.14h-5.37V175.9h2.17Zm0,1.77v4.77h3.22a2.63,2.63,0,0,0,1.89-.62,2.23,2.23,0,0,0,.67-1.72,2.34,2.34,0,0,0-.66-1.72,2.44,2.44,0,0,0-1.81-.71Zm20.36-6.14v12.68h-2.18v-4.93h-3.27l-3,4.93H2010l3.18-5.26a3.84,3.84,0,0,1-1.87-1.37,3.74,3.74,0,0,1-.65-2.18A3.42,3.42,0,0,1,2012,177a5.36,5.36,0,0,1,3.48-1.08Zm-7.94,3.89a1.9,1.9,0,0,0,.64,1.5,2.45,2.45,0,0,0,1.67.58h3.45v-4.21h-3.12a2.9,2.9,0,0,0-1.92.6A1.88,1.88,0,0,0,2012.85,179.79Zm11.35,7.66a1.37,1.37,0,0,1,.33-.94,1.52,1.52,0,0,1,2,0,1.29,1.29,0,0,1,.35.94,1.21,1.21,0,0,1-.35.9,1.58,1.58,0,0,1-2,0A1.28,1.28,0,0,1,2024.2,187.45Zm0-10.35a1.37,1.37,0,0,1,.33-.94,1.36,1.36,0,0,1,2.36.94,1.21,1.21,0,0,1-.35.9,1.58,1.58,0,0,1-2,0A1.28,1.28,0,0,1,2024.21,177.1Zm-191.5,30.33h4.76v2h-4.76v5.39h-2.18v-5.39h-4.75v-2h4.75v-5h2.18Zm18.2-6.69-7.06,15.84h-2.28l7-15.28h-9.24v-1.78h11.53Zm8.56,8.92a18.24,18.24,0,0,1,.7-5.09,15,15,0,0,1,2.12-4.43,9,9,0,0,1,2.92-2.81l.44,1.43a9.38,9.38,0,0,0-2.81,4,17.58,17.58,0,0,0-1.19,6v1a17.5,17.5,0,0,0,1.65,7.85,9.36,9.36,0,0,0,2.36,3.12l-.44,1.32a9.43,9.43,0,0,1-3-2.9A16.34,16.34,0,0,1,1859.47,209.66Zm11.21-2.66h1.63a3.65,3.65,0,0,0,2.42-.81,2.71,2.71,0,0,0,.87-2.12c0-2-1-3-3-3a3.1,3.1,0,0,0-2.25.81,2.77,2.77,0,0,0-.84,2.12h-2.16a4.37,4.37,0,0,1,1.47-3.37,5.44,5.44,0,0,1,3.78-1.34,5.32,5.32,0,0,1,3.78,1.27,4.61,4.61,0,0,1,1.37,3.55,3.73,3.73,0,0,1-.72,2.16,4.28,4.28,0,0,1-2,1.56,4.17,4.17,0,0,1,2.17,1.48,4.08,4.08,0,0,1,.77,2.52,4.65,4.65,0,0,1-1.5,3.64,5.61,5.61,0,0,1-3.9,1.35,5.85,5.85,0,0,1-3.92-1.3,4.33,4.33,0,0,1-1.5-3.44h2.18a2.82,2.82,0,0,0,.88,2.16,3.35,3.35,0,0,0,2.36.81,3.31,3.31,0,0,0,2.4-.82,3.19,3.19,0,0,0,.83-2.36,2.85,2.85,0,0,0-.91-2.28,4,4,0,0,0-2.64-.82h-1.63Zm19.48,3.85h2.37v1.77h-2.37v4H1888v-4h-7.77v-1.27l7.64-11.83h2.31Zm-7.49,0H1888v-8.36l-.26.46Zm23,5.73h-11.18V215l5.91-6.56a13.46,13.46,0,0,0,1.8-2.41,4,4,0,0,0,.51-1.94,3.06,3.06,0,0,0-.81-2.19,2.83,2.83,0,0,0-2.16-.85,3.39,3.39,0,0,0-2.52.92,3.53,3.53,0,0,0-.89,2.56h-2.17a5,5,0,0,1,1.52-3.81,5.62,5.62,0,0,1,4.06-1.45,5.35,5.35,0,0,1,3.76,1.25,4.22,4.22,0,0,1,1.39,3.32q0,2.52-3.21,6l-4.57,4.95h8.56Zm7.53-6.81a17.7,17.7,0,0,1-.7,5,14.71,14.71,0,0,1-2.09,4.42,9.09,9.09,0,0,1-3,2.88l-.45-1.32a9.41,9.41,0,0,0,2.89-4.29A18.53,18.53,0,0,0,1911,210v-.38a19.43,19.43,0,0,0-.52-4.57,14.93,14.93,0,0,0-1.44-3.79,8.84,8.84,0,0,0-2.06-2.62l.45-1.32a9,9,0,0,1,3,2.86,14.73,14.73,0,0,1,2.09,4.42A18.33,18.33,0,0,1,1913.19,209.77Zm20.25,6.81h-11.18V215l5.9-6.56a13.62,13.62,0,0,0,1.81-2.41,4.12,4.12,0,0,0,.5-1.94,3.06,3.06,0,0,0-.81-2.19,2.82,2.82,0,0,0-2.15-.85,3.38,3.38,0,0,0-2.52.92,3.48,3.48,0,0,0-.89,2.56h-2.17a5,5,0,0,1,1.51-3.81,5.65,5.65,0,0,1,4.07-1.45,5.37,5.37,0,0,1,3.76,1.25,4.24,4.24,0,0,1,1.38,3.32q0,2.52-3.21,6l-4.57,4.95h8.57Zm3.29-8.55.87-8.51h8.74v2h-6.9l-.52,4.66a5.55,5.55,0,0,1,2.85-.74,4.67,4.67,0,0,1,3.7,1.55,6,6,0,0,1,1.37,4.16,5.83,5.83,0,0,1-1.43,4.16,5.2,5.2,0,0,1-4,1.51,5.36,5.36,0,0,1-3.69-1.26,5,5,0,0,1-1.63-3.46h2.05a3.47,3.47,0,0,0,1,2.21,3.3,3.3,0,0,0,2.23.74,2.93,2.93,0,0,0,2.37-1,4.29,4.29,0,0,0,.86-2.85,3.92,3.92,0,0,0-.93-2.74,3.14,3.14,0,0,0-2.48-1.05,3.53,3.53,0,0,0-2.22.63l-.58.46Zm22.83-4.06a4,4,0,0,1-.68,2.28,4.63,4.63,0,0,1-1.82,1.56,4.88,4.88,0,0,1,2.11,1.67,4.25,4.25,0,0,1,.79,2.5,4.47,4.47,0,0,1-1.5,3.53,6.58,6.58,0,0,1-7.88,0,4.54,4.54,0,0,1-1.48-3.53,4.38,4.38,0,0,1,.75-2.5,4.83,4.83,0,0,1,2.1-1.69,4.44,4.44,0,0,1-1.79-1.55,4,4,0,0,1-.66-2.27,4.4,4.4,0,0,1,1.39-3.42,5.87,5.87,0,0,1,7.27,0A4.41,4.41,0,0,1,1959.56,204Zm-1.77,8a3.13,3.13,0,0,0-.92-2.33,3.2,3.2,0,0,0-2.36-.9,3,3,0,0,0-3.24,3.23,3.06,3.06,0,0,0,.86,2.29,3.87,3.87,0,0,0,4.79,0A3.06,3.06,0,0,0,1957.79,211.93Zm-3.26-10.86a2.8,2.8,0,0,0-2.07.79,2.89,2.89,0,0,0-.79,2.15,3,3,0,0,0,.77,2.11,2.82,2.82,0,0,0,2.09.8,2.74,2.74,0,0,0,2.07-.8,3.2,3.2,0,0,0,0-4.23A2.74,2.74,0,0,0,1954.53,201.07Zm12.89,9.15h-5.72v-1.77h5.72Zm12.6-.91a10,10,0,0,1-1.3,5.66,5.41,5.41,0,0,1-8.11,0,9.37,9.37,0,0,1-1.36-5.41v-2.9a9.69,9.69,0,0,1,1.3-5.59,5.5,5.5,0,0,1,8.13-.05c.87,1.17,1.31,3,1.34,5.43Zm-2.17-3a8,8,0,0,0-.77-4,2.68,2.68,0,0,0-2.45-1.26,2.64,2.64,0,0,0-2.43,1.25,7.69,7.69,0,0,0-.78,3.86v3.47a8.21,8.21,0,0,0,.79,4.09,2.68,2.68,0,0,0,2.44,1.31,2.63,2.63,0,0,0,2.38-1.24,7.76,7.76,0,0,0,.82-3.92Zm16-5.6-7.07,15.84h-2.27l7-15.28h-9.23v-1.78h11.53Zm7.2,9.48h-5.72v-1.77H2001Zm12.24-6.25a3.9,3.9,0,0,1-.68,2.28,4.6,4.6,0,0,1-1.81,1.56,4.88,4.88,0,0,1,2.11,1.67,4.24,4.24,0,0,1,.78,2.5,4.47,4.47,0,0,1-1.5,3.53,6.56,6.56,0,0,1-7.87,0,4.5,4.5,0,0,1-1.48-3.53,4.38,4.38,0,0,1,.75-2.5,4.83,4.83,0,0,1,2.1-1.69,4.47,4.47,0,0,1-1.8-1.55,4.1,4.1,0,0,1-.65-2.27,4.43,4.43,0,0,1,1.38-3.42,5.89,5.89,0,0,1,7.28,0A4.4,4.4,0,0,1,2013.25,204Zm-1.77,8a3.13,3.13,0,0,0-.91-2.33,3.2,3.2,0,0,0-2.37-.9,3,3,0,0,0-3.23,3.23,3.06,3.06,0,0,0,.85,2.29,3.88,3.88,0,0,0,4.8,0A3.09,3.09,0,0,0,2011.48,211.93Zm-3.25-10.86a2.8,2.8,0,0,0-2.08.79,3.31,3.31,0,0,0,0,4.26,2.8,2.8,0,0,0,2.09.8,2.77,2.77,0,0,0,2.07-.8,3.23,3.23,0,0,0,0-4.23A2.76,2.76,0,0,0,2008.23,201.07Zm19.17-.33-7.07,15.84h-2.27l7-15.28h-9.23v-1.78h11.53Z"/></g></g></g></g></svg>