<svg xmlns="http://www.w3.org/2000/svg" xmlns:xlink="http://www.w3.org/1999/xlink" viewBox="0 0 2308.62 781.89"><defs><style>.cls-1,.cls-42,.cls-43,.cls-44{fill:none;}.cls-2{opacity:0.9;}.cls-3{fill:#c135dc;}.cls-4{fill:url(#Безымянный_градиент);}.cls-5{fill:#5d209e;}.cls-6{fill:url(#Безымянный_градиент_2);}.cls-7{fill:#fff;}.cls-8{fill:#3b167d;}.cls-9{fill:url(#Безымянный_градиент_3);}.cls-10{fill:url(#Безымянный_градиент_4);}.cls-11{fill:#ffa860;}.cls-12{fill:url(#Безымянный_градиент_16);}.cls-13{fill:#2f3f68;}.cls-14{clip-path:url(#clip-path);}.cls-15{fill:#281757;}.cls-16{fill:url(#Безымянный_градиент_18);}.cls-17{clip-path:url(#clip-path-2);}.cls-18{fill:url(#Безымянный_градиент_18-2);}.cls-19{clip-path:url(#clip-path-3);}.cls-20{fill:url(#Безымянный_градиент_22);}.cls-21{fill:url(#Безымянный_градиент_22-2);}.cls-22{fill:url(#Безымянный_градиент_22-3);}.cls-23{fill:#00afe4;}.cls-24{fill:url(#Безымянный_градиент_20);}.cls-25{fill:url(#Безымянный_градиент_21);}.cls-26{fill:url(#Безымянный_градиент_22-4);}.cls-27{fill:url(#Безымянный_градиент_23);}.cls-28{fill:url(#Безымянный_градиент_22-5);}.cls-29{fill:#ffcd98;}.cls-30{fill:url(#Безымянный_градиент_16-2);}.cls-31{clip-path:url(#clip-path-5);}.cls-32{fill:url(#Безымянный_градиент_18-3);}.cls-33{clip-path:url(#clip-path-6);}.cls-34{fill:url(#Безымянный_градиент_18-4);}.cls-35{fill:url(#Безымянный_градиент_22-6);}.cls-36{clip-path:url(#clip-path-7);}.cls-37{fill:url(#Безымянный_градиент_20-2);}.cls-38{fill:url(#Безымянный_градиент_21-2);}.cls-39{fill:url(#Безымянный_градиент_22-7);}.cls-40{fill:url(#Безымянный_градиент_23-2);}.cls-41{fill:#fefefe;}.cls-42,.cls-43,.cls-44{stroke:#fff;stroke-miterlimit:10;}.cls-42{stroke-linecap:round;stroke-width:4px;}.cls-43{stroke-width:3px;}.cls-44{stroke-width:2px;}</style><linearGradient id="Безымянный_градиент" x1="406.65" y1="1334.93" x2="1972.65" y2="1694.93" gradientTransform="matrix(1, 0, 0, -1, 0, 1846)" gradientUnits="userSpaceOnUse"><stop offset="0" stop-color="#ab3ae0"/><stop offset="1" stop-color="#d535e5" stop-opacity="0"/></linearGradient><linearGradient id="Безымянный_градиент_2" x1="38.7" y1="2436.98" x2="1968.2" y2="869.48" gradientTransform="matrix(1, 0, 0, -1, 0, 1846)" gradientUnits="userSpaceOnUse"><stop offset="0" stop-color="#6240d5"/><stop offset="1" stop-color="#480c7d" stop-opacity="0.35"/></linearGradient><radialGradient id="Безымянный_градиент_3" cx="5229.04" cy="501.45" r="1.06" gradientTransform="matrix(1, 32.5, 368.52, -11.34, -188689.06, -163652.74)" gradientUnits="userSpaceOnUse"><stop offset="0" stop-color="#4c2aa5"/><stop offset="1" stop-color="#431f83"/></radialGradient><radialGradient id="Безымянный_градиент_4" cx="5259.39" cy="502.21" r="1.06" gradientTransform="matrix(115.56, 211.91, 261.19, -142.43, -737590.41, -1042605.88)" gradientUnits="userSpaceOnUse"><stop offset="0" stop-color="#fcd3df" stop-opacity="0.12"/><stop offset="1" stop-color="#e0a0c6"/></radialGradient><linearGradient id="Безымянный_градиент_16" x1="-191.02" y1="-1358.88" x2="-197.1" y2="-1252.19" gradientTransform="translate(1748.57 1722)" gradientUnits="userSpaceOnUse"><stop offset="0" stop-color="#ffb770"/><stop offset="0.37" stop-color="#ffae7a"/><stop offset="1" stop-color="#ff9594"/></linearGradient><clipPath id="clip-path"><path class="cls-1" d="M1559.4,456.88s-11.5,20.77-42.69,23.85-28.43,1.71-28.43,1.71-3.51,37.26-6,55.89-11.5,47.38-11.5,47.38H1449s-3.62-80.81-4.47-89.75-3.19-26.72,1.28-35.56,4.26-3.41,4.26-3.41Z"/></clipPath><linearGradient id="Безымянный_градиент_18" x1="1360.72" y1="-1135.52" x2="1493.95" y2="-1221.42" gradientTransform="translate(0 1722)" gradientUnits="userSpaceOnUse"><stop offset="0" stop-color="#ff4bc4"/><stop offset="1" stop-color="#604fc4" stop-opacity="0"/></linearGradient><clipPath id="clip-path-2"><path class="cls-1" d="M1595.92,456.88s-11.5,20.77-42.69,23.85-28.43,1.71-28.43,1.71.74,37.26-1.71,55.89-6.17,45.25-6.17,45.25h-21s-14-78.78-14.9-87.62-4.47-22.57,0-31.41,5.54-7.67,5.54-7.67Z"/></clipPath><linearGradient id="Безымянный_градиент_18-2" x1="1417.74" y1="-1147.74" x2="1537.57" y2="-1225" xlink:href="#Безымянный_градиент_18"/><clipPath id="clip-path-3"><path class="cls-1" d="M1502.33,363.62c6-24.92,13.52-39.72,36.42-40.57,15.75-.64,27.25-1.28,38.86,2.45s22.89,15.12,28.85,33.54c11.5,35.77,3.83,41.95-.32,48.87s-14.59,6.92-39.71,6-48.77,0-48.77,0Z"/></clipPath><linearGradient id="Безымянный_градиент_22" x1="1508.24" y1="1466.05" x2="1616.04" y2="1498.26" gradientTransform="matrix(1, 0, 0, -1, 0, 1850)" gradientUnits="userSpaceOnUse"><stop offset="0" stop-color="#281757"/><stop offset="0.16" stop-color="#301961"/><stop offset="0.43" stop-color="#441d7b"/><stop offset="0.78" stop-color="#6525a6"/><stop offset="1" stop-color="#7c2ac4"/></linearGradient><linearGradient id="Безымянный_градиент_22-2" x1="1510.56" y1="1458.29" x2="1618.37" y2="1490.49" xlink:href="#Безымянный_градиент_22"/><linearGradient id="Безымянный_градиент_22-3" x1="1514.68" y1="1444.5" x2="1622.48" y2="1476.71" xlink:href="#Безымянный_градиент_22"/><linearGradient id="Безымянный_градиент_20" x1="1581.99" y1="-1299.73" x2="1552.81" y2="-1351.32" gradientTransform="translate(0 1722)" gradientUnits="userSpaceOnUse"><stop offset="0" stop-color="#6086c4"/><stop offset="1" stop-color="#00afe4" stop-opacity="0"/></linearGradient><linearGradient id="Безымянный_градиент_21" x1="1570.42" y1="-1316.87" x2="1608.47" y2="-1391.4" gradientTransform="translate(0 1722)" gradientUnits="userSpaceOnUse"><stop offset="0" stop-color="#60e5c4"/><stop offset="0.57" stop-color="#608ac4" stop-opacity="0.03"/><stop offset="1" stop-color="#6086c4" stop-opacity="0"/></linearGradient><linearGradient id="Безымянный_градиент_22-4" x1="1429.42" y1="-1355.68" x2="1574.71" y2="-1312.27" gradientTransform="translate(0 1722)" xlink:href="#Безымянный_градиент_22"/><linearGradient id="Безымянный_градиент_23" x1="1552.62" y1="-1390.61" x2="1553.25" y2="-1419.55" gradientTransform="translate(0 1722)" gradientUnits="userSpaceOnUse"><stop offset="0" stop-color="#ffcd98"/><stop offset="0.35" stop-color="#ffc397"/><stop offset="0.94" stop-color="#ffa994"/><stop offset="1" stop-color="#ffa694"/></linearGradient><linearGradient id="Безымянный_градиент_22-5" x1="1529.72" y1="-1447.83" x2="1590.34" y2="-1424.77" gradientTransform="translate(0 1722)" xlink:href="#Безымянный_градиент_22"/><linearGradient id="Безымянный_градиент_16-2" x1="15282.03" y1="-1458.25" x2="15274.48" y2="-1325.7" gradientTransform="matrix(-1, 0, 0, 1, 16365.31, 1722)" xlink:href="#Безымянный_градиент_16"/><clipPath id="clip-path-5"><path class="cls-1" d="M1102.43,413.13s15,25.34,51.64,33.64c31.83,7.35,39.18,5.32,39.18,5.32s-.53,44.61,2.34,69.53,8.41,65.26,8.41,65.26h24.17s10.22-98.37,11.29-110.19,3.83-32.58-1.6-44.29a75.68,75.68,0,0,0-12.46-19.17Z"/></clipPath><linearGradient id="Безымянный_градиент_18-3" x1="15026.15" y1="-1144.32" x2="15185.61" y2="-1247.13" gradientTransform="matrix(-1, 0, 0, 1, 16365.31, 1722)" xlink:href="#Безымянный_градиент_18"/><clipPath id="clip-path-6"><path class="cls-1" d="M1066.13,413.13s15,25.34,51.63,33.64c31.84,7.35,39.18,5.32,39.18,5.32s-.53,44.61,2.35,69.53,8.41,65.26,8.41,65.26h24.17s12-98.37,13.09-110.19,4.26-38.86-1.06-50.68-10-12.78-10-12.78Z"/></clipPath><linearGradient id="Безымянный_градиент_18-4" x1="15066.91" y1="-1145.23" x2="15226.37" y2="-1248.04" gradientTransform="matrix(-1, 0, 0, 1, 16365.31, 1722)" xlink:href="#Безымянный_градиент_18"/><linearGradient id="Безымянный_градиент_22-6" x1="15234.1" y1="-1496.51" x2="15334.16" y2="-1415.97" gradientTransform="matrix(-1, 0, 0, 1, 16365.31, 1722)" xlink:href="#Безымянный_градиент_22"/><clipPath id="clip-path-7"><path class="cls-1" d="M1180.26,290.9c-3.62-14.8-24.06-29-45.78-31.94s-45-.75-55,1.49-25.56,14.37-26.62,35.56-2,46.53,3.83,54,4,8.41,39.18,7.45,68,0,68,0Z"/></clipPath><linearGradient id="Безымянный_градиент_20-2" x1="15280.45" y1="-1358.28" x2="15246.66" y2="-1418.01" gradientTransform="matrix(-1, 0, 0, 1, 16365.31, 1722)" xlink:href="#Безымянный_градиент_20"/><linearGradient id="Безымянный_градиент_21-2" x1="15262.81" y1="-1370.42" x2="15313.09" y2="-1468.86" gradientTransform="matrix(-1, 0, 0, 1, 16365.31, 1722)" xlink:href="#Безымянный_градиент_21"/><linearGradient id="Безымянный_градиент_22-7" x1="15114.8" y1="-1412.34" x2="15260.66" y2="-1368.77" gradientTransform="matrix(-1, 0, 0, 1, 16365.31, 1722)" xlink:href="#Безымянный_градиент_22"/><linearGradient id="Безымянный_градиент_23-2" x1="15251.32" y1="-1453.42" x2="15251.32" y2="-1493.11" gradientTransform="matrix(-1, 0, 0, 1, 16365.31, 1722)" xlink:href="#Безымянный_градиент_23"/></defs><title>Шапка v5</title><g id="Слой_2" data-name="Слой 2"><g id="Слой_1-2" data-name="Слой 1"><g class="cls-2"><path class="cls-3" d="M362.69,689C-77.81,513.5-14.11,205.5,75.89,0h2181c15,25.5,69.3,136,46,325-19.7,159.5-86.5,339.5-324,410.5s-397.5-41-768.5-46.5S803.19,864.5,362.69,689Z"/><path class="cls-4" d="M362.69,689C-77.81,513.5-14.11,205.5,75.89,0h2181c15,25.5,69.3,136,46,325-19.7,159.5-86.5,339.5-324,410.5s-397.5-41-768.5-46.5S803.19,864.5,362.69,689Z"/></g><g class="cls-2"><path class="cls-5" d="M1450.29,780c-453.9,20-644.5-124.5-842.5-146.5-271-40.5-293.9,116.5-472,51.5C-39.81,620.9-28.61,223.5,75.89,0h2176c42,84.5,62.9,201,40,333C2226.89,708,1915.89,759.5,1450.29,780Z"/><path class="cls-6" d="M1450.29,780c-453.9,20-644.5-124.5-842.5-146.5-271-40.5-293.9,116.5-472,51.5C-39.81,620.9-28.61,223.5,75.89,0h2176c42,84.5,62.9,201,40,333C2226.89,708,1915.89,759.5,1450.29,780Z"/></g><path class="cls-7" d="M362.64,257.86h-7.7v-11.5H324v11.5h-7.9l-.3-18h3.8a19.42,19.42,0,0,0,4.5-7.9,51.44,51.44,0,0,0,2.2-11.7l1.2-20.8h29.6v40.4h6Zm-33.8-18h20.1v-33.8h-13.7l-.8,13.2c-.5,8.8-2.4,15.7-5.6,20.6Zm69.1-40.4h8.2v46.9h-8.2V213l-20.6,33.4h-8.2v-46.9h8.2V233Zm53.7,31.6c-.5,5-2.3,8.9-5.5,11.7s-7.5,4.2-12.9,4.2a18.14,18.14,0,0,1-9.9-2.6,17.39,17.39,0,0,1-6.6-7.6,28.1,28.1,0,0,1-2.4-11.4V221a26.42,26.42,0,0,1,2.4-11.7,18.13,18.13,0,0,1,6.7-7.8,18.39,18.39,0,0,1,10.2-2.7c5.2,0,9.3,1.4,12.5,4.2s5,6.8,5.5,11.9h-8.1c-.4-3.4-1.4-5.8-3-7.3a9.73,9.73,0,0,0-6.9-2.3,9.48,9.48,0,0,0-8.2,3.9c-1.9,2.6-2.9,6.4-2.9,11.4v4.1c0,5.1.9,8.9,2.7,11.6a9.11,9.11,0,0,0,8,4c3.2,0,5.6-.7,7.2-2.2s2.6-3.8,3.1-7.2Zm40.3-25h-14.6v40.3h-8.1V206h-14.5v-6.6h37.2Zm28.6,29.4h-18.2l-3.8,10.9H490l17.7-46.9H515l17.8,46.9h-8.5Zm-15.9-6.6h13.6l-6.8-19.5Zm70.8,17.5h-8.1v-20.9h-21v20.9h-8.2v-46.9h8.2V219h21v-19.5h8.1Zm9.6-46.9h8.2v40.4h20.7v-40.4h8.2v40.4h5.7l-.6,17.9h-7.5v-11.4h-34.6v-46.9Zm78.1,0h8.2v46.9h-8.2V213l-20.6,33.4h-8.2v-46.9h8.2V233Zm55.4,24.7a27.86,27.86,0,0,1-2.4,12.1,17.68,17.68,0,0,1-6.8,8,19.35,19.35,0,0,1-10.2,2.8,18.14,18.14,0,0,1-17.1-10.8,27,27,0,0,1-2.4-11.9v-2.6a27.86,27.86,0,0,1,2.4-12.1,17.9,17.9,0,0,1,6.9-8,20,20,0,0,1,20.3,0,18.85,18.85,0,0,1,6.9,7.9,29.35,29.35,0,0,1,2.5,12l-.1,2.6Zm-8.2-2.5q0-7.8-3-12a10.36,10.36,0,0,0-16.6,0q-3,4.2-3,11.7v2.7q0,7.8,3,12a9.85,9.85,0,0,0,8.4,4.2,9.48,9.48,0,0,0,8.3-4.1c2-2.7,2.9-6.8,2.9-12.1v-2.4Zm53.6,24.7h-8.2v-20.9h-21v20.9h-8.2v-46.9h8.2V219h21v-19.5h8.1v46.9Zm46.9,0h-8.1v-20.9h-21v20.9h-8.2v-46.9h8.2V219h21v-19.5h8.1Zm47.1-22.2a27.86,27.86,0,0,1-2.4,12.1,17.68,17.68,0,0,1-6.8,8,19.35,19.35,0,0,1-10.2,2.8,18.14,18.14,0,0,1-17.1-10.8,27,27,0,0,1-2.4-11.9v-2.6a27.86,27.86,0,0,1,2.4-12.1,17.9,17.9,0,0,1,6.9-8,20,20,0,0,1,20.3,0,18.85,18.85,0,0,1,6.9,7.9,27.71,27.71,0,0,1,2.4,12Zm-8.1-2.5q0-7.8-3-12a10.36,10.36,0,0,0-16.6,0q-3,4.2-3,11.7v2.7q0,7.8,3,12a9.85,9.85,0,0,0,8.4,4.2,9.48,9.48,0,0,0,8.3-4.1c2-2.7,2.9-6.8,2.9-12.1v-2.4Zm43.7,3.7h-19.3v14.4h22.5v6.5H866v-46.9h30.5V206h-22.3v13h19.3Zm-545.3,52h8.2v47h-8.2V291l-20.6,33.4h-8.1v-46.9h8.1V311Zm41.2,31.7c.4,3.4,1.4,5.8,3.1,7.3s4,2.2,7.2,2.2a9.21,9.21,0,0,0,7.8-3.7c1.8-2.4,2.8-6,3-10.6h-16.6v-6.6h16.6c-.2-4.7-1.2-8.2-3.1-10.6a9.58,9.58,0,0,0-8-3.7,9.73,9.73,0,0,0-6.9,2.3c-1.6,1.5-2.6,4-3,7.4h-8.1c.5-5.1,2.3-9.1,5.5-11.9s7.3-4.3,12.5-4.3a19.26,19.26,0,0,1,10.2,2.7,17.24,17.24,0,0,1,6.7,7.7,26,26,0,0,1,2.4,11.6v4a27.78,27.78,0,0,1-2.3,11.7,17.11,17.11,0,0,1-6.6,7.7,18.57,18.57,0,0,1-10,2.7c-5.3,0-9.6-1.4-12.8-4.2a16.67,16.67,0,0,1-5.5-11.7Zm73-31.7v47h-8.1V284h-14.4l-.8,18.1a49.18,49.18,0,0,1-2.1,13.2,13.39,13.39,0,0,1-4.6,6.8,13.78,13.78,0,0,1-8.1,2.2h-2.1v-6.5l1.3-.1a6.43,6.43,0,0,0,4.3-2,11.13,11.13,0,0,0,2.3-5.2,58.92,58.92,0,0,0,1.1-10.2l.9-23Zm37.3,26h-19.3v14.4h22.5v6.5h-30.7v-46.9h30.5V284h-22.3v13h19.3Zm23.7.9h-5.5v20.1h-8.1v-46.9h8.1v19.7h4.5l13.8-19.7h10L530.14,300l17.5,24.5h-9.8ZM586,284h-14.6v40.4h-8.1V284h-14.5v-6.6H586Zm14.3,23v17.4h-8.2v-46.9h18c5.2,0,9.4,1.4,12.5,4.1a13.49,13.49,0,0,1,4.6,10.8c0,4.6-1.5,8.2-4.5,10.7s-7.3,3.8-12.7,3.8h-9.7v.1Zm0-6.6h9.8c2.9,0,5.1-.7,6.6-2a7.62,7.62,0,0,0,2.3-5.9,8.14,8.14,0,0,0-2.4-6.1,9.26,9.26,0,0,0-6.4-2.4h-10Zm71.5,1.8a27.86,27.86,0,0,1-2.4,12.1,17.68,17.68,0,0,1-6.8,8,18.86,18.86,0,0,1-26-5.6,18.34,18.34,0,0,1-1.3-2.4,27,27,0,0,1-2.4-11.9v-2.6a27.86,27.86,0,0,1,2.4-12.1,17.9,17.9,0,0,1,6.9-8,20,20,0,0,1,20.3,0,18.85,18.85,0,0,1,6.9,7.9,29.35,29.35,0,0,1,2.5,12Zm-8.1-2.5q0-7.8-3-12a10.36,10.36,0,0,0-16.6,0q-3,4.2-3,11.7v2.7q0,7.8,3,12a10,10,0,0,0,8.4,4.2,9.48,9.48,0,0,0,8.3-4.1c2-2.8,2.9-6.8,2.9-12.1v-2.4Zm53.5,24.7h-8.1v-20.9h-21v20.9h-8.2v-46.9h8.2V297h21v-19.5h8.1Zm46.9,0H756v-20.9H735v20.9h-8.2v-46.9H735V297h21v-19.5h8.1Zm47.1-22.2a27.86,27.86,0,0,1-2.4,12.1,17.68,17.68,0,0,1-6.8,8,19.35,19.35,0,0,1-10.2,2.8,18.76,18.76,0,0,1-10.1-2.8,18.53,18.53,0,0,1-6.9-8,28.56,28.56,0,0,1-2.5-11.9v-2.6a27.86,27.86,0,0,1,2.4-12.1,17.9,17.9,0,0,1,6.9-8,20,20,0,0,1,20.3,0,18.85,18.85,0,0,1,6.9,7.9,29.35,29.35,0,0,1,2.5,12Zm-8.1-2.5q0-7.8-3-12a10.36,10.36,0,0,0-16.6,0q-3,4.2-3,11.7v2.7q0,7.8,3,12a9.85,9.85,0,0,0,8.4,4.2,9.48,9.48,0,0,0,8.3-4.1c2-2.7,2.9-6.8,2.9-12.1Zm43.7,3.7h-19.3v14.4H850v6.5h-30.7v-46.9h30.5V284h-22.3v13h19.3Zm-489.9,76.8a27.86,27.86,0,0,1-2.4,12.1,17.68,17.68,0,0,1-6.8,8,19.35,19.35,0,0,1-10.2,2.8,18.14,18.14,0,0,1-17.1-10.8,27,27,0,0,1-2.4-11.9v-2.6a27.86,27.86,0,0,1,2.4-12.1,17.9,17.9,0,0,1,6.9-8,20,20,0,0,1,20.3,0,18.85,18.85,0,0,1,6.9,7.9,29.35,29.35,0,0,1,2.5,12Zm-8.1-2.5q0-7.8-3-12a10.36,10.36,0,0,0-16.6,0q-3,4.2-3,11.7v2.7q0,7.8,3,12a9.85,9.85,0,0,0,8.4,4.2,9.48,9.48,0,0,0,8.3-4.1c2-2.7,2.9-6.8,2.9-12.1Zm45.9-15.7h-21.6v11.4h9.6a19.88,19.88,0,0,1,9,1.8,12.81,12.81,0,0,1,5.8,5,14.86,14.86,0,0,1-2.5,18.1c-3,2.7-7,4-12.2,4.1h-18v-46.9h29.9Zm-21.6,18v15.9h9.6a9.1,9.1,0,0,0,6.4-2.2,8,8,0,0,0,2.3-6,7,7,0,0,0-2.3-5.6,8.93,8.93,0,0,0-6.3-2.1Zm49.8,0,9.4-24.5h9.1L425,394.36l-1.5,2.9Q420.39,403,413,403l-3.3-.2.1-6.4a24.37,24.37,0,0,0,2.7.1,5.06,5.06,0,0,0,4.9-3l1.7-4-16-34.2H412Zm60.6-24.5v46.9h-8.1v-18.5a44.53,44.53,0,0,1-10.9,1.3c-5.6,0-9.8-1.2-12.7-3.7s-4.3-6.2-4.3-11.1v-14.9h8.1v14.9c0,3,.7,5.1,2.1,6.4s3.7,1.9,6.9,1.9a40.26,40.26,0,0,0,10.9-1.4v-21.9Zm37.2,26h-19.3v14.4h22.5v6.5h-30.7v-46.9h30.5v6.6h-22.3v13h19.3Zm47.1,20.9h-8.1v-20.9h-21v20.9h-8.2v-46.9h8.2V375h21v-19.5h8.1Zm38.4-46.9h8.2v46.9h-8.2V369l-20.6,33.4h-8.2v-46.9h8.2V389Zm45.4,26h-19.3v14.4h22.5v6.5h-30.7v-46.9h30.5v6.6h-22.3v13h19.3Z"/><ellipse class="cls-8" cx="1334.32" cy="604.88" rx="356.14" ry="31.41"/><ellipse class="cls-9" cx="1334.32" cy="604.88" rx="356.14" ry="31.41"/><path class="cls-10" d="M1360.2,192.09c-15.76-14.37-52.49-85.7-133.84-71.33-23.85,6.28-35.56,26.3-42.58,49.4s-16.83,40.67-29.39,56.22-61.33,78.89-82,130.74-13.84,116.37,86.34,147,253.3,55.68,319,53.23S1562.38,558.56,1606,581s30.14-64.31,25.56-141.39-46.74-155.88-138.2-175.15S1375.85,206.47,1360.2,192.09Z"/><rect class="cls-1" x="1002.67" y="216.8" width="697.38" height="391.81"/><g id="Мужик"><g id="стул"><path class="cls-11" d="M1596.88,454.33c14.48,5.43,17.35,7.67,19.16,10.65s4.58,8-1,13.73-8.51,6.07-14.16,6.6-68.67,2.34-68.67,2.34V603l-12,.11V483.18Z"/><rect class="cls-11" x="1520.33" y="487.65" width="12.03" height="117.01"/><rect class="cls-11" x="1606.46" y="471.68" width="12.03" height="132.98"/></g><path id="СТУЛ-2" class="cls-12" d="M1490,371.82s2.13-19.49,8.63-28.33,49.82-14.79,58.34-15.11,45.36-.64,53.56,5.21,16.39,12.35,13.84,31.41-14.16,81.13-14.16,81.13l-98.06,8.31Z"/><path class="cls-13" d="M1516.81,581v26.19s0,2.45-2.13,2.45h-38.54s-3.3-1.07,0-3S1493,595.61,1494,594.87s2.13-1.81,2.34-5,0-7.46,0-7.46Z"/><path class="cls-13" d="M1469.75,581v26.19s0,2.45-2,2.45h-37.8s-3.19-1.07,0-3,16.51-11.08,17.46-11.82,2-1.81,2.24-5,0-7.46,0-7.46Z"/><g class="cls-14"><path class="cls-15" d="M1559.4,456.88s-11.5,20.77-42.69,23.85-28.43,1.71-28.43,1.71.74,37.26-1.7,55.89-15.76,47.38-15.76,47.38H1449s-3.62-80.81-4.47-89.75-4.47-22.57,0-31.41,5.54-7.67,5.54-7.67Z"/><path class="cls-16" d="M1559.4,456.88s-11.5,20.77-42.69,23.85-28.43,1.71-28.43,1.71.74,37.26-1.7,55.89S1474,585.71,1474,585.71l-30.87,4s2.23-84.86,1.38-93.8-4.47-22.57,0-31.41,5.54-7.67,5.54-7.67Z"/></g><g class="cls-17"><path class="cls-15" d="M1595.92,456.88s-11.5,20.77-42.69,23.85-28.43,1.71-28.43,1.71.74,37.26-1.71,55.89-6.17,45.25-6.17,45.25h-21s-14-78.78-14.9-87.62-4.47-22.57,0-31.41,5.54-7.67,5.54-7.67Z"/><path class="cls-18" d="M1595.92,456.88s-11.5,20.77-42.69,23.85-28.43,1.71-28.43,1.71.74,37.26-1.71,55.89-6.17,45.25-6.17,45.25h-21s-14-78.78-14.9-87.62-4.47-22.57,0-31.41,5.54-7.67,5.54-7.67Z"/></g><g class="cls-19"><path class="cls-20" d="M1495.2,348.92c3.41-14.48,22.68-28.21,43.12-31.19s42.48-.75,52,1.49,24.17,13.95,25.12,34.71,1.92,45.46-3.62,52.7-3.83,8.2-36.94,7.24-64.2,0-64.2,0Z"/><path class="cls-21" d="M1492.64,360.85c3.41-11.82,23.21-23.1,44.08-25.55s43.34-.64,52.92,1.27,24.59,11.5,25.66,28.43,1.91,37.27-3.73,43.23-3.94,6.71-37.69,6-65.48,0-65.48,0Z"/><path class="cls-22" d="M1528.74,400.46c5.53-4.58,14-.75,14.58-1.71s39-9.9,39.29-11.71-4.36-33.86-4.36-33.86l22.67-4.47,7,3.51s8.09,31.2,8.09,33.22-3.4,23.32-3.4,23.32-19.17,8-28,7.56-49.08-.85-49.08-.85Z"/></g><g class="cls-19"><path class="cls-23" d="M1495.2,348.92c3.41-14.48,22.68-28.21,43.12-31.19s42.48-.75,52,1.49,24.17,13.95,25.12,34.71,1.92,45.46-3.62,52.7-3.83,8.2-36.94,7.24-64.2,0-64.2,0Z"/><path class="cls-24" d="M1492.64,360.85c3.41-11.82,23.21-23.1,44.08-25.55s43.34-.64,52.92,1.27,24.59,11.5,25.66,28.43,1.91,37.27-3.73,43.23-3.94,6.71-37.69,6-65.48,0-65.48,0Z"/><path class="cls-25" d="M1528.74,400.46c5.53-4.58,14-.75,14.58-1.71s39-9.9,39.29-11.71-4.36-33.86-4.36-33.86l22.67-4.47,7,3.51s8.09,31.2,8.09,33.22-3.4,23.32-3.4,23.32-19.17,8-28,7.56-49.08-.85-49.08-.85Z"/></g><path class="cls-26" d="M1573.24,414.72H1435.47a6.44,6.44,0,0,1-6.49-6.49l-7.46-54.3a6.46,6.46,0,0,1,6.5-6.5h94.12a6.45,6.45,0,0,1,6.49,6.5l6.92,55.58,33.65.1a4,4,0,0,1,4,4.05v1.06Z"/><path class="cls-27" d="M1538.32,323.05s.32,13,13.84,13.1,15.12-12.88,15.12-12.88l-6.6-1.71s0-11.6-.64-15-10,6.71-10,6.71l-5,2.23-.22,7.14Z"/><path class="cls-28" d="M1507,289.09c3.19-.11,8.41,1.81,16.07-12.67s28-15.55,33.44-15.44,12.88.32,14.9,7.88-3.83,12.56-3.83,13.09,3.09,9.59,1.92,12-9.91.85-9.91.85l-1.91,7a88.21,88.21,0,0,0-28.64-6.06c-15.23-.32-20.66-4.58-21.08-4.9A14.17,14.17,0,0,1,1507,289.09Z"/><path class="cls-29" d="M1525.65,295.37s3.19,18.42,12.46,23.74,17.78-2.45,18.74-3.51,4.57-5,4.68-7.67a22.27,22.27,0,0,0,0-3.83s8.41-.85,8.3-7a7.36,7.36,0,0,0-7-7.66,8.6,8.6,0,0,0-1.6.1c-2.87.75-6.71,6.39-5.75,8.63,1.39,3.09-3.62,1.17-6.07-2.34a11.37,11.37,0,0,1-2-6.39s-7.24,4.26-12,5.32A57,57,0,0,1,1525.65,295.37Z"/></g><g id="Девушка"><path class="cls-30" d="M1162.27,274.5s-2.56-24.17-10.12-35.35-58.24-18.42-68.24-18.84-52.92-.75-62.61,6.49-19.16,15.34-16.07,39.18,16.5,100.94,16.5,100.94l114.67,10.33Z"/><g id="стул-3"><path class="cls-11" d="M1072.62,409.93c-16.93,6.71-20.33,9.37-22.46,13.1s-5.33,9.79,1.17,16.93,10,7.45,16.5,8.09,58.35,2.87,58.35,2.87V592.31h-43.55l1.17,8.63h100.93v-8.73l-44.5.21V445.28Z"/><circle class="cls-11" cx="1133.52" cy="598.06" r="12.14"/><circle class="cls-11" cx="1078.37" cy="598.06" r="12.14"/><circle class="cls-11" cx="1188.78" cy="598.06" r="12.14"/></g><path class="cls-13" d="M1206.88,583.69v27.79s-.85,2.45,3.51,2.77,41.1,0,41.1,0,5.64-.43.64-3.3-23.1-13.74-23.1-13.74-2.35-1.17-2.35-4.9v-6.38Z"/><path class="cls-13" d="M1169.3,583.69v27.79s-.86,2.45,3.4,2.77,41.1,0,41.1,0,5.64-.43.64-3.3-23.11-13.74-23.11-13.74-2.34-1.17-2.34-4.9v-6.38Z"/><g class="cls-31"><path class="cls-15" d="M1105.52,413.13s13.84,27.57,51.21,31.62S1190.8,447,1190.8,447s-.85,49.4,2,74.32,8.09,68,8.09,68l33.53.75S1249,478,1250.11,466.25s-1.39-31.19-6.82-43-6.71-10.11-6.71-10.11Z"/><path class="cls-32" d="M1107.76,412.59s9,35.24,46.42,39.29l37.37,4.05s.64,39.92,3.51,64.73,5.75,68.57,5.75,68.57l35.88-1.81s14.69-111,15.65-122.76-1.49-30.24-6.81-42-6.71-10.12-6.71-10.12Z"/></g><g class="cls-33"><path class="cls-15" d="M1066.13,413.13s5.75,37.05,43,41.09,36.63,6.18,36.63,6.18,4.68,36.09,7.55,60.9,13.85,66.44,13.85,66.44l24.7-.75s17.67-108.92,18.74-120.63-1.39-31.2-6.82-43-6.71-10.12-6.71-10.12Z"/><path class="cls-34" d="M1066.13,413.13s13.84,27.57,51.21,31.62,34.07,2.23,34.07,2.23-.85,49.4,2,74.32,7.77,65.58,7.77,65.58l33.75,1.18s14.7-111,15.66-122.76-1.5-30.24-6.82-41.95-6.71-10.12-6.71-10.12l-130.95-.1Z"/></g><path class="cls-35" d="M1148.43,264.92c-3.62-5.75-7.24-11.61-6-16.18s12.45-24,9-41-22-26.09-32.57-27.79-27.26-2.88-37.59,9.58-14,31.09-13.63,41.1-5.75,23.21-20.55,33-26.19,25-22.89,55.15,51.64,28,51.64,28Z"/><g class="cls-36"><path class="cls-23" d="M1178.77,290.9c-3.62-14.8-24.06-29-45.78-31.94s-45-.75-55,1.49-25.55,14.37-26.61,35.56-2,46.53,3.83,54,4,8.41,39.18,7.45,68,0,68,0Z"/><path class="cls-37" d="M1180.26,290.9c-3.62-14.8-24.06-29-45.78-31.94s-45-.75-55,1.49-25.56,14.37-26.62,35.56-2,46.53,3.83,54,4,8.41,39.18,7.45,68,0,68,0Z"/><path class="cls-38" d="M1155.45,347.43c-7.66-5.85-21.5,1.28-22.25,0s-52.49-14.8-52.91-17.14,9.69-40.46,9.69-40.46l-35.25-8.51-9.79,4.47s2.55,40.46,2.55,43,3.09,29,3.09,29,14.59,10.44,26.94,9.9,68.57-1.06,68.57-1.06Z"/></g><path class="cls-39" d="M1106.16,358.29h138.2a6.44,6.44,0,0,0,6.49-6.49l7.45-54.62a6.44,6.44,0,0,0-6.49-6.49h-94.44a6.44,6.44,0,0,0-6.49,6.49l-6.92,55.9-33.76.1a4.07,4.07,0,0,0-4,4.16v1Z"/><path class="cls-40" d="M1123.09,241.71l3.62,18.42-4.69,8.41L1101.26,258s3.3-26.09,4.9-28.75S1123.09,241.71,1123.09,241.71Z"/><path class="cls-29" d="M1135.33,226.91s-5.64,16-11.5,18.63-12-5.11-12.56-5.64-6.18-7-6.18-7l.22-2.66-1.92-.43a.6.6,0,0,1-.43-.74h0c0-.11,0-.21.11-.21l3.62-4.16a17.48,17.48,0,0,0,2.34-3.19l2.35-3.73a1.16,1.16,0,0,1,1.59-.32l8.84,4.9a18.51,18.51,0,0,0,4.68,2.13Z"/><polygon class="cls-41" points="1129.9 258.21 1131.39 277.16 1122.66 269.39 1116.17 279.72 1098.07 258.11 1100.73 257.25 1122.02 268.54 1126.71 257.25 1129.9 258.21"/></g><path id="Стол" class="cls-11" d="M1663.21,607.43h-2.77c-1.81,0-3.3-2.13-3.3-4.79l-.75-140c0-2.66-1.49-4.79-3.3-4.79l-267.87-.53c-1.81,0-3.3,2.13-3.3,4.79L1381.17,603c0,2.66-1.49,4.9-3.41,4.79l-3-.1c-1.81,0-3.19-2.24-3.19-4.8V419.09c0-2.66,1.49-4.79,3.3-4.79H1663.1c1.81,0,3.3,2.13,3.3,4.79V602.64C1666.51,605.3,1665,607.43,1663.21,607.43Z"/><path id="Стол-2" class="cls-11" d="M1327.08,610.09h-3c-2,0-3.62-2.76-3.62-6.06l-.85-184.3c0-3.41-1.6-6.07-3.62-6.07l-296.3-.75c-2,0-3.62,2.66-3.62,6.07l-.86,185.37c0,3.4-1.7,6.17-3.72,6.06l-3.3-.1c-2-.11-3.52-2.77-3.52-6.18V364.58c0-3.41,1.6-6.18,3.62-6.18h318.77c2,0,3.62,2.77,3.62,6.18V604C1330.81,607.33,1329.11,610.09,1327.08,610.09Z"/><path class="cls-7" d="M430.19,95.63c.5,3.6,1.7,6,3.3,7.4s4.1,2.1,7.2,2.1a9.9,9.9,0,0,0,8.1-4c2.1-2.6,2.9-6.4,3.1-11H435v-4.7h16.9c0-4.7-1-8.3-3.1-11a11.16,11.16,0,0,0-15.3-1.9,11.56,11.56,0,0,0-3.1,7.4h-5.7a16.4,16.4,0,0,1,4.8-10.5c2.8-2.6,6.4-3.8,11-3.8a17.86,17.86,0,0,1,9.1,2.4,15,15,0,0,1,6,7.1,26.93,26.93,0,0,1,2.1,10.5v4.3a24.92,24.92,0,0,1-2.1,10.5,17.25,17.25,0,0,1-5.9,7.1,16.37,16.37,0,0,1-8.8,2.4c-4.7,0-8.4-1.2-11.2-3.6s-4.5-6-5-10.5H430v-.2Zm68.4,13.6h-5.7V71h-21.2v38.2H466V66.33h32.6v42.9Zm43.3-20.1a27,27,0,0,1-2.1,11,15.44,15.44,0,0,1-15.1,9.6,17.76,17.76,0,0,1-9-2.4,15.54,15.54,0,0,1-6-7.1,25.87,25.87,0,0,1-2.2-10.7v-3.1a26.5,26.5,0,0,1,2.1-10.9,16,16,0,0,1,15-9.8,16.68,16.68,0,0,1,9.1,2.6,15.8,15.8,0,0,1,6,7.2,26.33,26.33,0,0,1,2.1,11v2.4h.1Zm-5.5-2.8c0-5.2-1-9-3.1-11.7a10.86,10.86,0,0,0-17,0c-2.1,2.8-3.1,6.6-3.1,11.4v3.1c0,5,1,8.8,3.1,11.7a10.13,10.13,0,0,0,8.6,4.1,9.82,9.82,0,0,0,8.4-4c2.1-2.6,3.1-6.6,3.1-11.4Zm45.5,9.3c-.5,4.5-2.2,8.1-5,10.5s-6.6,3.6-11.2,3.6a15.45,15.45,0,0,1-12.2-5.5c-3.1-3.6-4.5-8.4-4.5-14.7v-4.1a24.92,24.92,0,0,1,2.1-10.5,15.09,15.09,0,0,1,6-6.9,17.17,17.17,0,0,1,9.1-2.4c4.5,0,8.3,1.2,11,3.8s4.3,6,4.8,10.5h-5.6c-.5-3.4-1.6-5.9-3.3-7.4s-4-2.2-6.9-2.2a10.07,10.07,0,0,0-8.4,4c-2.1,2.6-3.1,6.6-3.1,11.4v4.1c0,4.7,1,8.3,2.9,11a9.25,9.25,0,0,0,8.1,4.1q4.65,0,7.2-2.1c1.7-1.4,2.8-4,3.3-7.4h5.7Z"/><path class="cls-42" d="M384,117.33c-1.2,7.1-1.7,9-5.2,11.9-4.3,3.4-55,12.2-55.2-27.2-.2-41.2,30-53.3,34.5-55.5,4.7-2.2,6.6-.7,6.2,4.7l9.1,6.2a11.85,11.85,0,0,0,0,3.3c1.6,2.9,9.5,7.2,9.5,7.2,0,1.9-4.5,10.5-14.7,7.6-3.8-1-14.8-.2-1.6,13.6"/><path class="cls-43" d="M403,84.43l-11.4,21.9h-23.1"/><path class="cls-44" d="M376.59,100.83c0-9.8,6.6-14.7,16.2-9.8"/><path class="cls-44" d="M370.69,100.43c-.5-14.1,12.2-22.2,25.2-15.3"/><path class="cls-44" d="M382.59,100.63c0-4.3,2.1-7.1,7.8-4.5"/><path class="cls-7" d="M1584.54,61.34H1579v15.2h-2.2V61.34h-5.5v-1.9h13.2Zm6.3,15.4a5.73,5.73,0,0,1-4.2-1.7,6.05,6.05,0,0,1-1.6-4.5v-.4a7.39,7.39,0,0,1,.7-3.4,5.68,5.68,0,0,1,2-2.3,4.79,4.79,0,0,1,2.8-.8,4.64,4.64,0,0,1,3.8,1.6,7.12,7.12,0,0,1,1.4,4.7v.9h-8.6a4.08,4.08,0,0,0,1.1,3,3.34,3.34,0,0,0,2.7,1.1,4.23,4.23,0,0,0,2-.5,4.07,4.07,0,0,0,1.4-1.2l1.3,1A5.33,5.33,0,0,1,1590.84,76.74Zm-.3-11.4a2.7,2.7,0,0,0-2.2,1,4.2,4.2,0,0,0-1.1,2.7h6.4v-.2a4.72,4.72,0,0,0-.9-2.6A2.94,2.94,0,0,0,1590.54,65.34Zm18.1-1.5v12.7h-2.2V65.64h-4.3l-.3,4.7a10.09,10.09,0,0,1-1.1,4.7,3.43,3.43,0,0,1-2.8,1.5h-.9v-1.9h.6a1.85,1.85,0,0,0,1.5-1.2,14.13,14.13,0,0,0,.6-4.1l.2-5.4,8.7-.1Zm8.8,12.9a5.73,5.73,0,0,1-4.2-1.7,6.05,6.05,0,0,1-1.6-4.5v-.4a7.39,7.39,0,0,1,.7-3.4,5.68,5.68,0,0,1,2-2.3,4.79,4.79,0,0,1,2.8-.8,4.52,4.52,0,0,1,3.8,1.6,7.12,7.12,0,0,1,1.4,4.7v.9h-8.6a4.08,4.08,0,0,0,1.1,3,3.34,3.34,0,0,0,2.7,1.1,3.56,3.56,0,0,0,1.9-.5,5.26,5.26,0,0,0,1.4-1.2l1.3,1A5.06,5.06,0,0,1,1617.44,76.74Zm-.3-11.4a2.7,2.7,0,0,0-2.2,1,4.2,4.2,0,0,0-1.1,2.7h6.4v-.2a4.72,4.72,0,0,0-.9-2.6A2.94,2.94,0,0,0,1617.14,65.34Zm7.3,5.1a9,9,0,0,1,1.2-5,3.81,3.81,0,0,1,3.4-1.8,4.84,4.84,0,0,1,1.8.3v-5.4h2.2V64a3.81,3.81,0,0,1,1.9-.4,3.93,3.93,0,0,1,3.4,1.8,9.53,9.53,0,0,1,1.2,5.2,7.51,7.51,0,0,1-1.2,4.5,4,4,0,0,1-3.4,1.7,3.58,3.58,0,0,1-1.9-.4v5h-2.2v-5a4.84,4.84,0,0,1-1.8.3,4.08,4.08,0,0,1-3.4-1.7,7.63,7.63,0,0,1-1.2-4.6Zm12.9,0a7.53,7.53,0,0,0-.8-3.7,2.45,2.45,0,0,0-2.3-1.3,5.07,5.07,0,0,0-1.3.2v9.2a5.07,5.07,0,0,0,1.3.2,2.84,2.84,0,0,0,2.3-1.1A5.68,5.68,0,0,0,1637.34,70.44Zm-10.8.2a5.58,5.58,0,0,0,.8,3.2,2.53,2.53,0,0,0,2.2,1.1,4.3,4.3,0,0,0,1.2-.2v-9.2a3.73,3.73,0,0,0-1.2-.2,2.31,2.31,0,0,0-2.2,1.3A8.28,8.28,0,0,0,1626.54,70.64Zm15.2-.6a7.67,7.67,0,0,1,.7-3.4,5.68,5.68,0,0,1,2-2.3,6.11,6.11,0,0,1,3-.8,5.45,5.45,0,0,1,4.2,1.8,6.8,6.8,0,0,1,1.6,4.8v.2a7.25,7.25,0,0,1-.7,3.3,5.59,5.59,0,0,1-2,2.3,6.11,6.11,0,0,1-3,.8,5.45,5.45,0,0,1-4.2-1.8,6.71,6.71,0,0,1-1.6-4.7Zm2.2.3a5.29,5.29,0,0,0,1,3.4,3,3,0,0,0,2.6,1.3,2.93,2.93,0,0,0,2.6-1.3,6.4,6.4,0,0,0,1-3.6,5.29,5.29,0,0,0-1-3.4,3.25,3.25,0,0,0-5.2,0A5.34,5.34,0,0,0,1643.94,70.34Zm22.4,6.2h-2.2v-5.4h-5.8v5.4h-2.2V63.84h2.2v5.5h5.8v-5.5h2.2Zm5.9-8.3h3.3a5.14,5.14,0,0,1,3.4,1.1,3.84,3.84,0,0,1,1.3,3,3.54,3.54,0,0,1-1.3,3,4.91,4.91,0,0,1-3.5,1.1H1670V63.84h2.2Zm12.4,8.3h-2.2V63.84h2.2Zm-12.4-6.6v4.8h3.2a2.88,2.88,0,0,0,1.9-.6,2.41,2.41,0,0,0,.7-1.7,2.06,2.06,0,0,0-.7-1.7,2.14,2.14,0,0,0-1.8-.7l-3.3-.1Zm32.9.4a7.69,7.69,0,0,1-1.3,4.7,4.28,4.28,0,0,1-3.6,1.8,4.47,4.47,0,0,1-3.6-1.5v6.1h-2.2V63.84h2l.1,1.4a4.86,4.86,0,0,1,7.3.1,7.42,7.42,0,0,1,1.3,4.8Zm-2.2-.3a5.71,5.71,0,0,0-.9-3.4,2.91,2.91,0,0,0-2.5-1.2,3.4,3.4,0,0,0-3,1.7v6.1a3.11,3.11,0,0,0,3,1.7,3,3,0,0,0,2.5-1.2A6.1,6.1,0,0,0,1702.94,70Zm10.2,6.7a5.73,5.73,0,0,1-4.2-1.7,6.05,6.05,0,0,1-1.6-4.5v-.4a7.39,7.39,0,0,1,.7-3.4,5.68,5.68,0,0,1,2-2.3,4.79,4.79,0,0,1,2.8-.8,4.52,4.52,0,0,1,3.8,1.6,7.12,7.12,0,0,1,1.4,4.7v.9h-8.6a4.08,4.08,0,0,0,1.1,3,3.34,3.34,0,0,0,2.7,1.1,3.56,3.56,0,0,0,1.9-.5,5.26,5.26,0,0,0,1.4-1.2l1.3,1A5,5,0,0,1,1713.14,76.74Zm-.2-11.4a2.7,2.7,0,0,0-2.2,1,4.2,4.2,0,0,0-1.1,2.7h6.3v-.2a4.72,4.72,0,0,0-.9-2.6A2.58,2.58,0,0,0,1712.94,65.34Zm15.9.3H1723v10.9h-2.2V63.84h8Zm10.1-1.8h2.2v12.7h-2.2v-9.2l-5.8,9.2h-2.2V63.84h2.2v9.3Zm5,6.2a7.67,7.67,0,0,1,.7-3.4,5.68,5.68,0,0,1,2-2.3,6.11,6.11,0,0,1,3-.8,5.45,5.45,0,0,1,4.2,1.8,6.8,6.8,0,0,1,1.6,4.8v.2a7.25,7.25,0,0,1-.7,3.3,6.42,6.42,0,0,1-2,2.3,6.11,6.11,0,0,1-3,.8,5.45,5.45,0,0,1-4.2-1.8,6.71,6.71,0,0,1-1.6-4.7Zm2.2.3a5.29,5.29,0,0,0,1,3.4,3,3,0,0,0,2.6,1.3,2.93,2.93,0,0,0,2.6-1.3,5.7,5.7,0,0,0,1-3.6,5.29,5.29,0,0,0-1-3.4,3.25,3.25,0,0,0-5.2,0A5.94,5.94,0,0,0,1746.14,70.34Zm22.5,6.2h-2.2v-5.4h-5.8v5.4h-2.2V63.84h2.2v5.5h5.8v-5.5h2.2Zm11.3,0a8.57,8.57,0,0,1-.3-1.3,5,5,0,0,1-3.6,1.6,4.5,4.5,0,0,1-3.1-1.1,3.42,3.42,0,0,1-1.2-2.7,3.75,3.75,0,0,1,1.5-3.1,7.23,7.23,0,0,1,4.2-1.1h2.1v-1a2.14,2.14,0,0,0-.7-1.8,2.58,2.58,0,0,0-2-.7,3.38,3.38,0,0,0-2,.6,1.87,1.87,0,0,0-.8,1.4h-2.2a2.74,2.74,0,0,1,.7-1.8,4.2,4.2,0,0,1,1.8-1.4,7.08,7.08,0,0,1,2.6-.5,5,5,0,0,1,3.4,1.1,3.84,3.84,0,0,1,1.3,3v5.8a9.82,9.82,0,0,0,.4,2.8v.2Zm-3.6-1.7a4.14,4.14,0,0,0,1.9-.5,2.91,2.91,0,0,0,1.3-1.4v-2.6h-1.7c-2.7,0-4,.8-4,2.3a1.86,1.86,0,0,0,.7,1.6A2.79,2.79,0,0,0,1776.34,74.84Zm19.2-11v12.7h-2.2V65.64H1789l-.3,4.7a10.09,10.09,0,0,1-1.1,4.7,3.43,3.43,0,0,1-2.8,1.5h-.9v-1.9h.6a1.85,1.85,0,0,0,1.5-1.2,14.13,14.13,0,0,0,.6-4.1l.2-5.4,8.7-.1Zm5.9,4.4h3.3a5.14,5.14,0,0,1,3.4,1.1,3.84,3.84,0,0,1,1.3,3,3.54,3.54,0,0,1-1.3,3,4.91,4.91,0,0,1-3.5,1.1h-5.4V63.84h2.2Zm0,1.7v4.8h3.2a2.88,2.88,0,0,0,1.9-.6,2.41,2.41,0,0,0,.7-1.7,2.06,2.06,0,0,0-.7-1.7,2.14,2.14,0,0,0-1.8-.7l-3.3-.1Zm21,6.6h-2.2v-5.4h-5.8v5.4h-2.2V63.84h2.2v5.5h5.8v-5.5h2.2Zm2.9-6.5a7.67,7.67,0,0,1,.7-3.4,5.68,5.68,0,0,1,2-2.3,6.11,6.11,0,0,1,3-.8,5.45,5.45,0,0,1,4.2,1.8,6.8,6.8,0,0,1,1.6,4.8v.2a7.25,7.25,0,0,1-.7,3.3,5.59,5.59,0,0,1-2,2.3,6.11,6.11,0,0,1-3,.8,5.45,5.45,0,0,1-4.2-1.8,6.71,6.71,0,0,1-1.6-4.7Zm2.2.3a5.29,5.29,0,0,0,1,3.4,3,3,0,0,0,2.6,1.3,2.93,2.93,0,0,0,2.6-1.3,5.7,5.7,0,0,0,1-3.6,5.29,5.29,0,0,0-1-3.4,3.25,3.25,0,0,0-5.2,0A5.34,5.34,0,0,0,1827.54,70.34Zm20.3-6.5h2.2v12.7h-2.2v-9.2l-5.9,9.2h-2.2V63.84h2.2v9.3Zm.5-4.6a2.9,2.9,0,0,1-1,2.3,3.92,3.92,0,0,1-5,0,2.76,2.76,0,0,1-1-2.3h1.8a2.5,2.5,0,0,0,.4,1.3,1.8,1.8,0,0,0,3.1-1.3Zm19.3,6.4h-5.8v10.9h-2.2V63.84h8Zm1,4.4a7.67,7.67,0,0,1,.7-3.4,5.68,5.68,0,0,1,2-2.3,6.11,6.11,0,0,1,3-.8,5.45,5.45,0,0,1,4.2,1.8,6.8,6.8,0,0,1,1.6,4.8v.2a7.25,7.25,0,0,1-.7,3.3,6.42,6.42,0,0,1-2,2.3,6.11,6.11,0,0,1-3,.8,5.45,5.45,0,0,1-4.2-1.8,6.71,6.71,0,0,1-1.6-4.7Zm2.2.3a5.29,5.29,0,0,0,1,3.4,3,3,0,0,0,2.6,1.3,2.93,2.93,0,0,0,2.6-1.3,5.7,5.7,0,0,0,1-3.6,5.29,5.29,0,0,0-1-3.4,3.25,3.25,0,0,0-5.2,0A5.34,5.34,0,0,0,1870.84,70.34Zm22.8,0a7.69,7.69,0,0,1-1.3,4.7,4.28,4.28,0,0,1-3.6,1.8,4.47,4.47,0,0,1-3.6-1.5v6.1h-2.2V63.84h2l.1,1.4a4.86,4.86,0,0,1,7.3.1,7.42,7.42,0,0,1,1.3,4.8Zm-2.2-.3a5.71,5.71,0,0,0-.9-3.4,3,3,0,0,0-2.5-1.2,3.4,3.4,0,0,0-3,1.7v6.1a3.11,3.11,0,0,0,3,1.7,3,3,0,0,0,2.5-1.2A6.1,6.1,0,0,0,1891.44,70Zm14.7-6.2v12.7h-2.2v-4.9h-3.3l-3,4.9h-2.3l3.2-5.3a4.5,4.5,0,0,1-1.9-1.4,4.1,4.1,0,0,1-.7-2.2,3.29,3.29,0,0,1,1.3-2.8,5.42,5.42,0,0,1,3.5-1.1h5.4Zm-8,3.9a2,2,0,0,0,.6,1.5,2.35,2.35,0,0,0,1.7.6h3.5v-4.2h-3.1a2.88,2.88,0,0,0-1.9.6A1.76,1.76,0,0,0,1898.14,67.74Zm21,8.8h-2.2v-4.6a9.25,9.25,0,0,1-2.9.4,4.89,4.89,0,0,1-3.6-1.2,4.84,4.84,0,0,1-1.3-3.5v-3.8h2.2v3.9c0,1.9.9,2.8,2.7,2.8a9.25,9.25,0,0,0,2.9-.4v-6.3h2.2v12.7Zm8.8.2a5.73,5.73,0,0,1-4.2-1.7,6.05,6.05,0,0,1-1.6-4.5v-.4a7.39,7.39,0,0,1,.7-3.4,5,5,0,0,1,2-2.3,4.79,4.79,0,0,1,2.8-.8,4.64,4.64,0,0,1,3.8,1.6,7.12,7.12,0,0,1,1.4,4.7v.9h-8.6a4.08,4.08,0,0,0,1.1,3,3.34,3.34,0,0,0,2.7,1.1,3.56,3.56,0,0,0,1.9-.5,5.26,5.26,0,0,0,1.4-1.2l1.3,1A5.06,5.06,0,0,1,1927.94,76.74Zm-.3-11.4a2.7,2.7,0,0,0-2.2,1,4.2,4.2,0,0,0-1.1,2.7h6.4v-.2a4.72,4.72,0,0,0-.9-2.6A2.94,2.94,0,0,0,1927.64,65.34Zm15.9-1.5h2.2v12.7h-2.2v-9.2l-5.9,9.2h-2.2V63.84h2.2v9.3Zm.6-4.6a2.9,2.9,0,0,1-1,2.3,3.92,3.92,0,0,1-5,0,2.76,2.76,0,0,1-1-2.3h1.8a2.5,2.5,0,0,0,.4,1.3,1.73,1.73,0,0,0,1.3.5,1.9,1.9,0,0,0,1.3-.5,1.73,1.73,0,0,0,.5-1.3Zm21.4,4.6v12.7h-2.2V65.64H1959l-.3,4.7a10.09,10.09,0,0,1-1.1,4.7,3.43,3.43,0,0,1-2.8,1.5h-.9v-1.9h.6a1.85,1.85,0,0,0,1.5-1.2,14.13,14.13,0,0,0,.6-4.1l.2-5.4,8.7-.1Zm11.7,0h2.2v12.7h-2.2v-9.2l-5.8,9.2h-2.2V63.84h2.2v9.3Zm16,12.7H1991v-5.4h-5.8v5.4H1983V63.84h2.2v5.5h5.8v-5.5h2.2Zm11.7-12.7h2.2v12.7h-2.2v-9.2l-5.8,9.2h-2.2V63.84h2.2v9.3Zm13.9,0h2.2v12.7h-2.2v-9.2l-5.9,9.2h-2.2V63.84h2.2v9.3Zm5.5,11.5a1.22,1.22,0,0,1,.3-.9,1.16,1.16,0,0,1,1-.4,1.05,1.05,0,0,1,1,.4,1.61,1.61,0,0,1,.3.9,1.22,1.22,0,0,1-.3.9,1.53,1.53,0,0,1-1,.4,1.16,1.16,0,0,1-1-.4A1.22,1.22,0,0,1,2024.34,75.34Zm.1-10.3a1.22,1.22,0,0,1,.3-.9,1.16,1.16,0,0,1,1-.4,1.05,1.05,0,0,1,1,.4,1.61,1.61,0,0,1,.3.9,1.22,1.22,0,0,1-.3.9,1.53,1.53,0,0,1-1,.4,1.16,1.16,0,0,1-1-.4A1.61,1.61,0,0,1,2024.44,65Zm-319,33.3a7.69,7.69,0,0,1-1.3,4.7,4.28,4.28,0,0,1-3.6,1.8,4.47,4.47,0,0,1-3.6-1.5v6.1h-2.2V91.84h2l.1,1.4a4.86,4.86,0,0,1,7.3.1,7.42,7.42,0,0,1,1.3,4.8Zm-2.2-.3a5.71,5.71,0,0,0-.9-3.4,2.91,2.91,0,0,0-2.5-1.2,3.13,3.13,0,0,0-2.9,1.7v6.1a3.11,3.11,0,0,0,3,1.7,3,3,0,0,0,2.5-1.2A7,7,0,0,0,1703.19,98Zm4.4,0a9.37,9.37,0,0,1,.7-3.4,5.68,5.68,0,0,1,2-2.3,6.11,6.11,0,0,1,3-.8,5.45,5.45,0,0,1,4.2,1.8,6.8,6.8,0,0,1,1.6,4.8v.2a7.25,7.25,0,0,1-.7,3.3,5.59,5.59,0,0,1-2,2.3,6.11,6.11,0,0,1-3,.8,5.45,5.45,0,0,1-4.2-1.8,6.71,6.71,0,0,1-1.6-4.7Zm2.2.3a5.29,5.29,0,0,0,1,3.4,3,3,0,0,0,2.6,1.3,2.93,2.93,0,0,0,2.6-1.3,6.4,6.4,0,0,0,1-3.6,5.29,5.29,0,0,0-1-3.4,3.25,3.25,0,0,0-5.2,0A5.34,5.34,0,0,0,1709.79,98.34Zm11.1,4.4.8-.9a8.92,8.92,0,0,0,1.4-4.9l.2-5.1h8.2v10.9h1.6v5.5h-2.2v-3.7h-8.8v3.7h-2.2v-5.5Zm2.6,0h5.8v-8.9h-3.9l-.1,3A11.77,11.77,0,0,1,1723.49,102.74Zm20.2-10.9h2.2v12.7h-2.2v-9.2l-5.8,9.2h-2.2V91.84h2.2v9.3Zm15.1,1.8h-4.3v10.9h-2.2V93.64h-4.2v-1.8h10.6l.1,1.8Zm6.4,11.1a5.73,5.73,0,0,1-4.2-1.7,6.05,6.05,0,0,1-1.6-4.5v-.4a7.39,7.39,0,0,1,.7-3.4,5.68,5.68,0,0,1,2-2.3,4.79,4.79,0,0,1,2.8-.8,4.85,4.85,0,0,1,3.9,1.6,7.12,7.12,0,0,1,1.4,4.7v.9h-8.6a4.08,4.08,0,0,0,1.1,3,3.34,3.34,0,0,0,2.7,1.1,4.23,4.23,0,0,0,2-.5,5.26,5.26,0,0,0,1.4-1.2l1.3,1A5.6,5.6,0,0,1,1765.19,104.74Zm-.3-11.4a2.7,2.7,0,0,0-2.2,1,4.2,4.2,0,0,0-1.1,2.7h6.3v-.2a4.72,4.72,0,0,0-.9-2.6A2.58,2.58,0,0,0,1764.89,93.34Zm18.1-1.5v12.7h-2.2V93.64h-4.3l-.3,4.7a10.09,10.09,0,0,1-1.1,4.7,3.2,3.2,0,0,1-2.8,1.5h-.9v-1.9h.6a1.85,1.85,0,0,0,1.5-1.2,14.13,14.13,0,0,0,.6-4.1l.2-5.4,8.7-.1Zm13.2,0v12.7H1794v-4.9h-3.3l-3,4.9h-2.3l3.2-5.3a4.5,4.5,0,0,1-1.9-1.4,4.1,4.1,0,0,1-.7-2.2,3.29,3.29,0,0,1,1.3-2.8,5.42,5.42,0,0,1,3.5-1.1h5.4Zm-7.9,3.9a2,2,0,0,0,.6,1.5,2.35,2.35,0,0,0,1.7.6h3.4v-4.2h-3.1a2.88,2.88,0,0,0-1.9.6A1.68,1.68,0,0,0,1788.29,95.74Zm18.7,5.9,4.3-9.8h2.7v12.7h-2.2v-9.2l-4.1,9.2h-1.5l-4.2-9.4v9.4h-2.2V91.84h2.8Zm10.4,1.7a1.22,1.22,0,0,1,.3-.9,1.45,1.45,0,0,1,2,0,1.8,1.8,0,0,1,.4.9,1,1,0,0,1-.4.9,1.53,1.53,0,0,1-1,.4,1.16,1.16,0,0,1-1-.4A1.9,1.9,0,0,1,1817.39,103.34Zm.1-10.3a1.22,1.22,0,0,1,.3-.9,1.16,1.16,0,0,1,1-.4,1.05,1.05,0,0,1,1,.4,1.8,1.8,0,0,1,.4.9,1,1,0,0,1-.4.9,1.53,1.53,0,0,1-1,.4,1.16,1.16,0,0,1-1-.4A1.61,1.61,0,0,1,1817.49,93Zm18,2.3h4.8v2.1h-4.8v5.4h-2.2v-5.4h-4.8v-2.1h4.8v-5h2.2Zm18.2-6.7-7.1,15.8h-2.3l7.1-15.3h-9.2v-1.8h11.5Zm8.5,8.9a17,17,0,0,1,.7-5.1A16.25,16.25,0,0,1,1865,88a8.45,8.45,0,0,1,2.9-2.8l.4,1.4a9.52,9.52,0,0,0-2.8,4,18.82,18.82,0,0,0-1.2,6v1a18,18,0,0,0,1.7,7.9,9.81,9.81,0,0,0,2.4,3.1l-.4,1.3a10.1,10.1,0,0,1-3-2.9A16.4,16.4,0,0,1,1862.19,97.54Zm11.3-2.6h1.6a3.65,3.65,0,0,0,2.4-.8,2.58,2.58,0,0,0,.9-2.1,2.65,2.65,0,0,0-3-3,3.57,3.57,0,0,0-2.3.8,2.52,2.52,0,0,0-.8,2.1h-2.2a4.33,4.33,0,0,1,1.5-3.4,5.49,5.49,0,0,1,3.8-1.3,5.17,5.17,0,0,1,3.8,1.3,4.74,4.74,0,0,1,1.4,3.6,3.81,3.81,0,0,1-.7,2.2,4.6,4.6,0,0,1-2,1.6,4.35,4.35,0,0,1,2.2,1.5,4.15,4.15,0,0,1,.8,2.5,4.61,4.61,0,0,1-1.5,3.6,6.5,6.5,0,0,1-7.8,0,4.33,4.33,0,0,1-1.5-3.4h2.2a2.94,2.94,0,0,0,.9,2.2,3.65,3.65,0,0,0,2.4.8,3.46,3.46,0,0,0,2.4-.8,2.92,2.92,0,0,0,.8-2.4,2.87,2.87,0,0,0-.9-2.3,4,4,0,0,0-2.6-.8h-1.6v-1.9Zm19.4,3.8h2.4v1.8h-2.4v4h-2.2v-4h-7.8v-1.3l7.6-11.8h2.3l.1,11.3Zm-7.5,0h5.3v-8.4l-.3.5Zm23,5.8h-11.2v-1.6l5.9-6.6a12.19,12.19,0,0,0,1.8-2.4,4.49,4.49,0,0,0,.5-1.9,3.29,3.29,0,0,0-.8-2.2,2.79,2.79,0,0,0-2.2-.9,3.33,3.33,0,0,0-2.5.9,3.57,3.57,0,0,0-.9,2.6h-2.2a5,5,0,0,1,1.5-3.8,5.59,5.59,0,0,1,4.1-1.5,5.32,5.32,0,0,1,3.8,1.3,4.22,4.22,0,0,1,1.4,3.3c0,1.7-1.1,3.7-3.2,6l-4.6,5h8.6v1.8Zm7.6-6.8a16.79,16.79,0,0,1-.7,5,16.25,16.25,0,0,1-2.1,4.4,8.22,8.22,0,0,1-3,2.9l-.4-1.3a9.34,9.34,0,0,0,2.9-4.3,18.84,18.84,0,0,0,1.1-6.5v-.4a22.36,22.36,0,0,0-.5-4.6,14.25,14.25,0,0,0-1.4-3.8,8,8,0,0,0-2.1-2.6l.4-1.3a8.86,8.86,0,0,1,2.9,2.9,16.25,16.25,0,0,1,2.1,4.4A17.18,17.18,0,0,1,1916,97.74Zm20.2,6.8H1925v-1.6l5.9-6.6a12.19,12.19,0,0,0,1.8-2.4,4.49,4.49,0,0,0,.5-1.9,3.29,3.29,0,0,0-.8-2.2,2.79,2.79,0,0,0-2.2-.9,3.33,3.33,0,0,0-2.5.9,3.57,3.57,0,0,0-.9,2.6h-2.2a5,5,0,0,1,1.5-3.8,5.59,5.59,0,0,1,4.1-1.5,5.32,5.32,0,0,1,3.8,1.3,4.22,4.22,0,0,1,1.4,3.3c0,1.7-1.1,3.7-3.2,6l-4.6,5h8.6v1.8Zm9.4,0h-2.2V90l-4.4,1.6v-2l6.2-2.3h.3l.1,17.2Zm17.4-15.9-7.1,15.8h-2.3l7-15.3h-9.2v-1.8h11.5l.1,1.3Zm7.2,9.5h-5.7v-1.8h5.7Zm10.4-10.7v1.8h-.4a5.35,5.35,0,0,0-4,1.5,6,6,0,0,0-1.7,4.1,4.68,4.68,0,0,1,3.7-1.5,4.06,4.06,0,0,1,3.5,1.6A5.94,5.94,0,0,1,1983,99a6.07,6.07,0,0,1-1.4,4.2,4.78,4.78,0,0,1-3.8,1.6,5,5,0,0,1-4-1.9,7.73,7.73,0,0,1-1.5-4.9v-.8a11.63,11.63,0,0,1,2-7.2c1.3-1.7,3.3-2.5,6-2.6Zm-2.8,7.7a3.52,3.52,0,0,0-2.1.7,3.15,3.15,0,0,0-1.3,1.7v.8a5.29,5.29,0,0,0,1,3.4,2.91,2.91,0,0,0,4.7.2,4.23,4.23,0,0,0,.8-2.8,4.65,4.65,0,0,0-.8-2.8A2.68,2.68,0,0,0,1977.79,95.14Zm18.8-6.5-7.1,15.8h-2.3l7-15.3H1985v-1.8h11.5l.1,1.3Zm7.2,9.5h-5.7v-1.8h5.7Zm13.1,6.4h-11.2v-1.6l5.9-6.6a12.19,12.19,0,0,0,1.8-2.4,4.49,4.49,0,0,0,.5-1.9,3.29,3.29,0,0,0-.8-2.2,2.79,2.79,0,0,0-2.2-.9,3.33,3.33,0,0,0-2.5.9,3.57,3.57,0,0,0-.9,2.6h-2.2a5,5,0,0,1,1.5-3.8,5.59,5.59,0,0,1,4.1-1.5,5.32,5.32,0,0,1,3.8,1.3,4.22,4.22,0,0,1,1.4,3.3c0,1.7-1.1,3.7-3.2,6l-4.6,5h8.6v1.8Zm9.4,0h-2.2V90l-4.4,1.6v-2l6.2-2.3h.3l.1,17.2Zm-474.2,24.8,3-9.5h2.3l-5.1,14.6c-.8,2.1-2,3.2-3.8,3.2h-.4l-.8-.2v-1.8h.6a2.86,2.86,0,0,0,1.7-.4,2.77,2.77,0,0,0,1-1.6l.5-1.3-4.5-12.5h2.4Zm16.8,3.2h-2.2v-4.6a9.67,9.67,0,0,1-2.9.4,4.89,4.89,0,0,1-3.6-1.2,4.84,4.84,0,0,1-1.3-3.5v-3.8h2.2v3.9c0,1.9.9,2.8,2.7,2.8a9.25,9.25,0,0,0,2.9-.4v-6.3h2.2v12.7Zm11.6-12.7h2.2v12.7h-2.2v-9.2l-5.8,9.2h-2.2v-12.7h2.2v9.3Zm15.1,1.8h-4.3v10.9h-2.2v-10.9h-4.2v-1.8h10.6l.1,1.8Zm6.4,11.1a5.73,5.73,0,0,1-4.2-1.7,6.05,6.05,0,0,1-1.6-4.5v-.4a7.39,7.39,0,0,1,.7-3.4,5.68,5.68,0,0,1,2-2.3,4.79,4.79,0,0,1,2.8-.8,4.64,4.64,0,0,1,3.8,1.6,7.12,7.12,0,0,1,1.4,4.7v.9h-8.6a4.08,4.08,0,0,0,1.1,3,3.34,3.34,0,0,0,2.7,1.1,4.23,4.23,0,0,0,2-.5,4.07,4.07,0,0,0,1.4-1.2l1.3,1A5.12,5.12,0,0,1,1602,132.74Zm-.2-11.4a2.7,2.7,0,0,0-2.2,1,4.2,4.2,0,0,0-1.1,2.7h6.3v-.2a4.72,4.72,0,0,0-.9-2.6A2.58,2.58,0,0,0,1601.79,121.34Zm18.1-1.5v12.7h-2.2v-10.9h-4.3l-.3,4.7a10.09,10.09,0,0,1-1.1,4.7,3.43,3.43,0,0,1-2.8,1.5h-.9v-1.9h.6a1.85,1.85,0,0,0,1.5-1.2,14.13,14.13,0,0,0,.6-4.1l.2-5.4h8.7v-.1Zm13.2,0v12.7h-2.2v-4.9h-3.3l-3,4.9h-2.4l3.2-5.3a4.5,4.5,0,0,1-1.9-1.4,4.1,4.1,0,0,1-.7-2.2,3.29,3.29,0,0,1,1.3-2.8,5.42,5.42,0,0,1,3.5-1.1h5.5Zm-8,3.9a2,2,0,0,0,.6,1.5,2.35,2.35,0,0,0,1.7.6h3.5v-4.2h-3.1a2.71,2.71,0,0,0-1.9.6A1.76,1.76,0,0,0,1625.09,123.74Zm18.8,5.9,4.3-9.8h2.7v12.7h-2.2v-9.2l-4.1,9.2h-1.5l-4.2-9.4v9.4h-2.2v-12.7h2.8Zm24.6-9.8h2.2v12.7h-2.2v-9.2l-5.8,9.2h-2.2v-12.7h2.2v9.3Zm18.9,9.8,4.3-9.8h2.7v12.7h-2.2v-9.2l-4.1,9.2h-1.5l-4.2-9.4v9.4h-2.2v-12.7h2.8Zm15.8,3.1a5.73,5.73,0,0,1-4.2-1.7,6.05,6.05,0,0,1-1.6-4.5v-.4a7.39,7.39,0,0,1,.7-3.4,5.68,5.68,0,0,1,2-2.3,4.79,4.79,0,0,1,2.8-.8,4.52,4.52,0,0,1,3.8,1.6,7.12,7.12,0,0,1,1.4,4.7v.9h-8.6a4.08,4.08,0,0,0,1.1,3,3.34,3.34,0,0,0,2.7,1.1,3.56,3.56,0,0,0,1.9-.5,5.26,5.26,0,0,0,1.4-1.2l1.3,1A5.06,5.06,0,0,1,1703.19,132.74Zm-.3-11.4a2.7,2.7,0,0,0-2.2,1,4.2,4.2,0,0,0-1.1,2.7h6.3v-.2a4.72,4.72,0,0,0-.9-2.6A2.45,2.45,0,0,0,1702.89,121.34Zm17,.3h-4.3v10.9h-2.2v-10.9h-4.2v-1.8h10.6l.1,1.8Zm1.1,4.4a7.67,7.67,0,0,1,.7-3.4,5.68,5.68,0,0,1,2-2.3,6.11,6.11,0,0,1,3-.8,5.45,5.45,0,0,1,4.2,1.8,6.8,6.8,0,0,1,1.6,4.8v.2a7.25,7.25,0,0,1-.7,3.3,6.42,6.42,0,0,1-2,2.3,6.11,6.11,0,0,1-3,.8,5.45,5.45,0,0,1-4.2-1.8,6.71,6.71,0,0,1-1.6-4.7Zm2.2.3a5.29,5.29,0,0,0,1,3.4,3,3,0,0,0,2.6,1.3,2.93,2.93,0,0,0,2.6-1.3,6.4,6.4,0,0,0,1-3.6,5.29,5.29,0,0,0-1-3.4,3.25,3.25,0,0,0-5.2,0A5.34,5.34,0,0,0,1723.19,126.34Zm11.1,4.4.8-.9c.9-1.1,1.3-2.7,1.4-4.9l.2-5.1h8.2v10.9h1.6v5.5h-2.2v-3.7h-8.8v3.7h-2.2v-5.5Zm2.6,0h5.8v-8.9h-3.9l-.1,3A11.77,11.77,0,0,1,1736.89,130.74Zm20.2-10.9h2.2v12.7h-2.2v-9.2l-5.8,9.2h-2.2v-12.7h2.2v9.3Zm10.7,11.1a2.94,2.94,0,0,0,3-2.5h2.1a3.68,3.68,0,0,1-.8,2.1,5.48,5.48,0,0,1-1.8,1.6,5.53,5.53,0,0,1-6.5-1.1,7,7,0,0,1-1.5-4.7v-.4a7.25,7.25,0,0,1,.7-3.3,4.59,4.59,0,0,1,1.9-2.2,5.57,5.57,0,0,1,3-.8,4.75,4.75,0,0,1,3.5,1.3,5.07,5.07,0,0,1,1.5,3.3h-2.1a3.37,3.37,0,0,0-.9-2,3,3,0,0,0-2.1-.8,3.09,3.09,0,0,0-2.6,1.2,5.51,5.51,0,0,0-.9,3.4v.4a5.51,5.51,0,0,0,.9,3.4A3.31,3.31,0,0,0,1767.79,130.94Zm16.9-9.3h-4.3v10.9h-2.2v-10.9H1774v-1.8h10.6l.1,1.8Zm9.8,10.9a8.57,8.57,0,0,1-.3-1.3,5,5,0,0,1-3.6,1.6,4.5,4.5,0,0,1-3.1-1.1,3.42,3.42,0,0,1-1.2-2.7,3.75,3.75,0,0,1,1.5-3.1,7.23,7.23,0,0,1,4.2-1.1h2.1v-1a2.14,2.14,0,0,0-.7-1.8,2.44,2.44,0,0,0-2-.7,2.88,2.88,0,0,0-1.9.6,1.87,1.87,0,0,0-.8,1.4h-2.2a2.74,2.74,0,0,1,.7-1.8,4.89,4.89,0,0,1,1.8-1.4,7,7,0,0,1,2.5-.5,5,5,0,0,1,3.4,1.1,3.84,3.84,0,0,1,1.3,3v5.8a7.22,7.22,0,0,0,.4,2.8v.2Zm-3.6-1.7a4.14,4.14,0,0,0,1.9-.5,2.91,2.91,0,0,0,1.3-1.4v-2.6h-1.7c-2.7,0-4,.8-4,2.3a1.86,1.86,0,0,0,.7,1.6A2.79,2.79,0,0,0,1790.89,130.84Zm16.1-1.2,4.3-9.8h2.7v12.7h-2.2v-9.2l-4.1,9.2h-1.5l-4.2-9.4v9.4h-2.2v-12.7h2.8Zm10.4,1.7a1.22,1.22,0,0,1,.3-.9,1.45,1.45,0,0,1,2,0,1.8,1.8,0,0,1,.4.9,1,1,0,0,1-.4.9,1.53,1.53,0,0,1-1,.4,1.16,1.16,0,0,1-1-.4A1.9,1.9,0,0,1,1817.39,131.34Zm.1-10.3a1.22,1.22,0,0,1,.3-.9,1.16,1.16,0,0,1,1-.4,1.05,1.05,0,0,1,1,.4,1.8,1.8,0,0,1,.4.9,1,1,0,0,1-.4.9,1.53,1.53,0,0,1-1,.4,1.16,1.16,0,0,1-1-.4A1.61,1.61,0,0,1,1817.49,121Zm18,2.3h4.8v2.1h-4.8v5.4h-2.2v-5.4h-4.8v-2.1h4.8v-5h2.2Zm18.2-6.7-7.1,15.8h-2.3l7.1-15.3h-9.2v-1.8h11.5Zm8.5,8.9a17,17,0,0,1,.7-5.1,16.25,16.25,0,0,1,2.1-4.4,8.45,8.45,0,0,1,2.9-2.8l.4,1.4a9.52,9.52,0,0,0-2.8,4,18.82,18.82,0,0,0-1.2,6v1a18,18,0,0,0,1.7,7.9,9.81,9.81,0,0,0,2.4,3.1l-.4,1.3a10.1,10.1,0,0,1-3-2.9A16.4,16.4,0,0,1,1862.19,125.54Zm11.3-2.6h1.6a3.65,3.65,0,0,0,2.4-.8,2.58,2.58,0,0,0,.9-2.1,2.65,2.65,0,0,0-3-3,3.57,3.57,0,0,0-2.3.8,2.52,2.52,0,0,0-.8,2.1h-2.2a4.33,4.33,0,0,1,1.5-3.4,5.49,5.49,0,0,1,3.8-1.3,5.17,5.17,0,0,1,3.8,1.3,4.74,4.74,0,0,1,1.4,3.6,3.81,3.81,0,0,1-.7,2.2,4.6,4.6,0,0,1-2,1.6,4.35,4.35,0,0,1,2.2,1.5,4.15,4.15,0,0,1,.8,2.5,4.61,4.61,0,0,1-1.5,3.6,6.5,6.5,0,0,1-7.8,0,4.33,4.33,0,0,1-1.5-3.4h2.2a2.94,2.94,0,0,0,.9,2.2,3.65,3.65,0,0,0,2.4.8,3.46,3.46,0,0,0,2.4-.8,2.92,2.92,0,0,0,.8-2.4,2.87,2.87,0,0,0-.9-2.3,4,4,0,0,0-2.6-.8h-1.6v-1.9Zm19.4,3.8h2.4v1.8h-2.4v4h-2.2v-4h-7.8v-1.3l7.6-11.8h2.3l.1,11.3Zm-7.5,0h5.3v-8.4l-.3.5Zm23,5.8h-11.2v-1.6l5.9-6.6a12.19,12.19,0,0,0,1.8-2.4,4.49,4.49,0,0,0,.5-1.9,3.29,3.29,0,0,0-.8-2.2,2.79,2.79,0,0,0-2.2-.9,3.33,3.33,0,0,0-2.5.9,3.57,3.57,0,0,0-.9,2.6h-2.2a5,5,0,0,1,1.5-3.8,5.59,5.59,0,0,1,4.1-1.5,5.32,5.32,0,0,1,3.8,1.3,4.22,4.22,0,0,1,1.4,3.3c0,1.7-1.1,3.7-3.2,6l-4.6,5h8.6v1.8Zm7.6-6.8a16.79,16.79,0,0,1-.7,5,16.25,16.25,0,0,1-2.1,4.4,8.22,8.22,0,0,1-3,2.9l-.4-1.3a9.34,9.34,0,0,0,2.9-4.3,18.84,18.84,0,0,0,1.1-6.5v-.4a22.36,22.36,0,0,0-.5-4.6,14.25,14.25,0,0,0-1.4-3.8,8,8,0,0,0-2.1-2.6l.4-1.3a8.86,8.86,0,0,1,2.9,2.9,16.25,16.25,0,0,1,2.1,4.4A17.18,17.18,0,0,1,1916,125.74Zm20.2,6.8H1925v-1.6l5.9-6.6a12.19,12.19,0,0,0,1.8-2.4,4.49,4.49,0,0,0,.5-1.9,3.29,3.29,0,0,0-.8-2.2,2.79,2.79,0,0,0-2.2-.9,3.33,3.33,0,0,0-2.5.9,3.57,3.57,0,0,0-.9,2.6h-2.2a5,5,0,0,1,1.5-3.8,5.59,5.59,0,0,1,4.1-1.5,5.32,5.32,0,0,1,3.8,1.3,4.22,4.22,0,0,1,1.4,3.3c0,1.7-1.1,3.7-3.2,6l-4.6,5h8.6v1.8Zm5.5-9.6h1.6a3.65,3.65,0,0,0,2.4-.8,2.58,2.58,0,0,0,.9-2.1,2.65,2.65,0,0,0-3-3,3.57,3.57,0,0,0-2.3.8,2.52,2.52,0,0,0-.8,2.1h-2.2a4.33,4.33,0,0,1,1.5-3.4,5.49,5.49,0,0,1,3.8-1.3,5.17,5.17,0,0,1,3.8,1.3,4.65,4.65,0,0,1,.7,5.8,4.6,4.6,0,0,1-2,1.6,4.35,4.35,0,0,1,2.2,1.5,4.15,4.15,0,0,1,.8,2.5,4.61,4.61,0,0,1-1.5,3.6,6.5,6.5,0,0,1-7.8,0,4.33,4.33,0,0,1-1.5-3.4h2.2a2.94,2.94,0,0,0,.9,2.2,3.57,3.57,0,0,0,2.3.8,3.65,3.65,0,0,0,2.4-.8,2.92,2.92,0,0,0,.8-2.4,2.87,2.87,0,0,0-.9-2.3,4,4,0,0,0-2.6-.8h-1.6v-1.9Zm18.8-7.5v1.8h-.4a5.35,5.35,0,0,0-4,1.5,6,6,0,0,0-1.7,4.1,4.68,4.68,0,0,1,3.7-1.5,4.06,4.06,0,0,1,3.5,1.6,5.94,5.94,0,0,1,1.3,4.1,6.07,6.07,0,0,1-1.4,4.2,4.64,4.64,0,0,1-3.8,1.6,4.83,4.83,0,0,1-4-1.9,7.73,7.73,0,0,1-1.5-4.9v-.8a11.63,11.63,0,0,1,2-7.2c1.3-1.7,3.3-2.5,6-2.6Zm-2.9,7.7a3.52,3.52,0,0,0-2.1.7,3.15,3.15,0,0,0-1.3,1.7v.8a5.29,5.29,0,0,0,1,3.4,2.91,2.91,0,0,0,4.7.2,4.28,4.28,0,0,0,.9-2.8,4.1,4.1,0,0,0-.9-2.8A2.47,2.47,0,0,0,1957.59,123.14Zm12.6,3h-5.7v-1.8h5.7Zm12.2-6.2a3.69,3.69,0,0,1-.7,2.3,5.48,5.48,0,0,1-1.8,1.6,4.43,4.43,0,0,1,2.1,1.7,4.38,4.38,0,0,1,.8,2.5,4.26,4.26,0,0,1-1.5,3.5,5.58,5.58,0,0,1-3.9,1.3,5.42,5.42,0,0,1-3.9-1.3,4.54,4.54,0,0,1-1.5-3.5,4.38,4.38,0,0,1,.8-2.5,5.1,5.1,0,0,1,2.1-1.7,4.64,4.64,0,0,1-1.8-1.6,4.53,4.53,0,0,1,.7-5.7,5.27,5.27,0,0,1,3.6-1.3,4.84,4.84,0,0,1,3.6,1.3A4,4,0,0,1,1982.39,119.94Zm-1.7,7.9a3,3,0,0,0-.9-2.3,3.65,3.65,0,0,0-4.8,0,3.17,3.17,0,0,0-.9,2.3,3,3,0,0,0,.9,2.3,3.19,3.19,0,0,0,2.4.8,3.65,3.65,0,0,0,2.4-.8A3,3,0,0,0,1980.69,127.84Zm-3.3-10.8a3.23,3.23,0,0,0-2.1.8,2.9,2.9,0,1,0,4.2,0A2.78,2.78,0,0,0,1977.39,117Zm9.2,6.9.9-8.5h8.7v2h-6.9l-.5,4.7a5.3,5.3,0,0,1,2.8-.7,4.68,4.68,0,0,1,3.7,1.5,6.07,6.07,0,0,1,1.4,4.2,6.25,6.25,0,0,1-1.4,4.2,5.35,5.35,0,0,1-4,1.5,5.24,5.24,0,0,1-3.7-1.3,5,5,0,0,1-1.6-3.5h2.1a3.49,3.49,0,0,0,1,2.2,3.23,3.23,0,0,0,2.2.7,3,3,0,0,0,2.4-1,4.1,4.1,0,0,0,.9-2.8,3.83,3.83,0,0,0-.9-2.7,3,3,0,0,0-2.5-1,3.4,3.4,0,0,0-2.2.6l-.6.5Zm17.2,2.2h-5.7v-1.8h5.7Zm10.4-10.7v1.8h-.4a5.35,5.35,0,0,0-4,1.5,6,6,0,0,0-1.7,4.1,4.68,4.68,0,0,1,3.7-1.5,4.38,4.38,0,0,1,3.6,1.6,5.94,5.94,0,0,1,1.3,4.1,6.07,6.07,0,0,1-1.4,4.2,4.78,4.78,0,0,1-3.8,1.6,4.83,4.83,0,0,1-4-1.9,7.73,7.73,0,0,1-1.5-4.9v-.8a11.63,11.63,0,0,1,2-7.2c1.3-1.7,3.3-2.5,6-2.6Zm-2.9,7.7a3.52,3.52,0,0,0-2.1.7,3.71,3.71,0,0,0-1.3,1.7v.8a5.93,5.93,0,0,0,.9,3.4,2.71,2.71,0,0,0,2.4,1.3,2.84,2.84,0,0,0,2.3-1.1,4.23,4.23,0,0,0,.8-2.8,4.65,4.65,0,0,0-.8-2.8A2.23,2.23,0,0,0,2011.29,123.14Zm15,9.4h-2.2V118l-4.4,1.6v-2l6.2-2.3h.3l.1,17.2Zm-345.5,26.2.8-.9a8.92,8.92,0,0,0,1.4-4.9l.2-5.1h8.2v10.9h1.6v5.5h-2.2v-3.7H1682v3.7h-2.2v-5.5Zm2.6,0h5.8v-8.9h-3.9l-.1,3A10.09,10.09,0,0,1,1683.39,158.74Zm20.2-10.9h2.2v12.7h-2.2v-9.2l-5.8,9.2h-2.2v-12.7h2.2v9.3Zm16.4,6.5a7.69,7.69,0,0,1-1.3,4.7,4.28,4.28,0,0,1-3.6,1.8,4.47,4.47,0,0,1-3.6-1.5v6.1h-2.2v-17.6h2l.1,1.4a4.86,4.86,0,0,1,7.3.1,7.42,7.42,0,0,1,1.3,4.8Zm-2.2-.3a5.71,5.71,0,0,0-.9-3.4,2.91,2.91,0,0,0-2.5-1.2,3.4,3.4,0,0,0-3,1.7v6.1a3.11,3.11,0,0,0,3,1.7,3,3,0,0,0,2.5-1.2A6.1,6.1,0,0,0,1717.79,154Zm10.2,6.7a5.73,5.73,0,0,1-4.2-1.7,6.05,6.05,0,0,1-1.6-4.5v-.4a7.39,7.39,0,0,1,.7-3.4,5.68,5.68,0,0,1,2-2.3,4.79,4.79,0,0,1,2.8-.8,4.52,4.52,0,0,1,3.8,1.6,7.12,7.12,0,0,1,1.4,4.7v.9h-8.6a4.08,4.08,0,0,0,1.1,3,3.34,3.34,0,0,0,2.7,1.1,3.56,3.56,0,0,0,1.9-.5,5.26,5.26,0,0,0,1.4-1.2l1.3,1A5.06,5.06,0,0,1,1728,160.74Zm-.3-11.4a2.7,2.7,0,0,0-2.2,1,4.2,4.2,0,0,0-1.1,2.7h6.3v-.2a4.72,4.72,0,0,0-.9-2.6A2.34,2.34,0,0,0,1727.69,149.34Zm11.7,5.8h-1.6v5.4h-2.2v-12.7h2.2v5.4h1.4l4.3-5.4h2.6l-5,6.1,5.4,6.6h-2.8Zm18.5-5.5h-4.3v10.9h-2.2v-10.9h-4.2v-1.8h10.6l.1,1.8Zm1,4.4a7.67,7.67,0,0,1,.7-3.4,5.68,5.68,0,0,1,2-2.3,6.11,6.11,0,0,1,3-.8,5.45,5.45,0,0,1,4.2,1.8,6.8,6.8,0,0,1,1.6,4.8v.2a7.25,7.25,0,0,1-.7,3.3,5.59,5.59,0,0,1-2,2.3,6.11,6.11,0,0,1-3,.8,5.45,5.45,0,0,1-4.2-1.8,6.71,6.71,0,0,1-1.6-4.7Zm2.2.3a5.29,5.29,0,0,0,1,3.4,3,3,0,0,0,2.6,1.3,2.93,2.93,0,0,0,2.6-1.3,5.7,5.7,0,0,0,1-3.6,5.29,5.29,0,0,0-1-3.4,3.25,3.25,0,0,0-5.2,0A5.34,5.34,0,0,0,1761.09,154.34Zm22.8,0a7.69,7.69,0,0,1-1.3,4.7,4.28,4.28,0,0,1-3.6,1.8,4.47,4.47,0,0,1-3.6-1.5v6.1h-2.2v-17.6h2l.1,1.4a4.86,4.86,0,0,1,7.3.1,7.42,7.42,0,0,1,1.3,4.8Zm-2.2-.3a5.71,5.71,0,0,0-.9-3.4,2.91,2.91,0,0,0-2.5-1.2,3.13,3.13,0,0,0-2.9,1.7v6.1a3.11,3.11,0,0,0,3,1.7,3,3,0,0,0,2.5-1.2A7,7,0,0,0,1781.69,154Zm12.8,6.5a8.57,8.57,0,0,1-.3-1.3,5,5,0,0,1-3.6,1.6,4.5,4.5,0,0,1-3.1-1.1,3.42,3.42,0,0,1-1.2-2.7,3.75,3.75,0,0,1,1.5-3.1,7.23,7.23,0,0,1,4.2-1.1h2.1v-1a2.14,2.14,0,0,0-.7-1.8,2.44,2.44,0,0,0-2-.7,2.88,2.88,0,0,0-1.9.6,1.87,1.87,0,0,0-.8,1.4h-2.2a2.74,2.74,0,0,1,.7-1.8,4.89,4.89,0,0,1,1.8-1.4,7,7,0,0,1,2.5-.5,5,5,0,0,1,3.4,1.1,3.84,3.84,0,0,1,1.3,3v5.8a7.22,7.22,0,0,0,.4,2.8v.2Zm-3.6-1.7a4.14,4.14,0,0,0,1.9-.5,2.91,2.91,0,0,0,1.3-1.4v-2.6h-1.7c-2.7,0-4,.8-4,2.3a1.86,1.86,0,0,0,.7,1.6A2.79,2.79,0,0,0,1790.89,158.84Zm16.1-1.2,4.3-9.8h2.7v12.7h-2.2v-9.2l-4.1,9.2h-1.5l-4.2-9.4v9.4h-2.2v-12.7h2.8Zm10.4,1.7a1.22,1.22,0,0,1,.3-.9,1.45,1.45,0,0,1,2,0,1.8,1.8,0,0,1,.4.9,1,1,0,0,1-.4.9,1.53,1.53,0,0,1-1,.4,1.16,1.16,0,0,1-1-.4A1.9,1.9,0,0,1,1817.39,159.34Zm.1-10.3a1.22,1.22,0,0,1,.3-.9,1.16,1.16,0,0,1,1-.4,1.05,1.05,0,0,1,1,.4,1.8,1.8,0,0,1,.4.9,1,1,0,0,1-.4.9,1.53,1.53,0,0,1-1,.4,1.16,1.16,0,0,1-1-.4A1.61,1.61,0,0,1,1817.49,149Zm18,2.3h4.8v2.1h-4.8v5.4h-2.2v-5.4h-4.8v-2.1h4.8v-5h2.2Zm18.2-6.7-7.1,15.8h-2.3l7.1-15.3h-9.2v-1.8h11.5Zm8.5,8.9a17,17,0,0,1,.7-5.1,16.25,16.25,0,0,1,2.1-4.4,8.45,8.45,0,0,1,2.9-2.8l.4,1.4a9.52,9.52,0,0,0-2.8,4,18.82,18.82,0,0,0-1.2,6v1a18,18,0,0,0,1.7,7.9,9.81,9.81,0,0,0,2.4,3.1l-.4,1.3a10.1,10.1,0,0,1-3-2.9A16.4,16.4,0,0,1,1862.19,153.54Zm16.4-.5a6.53,6.53,0,0,1-1.6,1.3,4.94,4.94,0,0,1-4.7-.2,4.7,4.7,0,0,1-1.7-2,7.17,7.17,0,0,1-.6-2.9,6.43,6.43,0,0,1,.7-3.1,5.31,5.31,0,0,1,1.8-2.1,5.07,5.07,0,0,1,2.8-.7,4.71,4.71,0,0,1,4,1.9,8.24,8.24,0,0,1,1.5,5.2v.6c0,3.3-.7,5.7-2,7.3a7.46,7.46,0,0,1-5.9,2.3h-.4v-1.9h.4a5.64,5.64,0,0,0,4.1-1.4A6.05,6.05,0,0,0,1878.59,153Zm-3.3,0a3.06,3.06,0,0,0,2-.7,3.15,3.15,0,0,0,1.3-1.7v-.9a6.27,6.27,0,0,0-.9-3.5,2.67,2.67,0,0,0-2.3-1.3,2.84,2.84,0,0,0-2.3,1.1,4.37,4.37,0,0,0-.9,2.9,5.22,5.22,0,0,0,.8,2.9A2.68,2.68,0,0,0,1875.29,153Zm19.2.2a10,10,0,0,1-1.3,5.7,4.78,4.78,0,0,1-4.1,1.9,4.53,4.53,0,0,1-4-1.8c-.9-1.2-1.3-3-1.4-5.4v-2.9c0-2.5.4-4.4,1.3-5.6a4.71,4.71,0,0,1,4.1-1.8,4.84,4.84,0,0,1,4.1,1.8c.9,1.2,1.3,3,1.3,5.4Zm-2.2-3a8,8,0,0,0-.8-4,2.69,2.69,0,0,0-2.4-1.3,2.51,2.51,0,0,0-2.4,1.3,7.58,7.58,0,0,0-.8,3.9v3.5a8.73,8.73,0,0,0,.8,4.1,2.93,2.93,0,0,0,4.8.1,7.58,7.58,0,0,0,.8-3.9Zm16.1,10.3h-11.2v-1.6l5.9-6.6a12.19,12.19,0,0,0,1.8-2.4,4.49,4.49,0,0,0,.5-1.9,3.29,3.29,0,0,0-.8-2.2,2.79,2.79,0,0,0-2.2-.9,3.33,3.33,0,0,0-2.5.9,3.57,3.57,0,0,0-.9,2.6h-2.2a5,5,0,0,1,1.5-3.8,5.59,5.59,0,0,1,4.1-1.5,5.32,5.32,0,0,1,3.8,1.3,4.22,4.22,0,0,1,1.4,3.3c0,1.7-1.1,3.7-3.2,6l-4.6,5h8.6v1.8Zm7.6-6.8a16.79,16.79,0,0,1-.7,5,16.25,16.25,0,0,1-2.1,4.4,8.22,8.22,0,0,1-3,2.9l-.4-1.3a9.34,9.34,0,0,0,2.9-4.3,18.84,18.84,0,0,0,1.1-6.5v-.4a22.36,22.36,0,0,0-.5-4.6,14.25,14.25,0,0,0-1.4-3.8,8,8,0,0,0-2.1-2.6l.4-1.3a8.86,8.86,0,0,1,2.9,2.9,16.25,16.25,0,0,1,2.1,4.4A17.18,17.18,0,0,1,1916,153.74Zm20-9.1-7.1,15.8h-2.3l7.1-15.3h-9.2v-1.8H1936Zm10.8,8.4a5.09,5.09,0,0,1-1.6,1.3,4.94,4.94,0,0,1-4.7-.2,5.51,5.51,0,0,1-1.7-2,7.17,7.17,0,0,1-.6-2.9,7.79,7.79,0,0,1,.6-3.1,4.84,4.84,0,0,1,1.9-2.1,5.07,5.07,0,0,1,2.8-.7,4.71,4.71,0,0,1,4,1.9,8.24,8.24,0,0,1,1.5,5.2v.6c0,3.3-.7,5.7-2,7.3a7.46,7.46,0,0,1-5.9,2.3h-.4v-1.9h.5a5.64,5.64,0,0,0,4.1-1.4A6.5,6.5,0,0,0,1946.79,153Zm-3.3,0a3.06,3.06,0,0,0,2-.7,3.56,3.56,0,0,0,1.3-1.7v-.9a6.27,6.27,0,0,0-.9-3.5,2.67,2.67,0,0,0-2.3-1.3,3,3,0,0,0-2.3,1.1,4.37,4.37,0,0,0-.9,2.9,5.22,5.22,0,0,0,.8,2.9A2.68,2.68,0,0,0,1943.49,153Zm9.5-1.1.9-8.5h8.8v2h-6.9l-.5,4.7a5.3,5.3,0,0,1,2.8-.7,4.68,4.68,0,0,1,3.7,1.5,6.07,6.07,0,0,1,1.4,4.2,6.25,6.25,0,0,1-1.4,4.2,6,6,0,0,1-7.7.2,4.65,4.65,0,0,1-1.6-3.5h2a3.49,3.49,0,0,0,1,2.2,3.23,3.23,0,0,0,2.2.7,3,3,0,0,0,2.4-1,4.1,4.1,0,0,0,.9-2.8,3.83,3.83,0,0,0-.9-2.7,3,3,0,0,0-2.5-1,3.59,3.59,0,0,0-2.2.6l-.6.5Zm17.2,2.2h-5.7v-1.8h5.7Zm2.9-2.2.9-8.5h8.7v2h-6.9l-.5,4.7a5.3,5.3,0,0,1,2.8-.7,4.68,4.68,0,0,1,3.7,1.5,6.07,6.07,0,0,1,1.4,4.2,6.25,6.25,0,0,1-1.4,4.2,5.35,5.35,0,0,1-4,1.5,5.24,5.24,0,0,1-3.7-1.3,4.65,4.65,0,0,1-1.6-3.5h2a3.49,3.49,0,0,0,1,2.2,3.23,3.23,0,0,0,2.2.7,3,3,0,0,0,2.4-1,4.1,4.1,0,0,0,.9-2.8,3.83,3.83,0,0,0-.9-2.7,3,3,0,0,0-2.5-1,3.4,3.4,0,0,0-2.2.6l-.6.5Zm19.6,8.6h-2.2V146l-4.4,1.6v-2l6.2-2.3h.3l.1,17.2Zm11.1-6.4h-5.7v-1.8h5.7Zm12.2-6.2a3.69,3.69,0,0,1-.7,2.3,4.64,4.64,0,0,1-1.8,1.6,4.43,4.43,0,0,1,2.1,1.7,4.38,4.38,0,0,1,.8,2.5,4.26,4.26,0,0,1-1.5,3.5,5.58,5.58,0,0,1-3.9,1.3,5.68,5.68,0,0,1-4-1.3,4.54,4.54,0,0,1-1.5-3.5,4.38,4.38,0,0,1,.8-2.5,5.1,5.1,0,0,1,2.1-1.7,4,4,0,0,1-1.8-1.6,4.53,4.53,0,0,1,.7-5.7,5.35,5.35,0,0,1,3.7-1.3,4.84,4.84,0,0,1,3.6,1.3A4,4,0,0,1,2016,147.94Zm-1.7,7.9a3,3,0,0,0-.9-2.3,3.24,3.24,0,0,0-2.4-.9,2.87,2.87,0,0,0-2.3.9,3.17,3.17,0,0,0-.9,2.3,3.37,3.37,0,0,0,.8,2.3,3.19,3.19,0,0,0,2.4.8,3.65,3.65,0,0,0,2.4-.8A3,3,0,0,0,2014.29,155.84ZM2011,145a2.9,2.9,0,1,0,0,5.8,3,3,0,0,0,2.1-.8,3.16,3.16,0,0,0,0-4.2A2.78,2.78,0,0,0,2011,145Zm18.9,8.2a10,10,0,0,1-1.3,5.7,4.78,4.78,0,0,1-4.1,1.9,4.53,4.53,0,0,1-4-1.8c-.9-1.2-1.3-3-1.4-5.4v-2.9c0-2.5.4-4.4,1.3-5.6a4.71,4.71,0,0,1,4.1-1.8,4.84,4.84,0,0,1,4.1,1.8c.9,1.2,1.3,3,1.3,5.4Zm-2.2-3a8,8,0,0,0-.8-4,2.69,2.69,0,0,0-2.4-1.3,2.51,2.51,0,0,0-2.4,1.3,7.58,7.58,0,0,0-.8,3.9v3.5a8.73,8.73,0,0,0,.8,4.1,2.51,2.51,0,0,0,2.4,1.3,2.62,2.62,0,0,0,2.4-1.2,7.58,7.58,0,0,0,.8-3.9Zm-233.3,49.14,5.6,13.9,5.6-13.9h2.9v17.1h-2.3v-6.6l.2-7.2-5.6,13.8h-1.7l-5.6-13.8.2,7.1v6.6h-2.3v-17.1l3,.1Zm26,4.4h2.2v12.7h-2.2v-9.2l-5.8,9.2h-2.2v-12.7h2.2v9.3Zm16,12.7h-2.2v-5.4h-5.8v5.4h-2.2v-12.7h2.2v5.5h5.8v-5.5h2.2Zm10.4-9.2a1.51,1.51,0,0,0-.7-1.4,2.7,2.7,0,0,0-1.9-.5,2.88,2.88,0,0,0-1.9.6,1.87,1.87,0,0,0-.8,1.4h-2.2a3.32,3.32,0,0,1,1.4-2.7,5.62,5.62,0,0,1,3.5-1.1,5.4,5.4,0,0,1,3.5,1,3.16,3.16,0,0,1,1.2,2.7,3,3,0,0,1-.5,1.6,2.49,2.49,0,0,1-1.5,1.1,2.9,2.9,0,0,1,2.2,3,3.37,3.37,0,0,1-1.4,2.8,6.7,6.7,0,0,1-7.2-.1,3.56,3.56,0,0,1-1.4-2.9h2.2a2.25,2.25,0,0,0,.8,1.6,3.77,3.77,0,0,0,2.1.7,3.17,3.17,0,0,0,2-.6,1.9,1.9,0,0,0,.8-1.5,1.75,1.75,0,0,0-.6-1.5,3.44,3.44,0,0,0-2-.5h-2.2v-1.8h2.4C1846.09,209.08,1846.79,208.38,1846.79,207.28Zm5.1,7.4.8-.9a8.92,8.92,0,0,0,1.4-4.9l.2-5.1h8.2v10.9h1.6v5.5h-2.2v-3.7H1853v3.7h-2.2v-5.5Zm2.6,0h5.8v-8.9h-3.9l-.1,3A10.09,10.09,0,0,1,1854.49,214.68Zm22.7-4.4a7.69,7.69,0,0,1-1.3,4.7,4.28,4.28,0,0,1-3.6,1.8,4.47,4.47,0,0,1-3.6-1.5v6.1h-2.2v-17.6h2l.1,1.4a4.86,4.86,0,0,1,7.3.1,7.42,7.42,0,0,1,1.3,4.8Zm-2.1-.3a5.71,5.71,0,0,0-.9-3.4,2.91,2.91,0,0,0-2.5-1.2,3.13,3.13,0,0,0-2.9,1.7v6.1a3.11,3.11,0,0,0,3,1.7,3,3,0,0,0,2.5-1.2A7,7,0,0,0,1875.09,210Zm12.7,6.5a8.57,8.57,0,0,1-.3-1.3,5,5,0,0,1-3.6,1.6,4.5,4.5,0,0,1-3.1-1.1,3.42,3.42,0,0,1-1.2-2.7,3.75,3.75,0,0,1,1.5-3.1,7.23,7.23,0,0,1,4.2-1.1h2.1v-1a2.14,2.14,0,0,0-.7-1.8,2.58,2.58,0,0,0-2-.7,2.88,2.88,0,0,0-1.9.6,1.87,1.87,0,0,0-.8,1.4h-2.2a2.74,2.74,0,0,1,.7-1.8,4.2,4.2,0,0,1,1.8-1.4,7,7,0,0,1,2.5-.5,5,5,0,0,1,3.4,1.1,3.84,3.84,0,0,1,1.3,3v5.8a9.82,9.82,0,0,0,.4,2.8v.2Zm-3.6-1.7a4.14,4.14,0,0,0,1.9-.5,2.91,2.91,0,0,0,1.3-1.4v-2.6h-1.7c-2.7,0-4,.8-4,2.3a1.86,1.86,0,0,0,.7,1.6A2.79,2.79,0,0,0,1884.19,214.78Zm9.1,1.7v-12.7h5a7,7,0,0,1,3.9.9,2.9,2.9,0,0,1,1.4,2.6,3,3,0,0,1-.5,1.6,3.81,3.81,0,0,1-1.6,1.1,2.8,2.8,0,0,1,1.8,1.1,2.49,2.49,0,0,1,.7,1.9,3,3,0,0,1-1.3,2.7,6.18,6.18,0,0,1-3.6.9l-5.8-.1Zm2.1-5.6v3.8h3.6a3.44,3.44,0,0,0,2-.5,1.75,1.75,0,0,0,.7-1.4c0-1.3-.9-1.9-2.8-1.9Zm0-1.7h2.8q3,0,3-1.8c0-1.2-1-1.8-2.9-1.8h-3l.1,3.6Zm30.7,7.3h-2.3v-15.2h-8.4v15.2h-2.3v-17.1H1926v17.1Zm14.5-6.2a7.69,7.69,0,0,1-1.3,4.7,4.28,4.28,0,0,1-3.6,1.8,4.47,4.47,0,0,1-3.6-1.5v6.1h-2.2v-17.6h2l.1,1.4a4.86,4.86,0,0,1,7.3.1,7.42,7.42,0,0,1,1.3,4.8Zm-2.2-.3a5.71,5.71,0,0,0-.9-3.4,2.91,2.91,0,0,0-2.5-1.2,3.4,3.4,0,0,0-3,1.7v6.1a3.36,3.36,0,0,0,5.5.5A6.1,6.1,0,0,0,1938.39,210Zm13.1-6.2h2.2v12.7h-2.2v-9.2l-5.8,9.2h-2.2v-12.7h2.2v9.3Zm9.6,7.3h-1.6v5.4h-2.2v-12.7h2.2v5.4h1.4l4.3-5.4h2.6l-5,6.1,5.4,6.6h-2.8Zm16.9,5.4a8.57,8.57,0,0,1-.3-1.3,5,5,0,0,1-3.6,1.6,4.5,4.5,0,0,1-3.1-1.1,3.42,3.42,0,0,1-1.2-2.7,3.75,3.75,0,0,1,1.5-3.1,7.36,7.36,0,0,1,4.3-1.1h2.1v-1a2.14,2.14,0,0,0-.7-1.8,2.58,2.58,0,0,0-2-.7,2.88,2.88,0,0,0-1.9.6,1.87,1.87,0,0,0-.8,1.4h-2.2a2.74,2.74,0,0,1,.7-1.8,4.2,4.2,0,0,1,1.8-1.4,7,7,0,0,1,2.5-.5,5,5,0,0,1,3.4,1.1,3.84,3.84,0,0,1,1.3,3v5.8a9.82,9.82,0,0,0,.4,2.8v.2Zm-3.6-1.7a4.14,4.14,0,0,0,1.9-.5,3.48,3.48,0,0,0,1.3-1.4v-2.6h-1.7c-2.7,0-4,.8-4,2.3a1.86,1.86,0,0,0,.7,1.6A2.79,2.79,0,0,0,1974.39,214.78Zm16.1-1.2,4.3-9.8h2.7v12.7h-2.2v-9.2l-4.1,9.2h-1.5l-4.2-9.4v9.4h-2.2v-12.7h2.8Zm12.9-5.4h3.3a5.14,5.14,0,0,1,3.4,1.1,3.84,3.84,0,0,1,1.3,3,3.54,3.54,0,0,1-1.3,3,4.91,4.91,0,0,1-3.5,1.1h-5.4v-12.7h2.2Zm0,1.7v4.8h3.2a2.88,2.88,0,0,0,1.9-.6,2.41,2.41,0,0,0,0-3.4,2.14,2.14,0,0,0-1.8-.7h-3.3v-.1Zm20.3-6.1v12.7h-2.2v-4.9h-3.3l-3,4.9h-2.3l3.2-5.3a4.5,4.5,0,0,1-1.9-1.4,4.1,4.1,0,0,1-.7-2.2,3.29,3.29,0,0,1,1.3-2.8,5.42,5.42,0,0,1,3.5-1.1h5.4Zm-7.9,3.9a2,2,0,0,0,.6,1.5,2.35,2.35,0,0,0,1.7.6h3.5v-4.2h-3.1a2.71,2.71,0,0,0-1.9.6A1.56,1.56,0,0,0,2015.79,207.68Zm11.3,7.6a1.22,1.22,0,0,1,.3-.9,1.45,1.45,0,0,1,2,0,1.8,1.8,0,0,1,.4.9,1,1,0,0,1-.4.9,1.53,1.53,0,0,1-1,.4,1.16,1.16,0,0,1-1-.4A1.9,1.9,0,0,1,2027.09,215.28Zm.1-10.3a1.22,1.22,0,0,1,.3-.9,1.16,1.16,0,0,1,1-.4,1.05,1.05,0,0,1,1,.4,1.8,1.8,0,0,1,.4.9,1,1,0,0,1-.4.9,1.53,1.53,0,0,1-1,.4,1.16,1.16,0,0,1-1-.4A1.61,1.61,0,0,1,2027.19,205Zm-191.7,30.3h4.8v2.1h-4.8v5.4h-2.2v-5.4h-4.8v-2.1h4.8v-5h2.2Zm18.2-6.7-7.1,15.8h-2.3l7.1-15.3h-9.2v-1.8h11.5Zm8.5,8.9a17,17,0,0,1,.7-5.1,16.25,16.25,0,0,1,2.1-4.4,8.45,8.45,0,0,1,2.9-2.8l.4,1.4a9.52,9.52,0,0,0-2.8,4,18.82,18.82,0,0,0-1.2,6v1a18,18,0,0,0,1.7,7.9,9.81,9.81,0,0,0,2.4,3.1l-.4,1.3a10.1,10.1,0,0,1-3-2.9A16.4,16.4,0,0,1,1862.19,237.48Zm11.3-2.6h1.6a3.65,3.65,0,0,0,2.4-.8,2.58,2.58,0,0,0,.9-2.1,2.65,2.65,0,0,0-3-3,3.57,3.57,0,0,0-2.3.8,2.52,2.52,0,0,0-.8,2.1h-2.2a4.33,4.33,0,0,1,1.5-3.4,5.49,5.49,0,0,1,3.8-1.3,5.17,5.17,0,0,1,3.8,1.3,4.74,4.74,0,0,1,1.4,3.6,3.81,3.81,0,0,1-.7,2.2,4.6,4.6,0,0,1-2,1.6,4.35,4.35,0,0,1,2.2,1.5,4.15,4.15,0,0,1,.8,2.5,4.61,4.61,0,0,1-1.5,3.6,6.5,6.5,0,0,1-7.8,0,4.33,4.33,0,0,1-1.5-3.4h2.2a2.94,2.94,0,0,0,.9,2.2,3.65,3.65,0,0,0,2.4.8,3.46,3.46,0,0,0,2.4-.8,2.92,2.92,0,0,0,.8-2.4,2.87,2.87,0,0,0-.9-2.3,4,4,0,0,0-2.6-.8h-1.6v-1.9Zm19.4,3.8h2.4v1.8h-2.4v4h-2.2v-4h-7.8v-1.3l7.6-11.8h2.3l.1,11.3Zm-7.5,0h5.3v-8.4l-.3.5Zm23,5.8h-11.2v-1.6l5.9-6.6a12.19,12.19,0,0,0,1.8-2.4,4.49,4.49,0,0,0,.5-1.9,3.29,3.29,0,0,0-.8-2.2,2.79,2.79,0,0,0-2.2-.9,3.33,3.33,0,0,0-2.5.9,3.57,3.57,0,0,0-.9,2.6h-2.2a5,5,0,0,1,1.5-3.8,5.59,5.59,0,0,1,4.1-1.5,5.32,5.32,0,0,1,3.8,1.3,4.22,4.22,0,0,1,1.4,3.3c0,1.7-1.1,3.7-3.2,6l-4.6,5h8.6v1.8Zm7.6-6.8a16.79,16.79,0,0,1-.7,5,16.25,16.25,0,0,1-2.1,4.4,8.22,8.22,0,0,1-3,2.9l-.4-1.3a9.34,9.34,0,0,0,2.9-4.3,18.84,18.84,0,0,0,1.1-6.5v-.4a22.36,22.36,0,0,0-.5-4.6,14.25,14.25,0,0,0-1.4-3.8,8,8,0,0,0-2.1-2.6l.4-1.3a8.86,8.86,0,0,1,2.9,2.9,16.25,16.25,0,0,1,2.1,4.4A17.18,17.18,0,0,1,1916,237.68Zm20.2,6.8H1925v-1.6l5.9-6.6a12.19,12.19,0,0,0,1.8-2.4,4.49,4.49,0,0,0,.5-1.9,3.29,3.29,0,0,0-.8-2.2,2.79,2.79,0,0,0-2.2-.9,3.33,3.33,0,0,0-2.5.9,3.57,3.57,0,0,0-.9,2.6h-2.2a5,5,0,0,1,1.5-3.8,5.59,5.59,0,0,1,4.1-1.5,5.32,5.32,0,0,1,3.8,1.3,4.22,4.22,0,0,1,1.4,3.3c0,1.7-1.1,3.7-3.2,6l-4.6,5h8.6v1.8Zm3.3-8.6.9-8.5h8.7v2h-6.9l-.5,4.7a5.3,5.3,0,0,1,2.8-.7,4.68,4.68,0,0,1,3.7,1.5,6.07,6.07,0,0,1,1.4,4.2,6.25,6.25,0,0,1-1.4,4.2,6,6,0,0,1-7.7.2,4.65,4.65,0,0,1-1.6-3.5h2a3.49,3.49,0,0,0,1,2.2,3.23,3.23,0,0,0,2.2.7,3,3,0,0,0,2.4-1,4.1,4.1,0,0,0,.9-2.8,3.83,3.83,0,0,0-.9-2.7,3,3,0,0,0-2.5-1,3.59,3.59,0,0,0-2.2.6l-.6.5Zm22.8-4a3.69,3.69,0,0,1-.7,2.3,4,4,0,0,1-1.8,1.6,4.43,4.43,0,0,1,2.1,1.7,4.38,4.38,0,0,1,.8,2.5,4.26,4.26,0,0,1-1.5,3.5,6.1,6.1,0,0,1-3.9,1.3,5.42,5.42,0,0,1-3.9-1.3,4.54,4.54,0,0,1-1.5-3.5,4.38,4.38,0,0,1,.8-2.5,5.1,5.1,0,0,1,2.1-1.7,4.64,4.64,0,0,1-1.8-1.6,4.53,4.53,0,0,1,.7-5.7,5.27,5.27,0,0,1,3.6-1.3,4.84,4.84,0,0,1,3.6,1.3A4,4,0,0,1,1962.29,231.88Zm-1.7,7.9a3,3,0,0,0-.9-2.3,3.65,3.65,0,0,0-4.8,0,3.17,3.17,0,0,0-.9,2.3,3,3,0,0,0,.9,2.3,3.19,3.19,0,0,0,2.4.8,3.65,3.65,0,0,0,2.4-.8A3,3,0,0,0,1960.59,239.78Zm-3.3-10.8a3.23,3.23,0,0,0-2.1.8,2.9,2.9,0,1,0,4.2,0A3,3,0,0,0,1957.29,229Zm12.9,9.1h-5.7v-1.8h5.7Zm12.6-.9a10,10,0,0,1-1.3,5.7,4.78,4.78,0,0,1-4.1,1.9,4.53,4.53,0,0,1-4-1.8c-.9-1.2-1.3-3-1.4-5.4v-2.9c0-2.5.4-4.4,1.3-5.6a4.71,4.71,0,0,1,4.1-1.8,4.84,4.84,0,0,1,4.1,1.8c.9,1.2,1.3,3,1.3,5.4Zm-2.2-3a8,8,0,0,0-.8-4,2.75,2.75,0,0,0-2.5-1.3,2.51,2.51,0,0,0-2.4,1.3,7.84,7.84,0,0,0-.8,3.9v3.5a8.73,8.73,0,0,0,.8,4.1,2.51,2.51,0,0,0,2.4,1.3,2.62,2.62,0,0,0,2.4-1.2,7.58,7.58,0,0,0,.8-3.9l.1-3.7Zm16-5.6-7.1,15.8h-2.3l7-15.3H1985v-1.8h11.5l.1,1.3Zm7.2,9.5h-5.7v-1.8h5.7Zm12.2-6.2a3.69,3.69,0,0,1-.7,2.3,4.64,4.64,0,0,1-1.8,1.6,4.43,4.43,0,0,1,2.1,1.7,4.38,4.38,0,0,1,.8,2.5,4.26,4.26,0,0,1-1.5,3.5,5.58,5.58,0,0,1-3.9,1.3,5.68,5.68,0,0,1-4-1.3,4.54,4.54,0,0,1-1.5-3.5,4.38,4.38,0,0,1,.8-2.5,5.1,5.1,0,0,1,2.1-1.7,4,4,0,0,1-1.8-1.6,4.53,4.53,0,0,1,.7-5.7,5.35,5.35,0,0,1,3.7-1.3,4.84,4.84,0,0,1,3.6,1.3A4,4,0,0,1,2016,231.88Zm-1.7,7.9a3,3,0,0,0-.9-2.3,3.24,3.24,0,0,0-2.4-.9,2.87,2.87,0,0,0-2.3.9,3.17,3.17,0,0,0-.9,2.3,3.37,3.37,0,0,0,.8,2.3,3.19,3.19,0,0,0,2.4.8,3.65,3.65,0,0,0,2.4-.8A3,3,0,0,0,2014.29,239.78ZM2011,229a2.9,2.9,0,1,0,0,5.8,3,3,0,0,0,2.1-.8,3.16,3.16,0,0,0,0-4.2A2.78,2.78,0,0,0,2011,229Zm19.2-.4-7.1,15.8h-2.3l7-15.3h-9.2v-1.8h11.5l.1,1.3Z"/></g></g></svg>