<svg width="120" height="120" viewBox="0 0 120 120" fill="none" xmlns="http://www.w3.org/2000/svg">
<path d="M0 60C0 93.1319 26.8681 120 60 120C93.1319 120 120 93.1319 120 60C120 26.8681 93.1319 0 60 0C26.8681 0 0 26.8681 0 60Z" fill="white"/>
<path d="M2.30768 59.9999C2.30768 28.1867 28.1868 2.47241 59.8351 2.47241C91.6483 2.47241 117.363 28.3515 117.363 59.9999C117.363 91.8131 91.4835 117.527 59.8351 117.527C28.1868 117.527 2.30768 91.8131 2.30768 59.9999ZM5.10988 59.9999C5.10988 90.3296 29.8352 114.89 60 114.89C90.3297 114.89 114.89 90.1647 114.89 59.9999C114.89 29.6702 90.1648 5.10977 60 5.10977C29.6703 5.10977 5.10988 29.6702 5.10988 59.9999Z" fill="#69B044"/>
<path d="M76 18H44V44H18L18 76H44V102H76V76H102V44H76V18Z" fill="#69B044"/>
</svg>
