<svg width="39" height="24" viewBox="0 0 39 24" fill="none" xmlns="http://www.w3.org/2000/svg">
<g clip-path="url(#clip0)">
<circle r="8.75854" transform="matrix(4.37114e-08 1 1 -4.37114e-08 9.75854 14.9199)" fill="#9F730C"/>
<circle r="8.75854" transform="matrix(4.37114e-08 1 1 -4.37114e-08 10.196 14.0288)" fill="#EBEBEB"/>
<circle r="7.86784" transform="matrix(4.37114e-08 1 1 -4.37114e-08 10.2008 14.0292)" fill="#CD7224"/>
<circle r="7.12559" transform="matrix(4.37114e-08 1 1 -4.37114e-08 10.2008 14.0289)" fill="#F3DC35"/>
<path d="M10.7432 13.8083H13.3203V14.9192H10.7432V17.8391H9.5625V14.9192H6.98535V13.8083H9.5625V11.1106H10.7432V13.8083Z" fill="#CD7224"/>
<path d="M15.1061 5.91398C14.1933 6.07946 13.2168 6.07166 12.8426 6.04707C12.6433 6.22186 11.979 6.75128 10.9172 7.47064C9.85528 8.19 8.21742 7.80992 7.53123 7.52997C8.25364 6.54404 9.84798 4.4411 10.4461 3.91673C11.1938 3.26128 15.8497 1.03072 17.2713 0.842298C18.6928 0.653879 26.4397 2.85397 28.0681 3.80649C29.6965 4.75901 34.6431 13.1164 35.8414 14.1816C36.8 15.0337 37.0868 14.792 37.9348 14.7538L38.6836 22.9896C37.8226 22.5102 35.3701 22.2111 33.3053 22.7518C30.7244 23.4277 25.2041 21.6558 24.3807 21.3198C23.5573 20.9839 20.6773 21.922 19.8169 22.1473C19.1287 22.3275 15.1214 22.1205 12.3527 22.0795C12.3958 21.4247 12.5199 20.8222 13.4917 19.7588C14.7064 18.4294 18.3729 18.3885 20.2247 18.0874C21.706 17.8466 22.7803 17.0811 23.2726 16.7376C23.4031 16.1825 23.7049 14.8777 23.8688 14.0994C24.0298 13.3345 24.9139 11.964 25.1927 11.5318L25.2069 11.5098C24.6702 11.0987 23.2608 9.96077 22.2121 8.76451C21.3731 7.8075 19.7961 6.73888 19.7271 6.35856C19.3967 6.38382 18.601 6.34093 18.0618 5.96729C17.5227 5.59366 16.951 5.00181 16.7325 4.75259C16.5707 5.07077 16.0188 5.74849 15.1061 5.91398Z" fill="#E4A883" stroke="#666666" stroke-width="0.2"/>
<path d="M15.6316 6.49431C14.7188 6.6598 13.7423 6.652 13.3682 6.62741C13.1688 6.8022 12.5046 7.33162 11.4427 8.05098C10.3808 8.77033 8.74294 8.39026 8.05675 8.11031C8.77916 7.12438 10.3735 5.02144 10.9716 4.49707C11.7193 3.84162 16.3752 1.61106 17.7968 1.42264C19.2184 1.23422 26.9652 3.43431 28.5936 4.38683C30.222 5.33935 35.523 12.5927 36.7213 13.6578C37.6799 14.51 38.1468 14.6466 38.9948 14.6083L38.9949 23.4714C37.4388 23.3322 35.8956 22.7914 33.8309 23.3322C31.2499 24.0081 25.7296 22.2361 24.9062 21.9002C24.0828 21.5642 21.2028 22.5023 20.3425 22.7276C19.6542 22.9079 13.9448 22.8709 11.1761 22.8298C11.2191 22.175 11.5481 20.5996 12.5199 19.5361C13.7346 18.2068 17.4011 18.1659 19.2528 17.8648C20.7342 17.6239 22.0891 16.8769 22.5814 16.5334C22.7119 15.9783 23.0137 14.6735 23.1776 13.8952C23.3415 13.1168 23.9055 12.1111 24.167 11.7055C23.6303 11.2945 22.3472 10.2331 21.5083 9.2761C20.6693 8.31909 20.3216 7.31922 20.2527 6.9389C19.9222 6.96416 19.1265 6.92126 18.5874 6.54763C18.0482 6.174 17.4765 5.58215 17.258 5.33293C17.0962 5.65111 16.5443 6.32883 15.6316 6.49431Z" fill="#FEBF96" stroke="#313131" stroke-width="0.5" stroke-linejoin="round"/>
</g>
<defs>
<clipPath id="clip0">
<rect width="39" height="24" fill="white"/>
</clipPath>
</defs>
</svg>
