<svg width="159" height="67" viewBox="0 0 159 67" fill="none" xmlns="http://www.w3.org/2000/svg">
<path d="M28.0923 0C12.5785 0 0 12.8761 0 28.7569C0 44.6378 12.5785 57.5139 28.0923 57.5139C43.6061 57.5139 56.1846 44.6378 56.1846 28.7569C56.1846 12.8761 43.6061 0 28.0923 0ZM28.0923 50.9487C16.1211 50.9487 6.41348 41.0114 6.41348 28.7569C6.41348 16.5025 16.1211 6.56521 28.0923 6.56521C40.0635 6.56521 49.7712 16.5025 49.7712 28.7569C49.7712 41.0208 40.0635 50.9487 28.0923 50.9487Z" transform="translate(0.364258 0.719727)" fill="#FC2767"/>
<path fill-rule="evenodd" clip-rule="evenodd" d="M1.60083 11.1333C1.60083 9.56982 1.88599 8.10986 2.44727 6.75342C3.00854 5.40674 3.79077 4.21973 4.7937 3.22119C5.79663 2.21338 6.99292 1.43164 8.38232 0.856934C9.77173 0.291992 11.3083 0 12.9832 0C14.6394 0 16.167 0.282715 17.5747 0.856934C18.9734 1.42236 20.1787 2.21338 21.1909 3.22119C22.2031 4.229 22.9851 5.40674 23.5557 6.75342C24.1169 8.10059 24.4023 9.56055 24.4023 11.1333C24.4023 12.6973 24.1169 14.1572 23.5557 15.5137C22.9944 16.8604 22.2031 18.0474 21.1909 19.0459C20.1787 20.0537 18.9734 20.8354 17.5747 21.4102C16.176 21.9751 14.6394 22.2671 12.9832 22.2671C11.3083 22.2671 9.77173 21.9844 8.38232 21.4102C6.99292 20.8447 5.79663 20.0537 4.7937 19.0459C3.79077 18.0381 3.00854 16.8604 2.44727 15.5137C1.87695 14.1572 1.60083 12.6973 1.60083 11.1333ZM7.19531 11.1333C7.19531 11.9717 7.35181 12.7441 7.65552 13.4507C7.96826 14.1572 8.38232 14.7788 8.91602 15.2969C9.44043 15.8149 10.0571 16.2197 10.7563 16.5117C11.4556 16.8037 12.2009 16.9453 12.9832 16.9453C13.7654 16.9453 14.5105 16.8037 15.21 16.5117C15.9092 16.2197 16.5256 15.8149 17.0686 15.2969C17.6023 14.7788 18.0256 14.1572 18.3384 13.4507C18.6514 12.7441 18.7986 11.9717 18.7986 11.1333C18.7986 10.2954 18.6421 9.52295 18.3384 8.81641C18.0256 8.10986 17.6023 7.49756 17.0686 6.97021C16.5349 6.45215 15.9092 6.04736 15.21 5.75537C14.5105 5.46338 13.7654 5.32178 12.9832 5.32178C12.2009 5.32178 11.4556 5.46338 10.7563 5.75537C10.0571 6.04736 9.44043 6.45215 8.91602 6.97021C8.3916 7.48828 7.96826 8.10986 7.65552 8.81641C7.35181 9.52295 7.19531 10.2954 7.19531 11.1333ZM37.6802 11.5571H34.4045V21.6733H29.4631V11.5571H26.1875V7.3374H37.6895V11.5571H37.6802ZM54.5374 7.32812H49.2649L45.1702 13.0835V7.32812H40.229V21.6641H45.1702V15.9375L49.6238 21.6641H55.2734L48.9888 14.2041L54.5374 7.32812ZM61.6042 28.832H56.6631V7.32812H61.6042V8.91992C62.6626 7.56348 64.0979 6.87598 65.9199 6.87598C66.9229 6.87598 67.8521 7.07373 68.717 7.479C69.582 7.88379 70.3367 8.4209 70.9714 9.11768C71.6064 9.80518 72.1033 10.6152 72.4622 11.5479C72.821 12.4805 72.9958 13.479 72.9958 14.5435C72.9958 15.6074 72.821 16.5967 72.4622 17.5103C72.1033 18.4238 71.6155 19.2246 70.99 19.9121C70.3643 20.5996 69.6189 21.146 68.7632 21.5322C67.9075 21.9277 66.978 22.1162 65.9751 22.1162C64.2268 22.1162 62.7729 21.5039 61.6042 20.27V28.832ZM67.8245 14.5435C67.8245 14.1006 67.751 13.6768 67.5945 13.2715C67.438 12.8667 67.2173 12.5181 66.9229 12.2261C66.6284 11.9248 66.2878 11.689 65.9014 11.5103C65.5059 11.3311 65.0825 11.2466 64.6316 11.2466C64.1992 11.2466 63.7852 11.3311 63.3987 11.501C63.0122 11.6704 62.6809 11.9058 62.4048 12.1978C62.1196 12.499 61.8987 12.8477 61.7239 13.2432C61.5491 13.6484 61.4663 14.0723 61.4663 14.5151C61.4663 14.9575 61.5491 15.3813 61.7148 15.7773C61.8804 16.1729 62.1104 16.5117 62.3958 16.7944C62.6902 17.0864 63.0305 17.3125 63.417 17.4917C63.8127 17.6704 64.2268 17.7554 64.6592 17.7554C65.0918 17.7554 65.5059 17.6704 65.8923 17.501C66.2788 17.3315 66.6099 17.0957 66.886 16.8037C67.1711 16.5024 67.3921 16.1636 67.5669 15.7676C67.7417 15.3813 67.8245 14.9766 67.8245 14.5435ZM80.0166 11.5762V7.32812H75.0754V21.6831H82.584C83.4766 21.6831 84.2585 21.5513 84.9304 21.2876C85.6113 21.0239 86.1816 20.647 86.6418 20.1665C87.1018 19.6768 87.4514 19.1021 87.6907 18.4429C87.9299 17.7837 88.0496 17.0396 88.0496 16.2197C88.0496 14.7036 87.6172 13.5542 86.7429 12.7632C85.8689 11.9717 84.5898 11.5762 82.9153 11.5762H80.0166ZM81.9307 18.0376H80.0166V15.2495H81.9307C82.915 15.2495 83.4028 15.7017 83.4028 16.6157C83.4028 17.5669 82.915 18.0376 81.9307 18.0376ZM94.6931 21.6738V7.32812H89.752V21.6738H94.6931ZM108.771 11.5571H105.495V21.6733H100.554V11.5571H97.2783V7.3374H108.78V11.5571H108.771ZM126.733 6.88574H121.764H121.755V8.30811C120.604 7.05518 119.16 6.43359 117.411 6.43359C116.372 6.43359 115.424 6.63135 114.568 7.03662C113.712 7.44141 112.976 7.98779 112.36 8.67529C111.743 9.36279 111.265 10.1729 110.915 11.0962C110.575 12.019 110.4 12.9893 110.4 14.0161C110.4 15.1182 110.575 16.1353 110.934 17.0679C111.292 18.0005 111.789 18.8105 112.424 19.498C113.059 20.1953 113.804 20.7227 114.66 21.1089C115.516 21.4951 116.455 21.6831 117.476 21.6831C119.279 21.6831 120.706 20.9956 121.764 19.6392V21.2314H126.733V6.88574ZM115.442 15.3159C115.277 14.9204 115.194 14.4775 115.194 14.0161C115.194 13.564 115.277 13.1494 115.442 12.7632C115.608 12.3867 115.829 12.0474 116.114 11.7461C116.399 11.4541 116.73 11.2188 117.126 11.0488C117.513 10.8794 117.945 10.7949 118.396 10.7949C118.829 10.7949 119.243 10.8794 119.638 11.0488C120.034 11.2188 120.365 11.4448 120.65 11.7461C120.927 12.0381 121.156 12.3867 121.331 12.7915C121.506 13.1968 121.589 13.6206 121.589 14.063C121.589 14.5151 121.506 14.9297 121.331 15.3252C121.156 15.7212 120.936 16.0601 120.65 16.3613C120.365 16.6533 120.034 16.8892 119.638 17.0586C119.243 17.228 118.829 17.313 118.396 17.313C117.945 17.313 117.522 17.228 117.126 17.0586C116.73 16.8892 116.399 16.6631 116.114 16.3613C115.829 16.0693 115.608 15.7212 115.442 15.3159ZM132.457 16.3608C131.656 16.0972 131.039 15.5889 130.598 14.8257C130.165 14.0625 129.944 13.1206 129.944 12C129.944 11.2935 130.055 10.6245 130.285 10.0029C130.515 9.38135 130.855 8.83496 131.306 8.38281C131.757 7.93066 132.328 7.56348 132.999 7.29004C133.671 7.01709 134.453 6.88525 135.346 6.88525H142.505V21.231H137.563V16.7568H136.717L134.315 21.231H129.098L132.457 16.3608ZM137.563 10.5776H136.036C135.567 10.5776 135.189 10.7095 134.913 10.9824C134.637 11.2559 134.499 11.623 134.499 12.0845C134.499 12.5649 134.637 12.9512 134.913 13.2148C135.189 13.4883 135.557 13.6201 136.036 13.6201H137.563V10.5776ZM0 47.3315V27.2026H5.11597V42.9043H10.324V42.9121H15.4282V42.9043H20.6392V27.2026H25.7551V47.3315H0ZM15.4219 38.1206H10.3333V27.2026H15.4219V38.1206ZM38.5452 32.9956H43.8176L38.269 39.8716L44.5537 47.3315H38.9041L34.4504 41.605V47.3315H29.5093V32.9956H34.4504V38.751L38.5452 32.9956ZM44.9956 37.0649C44.5815 37.9878 44.3699 38.9771 44.3699 40.0415C44.3699 41.2188 44.5815 42.2832 45.0049 43.2437C45.4189 44.2046 45.9985 45.0337 46.7346 45.7212C47.4707 46.4087 48.345 46.936 49.3662 47.313C50.3877 47.6802 51.4919 47.8687 52.6973 47.8687C53.9211 47.8687 55.053 47.6899 56.1018 47.313C57.1416 46.936 58.0435 46.4087 58.7888 45.7305C59.5339 45.0522 60.1138 44.2422 60.5461 43.3003C60.9788 42.3584 61.1902 41.3223 61.1902 40.1826C61.1902 39.043 60.9788 38.0068 60.5647 37.0649C60.1506 36.123 59.5615 35.313 58.8071 34.6348C58.0525 33.9565 57.1599 33.4292 56.1294 33.043C55.0989 32.6567 53.9856 32.4683 52.78 32.4683C51.5564 32.4683 50.4336 32.6567 49.4031 33.0522C48.3818 33.4478 47.4893 33.9849 46.7439 34.6631C45.9985 35.3413 45.4097 36.1416 44.9956 37.0649ZM49.8447 41.4258C49.6699 41.021 49.5872 40.5781 49.5872 40.0977C49.5872 39.6553 49.6699 39.2314 49.8447 38.8452C50.0195 38.4497 50.2405 38.1104 50.5256 37.8091C50.811 37.5171 51.1423 37.2812 51.5378 37.1118C51.9243 36.9424 52.3477 36.8574 52.78 36.8574C53.2126 36.8574 53.6267 36.9424 54.0222 37.1118C54.418 37.2812 54.7493 37.5073 55.0344 37.8091C55.3105 38.1011 55.5405 38.4497 55.7153 38.8545C55.8901 39.2598 55.9729 39.6836 55.9729 40.126C55.9729 40.5874 55.8901 41.021 55.7153 41.4258C55.5405 41.8218 55.3198 42.1699 55.0344 42.4717C54.7493 42.7637 54.418 42.999 54.0222 43.1685C53.6267 43.3379 53.2126 43.4229 52.78 43.4229C52.3477 43.4229 51.9336 43.3379 51.5378 43.1685C51.1423 42.999 50.811 42.7729 50.5256 42.4717C50.2405 42.1797 50.0195 41.8311 49.8447 41.4258ZM63.3801 43.1777C63.4353 43.1963 63.5181 43.2061 63.6287 43.2061C63.8679 43.2061 64.0703 43.187 64.2542 43.1494C64.4382 43.1118 64.5854 43.0361 64.6868 42.9141C64.7971 42.7915 64.8799 42.6123 64.9353 42.3677C64.9905 42.1226 65.0181 41.812 65.0181 41.4165V33.0049H78.6731V47.3506H73.7319V37.2153H69.9592V41.9722C69.9592 42.9985 69.812 43.8843 69.5083 44.6284C69.2046 45.3726 68.7905 45.9844 68.2661 46.4746C67.7417 46.9546 67.0977 47.3223 66.343 47.5483C65.5884 47.7837 64.7603 47.8965 63.8679 47.8965H63.3801V43.1777ZM97.8401 32.9956H92.8713H92.8621V34.418C91.7119 33.165 90.2671 32.5435 88.5188 32.5435C87.4792 32.5435 86.5312 32.7412 85.6755 33.1465C84.8198 33.5513 84.0837 34.0977 83.4673 34.7852C82.8508 35.4727 82.3723 36.2827 82.0227 37.2061C81.6821 38.1289 81.5073 39.0991 81.5073 40.126C81.5073 41.228 81.6821 42.2451 82.041 43.1777C82.3999 44.1104 82.8967 44.9204 83.5317 45.6079C84.1665 46.3052 84.9119 46.8325 85.7676 47.2188C86.6233 47.605 87.562 47.793 88.5833 47.793C90.3867 47.793 91.813 47.1055 92.8713 45.749V47.3413H97.8401V32.9956ZM86.8994 41.4258C86.7339 41.0303 86.6509 40.5874 86.6509 40.126C86.6509 39.6831 86.7246 39.2686 86.8994 38.873C87.0649 38.4966 87.2859 38.1572 87.571 37.856C87.8564 37.564 88.1877 37.3286 88.5833 37.1587C88.9697 36.9893 89.4023 36.9048 89.853 36.9048C90.2856 36.9048 90.6997 36.9893 91.0955 37.1587C91.491 37.3286 91.8223 37.5547 92.1074 37.856C92.3835 38.1479 92.6135 38.4966 92.7883 38.9014C92.9631 39.3066 93.0461 39.7305 93.0461 40.1729C93.0461 40.625 92.9631 41.0396 92.7883 41.4351C92.6135 41.8311 92.3928 42.1699 92.1074 42.4712C91.8223 42.7632 91.491 42.999 91.0955 43.1685C90.6997 43.3379 90.2856 43.4229 89.853 43.4229C89.4023 43.4229 88.979 43.3379 88.5833 43.1685C88.1877 42.999 87.8564 42.7729 87.571 42.4712C87.2859 42.1792 87.0649 41.8311 86.8994 41.4258Z" transform="translate(15.8596 18.814)" fill="white"/>
</svg>
