<svg xmlns="http://www.w3.org/2000/svg" xmlns:xlink="http://www.w3.org/1999/xlink" viewBox="0 0 70 70"><defs><style>.cls-1,.cls-4,.cls-5,.cls-6{fill:none;}.cls-2{clip-path:url(#clip-path);}.cls-3{fill:#fff;fill-opacity:0.7;}.cls-4,.cls-5,.cls-6{stroke-linecap:round;}.cls-4{stroke-width:1.5px;stroke:url(#Безымянный_градиент_2);}.cls-5,.cls-6{stroke-width:4px;}.cls-5{stroke:url(#Безымянный_градиент_2-2);}.cls-6{stroke:url(#Безымянный_градиент_2-3);}.cls-7{fill:url(#Безымянный_градиент_2-4);}.cls-8{fill:url(#Безымянный_градиент_33);}</style><clipPath id="clip-path" transform="translate(-1.2 -0.89)"><rect class="cls-1" width="72" height="72"/></clipPath><linearGradient id="Безымянный_градиент_2" x1="32.8" y1="55.6" x2="32.8" y2="11.74" gradientTransform="matrix(1, 0, 0, -1, 0, 73.04)" gradientUnits="userSpaceOnUse"><stop offset="0" stop-color="#e397f8"/><stop offset="1" stop-color="#b991e9"/></linearGradient><linearGradient id="Безымянный_градиент_2-2" x1="39.49" y1="47.63" x2="39.49" y2="33.66" xlink:href="#Безымянный_градиент_2"/><linearGradient id="Безымянный_градиент_2-3" x1="44.47" y1="56.1" x2="44.47" y2="36.15" xlink:href="#Безымянный_градиент_2"/><linearGradient id="Безымянный_градиент_2-4" x1="36.2" y1="1.75" x2="36.2" y2="70.02" gradientTransform="matrix(1, 0, 0, 1, 0, 0)" xlink:href="#Безымянный_градиент_2"/><linearGradient id="Безымянный_градиент_33" x1="55.6" y1="51.26" x2="55.6" y2="63.19" gradientUnits="userSpaceOnUse"><stop offset="0" stop-color="#e397f8"/><stop offset="0" stop-color="#df97f7"/><stop offset="0" stop-color="#d495f3"/><stop offset="0" stop-color="#cc94f0"/><stop offset="0" stop-color="#c693ee"/><stop offset="0.04" stop-color="#c392ed"/><stop offset="0.11" stop-color="#c092ec"/><stop offset="0.18" stop-color="#c292ec"/><stop offset="0.83" stop-color="#be92eb"/><stop offset="0.97" stop-color="#bc92ea"/><stop offset="1" stop-color="#b991e9"/></linearGradient></defs><title>иконка телефона10</title><g id="Слой_2" data-name="Слой 2"><g id="Слой_1-2" data-name="Слой 1"><g class="cls-2"><circle class="cls-3" cx="35" cy="35" r="35"/><circle class="cls-3" cx="35" cy="35" r="34.1"/><path class="cls-4" d="M17.7,20l-2.59,2.62A9.13,9.13,0,0,0,13.31,33a54.47,54.47,0,0,0,9.82,14.39C27.94,52.21,34.22,55.91,39,58.4a8.94,8.94,0,0,0,10.43-1.74l2.5-2.53M17.7,20l.38-.38a3,3,0,0,1,4.25,0L27,24.33a3,3,0,0,1,.14,4.06l-.38.44M17.7,20l9.08,8.86m0,0-2.09,2.41a3.61,3.61,0,0,0-.59,4A28.45,28.45,0,0,0,29,42.32a33.48,33.48,0,0,0,6.79,5.06,3.66,3.66,0,0,0,4.36-.6l2.48-2.35m0,0,.16-.14a3,3,0,0,1,4.12,0l5.37,5.19a3,3,0,0,1,0,4.25l-.38.38m-9.33-9.65,9.33,9.65" transform="translate(-1.2 -0.89)"/><path class="cls-5" d="M46.46,39.37a14,14,0,0,0-13.94-14" transform="translate(-1.2 -0.89)"/><path class="cls-6" d="M54.43,36.88A19.92,19.92,0,0,0,34.51,17" transform="translate(-1.2 -0.89)"/></g><path class="cls-7" d="M36.2,70A34.13,34.13,0,1,1,65.68,53a2,2,0,0,1-2.68.71,2,2,0,0,1-.71-2.69,30.13,30.13,0,1,0-7.95,9,2,2,0,1,1,2.36,3.13A33.77,33.77,0,0,1,36.2,70Z" transform="translate(-1.2 -0.89)"/><path class="cls-8" d="M56.67,63.19,54.37,60c1.79-1.29,1.38-2,1.14-2.48a14.12,14.12,0,0,0-4-2.76l1.79-3.5c1.05.54,4.57,2.44,5.62,4.37C59.65,56.9,60.82,60.19,56.67,63.19Z" transform="translate(-1.2 -0.89)"/></g></g></svg>