<svg width="171" height="40" viewBox="0 0 171 40" fill="none" xmlns="http://www.w3.org/2000/svg">
<path d="M44.8699 28.505C44.4119 28.505 44.0439 28.134 44.0439 27.677V7.85298C44.0439 7.39898 44.4119 7.02698 44.8699 7.02698C45.327 7.02698 45.695 7.39898 45.695 7.85298V27.677C45.695 28.134 45.327 28.505 44.8699 28.505Z" fill="#E30F3C"/>
<path d="M109.683 26.529H111.531V35.472H109.683V31.767C108.909 31.997 108.209 32.118 107.476 32.197C107.167 32.244 106.84 32.262 106.539 32.262C104.406 32.262 103.837 31.158 103.837 29.866V26.528H105.672V29.414C105.672 30.132 105.798 30.664 107.292 30.664C108.193 30.664 108.827 30.54 109.683 30.234V26.529V26.529Z" fill="#2F2A85"/>
<path d="M123.898 33.857C122.57 35.43 121.095 35.698 119.578 35.698C115.98 35.698 114.506 33.365 114.506 30.871C114.506 28.188 116.49 26.304 119.52 26.304C123.446 26.304 124.122 29.496 124.016 31.338H116.471C116.426 32.835 117.797 34.1 119.602 34.1C121.096 34.1 122.038 33.489 122.608 32.853L123.898 33.857ZM121.811 29.745C121.602 28.516 120.584 27.822 119.379 27.822C118.047 27.822 117 28.574 116.693 29.745H121.811V29.745Z" fill="#2F2A85"/>
<path d="M141.695 35.473H139.855V26.53H141.695V29.844H146.154V26.53H147.996V35.473H146.154V31.445H141.695V35.473Z" fill="#2F2A85"/>
<path d="M151.199 35.699V26.53H153.041V32.037L159.182 26.306V35.473H157.336V29.887L151.199 35.699Z" fill="#2F2A85"/>
<path d="M162.379 26.529H164.221V30.09H165.1C166.51 30.09 166.596 29.028 166.981 28.046C167.6 26.448 168.417 26.306 169.176 26.306C169.539 26.306 169.805 26.286 170.155 26.448V28.003C170.077 28.003 169.989 27.983 169.915 27.983C169.376 27.983 168.888 27.923 168.499 29.052C168.229 29.769 168.171 30.419 167.349 30.909C168.417 31.36 168.599 32.342 168.949 33.102C169.215 33.675 169.441 33.921 170.137 33.921C170.262 33.921 170.405 33.9 170.528 33.858V35.457C170.262 35.54 169.665 35.7 169.378 35.7C168.013 35.7 167.538 34.474 167.23 33.636C166.498 31.71 166.025 31.693 165.021 31.693H164.224V35.474H162.382V26.529H162.379Z" fill="#2F2A85"/>
<path d="M77.515 9.362C80.32 9.362 82.57 11.367 82.57 14.07C82.57 16.731 80.34 18.756 77.515 18.756C74.154 18.756 72.462 16.135 72.462 14.07C72.462 11.979 74.154 9.362 77.515 9.362ZM77.515 17.161C79.218 17.161 80.606 15.747 80.606 14.07C80.606 12.367 79.218 10.953 77.515 10.953C75.799 10.953 74.424 12.39 74.424 14.07C74.424 15.721 75.779 17.161 77.515 17.161Z" fill="#2F2A85"/>
<path d="M92.257 11.939C91.499 11.245 91.006 10.953 90.109 10.953C88.268 10.953 87.264 12.531 87.264 14.15C87.264 16.014 88.677 17.161 90.355 17.161C90.969 17.161 91.578 16.93 92.423 16.175L93.404 17.444C92.949 17.957 92.031 18.756 90.272 18.756C87.076 18.756 85.321 16.457 85.321 14.13C85.321 11.384 87.448 9.362 90.007 9.362C91.171 9.362 92.443 9.809 93.404 10.832L92.257 11.939Z" fill="#2F2A85"/>
<path d="M102.527 11.939C101.772 11.245 101.281 10.953 100.38 10.953C98.541 10.953 97.533 12.531 97.533 14.15C97.533 16.014 98.947 17.161 100.626 17.161C101.24 17.161 101.851 16.93 102.695 16.175L103.675 17.444C103.225 17.957 102.304 18.756 100.543 18.756C97.345 18.756 95.59 16.457 95.59 14.13C95.59 11.384 97.72 9.362 100.279 9.362C101.442 9.362 102.712 9.809 103.675 10.832L102.527 11.939Z" fill="#2F2A85"/>
<path d="M106.649 18.756V9.58904H108.49V15.093L114.633 9.36304V18.526H112.787V12.943L106.649 18.756Z" fill="#2F2A85"/>
<path d="M117.832 18.756V9.58901H119.674V15.093L125.813 9.36301V18.526H123.969V12.943L117.832 18.756ZM125.855 4.61401C125.466 5.67601 124.421 7.34001 122.193 7.34001C119.959 7.34001 118.935 5.75801 118.509 4.61401H120.163C120.55 5.49201 121.329 6.10701 122.169 6.10701C123.005 6.10701 123.825 5.51201 124.192 4.61401H125.855Z" fill="#2F2A85"/>
<path d="M135.766 11.939C135.01 11.245 134.52 10.953 133.614 10.953C131.774 10.953 130.772 12.531 130.772 14.15C130.772 16.014 132.186 17.161 133.858 17.161C134.477 17.161 135.09 16.93 135.93 16.175L136.91 17.444C136.459 17.957 135.543 18.756 133.777 18.756C130.589 18.756 128.826 16.457 128.826 14.13C128.826 11.384 130.953 9.362 133.514 9.362C134.682 9.362 135.948 9.809 136.91 10.832L135.766 11.939Z" fill="#2F2A85"/>
<path d="M139.881 9.589H141.733V13.147H142.61C144.02 13.147 144.096 12.082 144.487 11.101C145.1 9.503 145.923 9.362 146.676 9.362C147.047 9.362 147.311 9.342 147.664 9.503V11.062C147.578 11.062 147.496 11.039 147.412 11.039C146.883 11.039 146.391 10.977 146.004 12.105C145.736 12.817 145.68 13.475 144.858 13.969C145.922 14.416 146.102 15.399 146.452 16.152C146.72 16.732 146.946 16.974 147.643 16.974C147.762 16.974 147.907 16.954 148.028 16.911V18.51C147.762 18.592 147.167 18.757 146.883 18.757C145.516 18.757 145.037 17.527 144.733 16.689C143.999 14.765 143.526 14.742 142.526 14.742H141.733V18.526H139.881V9.589Z" fill="#2F2A85"/>
<path d="M151.004 18.756V9.58904H152.846V15.093L158.981 9.36304V18.526H157.143V12.943L151.004 18.756Z" fill="#2F2A85"/>
<path d="M162.178 18.756V9.58901H164.024V15.093L170.165 9.36301V18.526H168.321V12.943L162.178 18.756ZM170.203 4.61401C169.818 5.67601 168.773 7.34001 166.543 7.34001C164.309 7.34001 163.287 5.75801 162.859 4.61401H164.513C164.906 5.49201 165.677 6.10701 166.523 6.10701C167.359 6.10701 168.175 5.51201 168.55 4.61401H170.203Z" fill="#2F2A85"/>
<path d="M99.816 26.525L96.846 33.374L93.976 26.525H91.944L95.811 35.367L95.528 35.886C94.933 37.16 94.217 38.015 93.496 38.293C93.1 38.458 92.703 38.514 92.075 38.514H91.712L91.823 40H92.165C93.306 40 94.173 39.75 94.898 39.224C95.827 38.546 96.517 37.326 97.145 36.129L101.497 26.525H99.816Z" fill="#2F2A85"/>
<path d="M135.943 21.258C135.548 23.481 133.461 23.899 132.252 24.099C130.885 24.312 129 24.594 128.906 27.365C129.896 26.651 130.828 26.453 131.719 26.453C135.01 26.453 136.637 28.756 136.637 31.033C136.637 33.414 134.83 35.555 131.686 35.555C127.877 35.555 126.846 32.823 126.846 29.547C126.846 23.004 130.272 22.389 132.274 22.169C133.284 22.053 133.784 21.975 134.241 21.257H135.943V21.258ZM131.82 34.006C133.523 34.006 134.73 32.641 134.73 31.016C134.73 29.586 133.664 28.001 131.8 28.001C129.874 28.001 128.745 29.504 128.745 31.016C128.746 32.682 130.057 34.006 131.82 34.006Z" fill="#2F2A85"/>
<path d="M54.327 0.0770037H54.9551V1.264H55.2611C55.7471 1.264 55.777 0.908004 55.906 0.586004C56.116 0.0500038 56.3981 3.74581e-06 56.6641 3.74581e-06C56.7871 3.74581e-06 56.878 -0.00599625 57.003 0.0500037V0.573004C56.971 0.573004 56.9411 0.559004 56.9151 0.559004C56.7311 0.559004 56.5631 0.546004 56.4291 0.914004C56.3371 1.154 56.3131 1.371 56.034 1.539C56.399 1.687 56.468 2.016 56.583 2.272C56.678 2.463 56.754 2.544 56.994 2.544C57.033 2.544 57.0801 2.535 57.1291 2.522V3.058C57.0321 3.085 56.829 3.14 56.73 3.14C56.257 3.14 56.095 2.73 55.993 2.447C55.74 1.806 55.5761 1.8 55.2271 1.8H54.954V3.066H54.326V0.0770037H54.327Z" fill="#2F2A85"/>
<path d="M61.8591 0C62.8191 0 63.5991 0.671 63.5991 1.569C63.5991 2.463 62.8291 3.14 61.8591 3.14C60.7021 3.14 60.1171 2.262 60.1171 1.569C60.1171 0.875 60.7021 0 61.8591 0ZM61.8591 2.605C62.4381 2.605 62.9191 2.138 62.9191 1.569C62.9191 1.006 62.4381 0.533 61.8591 0.533C61.2641 0.533 60.7921 1.012 60.7921 1.569C60.7921 2.127 61.2581 2.605 61.8591 2.605Z" fill="#2F2A85"/>
<path d="M68.5451 0C69.4561 0 70.1371 0.746 70.1371 1.546C70.1371 2.361 69.4921 3.14 68.4891 3.14C68.0421 3.14 67.6151 2.957 67.2961 2.605V4.522H66.6681V0.077H67.2961V0.534C67.6371 0.172 68.0871 0 68.5451 0ZM68.3541 2.605C69.0351 2.605 69.4681 2.098 69.4681 1.546C69.4681 0.983 68.9491 0.533 68.3301 0.533C67.6631 0.533 67.2951 1.128 67.2951 1.529C67.2961 2.033 67.6841 2.605 68.3541 2.605Z" fill="#2F2A85"/>
<path d="M75.384 0.612026H73.835V3.06503H73.207V0.0770264H76.019V3.06603H75.385V0.612026H75.384Z" fill="#2F2A85"/>
<path d="M80.8271 0C81.7891 0 82.5641 0.671 82.5641 1.569C82.5641 2.463 81.7941 3.14 80.8271 3.14C79.6691 3.14 79.0841 2.262 79.0841 1.569C79.0831 0.875 79.6681 0 80.8271 0ZM80.8271 2.605C81.4101 2.605 81.8901 2.138 81.8901 1.569C81.8901 1.006 81.4111 0.533 80.8271 0.533C80.2321 0.533 79.7611 1.012 79.7611 1.569C79.7601 2.127 80.2241 2.605 80.8271 2.605Z" fill="#2F2A85"/>
<path d="M87.511 0C88.422 0 89.103 0.746 89.103 1.546C89.103 2.361 88.456 3.14 87.458 3.14C87.008 3.14 86.583 2.957 86.261 2.605V4.522H85.629V0.077H86.261V0.534C86.607 0.172 87.055 0 87.511 0ZM87.321 2.605C87.997 2.605 88.434 2.098 88.434 1.546C88.434 0.983 87.915 0.533 87.289 0.533C86.63 0.533 86.261 1.128 86.261 1.529C86.261 2.033 86.65 2.605 87.321 2.605Z" fill="#2F2A85"/>
<path d="M92.501 0.208C92.796 0.106 93.194 0 93.673 0C94.402 0 94.915 0.313 94.915 0.915V3.065H94.287V2.887C94.02 3.032 93.686 3.14 93.291 3.14C92.47 3.14 92.092 2.605 92.092 2.148C92.092 1.786 92.413 1.211 93.418 1.211C93.706 1.211 93.981 1.26 94.287 1.408V1.26C94.287 1 94.291 0.547 93.606 0.547C93.339 0.547 92.962 0.587 92.637 0.731L92.501 0.208ZM93.475 2.605C94.172 2.605 94.288 2.306 94.288 2.151C94.288 1.976 94.064 1.746 93.51 1.746C93.017 1.746 92.762 1.94 92.762 2.151C92.761 2.352 92.944 2.605 93.475 2.605Z" fill="#2F2A85"/>
<path d="M101.551 2.52903V3.96503H100.927V3.06503H98.071V0.0770264H98.697V2.53003H100.28V0.0770264H100.918V2.53003H101.551V2.52903Z" fill="#2F2A85"/>
<path d="M104.428 3.14V0.077H105.056V1.911L107.167 0V3.065H106.539V1.198L104.428 3.14Z" fill="#2F2A85"/>
<path d="M112.76 3.06503H112.127V1.83503H111.83L110.984 3.06503H110.2L111.101 1.83503C110.625 1.73603 110.377 1.35503 110.377 0.984026C110.377 0.577026 110.633 0.0770264 111.58 0.0770264H112.76V3.06503ZM111.574 0.612026C111.367 0.612026 111.044 0.645026 111.044 1.01303C111.044 1.42103 111.392 1.44103 111.627 1.44103H112.127V0.612026H111.574Z" fill="#2F2A85"/>
<path d="M53.4561 27.604V25.829H54.5601V10.736H53.5471V8.96002H56.5461L56.6351 10.144C57.5231 8.93102 59.4141 7.78302 61.8761 7.78302C63.8331 7.78302 65.6381 8.51302 66.9601 9.83102C68.2781 11.147 69.0021 12.935 69.0021 14.875C69.0021 18.762 65.7271 21.96 61.6921 21.921C60.7381 21.91 59.3711 21.608 58.4431 21.082L59.1301 19.33C59.8871 19.707 60.8371 19.971 61.7341 19.971C64.6741 19.971 66.9831 17.732 66.9831 14.874C66.9831 12.047 64.7311 9.83002 61.8561 9.83002C58.9731 9.83002 57.2431 11.669 56.8061 13.483C56.6581 14.503 56.6881 17.955 56.7541 19.961V25.827H59.2961V27.602H53.4561V27.604Z" fill="#E30F3C"/>
<path d="M35.232 17.727C35.232 27.453 27.34 35.342 17.613 35.342C7.888 35.342 0 27.453 0 17.727C0 7.994 7.888 0.112 17.614 0.112C27.34 0.112 35.232 7.994 35.232 17.727ZM17.614 1.849C8.848 1.849 1.74 8.958 1.74 17.727C1.74 26.493 8.848 33.601 17.614 33.601C26.384 33.601 33.49 26.494 33.49 17.727C33.49 8.958 26.384 1.849 17.614 1.849Z" fill="#2F2A85"/>
<path d="M28.3081 14.964L23.7231 23.833L19.3401 15.142H16.8411L22.4181 26.197C21.6881 27.759 20.6511 29.107 19.7711 29.458C19.2851 29.649 18.5941 29.738 17.6041 29.715L17.7191 31.553C19.5991 31.592 20.5991 31.25 21.4901 30.599C22.6381 29.767 23.4891 28.268 24.2651 26.795L30.3711 14.964H28.3081V14.964Z" fill="#2F2A85"/>
<path d="M14.4209 17.868L13.6749 19.782C14.6839 20.351 16.1709 20.682 17.2129 20.693C17.4429 20.693 17.6669 20.68 17.8969 20.667L16.8219 18.54C15.9789 18.47 15.1219 18.22 14.4209 17.868Z" fill="#E30F3C"/>
<path d="M25.18 13.012C25.18 10.904 24.388 8.95502 22.955 7.51702C21.515 6.07702 19.548 5.28802 17.417 5.28802C14.73 5.28802 12.625 6.71502 11.656 8.03702L11.607 6.57302H8.33799V8.50803H9.43999V24.951H8.23999V26.884H14.603V24.951H11.828V18.552C11.762 16.372 11.732 12.614 11.894 11.503C12.367 9.52003 14.248 7.51702 17.389 7.51702C20.525 7.51702 22.978 9.93402 22.978 13.012C22.978 15.185 21.745 17 19.924 17.92L20.894 19.837C23.437 18.552 25.18 15.971 25.18 13.012Z" fill="#E30F3C"/>
</svg>
