<?xml version="1.0" encoding="UTF-8" standalone="no"?>
<!-- Generator: Adobe Illustrator 22.1.0, SVG Export Plug-In . SVG Version: 6.00 Build 0)  -->

<svg
   xmlns:dc="http://purl.org/dc/elements/1.1/"
   xmlns:cc="http://creativecommons.org/ns#"
   xmlns:rdf="http://www.w3.org/1999/02/22-rdf-syntax-ns#"
   xmlns:svg="http://www.w3.org/2000/svg"
   xmlns="http://www.w3.org/2000/svg"
   xmlns:sodipodi="http://sodipodi.sourceforge.net/DTD/sodipodi-0.dtd"
   xmlns:inkscape="http://www.inkscape.org/namespaces/inkscape"
   version="1.1"
   id="Layer_1"
   x="0px"
   y="0px"
   viewBox="0 0 141.7 141.7"
   xml:space="preserve"
   sodipodi:docname="vk.svg"
   width="141.7"
   height="141.7"
   inkscape:version="0.92.4 (5da689c313, 2019-01-14)"><metadata
   id="metadata13"><rdf:RDF><cc:Work
       rdf:about=""><dc:format>image/svg+xml</dc:format><dc:type
         rdf:resource="http://purl.org/dc/dcmitype/StillImage" /></cc:Work></rdf:RDF></metadata><defs
   id="defs11" /><sodipodi:namedview
   pagecolor="#ffffff"
   bordercolor="#666666"
   borderopacity="1"
   objecttolerance="10"
   gridtolerance="10"
   guidetolerance="10"
   inkscape:pageopacity="0"
   inkscape:pageshadow="2"
   inkscape:window-width="1920"
   inkscape:window-height="1018"
   id="namedview9"
   showgrid="false"
   inkscape:zoom="0.8324515"
   inkscape:cx="287.07881"
   inkscape:cy="70.85"
   inkscape:window-x="-8"
   inkscape:window-y="-8"
   inkscape:window-maximized="1"
   inkscape:current-layer="Layer_1" />
<style
   type="text/css"
   id="style2">
	.st0{fill-rule:evenodd;clip-rule:evenodd;fill:#4680C2;}
	.st1{fill-rule:evenodd;clip-rule:evenodd;fill:#FFFFFF;}
</style>
<path
   class="st0"
   d="m 49.1,0 h 43.5 c 39.7,0 49.1,9.4 49.1,49.1 v 43.5 c 0,39.7 -9.4,49.1 -49.1,49.1 H 49.1 C 9.4,141.7 0,132.3 0,92.6 V 49.1 C 0,9.4 9.4,0 49.1,0"
   id="path4"
   inkscape:connector-curvature="0"
   style="clip-rule:evenodd;fill:#4680c2;fill-rule:evenodd" />
<path
   class="st1"
   d="m 116,48.8 c 0.7,-2.2 0,-3.8 -3.1,-3.8 h -10.3 c -2.6,0 -3.8,1.4 -4.5,2.9 0,0 -5.3,12.8 -12.7,21.1 -2.4,2.4 -3.5,3.2 -4.8,3.2 -0.7,0 -1.6,-0.8 -1.6,-3 V 48.7 c 0,-2.6 -0.8,-3.8 -3,-3.8 H 59.8 c -1.6,0 -2.6,1.2 -2.6,2.4 0,2.5 3.7,3.1 4.1,10.1 v 15.2 c 0,3.3 -0.6,3.9 -1.9,3.9 -3.5,0 -12,-12.9 -17.1,-27.6 -1,-2.9 -2,-4 -4.6,-4 H 27.3 c -3,0 -3.5,1.4 -3.5,2.9 0,2.7 3.5,16.3 16.3,34.3 8.5,12.3 20.6,18.9 31.5,18.9 6.6,0 7.4,-1.5 7.4,-4 v -9.3 c 0,-3 0.6,-3.5 2.7,-3.5 1.5,0 4.2,0.8 10.3,6.7 7,7 8.2,10.2 12.1,10.2 h 10.3 c 3,0 4.4,-1.5 3.6,-4.4 -0.9,-2.9 -4.3,-7.1 -8.7,-12.1 -2.4,-2.8 -6,-5.9 -7.1,-7.4 -1.5,-2 -1.1,-2.8 0,-4.6 -0.1,0 12.5,-17.8 13.8,-23.8"
   id="path6"
   inkscape:connector-curvature="0"
   style="clip-rule:evenodd;fill:#ffffff;fill-rule:evenodd" />
</svg>