<?xml version="1.0" encoding="UTF-8" standalone="no"?>
<svg
   xmlns:dc="http://purl.org/dc/elements/1.1/"
   xmlns:cc="http://creativecommons.org/ns#"
   xmlns:rdf="http://www.w3.org/1999/02/22-rdf-syntax-ns#"
   xmlns:svg="http://www.w3.org/2000/svg"
   xmlns="http://www.w3.org/2000/svg"
   xmlns:sodipodi="http://sodipodi.sourceforge.net/DTD/sodipodi-0.dtd"
   xmlns:inkscape="http://www.inkscape.org/namespaces/inkscape"
   inkscape:version="1.0 (4035a4fb49, 2020-05-01)"
   height="80"
   width="356"
   sodipodi:docname="Zoom.svg"
   xml:space="preserve"
   viewBox="0 0 356 80"
   y="0px"
   x="0px"
   id="Layer_1"
   version="1.1"><metadata
   id="metadata46"><rdf:RDF><cc:Work
       rdf:about=""><dc:format>image/svg+xml</dc:format><dc:type
         rdf:resource="http://purl.org/dc/dcmitype/StillImage" /></cc:Work></rdf:RDF></metadata><defs
   id="defs44" /><sodipodi:namedview
   inkscape:current-layer="Layer_1"
   inkscape:window-maximized="0"
   inkscape:window-y="0"
   inkscape:window-x="0"
   inkscape:cy="40"
   inkscape:cx="178"
   inkscape:zoom="1.5"
   showgrid="false"
   id="namedview42"
   inkscape:window-height="728"
   inkscape:window-width="1350"
   inkscape:pageshadow="2"
   inkscape:pageopacity="0"
   guidetolerance="10"
   gridtolerance="10"
   objecttolerance="10"
   borderopacity="1"
   bordercolor="#666666"
   pagecolor="#ffffff" />
<style
   id="style29"
   type="text/css">
	.st0{fill-rule:evenodd;clip-rule:evenodd;fill:#2D8CFF;}
</style>
<g
   transform="translate(-80,-80)"
   id="g39">
	<path
   id="path31"
   d="M 224.3,91.7 C 216.5,83.9 206.3,80 196,80 v 0 c -10.2,0 -20.5,3.9 -28.3,11.7 -15.6,15.6 -15.6,40.9 0,56.6 15.6,15.6 40.9,15.6 56.6,0 15.6,-15.6 15.6,-41 0,-56.6 z M 213,137 c -9.4,9.4 -24.6,9.4 -33.9,0 -9.4,-9.4 -9.4,-24.6 0,-33.9 9.4,-9.4 24.6,-9.4 33.9,0 9.3,9.3 9.3,24.5 0,33.9 z"
   class="st0" />
	<path
   id="path33"
   d="M 308.3,91.7 C 300.5,83.9 290.3,80 280,80 c -10.2,0 -20.5,3.9 -28.3,11.7 -15.6,15.6 -15.6,40.9 0,56.6 15.6,15.6 40.9,15.6 56.6,0 15.6,-15.6 15.6,-41 0,-56.6 z M 297,137 c -9.4,9.4 -24.6,9.4 -33.9,0 -9.4,-9.4 -9.4,-24.6 0,-33.9 9.4,-9.4 24.6,-9.4 33.9,0 9.3,9.3 9.3,24.5 0,33.9 z"
   class="st0" />
	<path
   id="path35"
   d="m 96,159.8 4,0.2 h 60 l -0.2,-4 c -0.5,-6.6 -5.2,-11.4 -11.8,-11.8 l -4,-0.2 h -36 l 48,-48 -0.2,-4 C 155.5,85.4 150.6,80.5 144,80.2 L 140,80 H 80 l 0.2,4 c 0.5,6.5 5.3,11.4 11.8,11.8 l 4,0.2 h 36 l -48,48 0.2,4 c 0.4,6.6 5.2,11.4 11.8,11.8 z"
   class="st0" />
	<path
   id="path37"
   d="m 369.8,104 c 1.4,2.4 1.8,5 2,8 l 0.2,4 v 28 l 0.2,4 c 0.4,6.5 5.2,11.4 11.8,11.8 l 4,0.2 v -44 l 0.2,-4 c 0.2,-3 0.6,-5.7 2,-8.1 2.8,-4.8 7.9,-7.9 13.8,-7.9 5.9,0 11.1,3.2 13.9,8 1.4,2.4 1.8,5.1 1.9,8 l 0.2,4 v 28 l 0.2,4 c 0.4,6.6 5.2,11.4 11.8,11.8 l 4,0.2 v -44 -4 C 436,94.3 421.7,80 404,80 394.4,80 385.9,84.2 380,90.8 374.1,84.2 365.6,80 356,80 349.4,80 343.2,82 338.1,85.5 335,82 328,80 324,80 v 80 l 4,-0.2 c 6.7,-0.4 11.5,-5.2 11.8,-11.8 l 0.2,-4 v -28 l 0.2,-4 c 0.2,-3 0.6,-5.7 2,-8 2.8,-4.8 7.9,-8 13.8,-8 5.9,0 11.1,3.2 13.8,8 z"
   class="st0" />
</g>
</svg>
